<?xml version="1.0" standalone="no"?>
<!DOCTYPE svg PUBLIC "-//W3C//DTD SVG 1.1//EN" "http://www.w3.org/Graphics/SVG/1.1/DTD/svg11.dtd" >
<svg xmlns="http://www.w3.org/2000/svg" xmlns:xlink="http://www.w3.org/1999/xlink" version="1.1">
<metadata>
Created by FontForge 20170924 at Fri Dec  6 13:51:12 2019
 By www-data
Copyright (c) 2019 by Set Sail Studios Ltd. All rights reserved.
</metadata>
<defs>
<font id="LaLuxesScript" horiz-adv-x="560" >
  <font-face 
    font-family="La Luxes Script"
    font-weight="400"
    font-stretch="normal"
    units-per-em="1000"
    panose-1="0 0 0 0 0 0 0 0 0 0"
    ascent="800"
    descent="-200"
    x-height="349"
    cap-height="717"
    bbox="-379.471 -376.786 1316.17 951.143"
    underline-thickness="50"
    underline-position="-100"
    unicode-range="U+000D-F6C3"
  />
<missing-glyph horiz-adv-x="258" 
 />
    <glyph glyph-name="d_d" unicode="dd" horiz-adv-x="506" 
d="M260 662q9 -7 8.5 -20t-5 -28.5t-11 -30t-10.5 -24.5q-33 -71 -70 -136.5t-79 -128.5q-4 -28 -9 -61t-1 -66q2 -10 4 -19t9 -14q20 8 32.5 23t26.5 29q13 16 25 31t24 32q14 34 32 64t49 47q16 6 28 -1t15 -20q20 62 45.5 118.5t58.5 105.5q6 6 10.5 13t15.5 8
q11 -7 7.5 -18.5t-6.5 -19.5q-23 -64 -56 -121t-64 -112q-6 -26 -12.5 -57t-4.5 -63q1 -11 4 -22t12 -16q17 2 29 11t23 20q7 7 18.5 19.5t23.5 25t22.5 23.5t16.5 17q4 5 9.5 10.5l10.5 10.5t10.5 11t13.5 4q1 -2 2 -3t0 -3q1 -5 -2.5 -5.5t-6.5 -0.5q-19 -20 -37 -39.5
t-36 -39.5q-18 -17 -36 -40t-42 -34q-20 -9 -31.5 -0.5t-16.5 25.5t-5 38t3 38q-3 0 -6.5 1t-4.5 3q-10 -11 -19 -23.5t-20 -23.5q-11 -10 -21 -21.5t-30 -11.5l-1 1q-12 3 -13 17.5t1 27.5q-10 -11 -21 -25.5t-23 -26.5q-11 -15 -23 -25q-6 -5 -13.5 -11.5t-17.5 -5.5
q-9 0 -14.5 6t-8.5 15t-4 19.5t-1 19.5q-2 23 -0.5 43t4.5 39q-3 -1 -4.5 -6t-2.5 -10q-2 -2 -5 -2.5t-5 -2.5q-8 -12 -17.5 -23.5t-18.5 -22.5q-5 -4 -11 -10.5t-13 -12.5t-15 -9t-17 1q-7 3 -10.5 13t-2.5 22q2 23 9.5 44t18.5 41q21 41 40.5 55.5t34 11.5t21.5 -19t2 -35
q18 81 41 146t47 112t46 74.5t38 33.5l2 1q8 0 11 -1zM251 649l-6 -4l-6 -4q-15 -14 -33.5 -43t-37 -69t-36 -89t-30.5 -104q34 51 67.5 107t59.5 117q7 17 15 36.5t10 40.5q0 2 1 6t-3 6h-1zM356 366q26 46 50.5 92.5t40.5 100.5q-28 -42 -51 -91t-40 -102zM263 232
q12 13 22.5 27.5t20.5 29.5q2 6 3.5 14.5t1 16.5t-3.5 14.5t-9 6.5q-17 -4 -29 -19.5t-22 -27.5q-1 -2 -0.5 -3t-0.5 -4q-8 -9 -14.5 -20.5t-11.5 -24.5t-9 -28t0 -31q17 8 29 21.5t23 27.5zM55 304q1 8 -1 17.5t-8 8.5q-12 -3 -23 -15.5t-20.5 -28.5t-17 -33t-10.5 -27
q-4 -12 -6.5 -24t2.5 -23q10 4 21 13.5t20.5 20.5t18.5 22.5t15 19.5q-1 14 3.5 25.5t5.5 23.5z" />
    <glyph glyph-name="m_m" unicode="mm" horiz-adv-x="642" 
d="M324 226v0q13 22 25.5 43t25.5 43q7 11 13.5 21.5t13.5 21.5q8 8 13.5 20.5t18.5 14.5q9 -4 6.5 -14t-4.5 -17q-2 -8 -4 -17t-4 -17q-4 -17 -7.5 -35.5t1.5 -37.5q14 7 24 17t20 21t19 22.5t25 16.5q9 -2 9 -11t-1 -19q-1 -15 -1 -31.5t8 -24.5q18 2 31 11t25 18l24 18
t25 18l7.5 5t8.5 -1q2 -5 -3 -8t-8 -5q-23 -17 -39 -30.5t-28 -22.5t-22.5 -13.5t-23.5 -5.5q-11 3 -15.5 12t-5.5 21t0.5 25.5t2.5 24.5q-11 -7 -19.5 -18.5t-19.5 -20.5q-4 -5 -12.5 -14t-18 -14.5t-18 -4t-11.5 17.5q-1 32 5 57t13 50q-11 -14 -21 -31.5t-21 -34.5
t-21 -34.5t-19 -35.5q-4 -5 -6.5 -11t-6.5 -12q-5 -5 -8 -11t-13 -5q-6 6 -6.5 14.5t2 18t5.5 19t4 16.5q-15 -11 -31 -25t-41 -17q-14 6 -18 20.5t-3.5 31.5t3.5 35.5t3 33.5q-8 -4 -20.5 -18t-26.5 -32.5t-28 -37.5t-26 -33q-5 -5 -13 -14t-17 -8q-15 1 -13 30.5t11.5 70
t21.5 82.5t17 68q-12 -9 -21 -21t-17 -25q-29 -41 -49.5 -74t-34 -58t-21.5 -40.5t-12 -22.5q-5 -9 -8.5 -20t-15.5 -13q-5 0 -9 6q-1 14 5 25t11 22t10 22.5t10 23.5q9 17 16.5 35t14.5 30.5t13.5 16.5t14.5 -7q11 17 21.5 32.5t22.5 31.5q5 8 11.5 15.5t11.5 15.5
q4 2 7 6.5t6.5 8t8 6.5t10.5 2q10 -1 8 -20q-1 -9 -3 -17.5t-5.5 -21t-8.5 -30t-11 -44.5q-8 -29 -15 -58.5t-6 -61.5q13 7 25.5 25.5t38.5 50.5q7 11 15 20.5t16 19.5q10 8 17 18t24 11q9 -3 11 -16q0 -14 -2 -30t-3.5 -30.5t-0.5 -27t8 -18.5q25 5 41.5 20.5t32.5 31.5
q1 11 4 20.5t7 17.5q1 4 4 10.5t7 11t8.5 5.5t10.5 -5q1 -17 -5.5 -30.5t-11.5 -27.5q-5 -15 -9.5 -29t-9.5 -29v-1z" />
    <glyph glyph-name="t_t" unicode="tt" horiz-adv-x="507" 
d="M258 522q47 3 92 6.5t93 5.5q17 28 35 56.5t42 51.5q8 8 17.5 14.5t23.5 5.5q0 -1 1 -1q12 -7 11 -22t-8.5 -33t-18 -36.5t-16.5 -30.5q42 2 87.5 3.5t90.5 3.5q4 0 12.5 1.5t17 1.5t15 -2t6.5 -7q0 -6 -6 -8.5t-14 -3.5t-17 -1h-15q-48 -2 -94 -1.5t-92 -2.5
q-10 -12 -18 -25t-22 -34t-37.5 -53.5t-62.5 -84.5q-21 -65 -33 -144q-3 -25 -7 -58.5t0 -65.5q1 -9 3 -19.5t7 -14.5q4 -4 9 -3t6 -6q-1 -11 -11.5 -8.5t-13.5 6.5q-9 8 -13.5 24t-5.5 35.5t0 40t3 35.5q4 38 9 71.5t13 62.5q-35 -43 -71 -87.5t-74 -86.5
q-29 -29 -58 -60.5t-69 -51.5q-13 -7 -29.5 -11t-34.5 2q-17 7 -27 22t-15 34.5t-5.5 42t1.5 44.5q4 45 13.5 85t22.5 75q1 3 -2.5 4t-2.5 6q2 5 6 7t7 6q18 49 39.5 94t46.5 87q-42 -4 -88 -9t-88 -13q-7 -2 -12.5 -3.5t-10.5 -1.5q-8 0 -13.5 4.5t-5.5 9.5q0 8 10.5 13.5
t21.5 3.5q5 -1 7.5 -3.5t6.5 -3.5q45 4 89.5 8.5t89.5 8.5q26 40 52.5 78.5t57.5 73.5q16 17 32 33.5t35 31.5q8 6 17.5 13.5t20 15t22.5 12.5t25 6q26 2 31 -22q-1 -25 -9 -43t-18 -35q-28 -47 -55 -81t-55 -69zM238 519q33 38 64 78.5t57 85.5q10 16 15 32q3 8 6 19.5
t-2 19.5q-5 4 -11 3.5t-11 -2.5q-20 -6 -37 -20t-33 -28q-17 -15 -32 -30t-27 -29q-25 -29 -48.5 -62.5t-38.5 -57.5q-2 -4 -6 -9t-3 -8q27 2 53 4t54 4zM554 645q-29 -20 -48 -49.5t-37 -60.5q11 1 21 1.5t21 0.5q11 22 25 44t20 48q1 3 1.5 7.5t-2.5 8.5h-1zM460 520
q-17 -35 -34 -72.5t-29 -76.5q25 35 50 70.5t48 71.5q2 2 4 4.5t1 4.5q-10 -1 -20 -0.5t-20 -1.5zM246 507q-49 -54 -101 -104.5t-113 -92.5q-14 -32 -24.5 -70t-18.5 -80q-4 -21 -6 -47t1 -50t13 -41.5t30 -21.5q19 1 33.5 6.5t26.5 13.5t23 17.5t22 18.5q25 22 55 56
t61 71t59 72.5t49 62.5q15 55 35.5 104.5t44.5 96.5q-49 -2 -95.5 -5.5t-94.5 -6.5zM122 497q-47 -77 -81 -163q34 24 61.5 48.5t48.5 44.5t34.5 35t19.5 20q2 4 5 6t5 6l6 6q0 2 3 3t0 3q-26 -2 -51.5 -4.5t-50.5 -4.5z" />
    <glyph glyph-name="c_c" unicode="cc" horiz-adv-x="405" 
d="M75 310q0 7 2.5 12t5.5 9.5t4.5 10t-0.5 13.5q-14 5 -24.5 -3t-18.5 -15q-9 -8 -16 -17t-15 -19q-6 -10 -13.5 -23t-12.5 -28t-7 -30.5t4 -31.5q6 -7 15.5 -7t19 3t18.5 8.5t15 8.5q39 22 75.5 48.5t71.5 49.5q13 12 26.5 25t36.5 12q8 -5 12 -10q6 -18 0 -35t-14 -31
q-2 -4 -6.5 -9t-9.5 -5q-8 0 -9 4.5t1 10t5.5 11t4.5 7.5q5 9 9 19t2 21q-17 -2 -27.5 -12t-19.5 -23q-9 -12 -16 -26t-9 -31q-1 -12 2.5 -21.5t12.5 -12.5q16 -6 40 3.5t50 26t51 36.5t45 34q6 3 11.5 10t13.5 4q2 -8 -5.5 -12t-11.5 -10q-9 -6 -30 -23.5t-64 -46.5
q-19 -12 -38.5 -24.5t-44.5 -14.5q-30 -3 -42 17q-6 9 -7 19.5t1 21.5t6 21t8 17q-23 -13 -44.5 -29.5t-43.5 -30.5q-12 -7 -23 -15t-22.5 -15t-25.5 -12t-32 -6q-10 3 -17 9q-11 14 -12.5 31.5t3 35.5t12.5 34.5t17 30.5q14 22 29 39.5t35 27.5q14 7 26 6t19 -8t7 -20
t-9 -31q-3 -5 -6.5 -11t-8.5 -6t-7.5 2.5t-4.5 5.5z" />
    <glyph glyph-name="o_o" unicode="oo" horiz-adv-x="302" 
d="M139 276v0q-23 -11 -44.5 -22.5t-53.5 -12.5l-12 -22t-13.5 -21t-17.5 -17.5t-25 -9.5q0 1 -3 1q-9 5 -12 15t-2 21.5t4.5 23t6.5 19.5q12 34 32.5 65.5t48.5 45.5q9 2 13.5 -2t6.5 -9q-1 -13 -5 -22t-10 -17q2 -17 -1 -31.5t-7 -26.5q34 2 58 15l48 26q9 10 16.5 21
t24.5 14q8 -2 10 -10q0 -5 -3 -7.5t-6 -4.5q5 -10 5.5 -22.5t-1.5 -24.5q27 6 49 15.5t42 23.5q5 2 9 8.5t11 4.5q3 -5 0 -8.5t-5 -5.5q-20 -20 -49 -31t-59 -19q-6 -17 -15.5 -32t-24.5 -22q-2 -1 -5.5 -2t-6.5 -1q-14 0 -18 11t-2.5 25t6.5 27.5t10 19.5v1zM34 325
q-7 -4 -12 -14t-6.5 -21.5t2 -21.5t14.5 -13q4 9 7 20.5t2 22.5q-2 -2 -2.5 -4t-4.5 -2q-4 1 -4 5t2 9t4 9.5t2 7.5q-2 1 -2 1.5t-2 0.5zM163 273q3 -14 21 -14q2 9 3 21t-4 20q-13 -11 -20 -27zM2 277q-8 -14 -15.5 -30t-10.5 -35q-2 -5 -3 -12t4 -12q19 6 30 22t20 33
q-22 9 -25 36q-1 -1 0 -2zM143 210q15 3 23.5 13.5t13.5 24.5q-10 -1 -15.5 3t-10.5 9q-4 -11 -9 -23.5t-2 -26.5z" />
    <glyph glyph-name="o_t" unicode="ot" horiz-adv-x="417" 
d="M445 594q33 2 66.5 2.5t68.5 2.5q23 2 50 2.5t46 -7.5q2 -2 5 -2.5t5 -5.5q4 -8 -3 -10q-5 -2 -7 0.5t-6 4.5q-11 5 -26.5 5h-29.5q-44 1 -90 0t-88 -3q-17 -20 -34 -39.5t-36 -39.5q-6 -6 -13 -12.5t-11 -12.5q-5 -8 -8 -16.5t-8 -17.5q-86 -186 -142 -400
q-10 -39 -19.5 -80t-10.5 -86q3 -4 6.5 -4t3.5 -5q1 -5 -2.5 -7.5t-8.5 -3.5q-12 2 -14 12.5t-2 20.5q0 33 7 64t13 58q26 117 63.5 223t82.5 203l-58 -48t-60.5 -45.5t-66.5 -40t-75 -31.5q-6 -24 -18.5 -46.5t-32.5 -33.5q-5 -4 -16 -4q-1 1 -3 1q-6 2 -11 11q-2 26 7 44
t17 36q-10 15 0.5 29t27.5 14q7 6 12.5 14t19.5 7q6 -3 7.5 -8t-1 -10.5t-6.5 -10t-8 -5.5q2 -5 3.5 -10t1.5 -13q45 13 80.5 34t70.5 44q33 25 64 50.5t60 54.5q14 27 27.5 53.5t29.5 52.5q-75 -2 -146 -9t-144 -12q-9 -1 -18.5 0.5t-10.5 12.5q1 8 6 11t13 3q7 -1 10 -4.5
t8 -5.5q75 2 144 8t144 8q16 24 36.5 53.5t43.5 52.5q4 4 10.5 10t13.5 10.5t14 5t13 -5.5q1 -11 -2 -20t-7 -17t-9 -15t-9 -15l-20 -28zM427 594l40 52t31 61q0 1 -1 1q-29 -23 -51 -53t-42 -62q7 -1 12 0t11 1zM362 518v0q12 11 22.5 23.5t21.5 23.5q1 3 2.5 5t3.5 4
q1 2 3.5 4t0.5 3q-5 1 -10 0t-10 0q-8 -16 -17 -31t-17 -32zM15 286q9 0 14 1q0 13 -3 17q-3 -5 -6 -9t-5 -9zM7 272q-8 -14 -15.5 -27.5t-9.5 -33.5q34 19 46 61h-21z" />
    <glyph glyph-name="r_r" unicode="rr" horiz-adv-x="414" 
d="M356 389v0q-13 -5 -25 -11.5t-24.5 -12t-27 -9t-32.5 -3.5q-14 -20 -27 -39.5t-27.5 -40.5t-33 -44t-43.5 -51q-13 -14 -30.5 -28t-41.5 -15q-7 1 -13 7q-8 12 -6 34q2 19 9 38t16 36.5t17 34.5t13 34q-8 0 -16.5 -2t-16.5 -4t-17 -3t-18 1q-5 -2 -7 -5t-7 -7
q-3 -2 -8.5 -4t-6.5 4q-1 4 3 5t6 3q4 3 5.5 5t3.5 4q-6 8 -7 15q2 28 15.5 44.5t29.5 30.5q5 2 9.5 4t11.5 0q9 -7 6.5 -17.5t-10 -22.5t-17 -24t-15.5 -21q9 -1 17.5 1.5t17.5 4.5t17 2t16 -4q6 -11 1 -21.5t-7 -18.5q-5 -9 -9 -18l-8 -18q-7 -17 -16 -37t-11 -42
q0 -5 0.5 -11.5t4.5 -10.5q20 2 33.5 14t25.5 24q37 37 67.5 79.5t58.5 88.5q-2 3 -4.5 5t-4.5 6t-3.5 10t0.5 17q1 12 6.5 23.5t13.5 22.5q7 11 15.5 20t22.5 8q0 -1 2 -1q9 -6 9 -17t-5 -24.5t-13 -29t-15 -29.5q27 2 49 11.5t42 20.5q6 3 15.5 8t15.5 0q5 -11 0 -21.5
t-9 -18.5q-5 -10 -10.5 -19t-10.5 -17q-15 -28 -30 -63t-27.5 -69.5t-20.5 -65.5t-9 -50q-1 -15 0.5 -21t4 -8.5t5.5 -4t4 -6.5q-1 -6 -5 -7t-8.5 0t-8.5 3.5t-5 5.5q-7 16 -6 39q2 22 7 43.5t11 41.5q18 60 43 114t53 102v1v1zM237 394q-2 -13 3 -19q11 16 21 35.5t12 42.5
q0 1 -1 1q-25 -20 -35 -60zM52 397q-15 -9 -24 -23t-17 -31q1 -5 0 -7.5t1 -5.5q12 14 23.5 30.5t17.5 36.5h-1z" />
    <glyph glyph-name="n_n" unicode="nn" horiz-adv-x="459" 
d="M252 265q8 11 15 20.5t15 18.5q9 8 16.5 18t24.5 11q7 -3 9 -9t2 -13.5t-1 -15.5t-2 -14q-2 -16 -3.5 -32t3.5 -28q12 2 20.5 8.5t16.5 12.5l16 12t16 14q9 5 17 11.5t16 12.5q5 2 10 6t10 7.5t9.5 4.5t8.5 -3q0 -6 -5.5 -8.5t-9.5 -4.5q-8 -6 -19.5 -15t-23.5 -18.5
t-22.5 -18t-16.5 -13.5q-10 -9 -21 -18t-28 -7q-11 5 -14.5 18t-3 28.5t3 32t4.5 28.5q-20 -17 -37.5 -43t-32.5 -52l-7.5 -12.5t-9.5 -12t-10.5 -4.5t-10.5 9q3 23 10 40.5t13 36.5q-17 -20 -34.5 -43t-39.5 -42q-7 -5 -16 -12t-20 -6q-12 1 -17.5 11.5t-7 25.5t-0.5 30.5
t3 27.5q4 27 10 50t11 46q-12 -8 -21.5 -19.5t-19.5 -23.5t-22 -27.5t-23 -30t-19 -25.5t-10 -14q-5 -6 -9.5 -12.5t-9.5 -12t-12 -9.5t-17 -5q-8 4 -9 11.5t1 16.5t6 17.5t7 14.5l12.5 25t11.5 21q9 17 18.5 33.5t20.5 31.5q3 5 6.5 11t10.5 7q11 -2 11.5 -8t-4.5 -15
t-12.5 -20.5t-11.5 -23.5q-2 -2 -4 -2.5t-3 -2.5q-11 -19 -21 -37.5t-19 -38.5q26 29 51.5 61.5t52.5 61.5q10 10 18.5 20t24.5 14q11 -3 11 -15t-5 -31.5t-12 -45t-9 -54.5q-1 -13 1 -30.5t11 -19.5q6 -1 13 3t14 10t13 13t9 11q21 24 42.5 52t41.5 56q2 3 5 9t7 12t8 10.5
t9 4.5q9 0 11 -10q1 -5 -3.5 -11t-6.5 -11q-9 -16 -18 -34.5t-14 -32.5v-1z" />
    <glyph glyph-name="ff_f" unicode="ff" horiz-adv-x="686" 
d="M-24 162q75 20 141.5 47.5t127.5 60.5t117.5 71.5t109.5 79.5q25 51 56 95t70 81q6 5 13.5 10.5t15.5 10.5t17 9t19 -3q6 -8 3 -18.5t-8 -15.5q-4 -8 -9 -14t-10 -13q-32 -37 -67 -70t-73 -64q-27 -53 -49 -109t-39 -119q41 15 83 32t77 31.5t58 25t27 11.5q3 3 7.5 4.5
t8.5 3.5t8 5t8 0q3 -8 -2 -10t-9 -4q-65 -31 -132 -60t-138 -55q-2 -10 -4.5 -20t-5.5 -20q11 -15 16 -38.5t5.5 -50t-3.5 -52.5t-10 -46q-4 -13 -9.5 -24.5t-16.5 -13.5h-2q-13 3 -16 17.5t-3 29.5q-2 49 5 93.5t14 84.5q-3 5 -9.5 7.5t-12.5 4t-11 3t-5 5.5q-1 8 13 12.5
t35 13.5q14 55 31.5 106t40.5 98q-52 -39 -107 -75.5t-115 -68.5t-125.5 -58.5t-138.5 -45.5q-3 -5 -4.5 -11.5t-3.5 -11.5q13 -10 23 -21t17 -27q7 -17 8 -36t-1 -38.5t-7 -38t-11 -33.5q-6 -16 -14 -30.5t-24 -17.5q-15 2 -21 15.5t-9 28.5q-8 50 1 100.5t17 92.5
q-8 4 -20 7.5t-25 4.5q-7 0 -15.5 -1.5t-10.5 6.5q1 8 9.5 7.5t15.5 0.5q14 1 28.5 5t27.5 6q11 32 21.5 64t22.5 63q0 2 -4.5 3.5t-2.5 7.5q1 7 7 8.5t11 4.5q45 103 103 191.5t139 156.5q14 10 28 21t30 20.5t33.5 16.5t38.5 9q23 2 36.5 -8.5t11.5 -35.5q-2 -20 -11 -37
t-19 -33q-11 -16 -22 -30t-21 -26q-35 -39 -73 -74.5t-80 -68.5t-85.5 -63t-94.5 -53q-13 -32 -24.5 -64t-22.5 -66zM392 625q8 14 16.5 31.5t3.5 39.5q-7 13 -33 11q-1 0 -1 -0.5t-1 -0.5q-38 -8 -64.5 -26.5t-52.5 -38.5q-62 -56 -119 -132.5t-107 -190.5q57 30 114 71
t106 84.5t86 84t52 67.5zM649 611q-45 -26 -75 -66.5t-58 -84.5q0 -2 1.5 -0.5l2.5 2.5q4 3 7.5 6t6.5 7l10 8t10 9q25 24 50.5 51t42.5 56q1 2 1 3.5t2 2.5q-1 2 1 4.5t-2 1.5zM364 167q4 -2 8 -3.5t8 -3.5q2 3 2 7t2 8q-5 -2 -10 -3.5t-10 -4.5zM-68 137q5 -1 8 -3t8 -3
q0 3 2 6.5t0 4.5q-5 -2 -10 -2.5t-8 -2.5zM379 -61q11 14 17 37.5t9 48.5q2 26 0 52.5t-11 46.5v1q-8 -42 -15.5 -90t0.5 -96zM-14 -59q5 14 9 29.5t6 30.5q5 37 -4.5 66t-34.5 42v1l-1 -2q-8 -36 -15.5 -77.5t-5.5 -86.5q1 -14 4 -27t12 -20q11 5 18 17.5t12 26.5z" />
    <glyph glyph-name="ss_s" unicode="ss" horiz-adv-x="466" 
d="M241 293q8 -26 20.5 -48t19.5 -50q43 26 84 53.5t83 55.5q5 3 10 9t13 4q1 -8 -6.5 -12.5t-12.5 -8.5q-39 -29 -82.5 -57t-85.5 -57q3 -26 -5 -43.5t-23 -31.5q-11 -10 -25 -18t-29 -11q-7 -2 -14.5 -0.5t-12.5 6.5q-5 7 -2 19t14 23.5t25 22t28 19.5t23 15
q-8 29 -20.5 51.5t-22.5 48.5q-41 -20 -81 -40t-81 -40q12 -17 26 -34.5t15 -45.5q1 -24 -11.5 -43.5t-33 -35t-46.5 -25.5t-52 -14t-48.5 -1.5t-35.5 12.5q-10 8 -12 19.5t1 23.5t9.5 22.5t12.5 18.5q13 15 31 29.5t38 27.5t40 24.5t38 20.5q-5 8 -13 16t-14 16
q-11 14 -14.5 33.5t4.5 38.5q7 15 20 28t29 24q7 5 18.5 11.5t24 10t23.5 2t17 -12.5q2 -14 -4.5 -24t-13.5 -17q-8 -7 -17.5 -14.5t-21.5 -6.5q-3 2 -5 9q0 7 5 9.5t10 5.5q8 5 15 12t11 17q-20 1 -33.5 -8.5t-26.5 -17.5q-12 -10 -22.5 -21t-14.5 -29v-12q5 -21 17 -34
t24 -27q43 21 85.5 41.5t84.5 42.5q-4 21 2.5 37.5t19 28t30 17.5t34.5 7q12 1 22 -3t11 -14q1 -8 -3.5 -14.5t-11 -12.5t-14 -10.5t-11.5 -7.5q-14 -9 -28 -15.5t-28 -14.5zM305 367q-12 -2 -25 -6t-23 -11.5t-15.5 -18.5t-3.5 -26q23 13 46.5 25t36.5 35q-4 2 -8 2h-8z
M-63 132q-21 -14 -42 -38q-4 -5 -9 -11t-8.5 -13.5t-5.5 -15.5t0 -16q3 -12 15 -16.5t26 -6.5q28 -2 53.5 4t47.5 16q20 9 38.5 23.5t26.5 31.5q8 16 6.5 31.5t-8.5 28.5t-17.5 24t-19.5 19q-26 -14 -53 -28.5t-50 -32.5zM241 116q10 8 17 19.5t8 28.5q-2 0 -1 2.5t-1 2.5
l-2 -2q-11 -7 -20.5 -14.5t-19.5 -15.5q-8 -10 -18 -18t-14 -22q16 -2 28.5 5t22.5 14z" />
    <glyph glyph-name="b_r" unicode="br" horiz-adv-x="534" 
d="M-42 118l-1 -1q0 -1 0.5 -0.5t0.5 1.5q12 24 26 46.5t32 41.5q8 10 17.5 19t20.5 17q10 8 22.5 15t29.5 4q6 -3 8.5 -9.5t2.5 -14.5t-2 -16t-5 -14q35 18 68 41t61 50q-12 5 -19.5 15.5t-0.5 25.5q4 9 11.5 18t18 16t22 11t22.5 3q2 -2 4 -2.5t4 -2.5q6 -10 3 -20
t-9.5 -20.5t-16 -20t-16.5 -18.5q5 -2 8.5 -5.5l7.5 -7.5q2 -4 5 -7q7 -16 8 -33.5t-1.5 -35t-6.5 -35t-7 -32.5q-2 -11 -4 -23.5t3 -23.5q11 3 20 9.5t17 13.5q25 22 48 44t48 44q15 15 31.5 29t32.5 28q13 10 25.5 20.5t26.5 19.5q4 2 9 6.5t10 -0.5q0 -8 -5.5 -10
t-10.5 -6q-31 -23 -60 -49t-57 -53q-26 -22 -49 -45.5t-48 -45.5q-8 -7 -18.5 -14t-24.5 -6h-2q-12 6 -13 22t2 36.5t8.5 43.5t7.5 44t-2.5 37.5t-19.5 23.5q-35 -30 -71 -57t-80 -47q-20 -36 -48 -62q-6 -5 -14 -12t-17 -12t-19.5 -7.5t-22.5 2.5q-4 3 -6 10q0 14 6.5 20.5
t12.5 14.5q21 17 45.5 29t49.5 24q5 11 12 25t1 28q-18 -1 -31 -11t-24 -21q-29 -28 -49.5 -60.5t-37.5 -73.5q-2 -3 -3.5 -8t-4 -9t-5 -7t-6.5 -2q-7 1 -7 12t1 16q3 19 8.5 42t12 46t14 45t14.5 40q3 10 7.5 19.5t2.5 16.5q0 3 3 3t2 4q13 35 30 73t37 76t42.5 73t47.5 64
q8 10 17 19.5t19 17.5q9 8 21 16t29 8q13 -4 14.5 -17.5t-4 -30.5t-14.5 -34.5t-17 -28.5q-14 -23 -30 -44l-32 -42q-34 -40 -67 -80.5t-73 -74.5q-16 -44 -31.5 -87t-27.5 -90zM234 631q-5 -1 -7.5 -2.5t-6.5 -3.5q-34 -27 -61 -61.5t-49.5 -73t-42 -80.5t-38.5 -85
q2 -1 3.5 1.5t3.5 4.5q15 16 32 35.5t32.5 38.5t28.5 34.5t20 24.5q20 29 41.5 56.5t36.5 61.5q3 5 5 11l4 12t3.5 13.5t-3.5 12.5h-2zM285 374q-19 -7 -32.5 -18.5t-19.5 -31.5q2 -6 7.5 -8.5t10.5 -6.5q8 6 14 13l12 14q5 8 11 16t4 21q-2 1 -7 1zM73 173q-26 -11 -51 -27
q-11 -7 -22 -15.5t-13 -22.5q17 -2 28 7t22 17q10 9 19 19.5t17 21.5v0z" />
    <glyph glyph-name="p_p" unicode="pp" horiz-adv-x="569" 
d="M-6 196v-1v1q20 33 47 71t56 66q10 9 22.5 19t25.5 14q15 5 24 -2t9 -21q0 -17 -6.5 -31.5t-11.5 -27.5q41 24 83.5 52t77.5 61q4 5 9.5 12.5t11.5 5.5q8 -2 4.5 -10.5t-5.5 -13.5q-16 -36 -26 -59.5t-17.5 -42t-14 -37.5t-16.5 -47q18 24 39.5 50.5t47.5 46.5
q11 9 23.5 16.5t29.5 5.5q10 -5 11 -16t-2 -23t-9 -22.5t-9 -14.5q-9 -17 -20.5 -32t-23.5 -29q24 13 56 31.5t61 35.5t51.5 29.5t27.5 14.5q7 2 14 8t15 1q1 -6 -4 -9t-9 -5l-26 -14t-25 -14q-46 -28 -77.5 -46t-54 -31t-39 -22.5t-31.5 -19.5q-8 -5 -15.5 -11.5
t-15.5 -11.5q-2 -1 -7 -4t-11 -5.5t-11.5 -2.5t-6.5 6q-1 5 3 9t9 6.5t10 4.5t7 4q8 5 16.5 10t16.5 10q27 23 49 52t33 49q5 10 9.5 21.5t1.5 24.5q-12 -1 -24 -8t-23.5 -17t-21.5 -22t-19 -22q-18 -22 -34 -45t-31 -48q-9 -28 -19 -63l-20 -70t-19 -65t-16 -47
q-3 -8 -7 -16t-14 -9q-9 1 -10 12t1 19q11 63 31 116.5t46 102.5q20 66 42 128t49 120h1h-1q-38 -32 -79 -59t-84 -53q-23 -38 -49.5 -71.5t-64.5 -55.5q-6 -2 -15 -3t-13 4q-8 14 -1 27t14 21q8 9 16 17t19 15q19 15 40 28l42 26q10 18 17 38q4 9 7 21t-2 23
q-11 1 -19 -4.5t-16 -10.5q-24 -18 -45.5 -43.5t-40.5 -54t-35 -58t-29 -57.5q-17 -35 -27.5 -75.5t-21.5 -82.5q-15 -60 -27 -128q-2 -10 -2.5 -22.5t-12.5 -14.5q-11 2 -10 11.5t3 17.5q4 26 9.5 52t10.5 49q23 100 52 192.5t65 177.5q-5 -1 -9.5 -7t-12.5 -4
q-6 11 3 17.5t14 12.5q7 7 13.5 14t12.5 13q19 43 45 81q5 5 9.5 11.5t15.5 5.5q2 -2 4 -2q6 -8 3 -15.5t-6 -13.5q-11 -21 -24.5 -39t-27.5 -33q-16 -35 -30.5 -71t-28.5 -73v-2zM120 244l-32 -20t-30 -21q-8 -5 -14.5 -11.5l-13.5 -13.5q-5 -7 -11.5 -15t-3.5 -19
q11 -2 20 3.5t16 10.5q7 6 14 12.5t12 14.5q14 13 24.5 28t21.5 32l-1 1zM182 -3zM181 -8q1 -2 1 0t-1 0v0zM180 -10q0 -3 0.5 -0.5t-0.5 0.5zM179 -13q0 -3 0.5 -0.5t-0.5 0.5zM179 -16q1 -2 1 0t-1 0zM178 -18q1 -2 1 0t-1 0zM177 -22zM176 -24q1 -2 1 0t-1 0z" />
    <glyph glyph-name="t_l" unicode="tl" horiz-adv-x="478" 
d="M232 485q32 1 67.5 3.5t68.5 -1.5q9 -1 18.5 -4.5t7.5 -14.5q-7 -2 -10 1t-10 5q-17 3 -36 3.5t-39 -1t-39.5 -2.5t-36.5 -1q-24 -26 -48 -51.5t-50 -49t-55 -45t-62 -37.5q-14 -39 -28 -82.5t-23 -91.5q-5 -24 -7.5 -52t-0.5 -54.5t11 -47.5t28 -31q20 -6 37.5 -1.5
t33.5 14t29.5 21t25.5 20.5q60 57 110.5 122.5t98.5 134.5q10 37 23 80t30 86t37.5 82t45.5 68q8 8 16.5 17t22.5 7q7 -2 9.5 -8t2.5 -12.5t-2 -14t-4 -12.5q-8 -28 -27.5 -66.5t-43.5 -78t-48 -76t-40 -60.5q-3 -14 -9.5 -39t-12.5 -53t-9 -54.5t0 -43.5q2 -8 6 -13.5
t-2 -12.5q-11 -1 -15 10t-5 21q-2 19 -0.5 37.5t4.5 36t7 34t6 31.5q-20 -27 -42.5 -58t-47.5 -63t-53.5 -64t-59.5 -60q-20 -17 -43 -32t-53 -21q-25 -1 -41.5 9t-26.5 26.5t-14.5 38.5t-4.5 46q-1 51 11.5 107.5t32 113t44 110.5t48.5 99q-47 -5 -94 -10.5t-92 -13.5
q-15 -3 -30 -5t-29 -6q-4 -1 -5.5 -2l-4.5 -3q-10 0 -19.5 -1t-11.5 10q0 12 12 15q5 1 8 0l6 -2q66 8 131.5 16.5t134.5 14.5q10 15 26.5 43t40 61t55 68t70.5 64q15 11 31.5 21t36.5 13q34 3 37 -25q-2 -21 -7.5 -38t-13.5 -32t-17.5 -28.5t-17.5 -28.5q-20 -28 -39.5 -54
t-40.5 -52zM326 642q10 17 19.5 37.5t4.5 43.5q-2 3 -6.5 3.5t-8.5 0.5q-11 -2 -22.5 -7.5t-20.5 -11.5q-28 -18 -51.5 -42t-43.5 -47q-14 -15 -28 -33.5t-26 -36.5t-21.5 -33t-13.5 -22q-2 -5 -6.5 -10t-3.5 -9q55 6 113 9q31 36 60.5 75t54.5 83zM493 567q-4 -2 -6.5 -5
t-5.5 -5q-44 -53 -72.5 -122t-50.5 -142q20 31 40 63t39 65q16 28 32.5 58.5t24.5 65.5q1 5 2 11t-2 11h-1zM90 463q-20 -37 -38.5 -75t-35.5 -79q29 15 52.5 35t47.5 40q16 17 33 32.5t31 32.5q5 4 8.5 8.5t7.5 8.5q1 2 3.5 3t-0.5 3q-28 -2 -55 -4.5t-54 -4.5z" />
    <glyph glyph-name="f_r" unicode="fr" horiz-adv-x="565" 
d="M-9 209q93 29 169 72.5t139 102.5q-5 5 -9.5 8t-6.5 9q-3 11 1.5 19t9.5 15q13 16 27 28t27 18t22.5 5.5t12.5 -7.5q4 -9 -2 -20.5t-16.5 -24t-22.5 -24.5l-21 -21q10 -9 14 -16q10 -21 9.5 -46.5t-5.5 -53.5t-12 -58t-9 -60q-1 -14 0 -30.5t13 -25.5q22 5 37 19t29 28
q22 22 46 45.5t45.5 44t39 36.5t27.5 24q4 2 8 5.5t9 0.5q2 -7 -3.5 -9.5t-8.5 -6.5q-15 -12 -36 -32t-44 -43t-45.5 -46t-38.5 -40q-11 -11 -25.5 -24.5t-31.5 -17.5q-8 -1 -17 2q-14 8 -18.5 24t-4.5 35.5t3.5 40t6.5 37.5q6 31 11 56.5t6.5 45t-2 33t-14.5 20.5
q-9 -5 -30 -25t-59 -47.5t-96 -58t-141 -56.5q-4 -11 -7.5 -21t-6.5 -21q5 -14 5.5 -31t-2 -34.5t-7.5 -33.5t-11 -29l-7 -14t-12 -8q-10 -1 -11.5 11.5t-1.5 23.5q2 34 10.5 62t15.5 57q-3 5 -8.5 8t-12.5 6q-6 2 -14.5 3t-10.5 7q-1 4 2 6.5t7.5 4t10 2.5t8.5 2
q10 2 18 4.5t16 4.5q10 25 19.5 50t20.5 49q-5 -2 -13 -2t-7 8q1 6 5.5 6h8.5q4 2 7.5 4t6.5 4q31 68 66 131t77 120q29 42 64.5 81.5t78.5 71.5q14 10 30 20t35 12q13 2 19.5 -3t10.5 -14q3 -26 -7 -46.5t-21 -37.5q-28 -44 -61.5 -83t-67.5 -74q-48 -50 -97.5 -96.5
t-104.5 -84.5q-11 -26 -22 -52.5t-22 -54.5zM364 739q-35 -10 -58 -30.5t-46 -42.5q-68 -70 -119 -153t-93 -169q77 60 145.5 127.5t128.5 145.5q14 19 28.5 39.5t23.5 43.5q3 8 5.5 17.5t-1.5 19.5q-2 2 -5.5 2h-8.5zM324 445q-9 -8 -16.5 -17t-10.5 -20q3 -7 14 -12
q9 8 17.5 16.5t16.5 18.5q8 9 16 19t10 23q-1 0 -1 0.5t-1 0.5q-14 -4 -24.5 -12t-20.5 -17zM-62 176q9 -5 16 -10q2 5 3 8.5t2 7.5q-5 -2 -10.5 -3t-10.5 -3zM-59 21q10 21 17.5 47t3.5 57q-7 -24 -14 -49.5t-7 -54.5z" />
    <glyph glyph-name="o_r" unicode="or" horiz-adv-x="382" 
d="M213 480q0 -19 -9 -33t-19 -27q-9 -13 -19.5 -24.5t-21.5 -22.5q1 -9 6.5 -15t11.5 -10t12.5 -8.5t11.5 -10.5q8 -18 5 -41t-10 -47.5l-14 -49t-6 -44.5q0 -13 6 -17q21 5 34.5 17.5t28.5 23.5q27 25 53.5 50t53.5 50q18 18 41 36q4 3 8 6.5t9 -1.5q2 -6 -3 -8.5t-8 -6.5
q-3 -3 -7 -6t-7 -7q-8 -7 -31.5 -29.5t-50 -48.5t-51 -49t-34.5 -30q-5 -4 -13 -8t-16.5 -6t-16 0t-11.5 11q-5 13 -3 33q1 19 6.5 38.5t11.5 38.5t10.5 38t4.5 39q-2 10 -8.5 15t-13.5 9.5t-13 10t-8 15.5q-6 -5 -16.5 -13t-23.5 -17t-27 -18t-29 -15q2 -3 2 -7t2 -7
q1 -28 -8 -44.5t-22 -30.5q-6 -4 -11 -8t-16 -3l-1 1q-12 5 -13.5 16t2 24t10 25.5t10.5 19.5q-11 3 -12 9t3.5 12t13 9.5t16.5 1.5q5 2 8 6.5t11 4.5q10 -2 10 -12q24 14 46 29t42 34q1 3 0.5 5.5t0.5 7.5q5 22 21.5 47.5t31.5 38.5q5 5 14.5 9t14.5 -6zM148 397
q2 -1 3.5 1.5t3.5 4.5q5 5 7 9q11 14 21.5 28t17.5 31q0 2 -1 2q-18 -14 -30 -33.5t-22 -42.5zM-3 299q2 -1 4 0t0 2q0 -2 -1.5 -1.5t-2.5 -0.5zM-11 219q19 8 29.5 26t6.5 44q-1 1 -2 1q-11 -15 -21.5 -31t-12.5 -40z" />
    <glyph glyph-name="i_r" unicode="ir" horiz-adv-x="390" 
d="M55 453q7 1 11 -3t5 -9.5t-1.5 -10.5t-8.5 -5q-9 0 -12 12t6 16zM201 355q18 1 36.5 6.5t35 10.5t30 7t21.5 -2q7 -8 7 -19.5t-4 -23.5t-9.5 -23t-8.5 -19q-18 -41 -34.5 -81.5t-28.5 -88.5q-2 -9 -4.5 -20.5t-0.5 -19.5q1 -5 4.5 -8t1.5 -9q-6 -6 -11.5 -1.5t-7.5 9.5
q-4 8 -4 19t2.5 22.5t5.5 22l5 17.5q11 38 24 71.5t27 67.5q7 17 14.5 34t10.5 36q-17 0 -31.5 -3.5t-28.5 -8t-28.5 -8.5t-32.5 -4q-24 -35 -55 -68t-69 -59q-13 -8 -27.5 -15.5t-31.5 -9.5q-26 -3 -33.5 11t-5.5 34t10 40.5t14 30.5q0 4 -2.5 5t-1.5 7q0 2 4 6t9 8t10 7
t8 3t5 -2.5t4 -4.5q-1 -10 -5 -16.5t-8 -13.5q-4 -8 -11 -21t-12 -27.5t-7 -27t3 -19.5q7 -7 22 -5q17 2 38.5 13.5t43.5 30t43.5 42.5t39.5 51q-17 1 -26 11q-8 10 -6.5 22.5t8 24t17 20t21.5 11.5q1 0 1 0.5t1 0.5q16 0 21 -9t3.5 -21.5t-7 -25t-9.5 -18.5zM192 413
q-11 -5 -22 -18.5t-10 -29.5q5 -11 26 -11q6 11 14 27t1 32q-5 2 -9 0z" />
    <glyph glyph-name="u_r" unicode="ur" horiz-adv-x="422" 
d="M291 366q10 2 23 3.5t23 -2.5q8 -7 11 -16q0 -15 -4 -28.5t-11.5 -32t-19.5 -46t-27 -70.5q-5 -14 -10 -29.5t-5 -32.5q3 -2 6.5 -2t3.5 -5q1 -5 -3 -7.5t-10 -2.5q-14 4 -13.5 21t4.5 31q9 38 22.5 74t27.5 70l12 28t7 31q-11 5 -24.5 1.5t-24.5 -4.5q-34 -38 -63 -67
t-67 -53q-13 -8 -27.5 -16.5t-32.5 -7.5q-23 1 -29.5 22t-0.5 47q-10 -11 -19 -24t-20 -24t-21 -22.5t-30 -13.5q0 1 -1 1q-4 1 -6 4l-4 6q-2 23 5.5 42t15.5 36q3 7 6.5 14l7.5 15q3 6 7 13t12 9q10 -2 10.5 -7.5t-3.5 -14.5q-3 -6 -5 -11.5t-7 -8.5q-8 -18 -15.5 -35.5
t-11.5 -39.5q14 8 26 22t23 26q5 8 10.5 14.5t11.5 14.5q5 5 10 15t14 9t8 -11t-4 -17q-3 -11 -5.5 -22.5t-1.5 -25.5q1 -2 1 -5t2 -5q1 -2 3.5 -4t4.5 -4q15 -4 31.5 4t28.5 16q35 21 63.5 49t53.5 57q-12 -1 -23 3t-14 15q-1 9 3.5 17.5t11.5 15t15.5 11t17.5 4.5
q8 0 16 -3.5t10 -13.5q1 -9 -1.5 -15t-4.5 -12zM240 366q5 -6 15.5 -4.5t18.5 1.5q4 6 7.5 13t1.5 16q-14 7 -27 -3.5t-16 -22.5z" />
    <glyph glyph-name="o_s" unicode="os" horiz-adv-x="390" 
d="M264 399q-1 -13 -14 -19.5t-49 -22.5q-4 -11 -1.5 -23.5t8.5 -26t13.5 -29t13.5 -32.5q30 12 60.5 23.5t62.5 21.5q11 1 21.5 6t21.5 2q1 -8 -5.5 -9t-11.5 -3q-37 -11 -73.5 -24.5t-70.5 -27.5q7 -20 11.5 -38t2.5 -40q-2 -31 -17.5 -53.5t-36.5 -38.5
q-22 -17 -48 -28.5t-56 -13.5q-29 -2 -47 7.5t-25.5 25.5t-3 36t21.5 40q16 19 37 33.5t44 27t47 23t46 22.5q-5 13 -11.5 25.5t-12.5 25.5t-10 27.5t-3 31.5q-35 -11 -72.5 -22t-75.5 -20q-5 -2 -10.5 -2.5t-9.5 -4.5q12 -13 12 -30.5t-7.5 -33.5t-20 -28t-27.5 -14
q-13 -1 -21 5q-4 6 -5 10q0 16 4.5 27.5t11 21.5t14 18.5t13.5 18.5q-5 0 -10 -0.5t-7 3.5q0 9 10 8.5t17 1.5q6 5 12 12t13 13q5 5 12.5 12t16.5 -1q2 -11 -5 -15.5t-11 -10.5q39 9 76 19t72 23q8 17 26 30t40 15q12 0 17 -5zM217 374v0q8 3 15 6.5t12 8.5q-8 -3 -15 -6.5
t-12 -8.5zM4 286q-1 1 -2 1l-2 -2q-6 -8 -12.5 -16t-11.5 -17q-5 -8 -11 -18t-3 -22q13 -1 24 6.5t17.5 19t7 24.5t-6.5 24zM121 176q-27 -16 -52 -35.5t-33 -52.5q-2 -23 10 -33t31 -13q35 0 61 9.5t48 25.5q39 29 46.5 67t-12.5 81q-24 -11 -49 -23t-50 -26z" />
    <glyph glyph-name="p_r" unicode="pr" horiz-adv-x="515" 
d="M79 421q-2 -18 -9.5 -29t-14.5 -24q-9 -19 -21.5 -35.5t-23.5 -34.5t-18 -39.5t-17 -41.5q2 0 4 3t6 4q23 32 50 61.5t60 54.5q14 10 29 18.5t38 6.5q14 -7 16 -21t-2.5 -29t-12.5 -29.5t-13 -22.5q43 6 77.5 19.5t65.5 31.5q12 31 31 54.5t47 39.5q8 3 17 2.5t12 -7.5
q0 -11 -3.5 -19t-9 -14.5t-12 -11.5t-12.5 -11q-12 -12 -26 -21t-28 -20q-5 -11 -2 -21q3 -4 7.5 -6.5t8.5 -5t7 -6t4 -9.5q1 -11 -1 -23t-5 -24.5t-4 -24.5t3 -22q20 3 31 13t23 21q8 7 21 19.5t28.5 27t31.5 30t31 27.5q5 5 11.5 10.5t14.5 2.5q2 -5 -3 -6.5t-7 -4.5
q-8 -7 -16.5 -14.5t-16.5 -15.5q-17 -15 -36 -34.5t-37 -37.5t-34 -32.5t-26 -19.5q-14 -6 -24.5 -0.5t-12.5 20.5q-1 13 1 24.5t4.5 22t4.5 21t2 22.5q-3 4 -9 5t-10 5q-10 8 -10 25q-32 -15 -68.5 -29.5t-81.5 -18.5q-11 -12 -26 -24.5t-32 -23.5t-35 -20t-38 -11
q-25 -1 -38 12q-6 -10 -11.5 -20t-11.5 -20q-22 -71 -32.5 -114.5t-15.5 -68t-8.5 -33t-11.5 -9.5q-11 4 -9 19.5t4 25.5q5 37 15.5 69t20.5 63q14 44 28 86t31 80q2 2 0 4.5t-2 5.5q3 5 6.5 8t6.5 7q9 20 18 39t20 38q10 18 21 35t26 31q10 3 14 -5zM383 396
q-23 -10 -37.5 -28t-25.5 -38q10 7 19 14t18 15q8 9 17 16.5t12 20.5h-3zM15 244v0q23 11 53 12.5t60 3.5q11 14 22 33t13 40q2 12 -4 18q-14 5 -35 -6.5t-42 -30t-39 -38.5t-28 -32zM-23 190q8 -11 30 -9q26 5 46 17t39 26q4 5 12.5 10.5t7.5 9.5q-47 -1 -82.5 -11.5
t-52.5 -42.5z" />
    <glyph glyph-name="e_r" unicode="er" horiz-adv-x="445" 
d="M293 392q10 0 21 3t22 4.5t21 1t18 -6.5q6 -12 1.5 -28t-14.5 -37.5t-22.5 -51t-21.5 -69.5q-5 -22 -7.5 -48t6.5 -46q5 -2 9 -1.5t6 -4.5q2 -6 -3.5 -7.5t-10.5 -0.5q-11 1 -16 11t-6.5 23.5t-0.5 28.5t3 26q5 38 15.5 70t23.5 61q7 15 14 29.5t9 31.5q-11 2 -21 1
t-20 -3l-20 -4t-22 -1q-14 -11 -26 -23.5t-26 -23.5q-70 -59 -120 -82.5t-78.5 -20.5t-35.5 27t9 62q10 14 20.5 26.5t27.5 20.5q11 5 23.5 3.5t14.5 -15.5q1 -8 -4 -18t-14 -19t-21 -16t-25 -8q-5 0 -8 1.5l-7 3.5q-3 -7 -4 -15.5t0 -16.5t5 -14.5t12 -7.5q5 0 6 -1
q24 -1 44 6t38 17q45 23 82.5 52t70.5 63q-26 4 -32 22.5t3 41.5t30.5 46.5t50.5 37.5q14 6 30 3.5t18 -18.5q-2 -20 -9.5 -36t-17 -29.5t-20.5 -25.5t-21 -25zM331 513q-17 -5 -30 -15t-24 -23q-13 -14 -22 -29t-11 -35q2 -6 2 -9q2 0 2 -2q9 -10 29 -8q13 11 23 24t21 27
q4 7 9.5 14t9.5 15t6.5 17.5t0.5 20.5q-2 3 -6.5 3.5t-9.5 -0.5zM43 341q-6 -5 -11.5 -9.5t-8.5 -11.5q-1 -1 -1 -5q-1 -2 -2.5 -2.5t-2.5 -2.5q3 -3 11 -3q8 1 17.5 7t15.5 13q11 11 11 22q-8 5 -16 0.5t-13 -8.5z" />
    <glyph glyph-name="l_t" unicode="lt" horiz-adv-x="563" 
d="M429 436q-35 -5 -68 -12.5t-68 -15.5q-10 -2 -22.5 -3.5t-17.5 10.5q-1 7 3.5 11.5t10.5 5.5t11.5 -1.5t5.5 -10.5q39 6 75 15t75 16q19 36 42.5 79t59.5 78q11 10 23.5 19.5t32.5 10.5q3 -1 5.5 -2t5.5 -3q8 -11 5 -24.5t-6 -24.5q-9 -26 -24 -53t-40 -65q35 4 76 2.5
t71 -10.5q3 -1 8.5 -3t9.5 -5t5 -7.5t-5 -9.5q-5 -2 -7 2.5t-6 5.5q-33 11 -76 12.5t-84 -2.5q-18 -24 -35 -49t-35 -49q-18 -25 -36.5 -48.5t-36.5 -46.5q-7 -39 -16 -83.5t-7 -95.5q1 -13 3 -30.5t10 -23.5q4 -2 9 -1.5t6 -4.5q2 -6 -2.5 -8t-10.5 -2q-9 1 -14 7t-8 13
q-8 20 -9 46.5t1 53.5q2 26 6 51t8 46q-18 -20 -44 -51t-58 -65.5t-67 -68t-69.5 -59t-67 -39t-58.5 -6.5q-27 7 -40.5 30t-17 54t-0.5 64.5t8 61.5q14 71 45 155.5t75 168t99 157t117 123.5q18 14 38 27t43 17q10 2 18 -2t11 -12q3 -26 -5.5 -46.5t-18.5 -37.5
q-11 -18 -21 -35t-22 -33q-22 -35 -45.5 -66t-47.5 -63q-52 -60 -105.5 -116.5t-120.5 -101.5q-13 -38 -24.5 -77t-19.5 -83q-6 -41 -5.5 -77.5t11.5 -60.5t33.5 -31.5t60.5 10.5q16 8 28.5 16.5t24.5 16.5q74 53 134 121.5t117 136.5q11 50 26 95t34 87zM367 779
q-37 -12 -65 -36t-54 -50t-48.5 -55t-42.5 -59q-42 -61 -76.5 -129.5t-62.5 -142.5q31 20 58 46t53 52q104 104 188 230q16 23 31 48t26 52q4 9 7 20t-2 22q-2 2 -5 2h-7zM586 623q-14 -2 -25 -12t-19 -19q-27 -29 -48 -64.5t-38 -72.5q17 2 34 4.5t34 4.5q15 23 30.5 48.5
t27.5 52.5q6 13 11 27.5t0 30.5q-2 0 -3.5 1t-3.5 -1zM450 441q-16 -36 -30 -74t-25 -79q16 17 31 38t30 40q11 16 22 31.5t22 30.5q2 5 7.5 11t5.5 10q-17 -2 -32 -4t-31 -4z" />
    <glyph glyph-name="e_l" unicode="el" horiz-adv-x="461" 
d="M268 274q-9 -5 -24.5 -15.5t-35.5 -23t-44 -24.5t-49 -20q-11 -3 -24 -6t-26 -3t-25 2.5t-21 10.5q-9 5 -14 16t-6.5 24t-0.5 26.5t6 24.5q-6 3 -11.5 6t-3.5 14q3 6 9.5 6.5t14.5 -1.5q6 10 11.5 20.5t13.5 18.5q2 3 7.5 8.5t11.5 10t12 5.5t10 -5t2.5 -12.5t-5.5 -13
t-9 -12t-8 -8.5q-17 -20 -39 -32q-5 -16 -7.5 -37.5t5.5 -35.5q10 -16 29 -20t40 0q23 4 47.5 14t49 23.5t47 28t41.5 28.5q18 90 49.5 170.5t71 143t82.5 102.5t83 48q15 2 24 -3q7 -3 11 -8t8 -12q6 -21 2 -41t-11 -38q-18 -49 -52.5 -99.5t-76 -98t-87 -89.5t-85.5 -75
q-6 -33 -12 -70.5t-10.5 -77t-6 -80.5t2.5 -82q1 -11 3 -24t5.5 -24.5t9.5 -20t15 -11.5q6 -2 14 -0.5t10 -6.5q-1 -6 -6 -8t-11.5 -1.5t-13 2.5t-9.5 4q-6 6 -10 9q-21 32 -25 82t-1 102q2 51 8 98.5t14 90.5zM547 587q16 29 30.5 57.5t15.5 72.5q-2 12 -8 19.5t-20 7.5
q-17 0 -33.5 -10t-29.5 -21q-12 -10 -27 -25.5t-30 -35t-29.5 -42t-26.5 -45.5q-31 -57 -54 -120t-40 -134q40 30 78.5 66.5t71.5 73t59 72t43 64.5zM45 335v0q5 4 9 9l8 10q-5 -4 -9 -9z" />
    <glyph glyph-name="c_r" unicode="cr" horiz-adv-x="523" 
d="M323 349q7 1 15.5 1.5t13.5 -4.5q7 -11 3.5 -23t-7.5 -23q-8 -21 -15.5 -42t-12.5 -45q-2 -11 -4.5 -24t3.5 -25q28 5 52.5 26t59.5 47q18 15 37.5 31t39.5 31q5 5 12.5 11t15.5 1q1 -5 -3 -8t-7 -5l-20 -16t-19 -16q-29 -23 -58.5 -48.5t-61.5 -48.5q-10 -7 -27 -16.5
t-31 -1.5q-5 3 -8.5 10t-3.5 15q-1 21 4 42t12 41t14.5 38.5t10.5 35.5q-8 2 -16 -0.5t-17 -2.5q-43 -39 -90.5 -80t-104.5 -70q-12 -6 -28 -13t-33 -10.5t-34 -2t-32 10.5q-14 12 -18 32q0 20 4 35t11 28t15 24t16 23q17 17 35 34.5t45 25.5q19 1 24.5 -10.5t3 -26.5
t-11 -27.5t-18.5 -13.5q-9 0 -13 9q1 7 5 8.5t6 6.5q4 8 8.5 16.5t2.5 19.5q-13 2 -22.5 -5t-18.5 -14q-23 -19 -46 -47t-30 -63q-1 -4 -0.5 -10t0.5 -11q3 -16 16 -26q14 -6 28.5 -6t28.5 3.5t27.5 9.5t24.5 12q23 12 47.5 28.5t48 35t45 37.5t39.5 37q-17 6 -17 21
t9.5 31.5t25.5 32t30 21.5q8 4 19 4.5t16 -7.5q6 -13 -2.5 -27t-13.5 -21q-8 -11 -15 -19t-15 -17zM312 400q-10 -11 -18 -24t-7 -27q3 -2 5.5 -3t7.5 0q10 8 17.5 17.5t15.5 18.5q6 11 14.5 20.5t7.5 25.5q-14 -2 -24.5 -10.5t-18.5 -17.5z" />
    <glyph glyph-name="e_t" unicode="et" horiz-adv-x="437" 
d="M530 614q32 0 70 4.5t74 -0.5q11 -2 22.5 -4.5t12.5 -11.5q0 -13 -15 -13q-4 1 -4 4.5t-1 5.5q-38 6 -82.5 5t-84.5 -3q-10 -13 -26.5 -36.5t-43 -57t-65.5 -76.5t-94 -95q-14 -68 -25.5 -141.5t-15.5 -155.5v-25.5t1 -28.5q1 -13 3 -26.5t7 -18.5q3 -3 8 -3.5t7 -5.5
q-2 -8 -6 -9t-9 0.5t-9 5.5t-6 7q-11 17 -12 43t-1 52q1 76 12.5 148.5t22.5 136.5q-18 -13 -39.5 -32t-61.5 -43q-27 -17 -56.5 -32.5t-67.5 -21.5q-24 -2 -39 6q-17 10 -21.5 29t-1.5 40t11 40.5t16 31.5q6 9 12.5 17.5t14.5 16.5q8 7 16.5 14t22.5 5q9 -5 9 -13.5
t-4 -17.5t-9.5 -16.5t-8.5 -10.5q-10 -10 -20 -23t-25 -18q-8 -4 -14 0q-5 -14 -7.5 -34t4.5 -34q3 -5 8 -9t10 -7q3 0 5.5 -0.5t5.5 -1.5q23 -1 41 5.5t35 14.5q49 23 90 54t79 66q15 68 35 129.5t47 117.5q-61 -7 -122 -15t-121 -16q-8 -1 -16.5 -3t-16 -2t-13.5 3t-8 11
q0 13 12.5 14.5t20.5 -5.5q71 2 135.5 11.5t133.5 14.5q18 29 35.5 58.5t40.5 54.5q11 11 22.5 23.5t25.5 23.5q9 7 21.5 14.5t26 12t26.5 3t23 -13.5q10 -25 1.5 -52t-18.5 -47q-9 -17 -18.5 -33.5t-17.5 -30.5zM569 729q2 7 3 16.5t-1 17t-7.5 11.5t-17.5 2q-1 -1 -2 -1
q-32 -10 -53 -30t-41 -41q-18 -24 -34.5 -48.5t-29.5 -52.5q31 2 62 5t63 5q14 25 32 53.5t26 62.5zM378 590q-26 -51 -45.5 -108t-33.5 -120q57 52 107 111.5t95 125.5q-62 -3 -123 -9zM13 310q16 7 27 18.5t22 23.5q2 5 6 10.5t1 10.5q-20 -10 -32.5 -27t-23.5 -36z" />
    <glyph glyph-name="a_r" unicode="ar" horiz-adv-x="375" 
d="M250 400q21 3 39 10.5t41 6.5q3 -3 5 -3q4 -6 5 -10q-2 -23 -10.5 -39t-14.5 -34q-9 -16 -16 -32.5t-15 -33.5q-7 -18 -14 -35.5t-13.5 -35.5t-11 -37.5t-5.5 -42.5q1 -5 3 -13q4 -2 9.5 -2t6.5 -5q0 -11 -12 -10t-17 6q-7 12 -8 27t1.5 30t7 29.5t8.5 27.5l12 34t12 33
q14 34 30 65t27 63q-21 -2 -39.5 -8t-38.5 -9q-17 -26 -35 -51.5t-38 -47.5q-20 -23 -44 -43t-57 -29h-8q-1 2 -2.5 2t-3.5 1q-5 4 -9 9.5t-3 16.5q-3 2 -6.5 4t-4.5 6q-2 5 -1 8.5t2 7.5q-6 -5 -13 -12.5t-14 -13.5q-8 -5 -15.5 -12t-21.5 -5q-9 8 -5.5 18.5t8.5 18.5
t10.5 16t10.5 15q12 14 24.5 27t31.5 20q10 0 13 -1q2 -1 4 -2.5t4 -3.5q6 -12 2.5 -25t-8.5 -26.5t-8 -27t4 -26.5q19 -4 32 5t24 17q35 26 62.5 59.5t49.5 72.5q-23 -2 -40 4t-15 29q1 12 7 22t15 18.5t19 14t20 7.5q17 2 23.5 -6.5t7 -21.5t-4 -26.5t-9.5 -20.5zM232 461
q-17 -5 -31 -21t-13 -36q5 -10 21 -9.5t28 2.5q5 12 12 30t-2 33q-7 3 -15 1zM50 307q1 3 1 5.5t1 4.5q-1 0 -1 0.5t-1 0.5q-24 -14 -41 -33.5t-29 -44.5q22 12 37.5 30.5t32.5 36.5z" />
    <glyph glyph-name="l_l" unicode="ll" horiz-adv-x="680" 
d="M717 339q4 -6 -1 -9t-7 -6q-38 -38 -76.5 -76t-76.5 -76t-77.5 -75t-90.5 -61q-17 -10 -43 -7.5t-37 16.5q-15 17 -22 44.5t-5 56.5q-1 2 -2.5 -0.5t-3.5 -3.5q-20 -20 -42 -41.5t-46 -42t-48 -37t-48 -25.5q-34 -13 -60 -6t-41 32q-15 24 -19.5 55t-3 64t8 65.5
t14.5 59.5q2 4 0.5 6.5t-0.5 5.5q0 5 3.5 7.5t4.5 7.5q41 124 103.5 229t148.5 187q26 26 62.5 50.5t80.5 32.5q24 2 32 -9.5t6.5 -28.5t-9 -34.5t-13.5 -27.5q-33 -53 -70 -101t-77 -93q-54 -60 -112.5 -115t-131.5 -97q-7 -27 -15.5 -56t-11.5 -61q-7 -69 3.5 -108t36 -50
t64.5 6t89 60q26 23 50.5 46t47.5 49q20 137 71.5 243t124.5 192q11 15 25 27.5t29 23.5q14 11 31.5 21t41.5 11q16 -2 22 -14.5t5 -28.5t-6 -32t-10 -25q-21 -49 -59.5 -107t-83.5 -115.5t-91.5 -110t-82.5 -91.5q-1 -21 0 -40.5t5.5 -36t14 -28.5t25.5 -16q20 -2 35.5 4.5
t29.5 14.5q40 23 72 54t64 61q38 35 75 71t74 74l10 10t13 5zM352 629q8 11 22 31t26 41.5t18.5 41t-0.5 31.5q-8 5 -19 5q-20 0 -41.5 -11.5t-37.5 -22.5q-17 -11 -31 -24t-27 -23q-78 -80 -136.5 -178t-100.5 -216q100 64 178 148t149 177zM617 629q2 10 3 21t-6 21
q-12 8 -25.5 3t-24.5 -11q-23 -14 -42.5 -33t-34.5 -36q-66 -81 -113.5 -178.5t-70.5 -222.5q26 26 57 60.5t64 73.5t64.5 80.5t57.5 81t45 75.5t26 65z" />
    <glyph glyph-name="e_e" unicode="ee" horiz-adv-x="406" 
d="M5 291q-7 -10 -14 -23.5t-11 -29t-4 -31.5t7 -31q2 -3 4.5 -5.5l4.5 -4.5q5 -3 11 -4q27 1 50 11t47 27t50.5 40.5t59.5 50.5q13 20 28 36.5t41 24.5q14 0 19 -5q2 -4 4 -6q0 -12 -9 -23q-11 -12 -28 -21t-35 -10q-5 -6 -10 -16t-8 -21.5t-3 -22.5t7 -19q2 0 2 -2
q2 -1 5 -1t6 -2q24 5 43.5 14.5t36.5 21t33 24.5t34 24q5 4 10.5 8t10.5 8t11 8.5t14 2.5q1 -9 -7 -12.5t-12 -8.5q-17 -14 -35 -27t-35 -27q-22 -15 -37.5 -26t-28 -17.5t-23 -9t-20.5 -1.5q-14 1 -22 9t-11 20t-1.5 25.5t7.5 25.5q-20 -17 -41 -35.5t-43 -35.5
q-10 -7 -21.5 -15.5t-24.5 -16.5t-28 -13.5t-31 -5.5q-15 0 -24.5 6t-17.5 16q-9 16 -9.5 35t4 37t12 33.5t15.5 26.5q-1 3 -3 5t0 6q2 3 11 3q7 8 13.5 16t14.5 16q8 7 18 13.5t21 7.5q8 1 14 -3.5t7 -11.5q1 -11 -6.5 -20t-15.5 -15q-13 -10 -26 -16.5t-31 -6.5zM65 350
q-11 -3 -18 -8.5t-13 -12.5q-6 -5 -11.5 -11t-7.5 -12q15 4 26.5 11t21.5 16q2 3 5.5 6.5t1.5 8.5q-1 2 -5 2zM239 302q15 6 28.5 13.5t20.5 21.5q-19 0 -29 -12t-20 -23z" />
    <glyph glyph-name="b_b" unicode="bb" horiz-adv-x="626" 
d="M25 296q-17 -54 -33 -111t-15 -127q9 11 21 35.5t29.5 55.5t41 63.5t55.5 60.5q14 13 30 22.5t40 10.5q9 -2 14 -7q6 -7 8 -17t0.5 -20.5t-5 -20.5t-6.5 -17q61 44 115.5 96.5t103.5 109.5q22 48 46 94.5t53 88.5q18 26 28 35.5t20 10.5q8 -4 5 -14t-5 -16
q-10 -21 -24 -44.5t-30 -47.5t-33 -47.5t-32 -44.5q-20 -45 -39 -91t-37 -94q13 13 28 27t36 22q14 4 23 -1t13.5 -14.5t4 -22t-5.5 -22.5q33 17 70 34t72 34q5 2 10 5.5t10 -1.5q0 -8 -6.5 -10.5t-11.5 -4.5q-5 -3 -10.5 -6t-11.5 -5q-33 -17 -66 -33t-64 -34
q-21 -35 -46 -59l-14 -12t-15 -11q-7 -5 -18 -8.5t-19 4.5l-2 2q-2 13 8 25.5t26 24.5t34.5 22.5t32.5 19.5q2 5 5 13t4.5 16.5t0 16t-8.5 11.5q-22 1 -34.5 -11.5t-24.5 -23.5q-11 -12 -22 -25t-19 -29t-12.5 -33.5t-11.5 -33.5q-2 -5 -5 -10t-10 -3q-4 3 -4 7.5t1 9t3 9
t3 8.5q20 60 41 117.5t45 113.5q-49 -54 -103 -104t-114 -94q-12 -20 -27.5 -40t-34 -37.5t-40 -30.5t-43.5 -19q-20 -2 -23 11q2 16 12 23.5t20 15.5q30 22 61.5 43t61.5 43q5 9 10.5 19.5t9.5 22.5q3 11 5.5 25.5t-7.5 22.5q-21 0 -37 -11.5t-30 -23.5q-40 -38 -70 -86
t-55 -100q-6 -9 -10.5 -19t-16.5 -13q-7 3 -10.5 9.5t-4 15.5t0 19t0.5 19q3 45 12 84.5t20 77.5q4 11 7.5 20.5t0.5 18.5q0 4 3.5 4t3.5 3q17 48 41 99t54 99t65 90t75 72q8 6 17.5 12.5t19.5 11t20.5 5.5t21.5 -5q6 -8 6 -18.5t-4 -21.5t-9.5 -21.5t-10.5 -18.5
q-23 -38 -50 -75t-53 -68q-26 -33 -55 -66t-60 -64q-14 -14 -27.5 -24.5t-32.5 -18.5zM304 682q-14 -3 -28 -11.5t-25 -17.5q-78 -63 -130 -153t-89 -188q45 35 83.5 78.5t75.5 88.5q27 33 53.5 68t48.5 74q8 13 15 28.5t3 32.5q-2 0 -3.5 0.5t-3.5 -0.5zM478 499v-2v0v2
q22 32 43.5 65t36.5 69q-23 -31 -43 -64.5t-37 -69.5zM367 152q25 7 41.5 24t28.5 35q-18 -14 -38.5 -26.5t-31.5 -32.5zM41 80q19 5 32.5 14t27.5 19q12 11 24.5 22.5t20.5 24.5q-26 -21 -54 -39t-51 -41z" />
    <glyph glyph-name="T_r" unicode="Tr" horiz-adv-x="750" 
d="M513 666q84 10 179 18.5t194 1.5q28 -2 60 -6q13 -3 27 -7.5t16 -16.5q1 -7 -3 -10t-7 -8q-3 -2 -8 -5t-10 2q-1 9 5 10.5t8 8.5q-14 9 -46 12.5t-68.5 4.5t-70.5 0t-50 -2q-62 -2 -121 -8t-114 -14q-48 -97 -91 -194t-89 -194q-45 -97 -89 -194.5t-83 -200.5
q2 -2 6.5 -2t4.5 -5q1 -8 -4.5 -12.5t-8.5 -9.5q-4 -5 -9 -9.5t-14 -2.5q-6 5 -4 14.5t5 14.5q35 95 82.5 203t97.5 214.5t97 203.5t80 171q-116 -15 -223.5 -39t-216.5 -50q-25 -6 -53.5 -13t-59.5 -6q-9 0 -18 1.5t-12 10.5q-2 12 6 18t17 11q11 5 26.5 10.5t32 7.5
t32.5 0.5t28 -10.5q2 -3 0 -6.5t-2 -4.5q109 26 220.5 49t230.5 40q8 17 15.5 36t15.5 37q-5 8 -1.5 18.5t12.5 10.5q5 0 9.5 -3.5t5.5 -7.5q1 -6 -2.5 -12.5t-5.5 -11.5q-7 -15 -15 -33.5t-14 -30.5zM-75 556q30 -2 56 4t51 12q-28 9 -57.5 2t-49.5 -18zM578 350
q16 -2 27 -8.5t9 -25.5q-1 -10 -5.5 -20t-9.5 -20q-9 -19 -18 -37t-17 -38q-4 -10 -7.5 -21t1.5 -22q20 3 31.5 13.5t25.5 19.5l47 42q22 16 42 36.5t46 33.5q3 1 8 3t8 -3q2 -5 -3.5 -5.5t-8.5 -2.5q-39 -26 -72.5 -58t-68.5 -63q-6 -5 -16.5 -13.5t-21.5 -13.5t-21 -4
t-15 16q0 19 4.5 36t11.5 32t15 29.5t16 28.5q5 8 10.5 20t2.5 20q-2 7 -10 8.5t-17 2.5q-24 -35 -49.5 -68.5t-56.5 -62.5l-20 -19q-5 -4 -11.5 -9.5t-14.5 -4.5q-8 2 -10 10q-4 14 6.5 24.5t20.5 13.5q7 0 7 -7q62 57 109 125q-15 0 -30.5 2t-27 7.5t-16.5 15t1 25.5
q4 9 13 19t21 17.5t25 13t25 5.5q16 0 26 -10q6 -10 6.5 -21t-2 -22.5t-7.5 -21.5zM580 426q-7 5 -15 5q-17 -1 -37.5 -15t-29.5 -28q-4 -8 -4 -18q8 -14 28 -15t40 -3q4 6 9 15t8.5 19t4.5 20.5t-4 19.5z" />
    <glyph glyph-name="A_r" unicode="Ar" horiz-adv-x="1033" 
d="M826 792q5 -11 1.5 -25t-7.5 -24q-29 -78 -62 -151.5t-62 -151.5q54 6 106.5 14.5t106.5 16.5q17 2 34.5 6t37.5 3q7 -2 12.5 -4t7.5 -10q-1 -10 -7 -15t-17 -3q-3 2 -3 6t1 7q-17 -1 -34.5 -4t-34.5 -6q-53 -8 -107.5 -12.5t-107.5 -12.5q-18 -47 -35.5 -93t-33 -94
t-29 -98.5t-23.5 -104.5q-6 -36 -11.5 -74t-2.5 -80q2 -2 7 -1.5t6 -3.5q4 -6 3.5 -13.5t-4 -13.5t-9.5 -8t-13 2q-5 3 -7 14t-4 21q-4 30 -0.5 62.5t8.5 61.5q19 117 56 220t73 200q-60 -7 -118 -16t-118 -17q-51 -63 -99 -129t-94 -135q-48 -67 -91.5 -137t-93.5 -135
q-1 -4 -1 -8t-4 -6q-5 -1 -11.5 -3t-12.5 -2t-11 2t-6 10q0 9 7.5 11.5t17.5 0.5q18 18 50.5 68t78.5 120.5t106 157.5t134 180q-99 -17 -160.5 -29t-99 -20.5t-59.5 -13t-42 -4.5q-6 -2 -10.5 -6.5t-12.5 -2.5q-4 11 3.5 20t16.5 11q5 1 8 -1.5t8 -2.5q10 -1 48.5 6t90 17
t110 21t108.5 18q46 54 91 108t93 105q33 36 71 74.5t79 73.5q12 11 27.5 22.5t32.5 15.5q10 2 17 -5zM809 783q-18 -7 -48.5 -33.5t-66.5 -62.5t-74 -77.5t-70 -78.5t-55 -65t-29 -38q-4 -2 -6 -6t-5 -6q-2 -4 -6 -7.5t-2 -5.5q57 9 114 17t116 16q14 34 21.5 53.5t13 32
t9.5 23t11.5 27.5t19 45t31.5 75q8 18 16.5 38t11.5 40q1 3 1.5 7t-2.5 6h-1zM856 350q16 -2 27 -8.5t9 -25.5q-1 -10 -5.5 -20t-9.5 -20q-9 -19 -18 -37t-17 -38q-4 -10 -7.5 -21t1.5 -22q20 3 31.5 13.5t25.5 19.5l47 42q22 16 42 36.5t46 33.5q3 1 8 3t8 -3
q2 -5 -3.5 -5.5t-8.5 -2.5q-39 -26 -72.5 -58t-68.5 -63q-6 -5 -16.5 -13.5t-21.5 -13.5t-21 -4t-15 16q0 19 4.5 36t11.5 32t15 29.5t16 28.5q5 8 10.5 20t2.5 20q-2 7 -10 8.5t-17 2.5q-24 -35 -49.5 -68.5t-56.5 -62.5l-20 -19q-5 -4 -11.5 -9.5t-14.5 -4.5q-8 2 -10 10
q-4 14 6.5 24.5t20.5 13.5q7 0 7 -7q62 57 109 125q-15 0 -30.5 2t-27 7.5t-16.5 15t1 25.5q4 9 13 19t21 17.5t25 13t25 5.5q16 0 26 -10q6 -10 6.5 -21t-2 -22.5t-7.5 -21.5zM858 426q-7 5 -15 5q-17 -1 -37.5 -15t-29.5 -28q-4 -8 -4 -18q8 -14 28 -15t40 -3q4 6 9 15
t8.5 19t4.5 20.5t-4 19.5z" />
    <glyph glyph-name="B_r" unicode="Br" horiz-adv-x="1026" 
d="M337 532q61 77 139 142q29 23 61 44.5t70 35.5q12 4 25.5 6t25 -1t18 -11.5t3.5 -24.5q-3 -23 -18.5 -42t-30.5 -34q-47 -48 -109 -81.5t-126 -58.5q97 -16 161 -61q85 -59 102.5 -135.5t-33.5 -163.5q-41 -71 -99 -124t-127 -95q-35 -22 -77.5 -42.5t-87.5 -34.5
t-90 -18.5t-85 7.5q-20 6 -38 16t-31.5 26t-20.5 37t-5 48q2 26 12.5 46.5t21.5 39.5q25 40 51 71q28 33 58 63.5t63 57.5q13 32 27.5 61t29.5 58t32 55t30 57q-8 1 -19.5 0t-12.5 9q1 7 6 11t11.5 5.5t14.5 2.5t15 3q26 57 56.5 112t64.5 104q5 6 10.5 14t16.5 6
q8 -10 2 -20t-12 -18t-12 -14.5t-8 -16.5q-2 -2 -4.5 -2h-3.5q-21 -33 -40 -68t-37 -71v-1zM347 510q70 22 138.5 57.5t125.5 85.5q7 6 17 17t18.5 23.5t13 24t-0.5 19.5q-2 3 -8.5 5t-12.5 1q-26 0 -51.5 -13t-45.5 -26q-52 -33 -94 -72.5t-83 -85.5q-3 -5 -7 -9t-7 -10
q-5 -3 -8 -8q-2 -2 -4.5 -5t-0.5 -5q3 1 10 1zM147 211q-42 -39 -79 -81.5t-67 -93.5q-10 -17 -17.5 -37t-7.5 -44q0 -22 10 -42.5t29.5 -36.5t49.5 -24.5t69 -6.5q63 3 113.5 21.5t92.5 41.5q89 46 160 109t119 151q14 27 22.5 62t1.5 71q-6 32 -23.5 57.5t-37.5 43.5
q-42 39 -100.5 62.5t-135.5 25.5q-8 -2 -16 -4.5t-16 -4.5q-24 -47 -45 -95.5t-42 -97.5q39 27 85.5 50t98.5 38q2 1 7 2t7 -3q1 -5 -3 -6.5t-7 -2.5q-57 -17 -106 -41.5t-91 -56.5q-20 -46 -40.5 -92.5t-41.5 -91.5q-3 -7 -6 -13t-11 -8q-6 3 -5.5 8.5t1.5 10.5
q8 38 21 72.5t25 66.5q-3 1 -7 -3.5t-7 -6.5zM237 360q-28 -50 -50 -101q3 2 5 3.5t5 3.5q10 24 20 47.5t20 46.5q2 1 1 1.5t-1 -1.5v0zM178 237q-11 -27 -22 -55.5t-18 -57.5q11 31 24.5 61t24.5 60q-2 -2 -4.5 -4t-4.5 -4zM857 350q16 -2 27 -8.5t9 -25.5q-1 -10 -5.5 -20
t-9.5 -20q-9 -19 -18 -37t-17 -38q-4 -10 -7.5 -21t1.5 -22q20 3 31.5 13.5t25.5 19.5l47 42q22 16 42 36.5t46 33.5q3 1 8 3t8 -3q2 -5 -3.5 -5.5t-8.5 -2.5q-39 -26 -72.5 -58t-68.5 -63q-6 -5 -16.5 -13.5t-21.5 -13.5t-21 -4t-15 16q0 19 4.5 36t11.5 32t15 29.5
t16 28.5q5 8 10.5 20t2.5 20q-2 7 -10 8.5t-17 2.5q-24 -35 -49.5 -68.5t-56.5 -62.5l-20 -19q-5 -4 -11.5 -9.5t-14.5 -4.5q-8 2 -10 10q-4 14 6.5 24.5t20.5 13.5q7 0 7 -7q62 57 109 125q-15 0 -30.5 2t-27 7.5t-16.5 15t1 25.5q4 9 13 19t21 17.5t25 13t25 5.5
q16 0 26 -10q6 -10 6.5 -21t-2 -22.5t-7.5 -21.5zM859 426q-7 5 -15 5q-17 -1 -37.5 -15t-29.5 -28q-4 -8 -4 -18q8 -14 28 -15t40 -3q4 6 9 15t8.5 19t4.5 20.5t-4 19.5z" />
    <glyph glyph-name="P_r" unicode="Pr" horiz-adv-x="979" 
d="M439 739q54 7 104.5 -1.5t83.5 -28.5q17 -11 32.5 -23.5t26.5 -29t18 -37.5t7 -48q1 -29 -7 -57t-19 -51q-32 -68 -82 -121.5t-102 -99.5q-37 -30 -75.5 -59.5t-79.5 -55.5t-86.5 -48t-96.5 -38q-17 -49 -30.5 -99t-28.5 -101q9 -3 9.5 -10t-4 -14.5t-11.5 -13.5t-12 -7
q-10 2 -10.5 10.5t1.5 15.5q5 23 13 46.5t14 44.5q8 32 17 62.5t18 60.5q-26 -5 -48.5 2.5t-28.5 27.5q-5 22 -0.5 41t13.5 35t21 29.5t23 24.5q22 20 47 36t51 31q45 116 90.5 229t93.5 225q-45 -9 -85.5 -23.5t-76.5 -33.5t-69.5 -41t-65.5 -45q3 -2 6 -2t3 -4
q-2 -7 -7.5 -9t-9.5 -6q-4 -2 -6.5 -6t-6.5 -6q-3 -3 -7.5 -5.5t-8.5 -5.5q-11 -7 -23 -16t-26 -14q-8 3 -9.5 7t1 9t6.5 10t8 8q14 14 31.5 28t31.5 25q66 51 144 89.5t176 57.5q4 5 7 13.5t6 16.5t7 14.5t11 8.5q3 2 7 -0.5t6 -6.5q3 -10 -2 -23t-10 -18zM428 738h6
q-2 3 -4 3q0 -1 -2 -3zM399 181q52 37 98 79t88 90q18 20 36 44.5t33 51t25 54t12 54.5q4 62 -27 100.5t-79 55.5q-16 6 -36.5 10t-42.5 5.5t-44.5 0.5t-41.5 -5q-51 -107 -96 -220t-85 -228q14 8 29 14t29 12q4 1 11 5t9 -4q1 -5 -6 -8.5t-12 -5.5q-18 -8 -35.5 -15
t-31.5 -15q-17 -49 -33.5 -98.5t-30.5 -100.5q67 20 123 53.5t108 70.5zM209 244l-2 -2q-21 -11 -44 -27t-42.5 -35t-33 -41t-15.5 -46q-2 -32 19.5 -40t50.5 -3q17 49 34 97.5t33 96.5zM808 350q16 -2 27 -8.5t9 -25.5q-1 -10 -5.5 -20t-9.5 -20q-9 -19 -18 -37t-17 -38
q-4 -10 -7.5 -21t1.5 -22q20 3 31.5 13.5t25.5 19.5l47 42q22 16 42 36.5t46 33.5q3 1 8 3t8 -3q2 -5 -3.5 -5.5t-8.5 -2.5q-39 -26 -72.5 -58t-68.5 -63q-6 -5 -16.5 -13.5t-21.5 -13.5t-21 -4t-15 16q0 19 4.5 36t11.5 32t15 29.5t16 28.5q5 8 10.5 20t2.5 20
q-2 7 -10 8.5t-17 2.5q-24 -35 -49.5 -68.5t-56.5 -62.5l-20 -19q-5 -4 -11.5 -9.5t-14.5 -4.5q-8 2 -10 10q-4 14 6.5 24.5t20.5 13.5q7 0 7 -7q62 57 109 125q-15 0 -30.5 2t-27 7.5t-16.5 15t1 25.5q4 9 13 19t21 17.5t25 13t25 5.5q16 0 26 -10q6 -10 6.5 -21t-2 -22.5
t-7.5 -21.5zM810 426q-7 5 -15 5q-17 -1 -37.5 -15t-29.5 -28q-4 -8 -4 -18q8 -14 28 -15t40 -3q4 6 9 15t8.5 19t4.5 20.5t-4 19.5z" />
    <glyph glyph-name="I_r" unicode="Ir" horiz-adv-x="825" 
d="M875 635q-5 4 -4 7.5t4 6.5t5.5 7t2.5 9q0 8 -7 12t-13 6q-24 10 -54 14t-62.5 3.5t-64.5 -4t-60 -6.5q-1 -3 -1 -6t-1 -6q-9 -23 -26.5 -42.5t-27.5 -42.5q-70 -112 -130 -233t-116 -249q-14 -32 -26.5 -64t-20.5 -70q-2 -5 -3.5 -11.5t-3.5 -12.5q-2 -5 -3.5 -10.5
t-9.5 -6.5q-7 0 -9.5 4t-2.5 9t1.5 11.5t1.5 11.5q2 3 3.5 5t2.5 5q5 10 7 17.5t8 23.5t18.5 46.5t38.5 88.5q62 136 109 226t79 147.5t49.5 87.5t22.5 46q3 5 6.5 10t6.5 10q-103 -16 -177.5 -33.5t-128.5 -33.5t-91.5 -29t-65.5 -19q-8 4 -9 9t2.5 9t10 7.5t12.5 4.5
q8 4 15 8t15 6q6 1 8.5 -1t6.5 -3q61 18 125 35.5t132 32.5t140 25.5t147 13.5q17 1 36.5 0t38.5 -4t35.5 -8t27.5 -11q6 -3 11.5 -8.5t8.5 -12t2.5 -14t-6.5 -14.5q-3 -3 -6 -7.5t-10 -2.5zM603 -126q-2 1 -3 2.5t-3 2.5q-2 2 -0.5 4.5t-0.5 3.5q-66 8 -136.5 5.5
t-136.5 -7.5q-41 -3 -82.5 -7.5t-77 -9.5t-61 -9.5t-32.5 -6.5q-5 -2 -10.5 -4t-10.5 -4q-29 -8 -52.5 -15t-43 -12.5t-36.5 -8.5t-34 -3q-9 3 -10 11q2 10 10 13t15 5q49 17 111 30t127 22t128.5 14t114.5 7q10 0 20 1t21 1q18 0 51.5 1t66.5 -0.5t57 -6.5t23 -18
q0 -5 -4.5 -7.5t-10.5 -3.5zM653 350q16 -2 27 -8.5t9 -25.5q-1 -10 -5.5 -20t-9.5 -20q-9 -19 -18 -37t-17 -38q-4 -10 -7.5 -21t1.5 -22q20 3 31.5 13.5t25.5 19.5l47 42q22 16 42 36.5t46 33.5q3 1 8 3t8 -3q2 -5 -3.5 -5.5t-8.5 -2.5q-39 -26 -72.5 -58t-68.5 -63
q-6 -5 -16.5 -13.5t-21.5 -13.5t-21 -4t-15 16q0 19 4.5 36t11.5 32t15 29.5t16 28.5q5 8 10.5 20t2.5 20q-2 7 -10 8.5t-17 2.5q-24 -35 -49.5 -68.5t-56.5 -62.5l-20 -19q-5 -4 -11.5 -9.5t-14.5 -4.5q-8 2 -10 10q-4 14 6.5 24.5t20.5 13.5q7 0 7 -7q62 57 109 125
q-15 0 -30.5 2t-27 7.5t-16.5 15t1 25.5q4 9 13 19t21 17.5t25 13t25 5.5q16 0 26 -10q6 -10 6.5 -21t-2 -22.5t-7.5 -21.5zM655 426q-7 5 -15 5q-17 -1 -37.5 -15t-29.5 -28q-4 -8 -4 -18q8 -14 28 -15t40 -3q4 6 9 15t8.5 19t4.5 20.5t-4 19.5z" />
    <glyph glyph-name="E_r" unicode="Er" horiz-adv-x="855" 
d="M529 677q71 6 150 12t157 0q19 -1 36.5 -3t32.5 -9q4 -2 9 -4t4 -8q-7 -5 -11.5 -1t-9.5 6q-19 7 -43 8.5t-49 1.5q-75 0 -148.5 -4.5t-136.5 -13.5q-63 -93 -122 -189t-113 -198q48 8 99 15.5t104 13.5q6 0 13.5 1.5t12.5 -5.5q-3 -8 -11.5 -8t-14.5 -1
q-54 -7 -107.5 -15.5t-104.5 -18.5q-20 -36 -45.5 -85t-50.5 -100t-46.5 -98t-31.5 -78q-5 -14 -9 -30t2 -32q2 0 2 -1t1 -1q19 -4 36 2t33 12q28 9 72 23.5t95 30t106 30t105.5 23t93.5 9.5t70 -10q5 -2 9 -4t4 -7q-6 -6 -14.5 -1.5t-16.5 6.5q-25 7 -57 4.5t-59 -6.5
q-110 -16 -208 -48t-193 -63q-10 -4 -25 -9t-30 -6.5t-27.5 3t-15.5 20.5q1 33 11 61t21 54q33 78 69.5 150t74.5 146q-28 -5 -56.5 -11t-57.5 -13q-8 -2 -19 -3t-13 10q0 7 3.5 9.5t8.5 3t10.5 0t10.5 -0.5q6 0 11.5 1t17.5 4t33.5 7.5t58.5 10.5q54 100 111 196.5
t120 190.5q-21 -4 -40.5 -8t-39.5 -9q-2 -1 0 -5.5t-3 -5.5q-3 -3 -8.5 -1t-8.5 0l-22 -4l-22 -4q-4 -1 -10.5 -3t-12.5 -2.5t-11 1t-5 6.5q-1 5 4 8.5t11.5 5.5t14 3.5t11.5 3.5q35 10 75 18t77 13q8 9 13.5 19t11.5 20q-2 1 -6.5 0.5t-5.5 2.5t-0.5 6.5t0.5 7.5q3 6 11 8
q18 2 23 -8q2 -18 -6 -29t-13 -24zM682 350q16 -2 27 -8.5t9 -25.5q-1 -10 -5.5 -20t-9.5 -20q-9 -19 -18 -37t-17 -38q-4 -10 -7.5 -21t1.5 -22q20 3 31.5 13.5t25.5 19.5l47 42q22 16 42 36.5t46 33.5q3 1 8 3t8 -3q2 -5 -3.5 -5.5t-8.5 -2.5q-39 -26 -72.5 -58t-68.5 -63
q-6 -5 -16.5 -13.5t-21.5 -13.5t-21 -4t-15 16q0 19 4.5 36t11.5 32t15 29.5t16 28.5q5 8 10.5 20t2.5 20q-2 7 -10 8.5t-17 2.5q-24 -35 -49.5 -68.5t-56.5 -62.5l-20 -19q-5 -4 -11.5 -9.5t-14.5 -4.5q-8 2 -10 10q-4 14 6.5 24.5t20.5 13.5q7 0 7 -7q62 57 109 125
q-15 0 -30.5 2t-27 7.5t-16.5 15t1 25.5q4 9 13 19t21 17.5t25 13t25 5.5q16 0 26 -10q6 -10 6.5 -21t-2 -22.5t-7.5 -21.5zM684 426q-7 5 -15 5q-17 -1 -37.5 -15t-29.5 -28q-4 -8 -4 -18q8 -14 28 -15t40 -3q4 6 9 15t8.5 19t4.5 20.5t-4 19.5z" />
    <glyph glyph-name="D_r" unicode="Dr" horiz-adv-x="1043" 
d="M139 93q47 142 97.5 278.5t98.5 277.5q7 20 12 41t13 41q2 5 4 7.5t5 6.5q-77 -4 -139 -21t-117 -43q3 -2 9 -4.5t5 -9.5q-2 -9 -12.5 -7t-16.5 5h-17.5t-11.5 6q0 11 9.5 15t17.5 8q49 25 108 42.5t126 24.5q112 12 193.5 -19.5t129.5 -91.5q25 -32 39.5 -69.5
t19.5 -77.5t1.5 -81t-15.5 -79q-22 -72 -66.5 -138t-103.5 -122.5t-127 -101.5t-135.5 -75t-130 -43t-109.5 -5q-15 2 -28.5 6.5t-24 12t-16.5 19.5t-5 30q9 38 33 61t49 45q25 17 50.5 32.5t54.5 28.5zM31 15q-11 -9 -21.5 -19t-20.5 -23q-5 -7 -11 -16t-10 -19t-4 -20.5
t6 -20.5l3 -3t2 -3q20 -18 55.5 -23.5t81.5 2t100 27t110.5 50.5t113.5 74t109 97q24 26 48 56t44 64.5t34.5 73.5t20.5 83q7 52 2 98t-21 84.5t-40.5 68t-55.5 49.5q-73 50 -192 50q-2 0 -1 -1t2 -1q2 -5 -0.5 -9.5t-4.5 -9.5t-4 -9t-4 -9q-27 -68 -54.5 -144t-54 -155
t-51.5 -156t-47 -146q43 17 93 33t107 21q9 1 20 1t21 -1.5t16.5 -6t6.5 -12.5q0 -6 -3 -12t-7.5 -11t-10 -7.5t-9.5 0.5q0 5 3 8l6 6t5.5 6.5t2.5 9.5q-4 5 -12.5 7t-18.5 2t-20 -1t-17 -2q-54 -8 -100.5 -24t-88.5 -33q-13 -42 -29.5 -88.5t-27.5 -92.5q-2 -8 -4 -14
t-10 -5q-7 0 -9 7.5t-1 13.5q1 5 4 6.5t3 5.5q22 77 48 154q-28 -11 -54 -27.5t-49 -33.5zM874 350q16 -2 27 -8.5t9 -25.5q-1 -10 -5.5 -20t-9.5 -20q-9 -19 -18 -37t-17 -38q-4 -10 -7.5 -21t1.5 -22q20 3 31.5 13.5t25.5 19.5l47 42q22 16 42 36.5t46 33.5q3 1 8 3t8 -3
q2 -5 -3.5 -5.5t-8.5 -2.5q-39 -26 -72.5 -58t-68.5 -63q-6 -5 -16.5 -13.5t-21.5 -13.5t-21 -4t-15 16q0 19 4.5 36t11.5 32t15 29.5t16 28.5q5 8 10.5 20t2.5 20q-2 7 -10 8.5t-17 2.5q-24 -35 -49.5 -68.5t-56.5 -62.5l-20 -19q-5 -4 -11.5 -9.5t-14.5 -4.5q-8 2 -10 10
q-4 14 6.5 24.5t20.5 13.5q7 0 7 -7q62 57 109 125q-15 0 -30.5 2t-27 7.5t-16.5 15t1 25.5q4 9 13 19t21 17.5t25 13t25 5.5q16 0 26 -10q6 -10 6.5 -21t-2 -22.5t-7.5 -21.5zM876 426q-7 5 -15 5q-17 -1 -37.5 -15t-29.5 -28q-4 -8 -4 -18q8 -14 28 -15t40 -3q4 6 9 15
t8.5 19t4.5 20.5t-4 19.5z" />
    <glyph glyph-name="F_r" unicode="Fr" horiz-adv-x="893" 
d="M497 720q2 -11 -4 -16.5t-11 -11.5q56 8 116.5 12t125.5 7q45 2 94.5 2t90.5 -9q11 -2 26 -7.5t15 -16.5q0 -8 -8 -12.5t-16 -2.5q-3 4 -1 7.5t4 5.5q-24 8 -51.5 10.5t-56.5 3.5q-88 5 -178 -1.5t-171 -13.5q-15 -20 -27 -41.5t-23 -43.5q-35 -66 -66.5 -136.5
t-60.5 -142.5q57 8 122 13.5t134 1.5q8 -1 16.5 -1.5t13.5 -7.5q0 -8 -6.5 -9t-13.5 -2q-2 1 -2.5 3t-0.5 4q-72 2 -139.5 -3.5t-130.5 -15.5q-44 -103 -80.5 -212.5t-71.5 -221.5q0 -3 2.5 -4t3.5 -6q0 -4 -3.5 -9.5t-5.5 -10.5q-3 -5 -8 -8t-10 1q-1 0 -2 1q-5 8 -3 16.5
t4 16.5q5 23 12.5 45.5t15.5 44.5q18 54 32 95t28 78.5t30 77.5t37 94q-61 -8 -120 -26t-117 -32q-8 -2 -18.5 -4t-12.5 6q-2 7 2.5 10.5t11 6t13.5 3.5t10 3q3 0 7 0.5t6 -1.5q55 14 110 27t115 22q40 94 82 185t88 179q-84 -9 -160.5 -24.5t-152.5 -32.5q5 -3 11 -4t8 -8
q0 -5 -2 -7.5t-4 -4.5q-6 -2 -10.5 0t-9.5 4q-15 4 -32 3t-27 9q1 14 14 17t24 5q83 18 170.5 33t178.5 26q2 5 8.5 11.5t11.5 12.5q5 5 9.5 10.5t13.5 -3.5zM722 350q16 -2 27 -8.5t9 -25.5q-1 -10 -5.5 -20t-9.5 -20q-9 -19 -18 -37t-17 -38q-4 -10 -7.5 -21t1.5 -22
q20 3 31.5 13.5t25.5 19.5l47 42q22 16 42 36.5t46 33.5q3 1 8 3t8 -3q2 -5 -3.5 -5.5t-8.5 -2.5q-39 -26 -72.5 -58t-68.5 -63q-6 -5 -16.5 -13.5t-21.5 -13.5t-21 -4t-15 16q0 19 4.5 36t11.5 32t15 29.5t16 28.5q5 8 10.5 20t2.5 20q-2 7 -10 8.5t-17 2.5
q-24 -35 -49.5 -68.5t-56.5 -62.5l-20 -19q-5 -4 -11.5 -9.5t-14.5 -4.5q-8 2 -10 10q-4 14 6.5 24.5t20.5 13.5q7 0 7 -7q62 57 109 125q-15 0 -30.5 2t-27 7.5t-16.5 15t1 25.5q4 9 13 19t21 17.5t25 13t25 5.5q16 0 26 -10q6 -10 6.5 -21t-2 -22.5t-7.5 -21.5zM724 426
q-7 5 -15 5q-17 -1 -37.5 -15t-29.5 -28q-4 -8 -4 -18q8 -14 28 -15t40 -3q4 6 9 15t8.5 19t4.5 20.5t-4 19.5z" />
    <glyph glyph-name="G_r" unicode="Gr" horiz-adv-x="1085" 
d="M622 335v0q-32 -6 -62 -15t-59 -20q-4 0 -4.5 -3.5t-4.5 -4.5q-3 -2 -5 0.5t-5 0.5q-9 -4 -20.5 -8.5t-23.5 -9.5q-2 -2 -8.5 -5.5t-13 -6.5t-13 -3.5t-8.5 4.5q-3 8 2.5 12t9.5 6q6 4 11.5 6.5t10.5 4.5q11 6 22.5 10t24.5 8h13q46 15 99.5 30t114.5 19q21 2 42 -0.5
t31 -13.5q3 -4 6.5 -13t-4.5 -14q-7 3 -7.5 9.5t-5.5 10.5q-8 7 -25 8.5t-36 0.5t-37.5 -4t-28.5 -5q0 -2 3 -5t1 -8q-11 -34 -25 -66.5t-27 -66.5q-26 -68 -48.5 -137.5t-41.5 -144.5q-10 -38 -17 -77.5t-7 -82.5q0 -3 5 -0.5t6 -2.5q1 -8 -4 -12t-11 -3q-11 5 -11 15.5
v20.5q0 11 1 22.5t2 20.5q8 56 24.5 122t38 132.5t45.5 130.5t47 116q-37 -30 -80 -67.5t-88.5 -77t-91.5 -77.5t-89.5 -68.5t-82.5 -50t-70 -21.5q-32 -2 -48.5 13t-23 39t-5 52.5t6.5 54.5q13 66 45.5 142t81 151.5t112 146.5t137.5 126q26 19 56 37.5t64 31.5
q17 6 37.5 11t39.5 3q40 -5 52 -42q9 -25 5 -55.5t-14.5 -62t-24.5 -61t-25 -53.5q-3 -6 -7 -17t-10 -10q-5 1 -6 5t-3 8q6 18 21.5 48.5t29 65.5t19.5 70.5t-8 64.5q-2 2 -4 4.5t-4 4.5q-9 8 -21 10t-25 1t-26 -5t-24 -8q-46 -18 -84 -44.5t-71 -55.5q-185 -156 -286 -391
q-11 -26 -24 -64t-19.5 -77t-2.5 -72.5t27 -48.5q12 -6 25 -6.5t26.5 2.5t26 7.5t21.5 9.5q56 28 103.5 64t94.5 74q63 50 121 103t118 106h1v1zM912 350q16 -2 27 -8.5t9 -25.5q-1 -10 -5.5 -20t-9.5 -20q-9 -19 -18 -37t-17 -38q-4 -10 -7.5 -21t1.5 -22q20 3 31.5 13.5
t25.5 19.5l47 42q22 16 42 36.5t46 33.5q3 1 8 3t8 -3q2 -5 -3.5 -5.5t-8.5 -2.5q-39 -26 -72.5 -58t-68.5 -63q-6 -5 -16.5 -13.5t-21.5 -13.5t-21 -4t-15 16q0 19 4.5 36t11.5 32t15 29.5t16 28.5q5 8 10.5 20t2.5 20q-2 7 -10 8.5t-17 2.5q-24 -35 -49.5 -68.5
t-56.5 -62.5l-20 -19q-5 -4 -11.5 -9.5t-14.5 -4.5q-8 2 -10 10q-4 14 6.5 24.5t20.5 13.5q7 0 7 -7q62 57 109 125q-15 0 -30.5 2t-27 7.5t-16.5 15t1 25.5q4 9 13 19t21 17.5t25 13t25 5.5q16 0 26 -10q6 -10 6.5 -21t-2 -22.5t-7.5 -21.5zM914 426q-7 5 -15 5
q-17 -1 -37.5 -15t-29.5 -28q-4 -8 -4 -18q8 -14 28 -15t40 -3q4 6 9 15t8.5 19t4.5 20.5t-4 19.5z" />
    <glyph glyph-name="W_r" unicode="Wr" horiz-adv-x="1134" 
d="M402 789q-65 -81 -125.5 -180t-114 -205.5t-97.5 -214t-77 -204.5q-11 -33 -21.5 -67.5t-11.5 -72.5q11 4 31.5 26.5t47 58t58 81t64.5 94t66.5 97.5t65 92t58.5 77t47 52q7 6 16 12t18 4q15 -2 20 -18.5t7 -36.5q5 -57 3 -120t2 -120q4 -56 10 -112.5t25 -98.5
q8 -15 19 -28.5t30 -14.5q28 5 44 25t30 42q16 26 31.5 58.5t29.5 67t25.5 68t20.5 62.5q15 47 28.5 98.5t22.5 105t12.5 106t-2.5 101.5q-2 14 -5.5 27t-13.5 19q-7 0 -10 -4t-7 -7q-3 -4 -6.5 -9.5t-9.5 -1.5q-6 7 0 13.5t9 11.5q5 5 10.5 9t15.5 4q16 -3 22 -17t10 -28
q6 -24 7.5 -51.5t0 -55t-5 -54.5t-7.5 -51q-11 -66 -28 -127t-35 -118q-9 -30 -25 -75t-37 -90.5t-46 -83.5t-52 -54q-13 -8 -29.5 -8.5t-30.5 8.5q-21 14 -33 44q-14 32 -22 74t-12 87.5t-4.5 91.5t-0.5 87.5t-0.5 75t-3.5 53.5q-1 7 -2.5 14t-7.5 11q-7 2 -12.5 -1.5
t-10.5 -6.5q-14 -11 -25.5 -25t-22.5 -28q-16 -18 -30.5 -37t-28.5 -39q-40 -53 -77.5 -107.5t-74.5 -110t-75 -110t-79 -106.5q-4 -3 -8.5 -8t-9.5 -9.5t-11 -7.5t-12 -1t-8.5 9t-4.5 13q2 37 11 70.5t20 64.5q30 90 69.5 189.5t88.5 200.5t106 199t122 187
q15 20 30.5 40.5t32.5 39.5q5 5 11.5 12.5t16.5 5.5l2 -1q8 -10 -2.5 -26t-22.5 -39q-5 -11 -12 -24t-10 -27q-2 -7 -2 -11.5t-5 -5.5q-6 0 -6.5 5t0.5 11q2 17 5.5 29t9.5 23q1 0 1 1v1zM963 350q16 -2 27 -8.5t9 -25.5q-1 -10 -5.5 -20t-9.5 -20q-9 -19 -18 -37t-17 -38
q-4 -10 -7.5 -21t1.5 -22q20 3 31.5 13.5t25.5 19.5l47 42q22 16 42 36.5t46 33.5q3 1 8 3t8 -3q2 -5 -3.5 -5.5t-8.5 -2.5q-39 -26 -72.5 -58t-68.5 -63q-6 -5 -16.5 -13.5t-21.5 -13.5t-21 -4t-15 16q0 19 4.5 36t11.5 32t15 29.5t16 28.5q5 8 10.5 20t2.5 20
q-2 7 -10 8.5t-17 2.5q-24 -35 -49.5 -68.5t-56.5 -62.5l-20 -19q-5 -4 -11.5 -9.5t-14.5 -4.5q-8 2 -10 10q-4 14 6.5 24.5t20.5 13.5q7 0 7 -7q62 57 109 125q-15 0 -30.5 2t-27 7.5t-16.5 15t1 25.5q4 9 13 19t21 17.5t25 13t25 5.5q16 0 26 -10q6 -10 6.5 -21t-2 -22.5
t-7.5 -21.5zM965 426q-7 5 -15 5q-17 -1 -37.5 -15t-29.5 -28q-4 -8 -4 -18q8 -14 28 -15t40 -3q4 6 9 15t8.5 19t4.5 20.5t-4 19.5z" />
    <glyph glyph-name="U_r" unicode="Ur" horiz-adv-x="1033" 
d="M577 -98q-11 -5 -15 3t-6 16q-2 10 -2 21.5t2 20.5q4 47 18.5 114t32.5 137.5t37.5 136t34.5 110.5q-23 -33 -61.5 -88t-85.5 -119.5t-99.5 -132t-104.5 -126t-100 -102t-85 -59.5q-24 -10 -45.5 -8t-35.5 20q-12 16 -16.5 40t-4.5 51t3.5 53.5t7.5 48.5q15 85 39.5 170
t57 167t70.5 161.5t80 154.5q-8 -7 -14.5 -18.5t-14.5 -19.5q-3 -3 -4 -8t-6 -4q-4 1 -4.5 5t1 9.5t3.5 10.5t3 7q4 9 8.5 14.5t8.5 10.5t9 11.5t11 12t13 8.5t17 2q4 -7 3 -13.5t-4.5 -13.5t-7.5 -13t-7 -12q-36 -66 -70.5 -136t-65 -144.5t-56 -154.5t-43.5 -166
q-5 -22 -11 -57.5t-7.5 -71t4.5 -65t26 -38.5q19 -3 34.5 1t28.5 11t24.5 16t22.5 16q41 33 86 80t91 101.5t91.5 113.5t86.5 116.5t77 111t64 95.5q12 32 24.5 64t26.5 61q14 30 28.5 60t38.5 50q10 4 14 -5q3 -6 1 -14.5t-5.5 -16.5t-7.5 -15.5t-4 -12.5q-39 -76 -87 -148
q-44 -121 -84 -252t-66 -274q-3 -19 -7 -43t0 -41q2 -7 6.5 -10t1.5 -11zM808 710q-31 -50 -53 -106q14 26 28 51.5t25 54.5v0zM862 350q16 -2 27 -8.5t9 -25.5q-1 -10 -5.5 -20t-9.5 -20q-9 -19 -18 -37t-17 -38q-4 -10 -7.5 -21t1.5 -22q20 3 31.5 13.5t25.5 19.5l47 42
q22 16 42 36.5t46 33.5q3 1 8 3t8 -3q2 -5 -3.5 -5.5t-8.5 -2.5q-39 -26 -72.5 -58t-68.5 -63q-6 -5 -16.5 -13.5t-21.5 -13.5t-21 -4t-15 16q0 19 4.5 36t11.5 32t15 29.5t16 28.5q5 8 10.5 20t2.5 20q-2 7 -10 8.5t-17 2.5q-24 -35 -49.5 -68.5t-56.5 -62.5l-20 -19
q-5 -4 -11.5 -9.5t-14.5 -4.5q-8 2 -10 10q-4 14 6.5 24.5t20.5 13.5q7 0 7 -7q62 57 109 125q-15 0 -30.5 2t-27 7.5t-16.5 15t1 25.5q4 9 13 19t21 17.5t25 13t25 5.5q16 0 26 -10q6 -10 6.5 -21t-2 -22.5t-7.5 -21.5l-9 -18v0zM864 426q-7 5 -15 5q-17 -1 -37.5 -15
t-29.5 -28q-4 -8 -4 -18q8 -14 28 -15t40 -3q4 6 9 15t8.5 19t4.5 20.5t-4 19.5z" />
    <glyph glyph-name=".notdef" horiz-adv-x="258" 
 />
    <glyph glyph-name="NULL" horiz-adv-x="0" 
 />
    <glyph glyph-name="NULL" horiz-adv-x="0" 
 />
    <glyph glyph-name="nonmarkingreturn" unicode="&#xd;" horiz-adv-x="258" 
 />
    <glyph glyph-name="space" unicode=" " horiz-adv-x="258" 
 />
    <glyph glyph-name="E" unicode="E" horiz-adv-x="606" 
d="M529 677q71 6 150 12t157 0q19 -1 36.5 -3t32.5 -9q4 -2 9 -4t4 -8q-7 -5 -11.5 -1t-9.5 6q-19 7 -43 8.5t-49 1.5q-75 0 -148.5 -4.5t-136.5 -13.5q-63 -93 -122 -189t-113 -198q48 8 99 15.5t104 13.5q6 0 13.5 1.5t12.5 -5.5q-3 -8 -11.5 -8t-14.5 -1
q-54 -7 -107.5 -15.5t-104.5 -18.5q-20 -36 -45.5 -85t-50.5 -100t-46.5 -98t-31.5 -78q-5 -14 -9 -30t2 -32q2 0 2 -1t1 -1q19 -4 36 2t33 12q28 9 72 23.5t95 30t106 30t105.5 23t93.5 9.5t70 -10q5 -2 9 -4t4 -7q-6 -6 -14.5 -1.5t-16.5 6.5q-25 7 -57 4.5t-59 -6.5
q-110 -16 -208 -48t-193 -63q-10 -4 -25 -9t-30 -6.5t-27.5 3t-15.5 20.5q1 33 11 61t21 54q33 78 69.5 150t74.5 146q-28 -5 -56.5 -11t-57.5 -13q-8 -2 -19 -3t-13 10q0 7 3.5 9.5t8.5 3t10.5 0t10.5 -0.5q6 0 11.5 1t17.5 4t33.5 7.5t58.5 10.5q54 100 111 196.5
t120 190.5q-21 -4 -40.5 -8t-39.5 -9q-2 -1 0 -5.5t-3 -5.5q-3 -3 -8.5 -1t-8.5 0l-22 -4l-22 -4q-4 -1 -10.5 -3t-12.5 -2.5t-11 1t-5 6.5q-1 5 4 8.5t11.5 5.5t14 3.5t11.5 3.5q35 10 75 18t77 13q8 9 13.5 19t11.5 20q-2 1 -6.5 0.5t-5.5 2.5t-0.5 6.5t0.5 7.5q3 6 11 8
q18 2 23 -8q2 -18 -6 -29t-13 -24z" />
    <glyph glyph-name="F" unicode="F" horiz-adv-x="568" 
d="M497 720q2 -11 -4 -16.5t-11 -11.5q56 8 116.5 12t125.5 7q45 2 94.5 2t90.5 -9q11 -2 26 -7.5t15 -16.5q0 -8 -8 -12.5t-16 -2.5q-3 4 -1 7.5t4 5.5q-24 8 -51.5 10.5t-56.5 3.5q-88 5 -178 -1.5t-171 -13.5q-15 -20 -27 -41.5t-23 -43.5q-35 -66 -66.5 -136.5
t-60.5 -142.5q57 8 122 13.5t134 1.5q8 -1 16.5 -1.5t13.5 -7.5q0 -8 -6.5 -9t-13.5 -2q-2 1 -2.5 3t-0.5 4q-72 2 -139.5 -3.5t-130.5 -15.5q-44 -103 -80.5 -212.5t-71.5 -221.5q0 -3 2.5 -4t3.5 -6q0 -4 -3.5 -9.5t-5.5 -10.5q-3 -5 -8 -8t-10 1q-1 0 -2 1q-5 8 -3 16.5
t4 16.5q5 23 12.5 45.5t15.5 44.5q18 54 32 95t28 78.5t30 77.5t37 94q-61 -8 -120 -26t-117 -32q-8 -2 -18.5 -4t-12.5 6q-2 7 2.5 10.5t11 6t13.5 3.5t10 3q3 0 7 0.5t6 -1.5q55 14 110 27t115 22q40 94 82 185t88 179q-84 -9 -160.5 -24.5t-152.5 -32.5q5 -3 11 -4t8 -8
q0 -5 -2 -7.5t-4 -4.5q-6 -2 -10.5 0t-9.5 4q-15 4 -32 3t-27 9q1 14 14 17t24 5q83 18 170.5 33t178.5 26q2 5 8.5 11.5t11.5 12.5q5 5 9.5 10.5t13.5 -3.5z" />
    <glyph glyph-name="G" unicode="G" horiz-adv-x="815" 
d="M622 335v0q-32 -6 -62 -15t-59 -20q-4 0 -4.5 -3.5t-4.5 -4.5q-3 -2 -5 0.5t-5 0.5q-9 -4 -20.5 -8.5t-23.5 -9.5q-2 -2 -8.5 -5.5t-13 -6.5t-13 -3.5t-8.5 4.5q-3 8 2.5 12t9.5 6q6 4 11.5 6.5t10.5 4.5q11 6 22.5 10t24.5 8h13q46 15 99.5 30t114.5 19q21 2 42 -0.5
t31 -13.5q3 -4 6.5 -13t-4.5 -14q-7 3 -7.5 9.5t-5.5 10.5q-8 7 -25 8.5t-36 0.5t-37.5 -4t-28.5 -5q0 -2 3 -5t1 -8q-11 -34 -25 -66.5t-27 -66.5q-26 -68 -48.5 -137.5t-41.5 -144.5q-10 -38 -17 -77.5t-7 -82.5q0 -3 5 -0.5t6 -2.5q1 -8 -4 -12t-11 -3q-11 5 -11 15.5
v20.5q0 11 1 22.5t2 20.5q8 56 24.5 122t38 132.5t45.5 130.5t47 116q-37 -30 -80 -67.5t-88.5 -77t-91.5 -77.5t-89.5 -68.5t-82.5 -50t-70 -21.5q-32 -2 -48.5 13t-23 39t-5 52.5t6.5 54.5q13 66 45.5 142t81 151.5t112 146.5t137.5 126q26 19 56 37.5t64 31.5
q17 6 37.5 11t39.5 3q40 -5 52 -42q9 -25 5 -55.5t-14.5 -62t-24.5 -61t-25 -53.5q-3 -6 -7 -17t-10 -10q-5 1 -6 5t-3 8q6 18 21.5 48.5t29 65.5t19.5 70.5t-8 64.5q-2 2 -4 4.5t-4 4.5q-9 8 -21 10t-25 1t-26 -5t-24 -8q-46 -18 -84 -44.5t-71 -55.5q-185 -156 -286 -391
q-11 -26 -24 -64t-19.5 -77t-2.5 -72.5t27 -48.5q12 -6 25 -6.5t26.5 2.5t26 7.5t21.5 9.5q56 28 103.5 64t94.5 74q63 50 121 103t118 106h1v1z" />
    <glyph glyph-name="H" unicode="H" horiz-adv-x="669" 
d="M715 818q6 -11 -0.5 -20.5t-11.5 -15.5q-57 -112 -101 -234.5t-86 -250.5q18 2 39.5 3.5t45.5 1.5h22.5t23 -1.5t18 -5.5t8.5 -11q1 -6 -2 -11t-7 -8l-8 -8t-9 -1q-2 5 -0.5 8t5 5.5t6.5 5t4 6.5q-12 6 -30.5 7.5t-39.5 0.5t-42 -3t-39 -3q-11 -32 -28 -84.5t-36 -114
t-38.5 -125.5t-35.5 -117.5t-27 -90.5t-13 -45q-3 -9 -5 -20t-13 -13q-8 2 -9 11l-2 18q1 4 4 6t5 4q42 146 86 287t92 281q-169 -19 -326 -54l-46 -148t-48 -146q0 -4 2 -5.5t1 -6.5q-4 -9 -7 -19t-14 -12q-6 1 -8 6t-1.5 11t2 12t3.5 10q4 11 7 22t6 21q21 62 40.5 124.5
t40.5 125.5q-63 -14 -101 -23t-63.5 -14.5t-42.5 -8t-38 -2.5q-16 1 -20 11t0.5 20.5t14.5 18t23 3.5q4 -3 5 -9t-1 -11t-6 -7t-8 3q-2 2 -4 -0.5t-4 -3.5q17 -4 33.5 -1t32.5 6q47 8 92.5 18t91.5 20q21 58 37.5 107.5t34 97.5t37.5 99.5t48 113.5q4 6 6 13t12 7
q5 -2 6.5 -7t1 -11.5t-2.5 -12.5t-3 -10q-4 -6 -7 -12t-5 -14q-2 -3 -4 -2t-4 -1q-38 -88 -71.5 -178t-62.5 -185q78 14 159 27t166 22q44 121 87.5 248t97.5 242q5 11 10 21.5t15 13.5q3 1 5 0z" />
    <glyph glyph-name="I" unicode="I" 
d="M875 635q-5 4 -4 7.5t4 6.5t5.5 7t2.5 9q0 8 -7 12t-13 6q-24 10 -54 14t-62.5 3.5t-64.5 -4t-60 -6.5q-1 -3 -1 -6t-1 -6q-9 -23 -26.5 -42.5t-27.5 -42.5q-70 -112 -130 -233t-116 -249q-14 -32 -26.5 -64t-20.5 -70q-2 -5 -3.5 -11.5t-3.5 -12.5q-2 -5 -3.5 -10.5
t-9.5 -6.5q-7 0 -9.5 4t-2.5 9t1.5 11.5t1.5 11.5q2 3 3.5 5t2.5 5q5 10 7 17.5t8 23.5t18.5 46.5t38.5 88.5q62 136 109 226t79 147.5t49.5 87.5t22.5 46q3 5 6.5 10t6.5 10q-103 -16 -177.5 -33.5t-128.5 -33.5t-91.5 -29t-65.5 -19q-8 4 -9 9t2.5 9t10 7.5t12.5 4.5
q8 4 15 8t15 6q6 1 8.5 -1t6.5 -3q61 18 125 35.5t132 32.5t140 25.5t147 13.5q17 1 36.5 0t38.5 -4t35.5 -8t27.5 -11q6 -3 11.5 -8.5t8.5 -12t2.5 -14t-6.5 -14.5q-3 -3 -6 -7.5t-10 -2.5zM603 -126q-2 1 -3 2.5t-3 2.5q-2 2 -0.5 4.5t-0.5 3.5q-66 8 -136.5 5.5
t-136.5 -7.5q-41 -3 -82.5 -7.5t-77 -9.5t-61 -9.5t-32.5 -6.5q-5 -2 -10.5 -4t-10.5 -4q-29 -8 -52.5 -15t-43 -12.5t-36.5 -8.5t-34 -3q-9 3 -10 11q2 10 10 13t15 5q49 17 111 30t127 22t128.5 14t114.5 7q10 0 20 1t21 1q18 0 51.5 1t66.5 -0.5t57 -6.5t23 -18
q0 -5 -4.5 -7.5t-10.5 -3.5z" />
    <glyph glyph-name="J" unicode="J" horiz-adv-x="695" 
d="M592 594q66 11 136.5 20t146.5 12q23 1 47.5 -1t44.5 -10q4 -2 8.5 -5t1.5 -10q-6 -5 -11.5 -1t-11.5 6q-16 5 -45 5t-65 -2.5t-75 -7t-74 -9.5t-63.5 -9.5t-43.5 -6.5q-19 -92 -43 -177.5t-51 -169.5q38 20 78 41t83 38q6 3 13.5 5.5t15.5 5.5q7 3 14 7t13 0
q0 -8 -9.5 -10t-15.5 -6q-107 -44 -197 -99q-25 -75 -54 -144.5t-64 -133.5t-78.5 -120t-101.5 -97q-28 -19 -54 -23t-45.5 6t-30.5 33.5t-9 59.5q3 45 23 80.5t42 64.5q23 30 50.5 55.5t56.5 48.5q57 48 119 90t128 83q27 87 52.5 175.5t45.5 182.5q-98 -15 -175.5 -34.5
t-137 -39t-100.5 -36t-65 -25.5q-6 -2 -15 -4.5t-14 6.5q0 14 9.5 17.5t16.5 11.5l16 10t17 9q17 10 36 17.5t46 7.5q10 -4 14 -7q81 29 171 49.5t184 37.5q5 21 6 47t1 50q2 0 2.5 1.5t2.5 1.5q0 1 3 1q13 0 18.5 -15.5t1.5 -28.5q-2 -5 -4.5 -7t-5.5 -4q0 -12 -1.5 -22
t-3.5 -21zM158 483q-2 1 -1 -0.5t1 0.5q2 0 1 1t-1 -1v0zM211 13q-41 -36 -79.5 -79.5t-58.5 -104.5q-4 -12 -6 -27t-2 -30t4 -28.5t12 -22.5q4 -4 8 -7t9 -6q12 -5 24 -4.5t24 4.5t23 9.5t19 11.5q17 11 30.5 24t26.5 25q39 40 70 89t57.5 102.5t48.5 110t43 113.5
q0 1 -1 2q-67 -42 -129.5 -87t-122.5 -95v0z" />
    <glyph glyph-name="K" unicode="K" horiz-adv-x="695" 
d="M446 816q-5 -22 -15 -39.5t-17 -37.5q-63 -131 -114 -271t-102 -282q9 6 17 13.5t16 15.5q61 62 117 124.5t111.5 122.5t113.5 117.5t124 108.5q2 4 7.5 8.5t12 6.5t12 1t8.5 -8q0 -9 -6.5 -10.5t-11.5 -5.5q-76 -58 -142.5 -125t-130.5 -137l-128 -140t-134 -133
q-2 -8 -5 -15.5t-6 -15.5q45 -11 87 -9t80.5 11t73.5 23t65 28q66 29 122 67.5t99 88.5q3 2 6 6t8 1q3 -5 -1 -9l-6 -6q-20 -24 -42.5 -44.5t-48.5 -39.5q-45 -32 -100.5 -61.5t-114.5 -50t-118.5 -27.5t-112.5 8q-30 -86 -61 -170.5t-55 -177.5q0 -5 3 -6.5t2 -6.5
q-2 -6 -4.5 -12t-10.5 -6q-7 0 -9 6.5t-1.5 14.5t2.5 15.5t3 11.5q22 88 52.5 171t59.5 163q-11 7 -19 0.5t-16 -11.5q-17 -11 -37 -20t-46 -7q-3 2 -6 3t-5 3q-5 5 -8 16q1 20 12.5 30.5t28 13.5t36 0.5t36.5 -7.5q14 8 24.5 17.5t21.5 19.5q60 160 117.5 318t123.5 311
q3 26 18 34q5 2 8.5 -1t5.5 -7zM152 118q1 0 2 -0.5t3 -0.5q-1 2 1 3.5t0 3.5q-2 -2 -3.5 -3t-2.5 -3zM29 83q5 -5 17 -5q20 2 37 14t31 21q-12 4 -28 5.5t-29.5 -1t-22 -10.5t-5.5 -24z" />
    <glyph glyph-name="L" unicode="L" 
d="M207 -52q112 15 229 29.5t245 14.5h63.5t61.5 -4q8 -2 17 -4t11 -10q-1 -8 -7.5 -12.5t-13.5 -2.5q-5 5 0 8t5 5q-38 7 -80 7t-83 -1q-125 -3 -239.5 -17t-221.5 -34q-26 -39 -50.5 -78t-48.5 -80q4 2 10 0.5t7 -6.5q-1 -8 -5 -12l-9 -9q-5 -4 -10 -7.5t-14 -3.5
q-5 1 -8 8q-1 16 5.5 28t12.5 23q6 12 17 29.5t23 36t23 36t17 28.5q-58 -10 -116.5 -26.5t-116.5 -30.5q-9 -2 -19 -2.5t-10 10.5q-1 5 3 10t8 9q8 9 21.5 17t30.5 -1q4 -1 5.5 -4t2.5 -6q50 14 100.5 26t104.5 21q124 194 240 391.5t222 408.5q-2 -1 -5 0t-3 3
q-2 10 1.5 21.5t9.5 21t14 16t16 6.5q7 0 12.5 -3.5t6.5 -8.5q2 -11 -4.5 -16t-8.5 -13q-5 -6 -8 -13t-7 -14q-53 -94 -104.5 -187.5t-104.5 -187.5q-60 -108 -121 -212.5t-127 -207.5zM650 761q-2 -2 -4.5 -5t-0.5 -6q1 3 2.5 5t2.5 6zM-59 -113v0q3 1 5.5 1t4.5 2
q-7 0 -10 -3z" />
    <glyph glyph-name="M" unicode="M" horiz-adv-x="833" 
d="M332 -6q36 93 78.5 181.5t96.5 165.5q26 40 54.5 77t60.5 72q32 36 60 61t41 34q10 6 21 12t27 6q0 -1 1 -1q9 -4 13.5 -12t5.5 -18.5t0.5 -21.5t-1.5 -21q-3 -23 -12.5 -67t-21.5 -99.5t-24.5 -117t-20.5 -118.5q-4 -18 -6 -40t-5 -46q-2 -23 -3 -46.5t5 -40.5
q1 -3 4 -6t6 -7t4 -7.5t-3 -6.5q-5 -4 -9.5 0.5t-6.5 5.5q-11 16 -12.5 37.5t-1.5 44.5t3 45t5 42q13 107 34.5 204t41.5 197q7 34 8.5 51.5t-5.5 28.5q-17 3 -29 -5.5t-23 -15.5q-66 -55 -124.5 -126t-107.5 -150.5t-87.5 -164t-64.5 -165.5q-7 -20 -12.5 -39.5
t-10.5 -43.5q-2 -5 -3.5 -14.5t-7.5 -9.5q-8 0 -8 10t2 17q0 12 7 56t19.5 107.5t29 140t34.5 152.5q12 56 26 114t27.5 112l25.5 102t18 84q2 15 4.5 31.5t-4.5 30.5q-11 0 -19 -3.5t-15 -8.5t-13 -11.5t-12 -11.5q-36 -35 -66.5 -76.5t-59.5 -83.5q-17 -31 -36 -59.5
t-32 -63.5q-41 -103 -76 -210t-71 -215q-23 -60 -41.5 -124.5t-44.5 -122.5l-8 -16t-13 -11q-11 5 -10.5 17t1.5 22q4 32 11.5 64t14.5 61q30 119 74.5 225.5t91.5 209.5q10 22 22.5 43.5t22.5 44.5t18.5 47.5t19.5 48.5q-1 6 -1 9.5t1 9.5q5 21 14 36q2 1 4.5 5.5t5.5 9
t6 7.5t8 3q7 -1 8.5 -6t0 -12t-4.5 -13.5t-4 -10.5q3 1 5.5 5.5t4.5 8.5q3 3 10.5 14t19 27.5t26.5 36.5t32 41q20 24 42.5 47t52.5 37q2 0 2 0.5t1 0.5q2 0 5 0.5t5 -1.5q11 -6 15.5 -18t4.5 -26t-2.5 -29l-4.5 -27q-15 -81 -36.5 -157t-38.5 -154q-23 -105 -46.5 -209
t-43.5 -213zM11 -19q-9 -35 -18 -71t-11 -75q24 65 46 131l44 132q21 66 44 132t43 132q-54 -113 -90 -209t-58 -172z" />
    <glyph glyph-name="N" unicode="N" horiz-adv-x="737" 
d="M277 627q3 1 6 6.5t17 20.5q8 11 17.5 21t20.5 19q10 9 22.5 17.5t30.5 6.5q20 -4 27.5 -33t7 -77t-6.5 -111t-13 -134t-13 -147t-6 -149q0 -19 0.5 -48t3.5 -59.5t9 -58t17 -43.5q8 -11 17 -12t17.5 4t16 13.5t12.5 16.5q23 35 40.5 77.5t31.5 85.5q20 60 39.5 119
t36.5 119q25 87 47 168.5t39 147.5t30 111.5t22 61.5q2 1 1.5 2t1.5 1q1 0 1.5 0.5t1.5 0.5q8 1 12 -7q2 -19 -3.5 -35.5t-13.5 -27.5q-32 -119 -67 -233.5t-70 -230.5q-11 -31 -24 -73.5t-28.5 -89t-32 -91.5t-34.5 -80t-37 -56.5t-39 -19.5q-11 1 -19.5 8.5t-14.5 18.5
t-9.5 24t-6.5 24q-12 53 -12 113t2 119q2 77 9 154t14 146t10.5 126t-1.5 95q-2 14 -5.5 27t-13.5 16q-13 2 -25 -7t-20 -17q-26 -25 -48 -55t-42 -60q-57 -152 -110 -306t-113 -303q-5 -8 -9.5 -17.5t-15.5 -11.5q-12 -1 -12.5 13.5t1.5 27.5q5 35 14.5 66.5t19.5 61.5
q33 104 71.5 198t86.5 184q9 18 19 35.5t18 35.5q14 40 29 78t29 80q1 15 7 29q2 6 5 13t11 6q10 0 10 -11t-2 -19q-8 -24 -17.5 -49t-17.5 -46zM181 431q-49 -102 -91.5 -210t-68.5 -230q42 109 81.5 219t78.5 221q2 0 1 1t-1 -1z" />
    <glyph glyph-name="O" unicode="O" horiz-adv-x="828" 
d="M531 781q-47 -24 -87.5 -53.5t-78.5 -61.5q29 12 61.5 20t70.5 3q32 -4 59 -18t46 -34q39 -39 60.5 -99t21.5 -135q1 -70 -14 -126.5t-35 -108.5q51 29 97 65t89 74q8 3 13 10.5t15 5.5q2 -10 -7 -15.5t-14 -11.5q-42 -38 -96 -80t-106 -70q-36 -76 -84 -142t-112 -116
q-32 -24 -70 -44.5t-86 -27.5q-55 -8 -96.5 10t-68.5 48q-38 39 -55 97t-17 134q1 72 20 131.5t41 110.5q26 60 63.5 117t82.5 109t96.5 97.5t106.5 83.5q25 16 51 33t47 20q5 2 11 -0.5t7 -9.5q1 -9 -7.5 -16.5t-16.5 -23.5q-4 -6 -7.5 -16t-11.5 -8q-9 2 -6.5 11.5
t4.5 13.5q3 8 6.5 13t6.5 10zM600 614q-21 24 -55.5 42.5t-78.5 16.5q-40 -2 -73.5 -15t-59.5 -31q-27 -18 -48.5 -40t-41.5 -46q-45 -55 -71 -120.5t-21 -137.5q2 -41 16.5 -71.5t38 -51.5t54.5 -33.5t67 -19.5q62 -12 122 -3.5t107 26.5q16 6 31.5 12t28.5 16
q22 47 36.5 107.5t15.5 123.5t-14.5 122t-53.5 103zM149 405q0 -1 -0.5 -1t-0.5 -1q-33 -61 -59 -130.5t-32 -157.5q-5 -93 24.5 -162.5t89.5 -100.5q34 -17 74.5 -18t79.5 13q35 13 64 31.5t54 39.5q52 45 91.5 99t70.5 117q-102 -48 -191.5 -49.5t-159.5 27.5
q-57 23 -90 71t-30 130q2 25 5.5 47t9.5 45q2 0 1 1t-1 -1z" />
    <glyph glyph-name="P" unicode="P" horiz-adv-x="682" 
d="M439 739q54 7 104.5 -1.5t83.5 -28.5q17 -11 32.5 -23.5t26.5 -29t18 -37.5t7 -48q1 -29 -7 -57t-19 -51q-32 -68 -82 -121.5t-102 -99.5q-37 -30 -75.5 -59.5t-79.5 -55.5t-86.5 -48t-96.5 -38q-17 -49 -30.5 -99t-28.5 -101q9 -3 9.5 -10t-4 -14.5t-11.5 -13.5t-12 -7
q-10 2 -10.5 10.5t1.5 15.5q5 23 13 46.5t14 44.5q8 32 17 62.5t18 60.5q-26 -5 -48.5 2.5t-28.5 27.5q-5 22 -0.5 41t13.5 35t21 29.5t23 24.5q22 20 47 36t51 31q45 116 90.5 229t93.5 225q-45 -9 -85.5 -23.5t-76.5 -33.5t-69.5 -41t-65.5 -45q3 -2 6 -2t3 -4
q-2 -7 -7.5 -9t-9.5 -6q-4 -2 -6.5 -6t-6.5 -6q-3 -3 -7.5 -5.5t-8.5 -5.5q-11 -7 -23 -16t-26 -14q-8 3 -9.5 7t1 9t6.5 10t8 8q14 14 31.5 28t31.5 25q66 51 144 89.5t176 57.5q4 5 7 13.5t6 16.5t7 14.5t11 8.5q3 2 7 -0.5t6 -6.5q3 -10 -2 -23t-10 -18zM428 738h6
q-2 3 -4 3q0 -1 -2 -3zM399 181q52 37 98 79t88 90q18 20 36 44.5t33 51t25 54t12 54.5q4 62 -27 100.5t-79 55.5q-16 6 -36.5 10t-42.5 5.5t-44.5 0.5t-41.5 -5q-51 -107 -96 -220t-85 -228q14 8 29 14t29 12q4 1 11 5t9 -4q1 -5 -6 -8.5t-12 -5.5q-18 -8 -35.5 -15
t-31.5 -15q-17 -49 -33.5 -98.5t-30.5 -100.5q67 20 123 53.5t108 70.5zM209 244l-2 -2q-21 -11 -44 -27t-42.5 -35t-33 -41t-15.5 -46q-2 -32 19.5 -40t50.5 -3q17 49 34 97.5t33 96.5z" />
    <glyph glyph-name="Q" unicode="Q" horiz-adv-x="726" 
d="M540 800l10 12t9 11q-36 -11 -66 -28.5t-59 -37.5q33 -16 60.5 -40t52.5 -51q62 -68 90 -137.5t30 -150.5q1 -48 -8 -91t-23 -80q-20 -49 -46.5 -89.5t-57.5 -78.5q28 -56 58.5 -108.5t58.5 -109.5q3 -2 6.5 -6.5t4.5 -9t-1 -8.5t-8 -5q-11 2 -14 9t-8 15
q-28 52 -54.5 104.5t-53.5 105.5q-12 -8 -23.5 -22t-37.5 -34q-30 -26 -64 -48t-76 -37q-68 -24 -127.5 -9.5t-100.5 59.5t-57.5 118.5t1.5 168.5q17 92 54 168t83 142q47 66 103.5 121t119.5 103q-24 8 -47 3.5t-38 -15.5q-5 -3 -10.5 -7.5t-11.5 -2.5q-3 11 8 16.5
t17 11.5q8 5 20 8t25.5 4t26.5 -1t23 -6q17 10 36 22.5t39.5 24t42.5 20.5t45 13q7 2 15 -1t9 -11t-8 -14t-24 -23q-4 -4 -8.5 -6t-7.5 -7q-3 -4 -4.5 -9t-6.5 -5t-5.5 4t1 9t3.5 9.5t4 6.5zM418 746q-67 -48 -124.5 -105t-105.5 -126q-47 -68 -84.5 -147.5t-51.5 -177.5
q-7 -48 -2 -97.5t24 -91t52 -71t81 -37.5q54 -9 99.5 8t79.5 38q73 45 126 105q-29 63 -62 124.5t-57 129.5q-3 8 -7 20t10 16q10 0 11 -7.5t3 -15.5q3 -12 8.5 -24t8.5 -22q21 -55 45.5 -106t50.5 -102q8 6 15 16.5t14 18.5q13 18 27 39q15 24 28.5 52t24 59.5t16.5 67.5
t4 76q-3 78 -28.5 136t-61.5 103q-28 38 -62 69.5t-78 53.5h-2z" />
    <glyph glyph-name="R" unicode="R" horiz-adv-x="738" 
d="M227 101q85 -40 162.5 -86.5t159.5 -89.5q24 -13 49 -23t53 -20q2 -2 6.5 -3.5t2.5 -6.5q0 -5 -5.5 -5t-8.5 2q-61 22 -116 50t-108 58t-106.5 59.5t-111.5 55.5q-12 -4 -23.5 -8t-23.5 -7q-17 -39 -32 -79.5t-29 -82.5q-2 -4 1 -6t2 -7q-6 -8 -8.5 -18t-14.5 -11
q-7 3 -8.5 9t0 13.5t4.5 14t5 11.5q14 38 27.5 75.5t27.5 72.5q-15 -4 -36 -7.5t-43.5 -4t-43 2.5t-33.5 12q-6 5 -10.5 11t-3.5 17q1 10 6.5 15t10.5 11q16 11 39 15.5t47.5 4t49 -5t42.5 -11.5q29 67 55 126.5t50 117t46 114t42 117.5q3 9 7 17.5t12 8.5q5 -1 8 -5.5
t3 -7.5q1 -11 -4.5 -14.5t-8.5 -8.5q-3 -4 -14.5 -31.5t-28.5 -69t-37.5 -93l-41 -103t-39 -97.5t-31.5 -77q8 -4 16 -7l16 -6q107 42 196 99t170 124q19 17 47 43t56.5 58t54 68.5t39.5 75.5q11 28 13.5 60.5t-11.5 60.5q-23 46 -79 68.5t-123 20.5q-77 -3 -155.5 -30.5
t-147 -69.5t-122.5 -94.5t-82 -106.5q-7 -12 -12.5 -26t-2.5 -30q4 -5 11 -6.5t15 -1.5t16 1t14 1q8 -2 14 -11.5t-3 -16.5q-7 -2 -10 2t-8 6q-12 -3 -25 -3t-23 4t-16.5 12.5t-5.5 22.5q8 48 32 81t50 64q61 65 140 115t176 81q17 5 33.5 10t34.5 8q30 6 62 7.5t63 -1.5
t58.5 -11t48.5 -21q27 -17 46.5 -38.5t27.5 -54.5q11 -42 -2 -86t-39 -86.5t-60.5 -80.5t-66.5 -68q-86 -80 -187.5 -144.5t-216.5 -114.5zM-22 96q2 -9 11 -13.5t18 -6.5q16 -4 34 -4t35.5 2t33.5 5.5t29 6.5q2 7 5.5 13t5.5 14q-28 10 -57.5 13.5t-54 1t-41 -10.5
t-19.5 -21zM164 93q5 2 10 3.5t10 3.5q-5 2 -8 3.5t-8 2.5q-1 -3 -3 -6.5t-1 -6.5z" />
    <glyph glyph-name="S" unicode="S" horiz-adv-x="723" 
d="M633 414q5 3 9 0t7 -4q20 32 39 65.5t36 70.5q7 15 14.5 36.5t10 45t-1.5 45t-19 35.5q-14 14 -34.5 19.5t-43.5 6t-46 -3t-42 -7.5q-42 -11 -79 -26.5t-69 -32.5q-68 -36 -129 -77t-115 -90q-20 -19 -48.5 -46.5t-48.5 -61.5q-8 -15 -15.5 -36t2.5 -41
q13 -26 51.5 -43.5t89 -35t107 -38.5t105.5 -53q27 16 60.5 36t70.5 41t75.5 41.5t75.5 38.5q20 9 28 14t14 1q3 -8 -2.5 -10.5t-10.5 -5.5q-79 -37 -151 -79.5t-146 -84.5q8 -8 20.5 -19t23.5 -25.5t18 -33t5 -40.5q-2 -32 -21 -54.5t-38 -39.5q-24 -21 -58 -42.5
t-71.5 -39t-75 -30.5t-67.5 -15.5t-50 6t-23 32.5q-2 18 3 33.5t12 28.5q19 36 54.5 70t76.5 64t84.5 56.5t79.5 48.5q-37 26 -80.5 43.5t-86.5 32t-81 28t-65 30.5t-39.5 39.5t-2.5 55.5q10 26 25 48.5t32.5 42t36.5 37.5t39 35q63 56 141.5 106t161.5 83q36 15 75.5 26.5
t83.5 12.5q57 1 92.5 -23.5t37.5 -79.5q2 -28 -5 -52t-15 -45q-15 -38 -37.5 -77.5t-45.5 -73.5q-3 -5 -7.5 -12t-11.5 -7q-10 -1 -17 9.5t2 20.5zM410 123q-35 -21 -77.5 -47.5t-83 -56.5t-74.5 -64t-52 -70q-6 -13 -11.5 -27.5t1.5 -31.5q9 -11 26 -12t32 1q47 7 84.5 25
t72.5 35q23 12 44.5 26t41.5 30q19 18 37 36t23 49q2 19 -3 35.5t-14.5 30t-21 24t-22.5 18.5q-2 0 -3 -1z" />
    <glyph glyph-name="T" unicode="T" horiz-adv-x="505" 
d="M513 666q84 10 179 18.5t194 1.5q28 -2 60 -6q13 -3 27 -7.5t16 -16.5q1 -7 -3 -10t-7 -8q-3 -2 -8 -5t-10 2q-1 9 5 10.5t8 8.5q-14 9 -46 12.5t-68.5 4.5t-70.5 0t-50 -2q-62 -2 -121 -8t-114 -14q-48 -97 -91 -194t-89 -194q-45 -97 -89 -194.5t-83 -200.5
q2 -2 6.5 -2t4.5 -5q1 -8 -4.5 -12.5t-8.5 -9.5q-4 -5 -9 -9.5t-14 -2.5q-6 5 -4 14.5t5 14.5q35 95 82.5 203t97.5 214.5t97 203.5t80 171q-116 -15 -223.5 -39t-216.5 -50q-25 -6 -53.5 -13t-59.5 -6q-9 0 -18 1.5t-12 10.5q-2 12 6 18t17 11q11 5 26.5 10.5t32 7.5
t32.5 0.5t28 -10.5q2 -3 0 -6.5t-2 -4.5q109 26 220.5 49t230.5 40q8 17 15.5 36t15.5 37q-5 8 -1.5 18.5t12.5 10.5q5 0 9.5 -3.5t5.5 -7.5q1 -6 -2.5 -12.5t-5.5 -11.5q-7 -15 -15 -33.5t-14 -30.5zM-75 556q30 -2 56 4t51 12q-28 9 -57.5 2t-49.5 -18z" />
    <glyph glyph-name="U" unicode="U" horiz-adv-x="751" 
d="M577 -98q-11 -5 -15 3t-6 16q-2 10 -2 21.5t2 20.5q4 47 18.5 114t32.5 137.5t37.5 136t34.5 110.5q-23 -33 -61.5 -88t-85.5 -119.5t-99.5 -132t-104.5 -126t-100 -102t-85 -59.5q-24 -10 -45.5 -8t-35.5 20q-12 16 -16.5 40t-4.5 51t3.5 53.5t7.5 48.5q15 85 39.5 170
t57 167t70.5 161.5t80 154.5q-8 -7 -14.5 -18.5t-14.5 -19.5q-3 -3 -4 -8t-6 -4q-4 1 -4.5 5t1 9.5t3.5 10.5t3 7q4 9 8.5 14.5t8.5 10.5t9 11.5t11 12t13 8.5t17 2q4 -7 3 -13.5t-4.5 -13.5t-7.5 -13t-7 -12q-36 -66 -70.5 -136t-65 -144.5t-56 -154.5t-43.5 -166
q-5 -22 -11 -57.5t-7.5 -71t4.5 -65t26 -38.5q19 -3 34.5 1t28.5 11t24.5 16t22.5 16q41 33 86 80t91 101.5t91.5 113.5t86.5 116.5t77 111t64 95.5q12 32 24.5 64t26.5 61q14 30 28.5 60t38.5 50q10 4 14 -5q3 -6 1 -14.5t-5.5 -16.5t-7.5 -15.5t-4 -12.5q-39 -76 -87 -148
q-44 -121 -84 -252t-66 -274q-3 -19 -7 -43t0 -41q2 -7 6.5 -10t1.5 -11zM808 710q-31 -50 -53 -106q14 26 28 51.5t25 54.5v0z" />
    <glyph glyph-name="V" unicode="V" horiz-adv-x="531" 
d="M745 831q1 -12 -5 -19t-11 -15q-32 -47 -63 -90q-63 -91 -125 -180.5t-121 -183.5q-46 -70 -85.5 -134t-73.5 -119.5t-63.5 -101t-56.5 -78.5q-6 -6 -11.5 -13.5t-12.5 -13.5t-15.5 -10t-20.5 -4q-1 0 -1 1q-8 2 -12 7.5t-7 13.5q-8 22 -6 68t10.5 108t24 136t36 150.5
t45.5 152t52 140.5q0 9 2.5 18t5.5 17t7.5 15t14.5 5q11 -2 7.5 -13t-6.5 -19q-4 -9 -7 -16.5t-4 -15.5q-19 -40 -34 -84t-29 -89q-29 -90 -53 -181.5t-41 -194.5q-6 -38 -11.5 -76.5t-3.5 -84.5q0 -13 3 -27.5t11 -16.5t16.5 5.5t13.5 12.5q19 19 33 39.5t30 42.5
q46 70 98.5 156t116.5 188t141 219.5t171 251.5q1 4 -2 5.5t-1 6.5q1 3 5.5 6t8.5 8q8 6 14.5 12t14.5 -5z" />
    <glyph glyph-name="W" unicode="W" horiz-adv-x="863" 
d="M402 789q-65 -81 -125.5 -180t-114 -205.5t-97.5 -214t-77 -204.5q-11 -33 -21.5 -67.5t-11.5 -72.5q11 4 31.5 26.5t47 58t58 81t64.5 94t66.5 97.5t65 92t58.5 77t47 52q7 6 16 12t18 4q15 -2 20 -18.5t7 -36.5q5 -57 3 -120t2 -120q4 -56 10 -112.5t25 -98.5
q8 -15 19 -28.5t30 -14.5q28 5 44 25t30 42q16 26 31.5 58.5t29.5 67t25.5 68t20.5 62.5q15 47 28.5 98.5t22.5 105t12.5 106t-2.5 101.5q-2 14 -5.5 27t-13.5 19q-7 0 -10 -4t-7 -7q-3 -4 -6.5 -9.5t-9.5 -1.5q-6 7 0 13.5t9 11.5q5 5 10.5 9t15.5 4q16 -3 22 -17t10 -28
q6 -24 7.5 -51.5t0 -55t-5 -54.5t-7.5 -51q-11 -66 -28 -127t-35 -118q-9 -30 -25 -75t-37 -90.5t-46 -83.5t-52 -54q-13 -8 -29.5 -8.5t-30.5 8.5q-21 14 -33 44q-14 32 -22 74t-12 87.5t-4.5 91.5t-0.5 87.5t-0.5 75t-3.5 53.5q-1 7 -2.5 14t-7.5 11q-7 2 -12.5 -1.5
t-10.5 -6.5q-14 -11 -25.5 -25t-22.5 -28q-16 -18 -30.5 -37t-28.5 -39q-40 -53 -77.5 -107.5t-74.5 -110t-75 -110t-79 -106.5q-4 -3 -8.5 -8t-9.5 -9.5t-11 -7.5t-12 -1t-8.5 9t-4.5 13q2 37 11 70.5t20 64.5q30 90 69.5 189.5t88.5 200.5t106 199t122 187
q15 20 30.5 40.5t32.5 39.5q5 5 11.5 12.5t16.5 5.5l2 -1q8 -10 -2.5 -26t-22.5 -39q-5 -11 -12 -24t-10 -27q-2 -7 -2 -11.5t-5 -5.5q-6 0 -6.5 5t0.5 11q2 17 5.5 29t9.5 23q1 0 1 1v1z" />
    <glyph glyph-name="X" unicode="X" horiz-adv-x="545" 
d="M841 750q-62 -57 -127 -119.5t-127 -125t-117.5 -120.5t-100 -105.5t-74 -80t-38.5 -44.5q17 -62 43 -121t66 -103q7 -7 16 -15.5t19.5 -15t22.5 -10t25 -0.5q7 2 11.5 5t11.5 1q2 -6 -3.5 -9.5t-10.5 -5.5q-15 -6 -29.5 -4t-27 8.5t-23.5 15.5t-19 17
q-42 42 -69.5 100.5t-46.5 120.5q-6 -4 -10.5 -9.5t-9.5 -10.5q-25 -29 -50 -56q-21 -23 -44.5 -49.5t-40.5 -46.5q-29 -34 -56 -67.5t-49 -73.5q-4 -7 -7 -13.5t-8 -13.5q-2 -6 -8 -12.5t-15 -1.5q-2 -1 -2 -0.5t-1 0.5q-5 10 1 18.5t12 12.5q28 50 62 94t71.5 84.5
t75.5 80.5t74 82q-14 65 -15.5 133t5 135.5t19 133t27.5 127.5q-6 -9 -15 -18.5t-16 -20.5q-3 -5 -5 -12t-10 -6q-5 2 -4 7.5t3 8.5q8 20 19 35.5t23 32.5q4 6 11 13.5t16 2.5q5 -8 4 -16t-3 -16q-5 -25 -11 -49t-11 -50q-10 -49 -18 -102t-12 -107t-2.5 -109t10.5 -107
q134 140 268.5 281.5t276.5 278.5l19.5 19.5t25 24.5t23 21.5t14.5 11.5q0 1 2 1q10 2 12 -5q1 -8 -7.5 -15t-13.5 -12q-9 -9 -15 -17.5t-17 -11.5z" />
    <glyph glyph-name="Y" unicode="Y" horiz-adv-x="704" 
d="M488 168q18 12 30.5 21t31 21.5t48.5 32.5t84 53q8 3 14 9.5t17 5.5q1 -11 -9 -15t-17 -10q-55 -34 -107.5 -70t-103.5 -74q-53 -95 -109.5 -184.5t-127.5 -166.5q-17 -16 -37.5 -34.5t-43.5 -31.5q-6 -3 -15 -6.5t-17.5 -4t-15.5 2.5t-11 12t-3 19.5t4.5 20.5t8.5 19.5
t8 15.5q9 17 19 30t21 27q66 79 142 148t157 133q37 74 71 148.5t62 156.5q5 14 9 28l8 28t7.5 29.5t1.5 31.5q-23 -9 -38 -26t-31 -34q-15 -15 -38.5 -43t-49 -58.5t-50 -59t-40.5 -46.5q-46 -51 -91 -101t-102 -91q-16 -11 -39.5 -25.5t-49.5 -14.5q-23 0 -33.5 15.5
t-13 37t1 45.5t7.5 42q12 52 31.5 106t43.5 107.5t51 104.5t54 96q0 3 -1.5 8t-0.5 11q5 21 22 40q7 7 17.5 18t17.5 11q9 1 12 -7q3 -11 -6 -20t-11 -17q-20 -33 -37 -61.5t-33 -57.5t-31.5 -60t-31.5 -67q-11 -24 -24 -56.5t-25 -66t-21 -65.5t-13 -55q-2 -11 -3 -25
t0.5 -26.5t6 -22.5t14.5 -13q15 0 27.5 3.5t23 9.5t19.5 13t19 13q59 44 116.5 103.5t110 121t98.5 117t83 91.5q10 6 18.5 14.5t22.5 7.5q7 -1 10.5 -7t4.5 -14t0 -17.5t-2 -17.5q-9 -44 -24 -84t-30 -76q-21 -53 -43 -102.5t-46 -94.5zM435 109q-39 -30 -79.5 -65.5
t-76.5 -71t-66.5 -68t-49.5 -56.5q-14 -17 -28 -38.5t-22 -45.5q-3 -9 -3.5 -20t5.5 -15q7 -5 17.5 -1.5t16.5 7.5q23 11 39.5 27.5t33.5 32.5q64 69 116 149t100 167h-1q-2 0 -2 -2z" />
    <glyph glyph-name="Z" unicode="Z" horiz-adv-x="756" 
d="M328 271q8 -10 19.5 -14t22.5 -9q35 -13 67.5 -30t55.5 -43q58 33 117.5 63.5t121.5 59.5q9 4 17.5 8.5t18.5 4.5q0 -5 -3.5 -8t-8 -5t-9 -3.5t-7.5 -4.5q-63 -29 -121.5 -59.5t-117.5 -62.5q14 -24 25 -50.5t8 -65.5q-2 -25 -9.5 -48t-18.5 -43q-32 -58 -80.5 -102
t-104.5 -75q-37 -20 -84.5 -36.5t-102.5 -14.5q-27 1 -51 8.5t-38 22.5q-14 16 -15.5 41.5t12.5 47.5q18 29 42 52.5t50 43.5q79 60 166.5 113t176.5 104q-7 9 -15.5 16.5t-19.5 15.5q-21 15 -43.5 24t-41.5 16t-31 13.5t-13 17.5q-1 7 2.5 13t9 11t12 9t11.5 7q21 14 61 38
t86.5 53t94 60.5t85.5 62t61 57t19 45.5q-10 20 -37 23t-53 1q-56 -4 -127.5 -27t-145.5 -61.5t-144 -90.5t-123 -114q-5 -5 -7 -13t-10 -8t-9 9.5t1 18.5q2 11 8 22t18 3q61 66 137 116.5t152 86t145.5 54.5t117.5 21q37 2 61 -5.5t32.5 -23t-0.5 -38t-36 -49.5
q-35 -35 -80.5 -68t-94 -64t-94.5 -57.5t-82 -47.5q-16 -9 -31 -18.5t-25 -23.5zM112 -85q-14 -12 -28.5 -27t-25.5 -32t-15.5 -35t2.5 -34q9 -21 33 -30.5t54 -11t61.5 5t55.5 17.5q81 31 144 86q24 20 46.5 45.5t40 54t27.5 59t9 61.5q-2 26 -10 46.5t-22 36.5h-1
q-98 -56 -192 -114.5t-179 -127.5z" />
    <glyph glyph-name="a" unicode="a" horiz-adv-x="211" 
d="M66 324q2 0 4.5 1.5t6.5 0.5q4 -4 5 -10t0.5 -13t-1.5 -15t-1 -15q0 -17 10 -23q23 -2 41 6.5t34 17.5q15 9 24.5 16t14.5 11.5t8 5.5t6 -3q0 -5 -3.5 -8t-6.5 -6q-3 -2 -6.5 -5t-7.5 -5q-6 -5 -13.5 -9.5t-14.5 -9.5q-9 -4 -18.5 -8.5t-19.5 -8.5t-21 -5.5t-24 0.5
q-15 7 -16 29.5t3 41.5q-5 -3 -10.5 -9.5t-10.5 -12.5q-8 -6 -15 -14t-15.5 -16t-17.5 -14t-20 -6q-4 2 -10 8q-3 21 6.5 38.5t20.5 33.5q10 13 21 24.5t25 16.5q10 4 20 0q2 -2 3 -4t3 -4q2 -8 0 -14.5t-4 -12.5zM-9 260q11 5 19 12t16 15q-2 4 -2 7q6 11 13.5 21t9.5 24
q-18 -16 -33 -34.5t-23 -44.5z" />
    <glyph glyph-name="b" unicode="b" horiz-adv-x="285" 
d="M-31 136q23 41 48.5 84t59.5 77q11 11 25 22t29 14q4 1 7.5 1h6.5q13 -2 18 -13t5 -25t-3.5 -28t-7.5 -23q31 16 48.5 24.5t28 13.5t19.5 9t24 11q4 2 8.5 4.5t8.5 -2.5q1 -7 -4.5 -8.5t-10.5 -3.5q-32 -16 -65.5 -32.5t-64.5 -33.5q-20 -35 -43 -66t-57 -53
q-4 -3 -11 -7t-15.5 -6.5t-15.5 -1.5t-11 8q-2 5 -1 11t3 11q9 22 39 45.5t94 61.5q5 13 12.5 30t7.5 35q0 6 -1.5 12.5t-7.5 8.5q-20 -2 -34 -14t-25 -24q-12 -13 -22 -26.5t-21 -27.5q-14 -23 -27 -46.5t-27 -46.5q-5 -8 -9 -15.5t-15 -8.5q-6 2 -8.5 8t-3 13.5t0.5 15
t2 13.5q6 40 18 76t23 70q2 3 0.5 5.5t-0.5 6.5q0 3 3 3t4 3q35 88 77 171t97 153q5 7 14 18.5t21 23.5t26.5 22t29.5 14q15 1 22 -6q10 -16 2.5 -34t-13.5 -31q-7 -14 -15 -28t-16 -27q-51 -78 -109 -149.5t-122 -137.5q-14 -42 -27.5 -83t-18.5 -91zM267 705
q-26 -11 -43.5 -30.5t-34.5 -39.5q-48 -63 -87 -135.5t-72 -151.5q2 -2 4.5 1.5t4.5 5.5q2 3 4.5 5t4.5 5q7 7 25 27.5t41 48.5t48.5 61.5t48.5 66.5t40 62.5t23 50.5q2 5 3.5 11.5t-3.5 11.5q-4 1 -7 0zM25 140q-7 -6 -13 -14.5t-4 -19.5q23 2 36.5 15.5t27.5 24.5
q12 14 24 29t21 32q1 0 1 1t-1 0q-23 -16 -46.5 -30.5t-45.5 -37.5z" />
    <glyph glyph-name="c" unicode="c" horiz-adv-x="217" 
d="M94 370q-15 -1 -23.5 -8t-17.5 -14q-10 -10 -22 -23t-23 -28.5t-18.5 -33.5t-7.5 -37q0 -12 5 -23.5t16 -16.5q23 -7 42 1.5t35 19.5q32 20 51 36t45 35q5 5 11 9t13 9q5 5 11 10t14 4q2 -6 -1.5 -9.5t-6.5 -5.5q-40 -30 -72 -56t-58.5 -44t-48.5 -25t-43 1
q-26 15 -29 51q-2 33 13 58t29 44q16 20 34.5 37.5t44.5 26.5q1 0 1 0.5t1 0.5q5 0 8 -0.5t6 -1.5q11 -6 10 -19.5t-6 -26.5q-3 -6 -7 -11t-6 -10t-4 -12.5t-12 -5.5q-6 1 -7 5.5t0.5 9.5t4 10t5.5 7q4 9 8 17t5 19z" />
    <glyph glyph-name="d" unicode="d" horiz-adv-x="314" 
d="M265 609q4 -10 1 -20t-6 -18q-9 -22 -24.5 -50.5t-33 -57.5t-35 -56.5t-30.5 -46.5q-5 -22 -11.5 -48.5t-10.5 -55t-3 -57.5t10 -55q3 -4 6 -7t8 -5q22 2 32.5 14.5t22.5 23.5q31 37 59 73t48 56l13 13t16 4q3 -3 2.5 -8t-2.5 -8.5t-5.5 -4.5t-5.5 5q-34 -32 -61.5 -71
t-59.5 -75q-11 -12 -22.5 -23t-28.5 -15h-10q-12 3 -19.5 12.5t-12 22.5t-6 28t-1.5 29q1 32 6 61t10 52q-3 -3 -5.5 -7t-5.5 -8q-3 -34 -17 -60q-1 -3 -0.5 -6t-2.5 -5t-6 -0.5l-5 2.5q-4 3 -4 10.5t2 12.5q-9 -9 -20 -23t-22.5 -28t-23.5 -26.5t-25 -19.5
q-9 -5 -19.5 -3.5t-12.5 14.5q2 33 14.5 61.5t26.5 51.5q14 22 30.5 41t41.5 27q2 0 2 0.5t1 0.5h11q11 -3 18 -10q2 -4 4.5 -8t4.5 -9q7 7 12.5 16t11.5 17q9 30 20 60.5t24 60.5t28.5 57t33.5 50q6 8 13.5 15t15.5 7q4 1 8 -3zM154 409q26 46 54.5 89.5t45.5 98.5
q0 1 -1 0q-35 -37 -58.5 -86t-40.5 -102zM25 233l28 34t26 35q1 11 -1 20.5t-8 14.5q-16 2 -28.5 -8.5t-20.5 -19.5q-17 -18 -28.5 -39t-20.5 -43q-5 -12 -9 -25t-2 -27q20 10 35 25.5t29 32.5z" />
    <glyph glyph-name="e" unicode="e" horiz-adv-x="223" 
d="M236 312q-2 -9 -10.5 -12t-14.5 -8q-20 -14 -40 -27.5t-41 -27.5q-17 -12 -36 -25t-38.5 -22.5t-37.5 -12.5t-34 7q-9 7 -12 20t-2 27.5t5.5 27.5t9.5 22q-4 0 -8.5 -2t-6.5 3q0 7 7 7t12 2q6 9 12.5 19t13.5 19t16.5 15.5t21.5 9.5q4 0 6 -1t4 -3l3 -6q-5 -25 -21 -38
t-37 -21q-8 -15 -14.5 -31t-5.5 -39q3 -18 19 -22q21 1 38 7.5t31 15t27.5 18t28.5 17.5q19 13 38.5 26t39.5 25q5 3 12 9t14 1zM18 300q10 8 20.5 16.5t12.5 22.5q-11 -7 -19.5 -17.5t-13.5 -21.5z" />
    <glyph glyph-name="f" unicode="f" horiz-adv-x="247" 
d="M-10 212q63 21 125.5 45.5t124.5 48.5q3 2 8 4.5t7 -2.5q2 -6 -3 -7.5t-9 -3.5q-15 -7 -49.5 -20.5t-74 -29t-76.5 -29.5t-58 -21q-5 -14 -9.5 -29t-9.5 -29q8 -32 1.5 -69t-17.5 -65q-2 -7 -6.5 -16t-12.5 -10q-13 0 -13.5 20.5t5 48t13.5 55t12 41.5q-3 7 -8 11l-10 8
q-9 4 -16.5 5t-13 1.5t-9 1t-4.5 4.5t2 5.5t12 3.5t25 6t41 13q22 61 49.5 129.5t62 135t76 125t91.5 100.5q17 14 38.5 28.5t46.5 15.5q17 1 26.5 -8.5t10.5 -26.5q1 -23 -6.5 -42t-15.5 -35q-57 -114 -145.5 -201.5t-189.5 -153.5q-5 -15 -10.5 -29.5t-10.5 -28.5z
M223 470q42 47 71.5 93t43.5 81.5t12.5 56t-21.5 16.5q-20 -5 -36 -15t-30 -22q-41 -34 -76.5 -80t-65.5 -97.5t-55 -105t-45 -103.5q57 38 107.5 81.5t94.5 94.5zM-70 177q8 -2 13 -6t10 -9q2 6 5.5 13.5t2.5 12.5q-8 -3 -16 -5t-15 -6zM-64 8q8 22 14 45.5t5 51.5
q-5 -23 -11 -47t-8 -50z" />
    <glyph glyph-name="g" unicode="g" horiz-adv-x="252" 
d="M131 355q6 -8 5.5 -18t-2.5 -21q-5 -30 -11 -59.5t-13 -56.5q13 7 33 20.5t41 27.5t39 27.5t27 22.5q5 3 8.5 9.5t10.5 2.5q2 -8 -3.5 -12.5t-9.5 -8.5q-32 -30 -73 -55.5t-77 -52.5q-12 -46 -26 -101t-32 -112t-41 -112t-51.5 -101.5t-64.5 -79.5t-80 -46q-31 -9 -60 -4
t-52 20t-37 39t-14 53q0 26 8 47t18 38q28 50 77 98.5t106.5 94t118 88t112.5 80.5q8 39 17.5 76.5t14.5 79.5q-8 -4 -15.5 -12t-18 -19t-25.5 -26.5t-39 -34.5q-5 -3 -11 -8t-12.5 -8.5t-14 -4.5t-13.5 3q-8 9 -4.5 20t7.5 19q7 14 17.5 30t24.5 30q6 6 13.5 12.5t18.5 6.5
q11 -1 16 -12t0 -26q6 4 12.5 10.5t13 14t13.5 14t15 9.5q6 2 13 -2zM-12 247q9 5 17.5 11t16.5 12q3 7 7 13t7.5 12t6.5 13t3 17q0 1 -0.5 1t-0.5 1q-40 -31 -57 -80zM80 162q-43 -31 -97 -69.5t-107 -81.5t-100 -88t-76 -88q-8 -12 -16.5 -27.5t-14 -32.5t-6.5 -36t7 -37
q12 -30 40 -48.5t72 -15.5q43 6 73 28.5t53 51.5q32 40 58.5 95t48.5 115.5t38.5 121.5t29.5 113q0 1 -1 1t0 -1z" />
    <glyph glyph-name="h" unicode="h" horiz-adv-x="263" 
d="M-23 179q14 20 29.5 42.5t30.5 42.5q8 8 17.5 20t20 22.5t21 17.5t20.5 6q13 -2 17 -16t5 -32.5t2 -36.5t8 -27q10 4 18.5 9.5t18.5 14.5t24 22t37 31q8 8 17 13q3 2 9.5 4.5t8.5 -5.5q-1 -5 -5.5 -6t-7.5 -3q-17 -10 -30 -24.5t-28 -25.5l-14 -12t-15 -14
q-7 -6 -16.5 -13t-20.5 -5q-12 3 -16 17t-4.5 31.5t-1.5 35t-8 26.5q-17 -5 -26 -15.5t-20 -20.5q-9 -11 -18 -22.5t-18 -23.5q-17 -24 -28 -41.5t-18.5 -29.5t-12.5 -18t-10 -6q-6 0 -8 4t-2 10t1.5 12.5t2.5 11.5q2 10 4.5 20.5t5.5 19.5q30 99 68.5 188t89.5 167
q8 14 19.5 28.5t24.5 29.5q12 14 25 27.5t30 19.5q8 2 14.5 2.5t12.5 -4.5q10 -13 5 -31t-9 -31q-22 -46 -48.5 -88t-55.5 -82t-59 -78t-70 -67q-10 -29 -19.5 -57.5t-17.5 -59.5zM239 632q1 3 2 8.5t1 10.5t-1.5 8t-6.5 1q-17 -8 -35.5 -27t-35 -42t-31 -46t-24.5 -39
q-24 -45 -45 -92t-41 -97q56 51 100 113t84 130q6 11 12 22.5t11 24.5l5 10t5 15z" />
    <glyph glyph-name="j" unicode="j" horiz-adv-x="187" 
d="M16 439q2 -5 4.5 -9.5t3.5 -10.5q-2 -11 -14 -7q-4 3 -5 8t-5 8q-2 8 4 11.5t12 -0.5zM29 226q35 19 73 39.5t77 38.5q5 2 11.5 5.5t11.5 -1.5q0 -7 -7 -10t-12 -5q-17 -8 -35 -17t-35 -17q-22 -13 -44 -24.5t-44 -25.5q-10 -51 -26 -107t-39 -109.5t-53.5 -100.5
t-70.5 -80q-13 -10 -27.5 -20.5t-31 -19t-35.5 -14t-42 -5.5q-34 0 -55.5 17.5t-23.5 48.5q-2 23 4.5 42.5t14.5 36.5q23 48 59.5 86.5t74.5 71.5q55 42 113.5 80.5t119.5 75.5q3 22 7 46t1 47q-6 -1 -7.5 -10t-10.5 -9q-4 1 -5 5.5t0 9.5t3 9.5t4 7.5q5 8 12 10.5t15 -2.5
q7 -9 9 -21.5t1 -26t-3 -27t-4 -25.5zM0 194q-48 -30 -102.5 -65.5t-104 -75.5t-89 -84t-57.5 -92q-7 -17 -10 -39.5t6 -40.5q6 -12 17.5 -18.5t27.5 -9.5q45 -1 76.5 14.5t56.5 37.5q37 32 65 73.5t49.5 90t37 101.5t29.5 108q1 0 1 0.5t-1 0.5v-1h-2z" />
    <glyph glyph-name="i" unicode="i" horiz-adv-x="159" 
d="M40 389q6 1 9.5 -2t4.5 -7.5t-1 -8.5t-7 -4q-8 0 -11 9t5 13zM-16 208q14 -1 26 6t23 14q27 17 53 36t55 35q5 2 12 6t12 -1q-1 -7 -8.5 -9.5t-12.5 -5.5q-29 -16 -56 -35.5t-54 -37.5q-11 -7 -23.5 -14t-27.5 -8q-12 4 -16 14t-2.5 23t6 26.5t9.5 24.5q4 7 7 12.5
t7 12.5q4 6 9 14t11 8q5 1 8 -2.5t3 -6.5q1 -8 -5.5 -14t-9.5 -11q-5 -6 -8 -14t-7 -17q-2 -5 -5.5 -12.5t-6 -15.5t-3 -15.5t3.5 -12.5z" />
    <glyph glyph-name="k" unicode="k" horiz-adv-x="265" 
d="M9 272q14 10 29 23t31 24q7 7 14.5 12.5t15.5 11.5q9 5 16 11t20 7q6 -3 6 -7.5t-2.5 -8.5t-6.5 -8t-7 -6q-2 -3 -3.5 -7t-6.5 -5t-6.5 1t-3.5 5q-29 -21 -56 -43.5t-54 -45.5l-2 -6l-2 -6q16 -4 30.5 -8.5t32.5 -4.5q29 0 51 8.5t43 18.5q11 5 28 15t34 20.5t30.5 20
t18.5 12.5l6 4t7 0q2 -9 -5.5 -13t-12.5 -8q-18 -12 -37.5 -24.5t-39.5 -23.5q-26 -13 -54.5 -29t-66.5 -16q-20 0 -36 4t-34 7q-23 -64 -43.5 -130t-34.5 -140q2 -3 4.5 -3.5t3.5 -4.5q1 -5 -4.5 -9.5t-10.5 -4.5q-9 2 -9 14t2 22q11 68 31.5 131t39.5 121q-4 -1 -9.5 0
t-7.5 5q-1 10 6 16t27 23q4 11 7.5 21t8.5 20h-12.5t-6.5 8q1 3 5 2t6 0q5 3 9 6t7 7q9 22 23 55t31.5 69.5t37.5 74.5t42 70t45 55.5t46 32.5q1 0 2 1h6.5t5.5 -1t2.5 -2t2.5 -1q2 -2 3 -4.5t3 -5.5q1 -20 -5.5 -34.5t-14.5 -29.5q-18 -34 -39.5 -66.5t-43.5 -61.5
q-30 -41 -61.5 -79.5t-66.5 -73.5q-4 -10 -7.5 -19.5t-7.5 -18.5zM198 624q-24 -24 -47 -58.5t-43.5 -72.5t-38 -76.5t-30.5 -69.5q18 19 41 47t46 58t43.5 59t33.5 52q9 17 20.5 35.5t15.5 39.5q1 3 1.5 7t-3.5 6h-1q-12 -4 -20.5 -11.5t-17.5 -15.5z" />
    <glyph glyph-name="n" unicode="n" horiz-adv-x="252" 
d="M-16 230q23 20 44 45.5t44 46.5q9 6 16.5 13.5t21.5 8.5q10 -5 9.5 -19t-3.5 -30.5t-4 -33.5t9 -27q24 1 41 12t34 21q21 14 32 23.5t17 14.5t8.5 6t5.5 -1q2 -7 -3 -9.5t-7 -6.5q-12 -9 -23 -18t-24 -17q-15 -11 -32.5 -21t-38.5 -16h-11q-2 1 -4.5 2t-4.5 2
q-8 9 -10 21.5t-1 26.5t3.5 29t2.5 27q-20 -11 -35.5 -29.5t-30.5 -35.5q-11 -12 -21.5 -26.5t-20.5 -25t-19.5 -13.5t-16.5 8q-1 28 11.5 54.5t30.5 61.5q2 4 5.5 11.5t8 12t9 5t9.5 -8.5q-2 -11 -6.5 -19t-9.5 -18q-7 -22 -15 -37q0 -4 -3 -3.5t-5 -1.5q-3 -9 -6.5 -17.5
t-6.5 -17.5z" />
    <glyph glyph-name="l" unicode="l" horiz-adv-x="443" 
d="M11 296q-27 -71 -36.5 -133.5t-1 -105.5t35.5 -59t74 6q18 8 33 17t29 20q81 57 152.5 125t137.5 140q3 5 8 10t13 3q3 -8 -3.5 -12.5t-9.5 -9.5q-35 -36 -71 -73.5t-73.5 -74t-77.5 -70t-83 -61.5q-20 -13 -45.5 -28t-57.5 -15t-50 20.5t-26 48.5q-6 23 -7 48t1 50
t7 48.5t11 43.5q4 15 9 28.5t8 27.5q1 4 1 5t-1 6q1 3 4.5 3.5t2.5 5.5q23 57 50 112t59 107t69 98.5t81 85.5q14 12 29.5 25t33 24t37 19t40.5 11q24 2 38 -10t16 -33q2 -25 -7 -46t-20 -39q-18 -30 -43 -62t-53.5 -62.5t-58 -59t-55.5 -51.5q-45 -39 -94 -73t-106 -60z
M261 497q40 40 78.5 81.5t67.5 91.5q10 17 18.5 37t7.5 44q-2 6 -4 11.5t-7 9.5q-6 3 -14 4t-14 0q-20 -3 -38.5 -11.5t-35 -20t-31 -24t-26.5 -23.5q-55 -52 -98.5 -112t-80.5 -128q-19 -34 -36 -70t-30 -73q69 38 129.5 84t113.5 99z" />
    <glyph glyph-name="m" unicode="m" horiz-adv-x="348" 
d="M128 404q8 -11 5 -24t-6 -24q-9 -35 -18 -70.5t-13 -75.5q7 4 12.5 12t10.5 16t10.5 15t10.5 15q6 7 11.5 15.5t11 16.5t12 13.5t14.5 7.5q7 -3 9.5 -9t2.5 -14t-1.5 -16.5t-1.5 -15.5q-2 -17 -2 -33t8 -26q10 1 18 5.5t16 9.5q25 15 48.5 34.5t53.5 45.5l10 8t11 -1
q1 -7 -4.5 -10t-9.5 -7q-4 -5 -8 -8t-9 -7q-23 -18 -51.5 -43.5t-58.5 -37.5q-20 -8 -28 3t-9.5 30t1 41t2.5 36q-19 -18 -34.5 -42.5t-32.5 -47.5q-4 -6 -11 -16t-17 -8q-10 1 -9.5 23t6.5 52.5t14.5 63t13.5 55.5q-41 -41 -72.5 -92.5t-63.5 -102.5q-5 -7 -9.5 -14.5
t-13.5 -9.5q-5 0 -7.5 2.5t-4.5 7.5q2 12 5.5 23t9 25t14 33.5t21.5 49.5q2 4 5 12.5t6.5 15t9 8.5t11.5 -5q1 -16 -6 -27.5t-6 -26.5q12 15 23 31.5t22.5 32.5t24.5 30.5t29 26.5q4 2 8 1t6 -3zM-9 247v0l10 16l10 16q-4 0 -7 1q-2 -9 -6 -16.5t-7 -16.5z" />
    <glyph glyph-name="o" unicode="o" horiz-adv-x="168" 
d="M39 295q32 -11 66 -3.5t59 17.5q3 2 7.5 3.5t6.5 -3.5q-1 -8 -8 -9.5t-12 -4.5q-23 -11 -56.5 -16.5t-63.5 2.5q-4 -13 -8.5 -24.5t-12.5 -21.5q-6 -9 -15 -17.5t-25 -8.5l-6 3q-5 3 -8 12q0 19 7 35.5t15 31.5q8 14 16.5 27.5t19.5 23.5q3 3 11 7q6 1 8.5 -2t4.5 -7
q-1 -8 -4 -14l-6 -12q4 -7 4 -19zM-18 229q16 4 28.5 24t11.5 37q-2 0 -3 -3.5t-5 -3.5q-7 0 -7 8q-8 -14 -15.5 -28t-9.5 -34z" />
    <glyph glyph-name="p" unicode="p" horiz-adv-x="252" 
d="M-43 151q-2 0 -1 -1t1 1q14 27 30.5 52t36.5 47q8 11 18.5 21t22.5 20q12 9 26 18t29 11q15 1 22 -6q8 -9 5.5 -24t-7.5 -23q23 11 50 22.5t56 18.5q3 1 8.5 2t6.5 -4q1 -3 -3 -5t-10 -4t-11.5 -3t-8.5 -2q-28 -9 -52 -20t-46 -24q-32 -48 -70 -84q-8 -7 -21.5 -19
t-27.5 -21.5t-27 -13.5t-19 4q-4 6 -0.5 15t7.5 15q3 5 7.5 10t8.5 9q28 28 61.5 49t65.5 41q5 11 13 23t4 29q-20 2 -34 -7t-25 -18q-12 -9 -22.5 -20t-20.5 -22q-52 -62 -83.5 -141.5t-47.5 -178.5q-1 -5 -1.5 -13t-2 -16t-4.5 -14t-7 -6q-5 0 -7.5 3t-3 8t0.5 10.5t1 9.5
q7 57 22 122t38 131t52.5 128.5t64.5 113.5q3 3 7.5 8t10 8.5t10.5 3.5t9 -7q0 -12 -5 -18.5t-9 -14.5q-9 -15 -26.5 -35.5t-34.5 -48.5q-5 -7 -8 -16t-8 -17q-22 -51 -41 -105v-2zM96 229q-36 -22 -67 -47q-16 -12 -31 -26t-23 -34q22 6 38.5 19.5t30.5 27.5t28 28.5
t27 31.5l-1 1q0 -1 -2 -1z" />
    <glyph glyph-name="q" unicode="q" horiz-adv-x="314" 
d="M185 353q-25 -23 -48.5 -46t-52.5 -43q-28 -20 -56.5 -38t-71.5 -22q-11 1 -16 7q-2 4 -4 6q-2 14 3.5 25t12.5 21q6 8 13.5 16.5t15.5 16.5q15 16 33 31.5t42 20.5q5 1 11 0.5t10 -1.5q12 -5 15 -16t1 -23.5t-8 -23.5t-13 -16q-2 0 -3.5 -1t-3.5 0q-6 7 -3.5 14t7 14.5
t7.5 15t-3 16.5q-12 4 -23 -2t-20 -11q-22 -14 -35 -27l-27 -27q-5 -9 -12.5 -17t-6.5 -21q8 -7 18 -5t18 5q25 8 46.5 20.5t40.5 25.5q31 22 58.5 48t54.5 52l8 8t11 3q7 -5 4.5 -13t-5.5 -14q-9 -20 -21 -38t-23 -34q-14 -24 -29.5 -47.5t-29.5 -46.5q29 13 60 29.5t59 32
t51 30t35 25.5q7 3 12.5 10.5t13.5 5.5q4 -5 0 -8t-7 -6q-23 -20 -53 -39t-62 -37t-63.5 -34t-57.5 -29q-20 -31 -38 -63t-36 -65q8 -18 9.5 -38t-2 -40.5t-10.5 -38.5t-14 -31q-6 -8 -11.5 -17t-11.5 -17q-8 -7 -15 -14.5t-22 -6.5q-9 5 -11.5 14.5t-1 20t4.5 21.5t6 20
q13 36 29.5 70t32.5 63q-22 38 -74 52q-7 2 -18 4t-12 8q0 4 5 6.5t12.5 4t15 2.5t11.5 2q37 8 69 20.5t63 26.5q28 47 57.5 92t58.5 90v1zM-73 106q48 -13 76 -49q13 24 27 48t26 47q-58 -30 -129 -46zM6 22q-11 -19 -20.5 -39t-18.5 -40l-17 -42.5t-7 -49.5
q11 4 18.5 12.5t14.5 17.5q18 25 30.5 63t0.5 80q0 -1 -0.5 -1t-0.5 -1z" />
    <glyph glyph-name="r" unicode="r" horiz-adv-x="217" 
d="M29 320q10 2 22 2t15 -9q0 -17 -6.5 -32.5t-14.5 -30.5t-14 -31t-4 -34q13 0 24 6t21 13q29 20 55.5 43t55.5 43q5 4 13 11t15.5 12.5t14 7.5t9.5 -2q0 -5 -4.5 -7t-7.5 -4q-23 -14 -46 -34t-46.5 -40t-47.5 -37t-48 -26q-11 -1 -18 4q-8 12 -5 28t10.5 34t16.5 35.5
t12 31.5q-8 -1 -19 -2.5t-21 -1t-18 4t-11 12.5q-3 20 11 38.5t28 26.5q8 5 16 5.5t15 -7.5q3 -10 1.5 -18t-5.5 -15.5t-9.5 -14t-9.5 -12.5zM2 324q3 -4 10 -4q9 11 18.5 22t9.5 28h-2q-12 -9 -22.5 -19t-13.5 -27z" />
    <glyph glyph-name="s" unicode="s" horiz-adv-x="245" 
d="M101 354q-18 1 -30.5 -7t-25.5 -15q-7 -6 -14.5 -12t-13.5 -13.5t-10 -17t-4 -23.5q5 -21 17.5 -34t24.5 -27q45 24 92 45t91 47q5 3 11 7.5t14 2.5q2 -8 -5.5 -12t-12.5 -7q-42 -26 -89 -47t-92 -44q13 -17 26.5 -34.5t15.5 -45.5q1 -24 -11.5 -43.5t-33 -35
t-46.5 -25.5t-52 -14t-48.5 -1.5t-35.5 12.5l-5.5 5.5t-4.5 6.5q-8 26 4 46t25 34q26 29 65 52.5t74 41.5q-4 7 -11.5 14t-12.5 15q-12 12 -17 33.5t4 41.5q12 28 42.5 48t60.5 28q13 0 18 -2q8 -5 11 -14q1 -17 -7 -25.5t-17 -16.5q-3 -3 -8.5 -7.5t-11 -7.5t-10.5 -2t-8 9
q-1 7 4.5 9.5t10.5 5.5q8 5 15 12t11 17zM-130 52q-6 -23 7 -32t33 -11q29 -2 53.5 4t47.5 16q22 10 39.5 24t25.5 31q4 8 5 16.5t1 19.5q-5 23 -17.5 38t-27.5 29q-20 -10 -46 -24.5t-51 -32t-44.5 -37.5t-25.5 -41z" />
    <glyph glyph-name="t" unicode="t" horiz-adv-x="263" 
d="M233 541q16 1 51 2.5t73 0.5t71 -4.5t46 -13.5q1 -2 4.5 -6t6 -9t2 -9.5t-6.5 -5.5q-7 -2 -12.5 6t-10.5 12q-14 7 -46 10t-68.5 3.5t-70 -0.5t-49.5 -1q-20 -24 -41.5 -52.5t-61.5 -73.5q-28 -30 -56 -59.5t-61 -53.5q-6 -22 -12.5 -48t-9.5 -52q-2 -29 0.5 -56.5
t20.5 -41.5q21 -3 40 10t31 24q27 21 54 45.5t53 50t49.5 51t42.5 48.5q4 5 7 10.5t10 3.5q5 -7 -0.5 -12t-8.5 -9q-11 -14 -23 -28t-24 -27q-17 -18 -33 -35.5t-34 -33.5q-17 -18 -35 -34t-37 -32q-8 -5 -17.5 -13.5t-20 -17t-23 -14t-27.5 -3.5q-9 1 -15 5.5t-11 10.5
q-12 18 -15 43.5t-1 52t7.5 52t11.5 45.5q-2 5 -4 7.5t-1 7.5q2 5 4.5 6t7.5 2q18 59 42.5 110.5t53.5 99.5q-60 -5 -114 -14t-115 -12q-10 2 -17.5 6t-7.5 14q0 7 6 10.5t14 4.5t16.5 0t14.5 -3q3 -3 1 -7t-2 -5q52 3 105 9.5t107 10.5q25 35 55 73t68 66q12 8 27 17.5
t32 9.5q27 0 24 -30q-2 -18 -11 -35t-18 -32q-10 -16 -19.5 -30t-18.5 -27zM224 654q-32 -25 -59.5 -57.5t-47.5 -64.5q24 2 48.5 3.5t49.5 3.5q15 21 30.5 43.5t28.5 46.5q5 11 10 23.5t2 26.5q-17 4 -33.5 -6t-28.5 -19zM108 518q-29 -47 -53.5 -98t-43.5 -108
q52 47 100 101t92 111q0 1 -1 1q-23 -2 -47 -3.5t-47 -3.5z" />
    <glyph glyph-name="u" unicode="u" horiz-adv-x="214" 
d="M-11 248q22 14 38.5 31.5t35.5 34.5q7 5 12 11t16 8q8 -8 4 -19t-7 -21l-6 -22t2 -22q19 0 33.5 8.5t28.5 16.5t28.5 16t28.5 17l9 4.5t9 -2.5q0 -6 -5 -8t-9 -4q-20 -11 -39.5 -23.5t-37 -22t-32 -13.5t-23.5 3q-5 9 -5.5 18.5t2 19.5t6 19.5t5.5 17.5
q-13 -9 -24.5 -21.5t-23.5 -23.5q-12 -14 -24 -23q-6 -5 -12 -11t-19 -6q0 1 -2 1q-6 2 -7 10t1 16q7 23 17.5 41t23.5 34q0 7 4.5 12t10 6t10 -2t4.5 -12q-2 -6 -5.5 -9.5l-7.5 -7.5q-11 -14 -20 -29.5t-17 -31.5q-2 -6 -3 -8v-2v-1z" />
    <glyph glyph-name="v" unicode="v" horiz-adv-x="223" 
d="M94 443q2 -20 -7 -36t-17 -30t-18 -27t-21 -26q-15 -40 -29 -80t-19 -91q10 8 18 21t17 24q32 52 49 81.5t25.5 44t12 18t9.5 4.5q6 -2 8 -7t3.5 -11t3.5 -12t6 -10q1 -2 2.5 -3.5t2.5 -3.5q6 -4 14.5 -6.5t18 -3t18 1.5t14.5 7q7 2 10.5 9t12.5 5q4 -7 -1 -10.5t-7 -8.5
l-18 -12q-19 -9 -43 -5t-35 17q-5 6 -8 12.5t-5 15.5q-7 -10 -17 -28.5t-22 -40.5t-25.5 -45t-27.5 -42q-8 -11 -18 -24t-28 -14v1q-6 2 -7.5 6.5t-3.5 9.5q2 45 13 81t23 71q-2 -2 -6.5 -4t-10 -3.5t-9.5 -0.5t-4 5q0 5 4.5 4.5t9.5 1.5q8 3 13 7t11 8q7 19 15.5 36.5
t17.5 34.5t18.5 33t23.5 28q7 3 13 -3zM47 360q10 14 19.5 29t14.5 35q0 1 -1 0q-8 -15 -17.5 -31t-15.5 -33z" />
    <glyph glyph-name="w" unicode="w" horiz-adv-x="326" 
d="M76 390q-11 -16 -22 -30t-23 -28q-14 -32 -27 -65.5t-21 -73.5v-10.5t2 -8.5q13 5 28 21.5t30.5 39t32 48t31.5 49.5q1 3 4.5 8.5t8 11.5t9 9.5t9.5 2.5q6 -3 3.5 -14t-7.5 -27.5t-9.5 -36.5t-2.5 -41q6 3 11.5 8t11.5 13.5t13.5 22t18.5 33.5q3 7 6.5 15t12.5 9
q4 -2 5.5 -6t2 -9t1 -10.5t3.5 -8.5q2 -2 3 -3.5t2 -3.5q7 -6 16 -9.5t20 -5.5q18 -1 32 2t26 8q8 2 14.5 8t14.5 2q2 -6 -2.5 -9.5t-9.5 -5.5t-9.5 -4.5t-8.5 -4.5q-11 -6 -26.5 -8.5t-30.5 -1.5t-28.5 6t-21.5 13q-3 5 -6 9.5t-3 12.5q-9 -11 -15.5 -24.5t-14.5 -24.5
q-9 -11 -17.5 -24t-27.5 -13q-8 4 -9.5 15t0 24t5 26.5t5.5 23.5q-14 -20 -28.5 -43t-29.5 -44q-25 -35 -42 -55t-38 -20q-12 7 -12 26q0 29 10.5 56t18.5 50q-2 -1 -7 -1.5t-6 3.5q1 7 5.5 12.5t8.5 10.5q18 24 33.5 53t35.5 55q3 4 7.5 10.5t9.5 12t10.5 9.5t10.5 4
q8 0 9 -5.5t-2 -12t-7 -13t-6 -9.5q-5 -8 -10.5 -15t-10.5 -14z" />
    <glyph glyph-name="z" unicode="z" horiz-adv-x="325" 
d="M123 205q44 26 90.5 50t94.5 47q5 3 12 7.5t14 -0.5q2 -10 -7 -12t-14 -6q-47 -24 -93 -48t-90 -51q9 -16 14 -38.5t5.5 -47t-3.5 -48t-13 -41.5q-25 -57 -64 -100.5t-82.5 -72.5t-87 -43.5t-78 -13t-55.5 19.5t-18 53q1 19 7.5 35t15.5 29.5t18.5 26t18.5 24.5
q65 66 142 118.5t158 102.5q-5 11 -12.5 20t-15.5 17q-7 10 -16.5 17.5t-10.5 21.5q0 14 11 24t19 19q10 11 18.5 20t13.5 20q-13 -3 -24.5 -8t-22.5 -11t-21.5 -12.5t-18.5 -14.5q-8 -2 -12 -9t-14 -8q-8 3 -8.5 8t3 10.5t9 10t9.5 6.5q7 5 14.5 9.5t15.5 9.5q14 7 31 17.5
t37 12.5q8 1 14.5 -2t9.5 -10q0 -1 1 -1q-1 -17 -9.5 -27.5t-19.5 -21.5l-9.5 -9.5t-10.5 -9.5q-5 -5 -11 -10.5t-6 -11.5q0 -5 3.5 -9.5t8 -8.5l9 -8t5.5 -8q8 -7 13.5 -16t11.5 -18zM112 182q-78 -49 -153.5 -100.5t-138.5 -115.5q-19 -23 -38 -53t-19 -60
q-1 -16 6.5 -27.5t18.5 -16.5q18 -9 38.5 -8.5t41 5t38.5 12.5t31 14q27 14 54.5 34.5t51.5 46t43.5 54.5t31.5 60q14 35 15 79t-17 77l-1 1q-1 0 -3 -2z" />
    <glyph glyph-name="y" unicode="y" horiz-adv-x="297" 
d="M113 217q24 11 49.5 23.5t50.5 23.5q39 18 75 36q5 3 11.5 8t12.5 -1q0 -8 -7.5 -11.5t-12.5 -6.5q-43 -26 -91.5 -46.5t-92.5 -44.5q-18 -68 -39 -134t-47.5 -127t-59.5 -116t-75 -100q-29 -31 -68 -57.5t-80 -27.5q-24 0 -39.5 8t-29.5 19q-14 16 -22.5 38.5t-8.5 50.5
q-1 53 18.5 94t39.5 73q30 45 68.5 81.5t87 69.5t107.5 65.5t130 69.5q8 37 17.5 73.5t11.5 78.5q-16 -13 -30 -29t-27.5 -32.5l-27 -33t-28.5 -31.5q-10 -10 -20.5 -20t-26.5 -12q-6 2 -11 9q-2 17 4 30t12 24q6 12 12 23.5t12 23.5q5 7 8 16t13 11q10 -3 10.5 -8.5
t-3 -12.5t-8.5 -14.5t-6 -14.5q-1 -5 0.5 -8t-1.5 -8q-6 -3 -8 4q-6 -13 -12 -24.5t-11 -25.5q22 16 42 38.5t38 45t34.5 41t31.5 27.5q1 0 1 0.5t1 0.5q3 -1 6 -0.5t4 -1.5q5 -2 6.5 -7t3.5 -10q-1 -41 -9 -73.5t-16 -67.5zM-271 -64q-17 -21 -31 -44t-25 -51
q-15 -40 -17.5 -75.5t7 -62t30.5 -41t52 -11.5q34 3 56 17.5t45 32.5q49 41 86.5 99t66 123.5t49.5 133t37 128.5q0 1 -1 1t0 -1q-121 -62 -211.5 -120.5t-143.5 -128.5z" />
    <glyph glyph-name="x" unicode="x" horiz-adv-x="187" 
d="M22 231q5 -16 14 -35t21 -30q2 -2 6.5 -5t8.5 -3q5 0 9.5 3.5t9.5 -1.5q0 -8 -6 -9.5t-12 -3.5q-13 2 -22.5 10t-16.5 18.5t-12.5 22t-9.5 22.5q-22 -22 -42.5 -44.5t-40.5 -47.5q-1 -2 0.5 -4t-0.5 -5q-2 -2 -5 -4t-8 -1q-4 1 -6 7q5 22 18 35t25 27q13 14 26 27t25 27
q-6 21 -8 48t0 52q4 8 11 8q5 0 7 -2.5t4 -4.5q1 -20 -2.5 -43.5t1.5 -44.5q34 33 68.5 67.5t66.5 70.5q11 12 20 25t22 23q13 3 15 -7t-7 -16.5t-13 -11.5q-45 -40 -85 -83.5t-82 -86.5z" />
    <glyph glyph-name="D" unicode="D" horiz-adv-x="760" 
d="M139 93q47 142 97.5 278.5t98.5 277.5q7 20 12 41t13 41q2 5 4 7.5t5 6.5q-77 -4 -139 -21t-117 -43q3 -2 9 -4.5t5 -9.5q-2 -9 -12.5 -7t-16.5 5h-17.5t-11.5 6q0 11 9.5 15t17.5 8q49 25 108 42.5t126 24.5q112 12 193.5 -19.5t129.5 -91.5q25 -32 39.5 -69.5
t19.5 -77.5t1.5 -81t-15.5 -79q-22 -72 -66.5 -138t-103.5 -122.5t-127 -101.5t-135.5 -75t-130 -43t-109.5 -5q-15 2 -28.5 6.5t-24 12t-16.5 19.5t-5 30q9 38 33 61t49 45q25 17 50.5 32.5t54.5 28.5zM31 15q-11 -9 -21.5 -19t-20.5 -23q-5 -7 -11 -16t-10 -19t-4 -20.5
t6 -20.5l3 -3t2 -3q20 -18 55.5 -23.5t81.5 2t100 27t110.5 50.5t113.5 74t109 97q24 26 48 56t44 64.5t34.5 73.5t20.5 83q7 52 2 98t-21 84.5t-40.5 68t-55.5 49.5q-73 50 -192 50q-2 0 -1 -1t2 -1q2 -5 -0.5 -9.5t-4.5 -9.5t-4 -9t-4 -9q-27 -68 -54.5 -144t-54 -155
t-51.5 -156t-47 -146q43 17 93 33t107 21q9 1 20 1t21 -1.5t16.5 -6t6.5 -12.5q0 -6 -3 -12t-7.5 -11t-10 -7.5t-9.5 0.5q0 5 3 8l6 6t5.5 6.5t2.5 9.5q-4 5 -12.5 7t-18.5 2t-20 -1t-17 -2q-54 -8 -100.5 -24t-88.5 -33q-13 -42 -29.5 -88.5t-27.5 -92.5q-2 -8 -4 -14
t-10 -5q-7 0 -9 7.5t-1 13.5q1 5 4 6.5t3 5.5q22 77 48 154q-28 -11 -54 -27.5t-49 -33.5z" />
    <glyph glyph-name="one" unicode="1" horiz-adv-x="137" 
d="M209 617q-2 -17 -10 -26.5t-10 -26.5q-2 -2 -4.5 -2.5t-4.5 -2.5q-48 -83 -85.5 -173.5t-70.5 -189.5q-8 -23 -14.5 -48.5t-11.5 -54.5q-1 -8 -2 -17t-12 -11q-11 3 -9 15.5t4 22.5t5.5 20t5.5 18q23 69 44.5 128t43.5 113t46 105.5t52 106.5q2 4 5.5 11.5t8 12.5t9.5 6
t10 -7z" />
    <glyph glyph-name="two" unicode="2" horiz-adv-x="314" 
d="M96 178q42 5 88.5 5.5t81.5 -11.5q5 -4 12 -5.5t6 -8.5q-4 -7 -10 -4t-11 5q-20 7 -45.5 9t-51.5 1t-51.5 -4.5t-46.5 -6.5q-18 -9 -35.5 -20.5t-40.5 -16.5q-7 -2 -15.5 -0.5t-9.5 9.5q-1 6 3 10t9.5 7.5t11.5 5.5t10 4q25 9 49 13q32 21 63.5 47t59.5 56t51 62.5
t38 67.5q6 15 11 34.5t6 38.5t-4.5 35.5t-21.5 25.5q-13 7 -32 5q-27 -4 -47 -19.5t-35 -33.5q-17 -19 -28.5 -40.5t-20.5 -44.5q-1 -3 3 -5t3 -7q0 -6 -4 -7.5t-6 -6.5q-5 -5 -7.5 -13t-13.5 -8q-12 4 -8.5 14.5t5.5 18.5q9 26 26 55.5t39.5 54t48.5 41.5t53 18
q36 1 53.5 -24t17.5 -59q0 -29 -8 -53.5t-19 -44.5q-32 -63 -78 -111.5t-99 -88.5z" />
    <glyph glyph-name="three" unicode="3" horiz-adv-x="314" 
d="M135 319q19 -9 39.5 -16.5t39.5 -17t34.5 -22t24.5 -30.5q15 -33 -1 -63t-51.5 -51t-82.5 -29.5t-93 1.5q-23 5 -43 14.5t-31 26.5q-9 13 -6 32t14 27q3 5 8 10.5t11 0.5q2 -7 -3 -9.5t-7 -7.5q-8 -6 -11 -20.5t5 -24.5q13 -18 36.5 -27.5t51 -11.5t57.5 3t56 15.5
t45.5 26.5t28.5 35q5 13 4 28t-9 26q-14 21 -37 32t-44.5 18t-38 13t-18.5 17t6 19.5t15 13.5q36 32 72.5 61t63.5 67q5 7 10.5 15t10.5 18q4 9 5.5 19t-1 19t-8.5 15t-18 6q-42 1 -72.5 -17t-53.5 -38q-22 -20 -39.5 -43t-29.5 -49q-3 -3 0 -5.5t1 -6.5q-4 -4 -6.5 -8.5
t-10.5 -3.5q-11 3 -8 16t6 20q23 42 53.5 76.5t74.5 57.5q14 8 30.5 14t35.5 8q32 2 52 -14.5t15 -51.5q-3 -15 -11.5 -31t-19.5 -31t-24 -28.5t-24 -24.5q-26 -25 -54 -45.5t-50 -43.5z" />
    <glyph glyph-name="four" unicode="4" horiz-adv-x="315" 
d="M300 533q-6 -17 -14 -33l-16 -32q-23 -48 -40.5 -100t-34.5 -106q9 2 21 6t24 7t23 4.5t19 -1.5q2 -1 6 -4.5t6 -8t2 -8.5t-5 -6q-7 -3 -9.5 1.5t-8.5 5.5q-25 -2 -44.5 -8.5t-40.5 -11.5q-10 -32 -18 -63.5t-14 -66.5q-3 -5 -5 -11l-4 -12t-5 -11.5t-11 -5.5q-6 3 -7 8
t0.5 10.5t4 11t4.5 9.5q11 30 21 62t19 64q-28 -8 -54 -17.5t-47 -15t-35.5 -4.5t-18.5 14q-2 22 6 41.5t17 37.5q13 28 30 61t32.5 64t28 58.5t17.5 45.5l4 10t9 6q2 0 3.5 -1t3.5 -2q5 -6 2 -15t-1 -18q-1 -4 -4 -5.5t-5 -4.5q-9 -20 -24.5 -49.5t-33 -62t-33.5 -64
t-26 -56.5q-4 -9 -7 -18.5t-1 -20.5q10 -2 19.5 1t18.5 5q27 8 53 17t54 17q17 54 33.5 107.5t36.5 104.5q1 3 -1.5 4t-1.5 5q8 17 15.5 34.5t21.5 28.5q6 2 9.5 -0.5t5.5 -7.5z" />
    <glyph glyph-name="five" unicode="5" horiz-adv-x="343" 
d="M39 348q33 5 66.5 14t71.5 14q40 5 75.5 -1.5t56.5 -27.5q12 -12 18 -33.5t-5 -42.5q-20 -38 -50.5 -63.5t-66.5 -45.5q-17 -10 -36 -19t-42 -15q-21 -5 -47.5 -8.5t-49.5 5.5q-9 5 -11.5 13.5t-0.5 17.5t7 17.5t11 13.5q4 3 7.5 8t10.5 2q5 -8 -1.5 -13.5t-9.5 -10.5
q-4 -6 -8.5 -12.5t-2.5 -14.5q2 -5 7.5 -6.5t12.5 -3.5q52 0 88 16.5t70 36.5q16 10 31 21t28 24t24.5 28.5t14.5 38.5q-3 22 -17 34.5t-34.5 17.5t-45 4.5t-47.5 -4.5q-27 -4 -48 -9.5t-37.5 -9.5t-29 -5.5t-23.5 2.5q-6 5 -8 13q1 17 9 28.5t16 22.5t15.5 21.5t15.5 21.5
q-4 -1 -10.5 -3t-12.5 -3t-10.5 1t-5.5 8q-1 10 9.5 15t21.5 3q4 -2 5 -3t4 -3q6 0 10.5 2t8.5 4t8.5 3.5t9.5 -1.5q54 12 113.5 23.5t119.5 16.5q8 1 14.5 0.5t7.5 -8.5t-6.5 -12.5t-14.5 -3.5q-4 0 -5.5 2t-4.5 4q-60 -3 -114 -13t-106 -21q-5 -11 -13.5 -17.5
t-16.5 -14.5q-14 -14 -25.5 -31.5t-21.5 -37.5z" />
    <glyph glyph-name="six" unicode="6" horiz-adv-x="338" 
d="M276 493q-45 -21 -80 -50t-67 -63q-30 -35 -56 -73.5t-37 -92.5q-1 -23 5 -35t18.5 -16t27.5 -4t30 3.5t26 7.5q10 32 25.5 58t32.5 50q10 11 19.5 22.5t21 21t25 16.5t32.5 9q5 -2 8.5 -4t6.5 -4q4 -5 6 -11.5t1 -15.5q-2 -16 -8.5 -29.5t-16 -25t-20.5 -21t-20 -18.5
q-22 -18 -47 -32.5t-53 -25.5q-2 -5 -3 -13t2 -13q2 -3 6.5 -1t6.5 -4q1 -7 -5 -9.5t-12 -0.5q-9 3 -11 12.5t-1 21.5q-11 -4 -26 -7t-30 -3t-28 3t-21 12q-17 17 -18 43t9.5 56t31.5 62.5t47.5 63.5t58 58.5t63.5 47.5l26 16t26 12q10 2 19.5 0.5t11.5 -12.5q1 -8 -3 -12
l-8 -8q-3 -4 -8 -6t-9.5 -1t-6.5 4.5t2 10.5zM211 263q-15 -20 -27.5 -41t-20.5 -44q38 16 67.5 37t48 42t25 40.5t-1.5 32.5q-12 3 -24.5 -3.5t-25 -17.5t-23.5 -23.5t-18 -22.5z" />
    <glyph glyph-name="seven" unicode="7" horiz-adv-x="308" 
d="M170 303q-32 -5 -63.5 -12t-62.5 -15q-4 -1 -9.5 -2.5t-11 -2t-10 2t-5.5 8.5q0 4 5 9t11.5 8t12.5 2.5t7 -6.5q34 6 67.5 11.5t69.5 10.5q19 20 35 42.5t34 43.5q13 19 23.5 33t17.5 25t11 21t5 21q-2 6 -7.5 8t-12.5 4q-39 0 -71 -12t-63 -23q-6 -2 -15.5 -5.5
t-19 -4.5t-17 1.5t-9.5 11.5q2 16 15 17q5 0 6.5 -3t3.5 -5q23 6 55 16t62 15.5t54 3t30 -19.5q2 -20 -5.5 -34t-15.5 -28q-20 -34 -43 -64t-45 -60q25 2 51.5 6t53.5 3q8 0 17 -2t4 -12q-4 -4 -6.5 -2t-7.5 2q-30 4 -62 -1t-59 -7q-26 -30 -58.5 -77t-81.5 -113
q-6 -6 -10.5 -13.5t-15.5 -7.5q-6 3 -6 7.5t2.5 9.5t6.5 9.5t6 7.5q23 32 45.5 62l40.5 54t29 38.5t12 15.5q1 0 0 1v1z" />
    <glyph glyph-name="eight" unicode="8" horiz-adv-x="338" 
d="M192 275q27 -49 23 -92t-46 -80q-9 -6 -20 -13.5t-24 -13t-27.5 -8t-30.5 0.5q-17 4 -27.5 17t-5.5 37q5 26 23 47.5t35 38.5q20 20 39.5 35.5t37.5 32.5q-14 20 -31 38.5t-37 36.5q-19 17 -39 34t-31 38q-5 10 -7 22.5t3 23.5q7 20 24.5 32t34.5 22q20 11 40 18.5
t46 9.5q25 7 59.5 12t66.5 1.5t55.5 -17t25.5 -42.5q2 -24 -8 -43.5t-20 -33.5q-32 -45 -75.5 -83t-83.5 -71zM94 504v0l-17.5 -10t-19 -14t-12.5 -18t2 -23q6 -14 23 -31t38 -36.5t42 -40.5t34 -42q36 30 77 64.5t72 76.5q10 13 23 35.5t8 45.5q-5 21 -26 30.5t-48 11
t-55.5 -2t-49.5 -7.5q0 -7 -1 -10q-4 -7 -10 -11t-13 -8q-3 -3 -4.5 -6t-6.5 -4q-5 2 -5 6t2 8t4.5 7t2.5 5q-12 -4 -28 -10.5t-22 -18.5q-2 -4 -2.5 -9t-5.5 -5q-6 0 -5 6.5t3 10.5zM176 261l-33 -27t-44 -39.5t-37.5 -44.5t-13.5 -43q1 -17 17.5 -22t38 0t43.5 19.5
t36 37.5q15 26 13.5 60t-17.5 60h-1h-1z" />
    <glyph glyph-name="nine" unicode="9" horiz-adv-x="314" 
d="M249 362v0q-17 -15 -34.5 -31.5t-39.5 -30.5q-20 -14 -43.5 -26.5t-54.5 -10.5q-14 2 -23.5 7.5t-17.5 13.5q-11 16 -13.5 36t1 40.5t10.5 39.5t15 33q23 43 56.5 77.5t75.5 58.5q9 6 21.5 12.5t26 11t27.5 6.5t28 -2q18 -5 27 -20.5t11.5 -35t-0.5 -40.5t-10 -38
q5 2 8 9.5t11 6.5q9 0 9 -8q1 -5 -1.5 -8.5t-5.5 -7t-5.5 -7t-2.5 -7.5q-6 -2 -9.5 -6.5t-8.5 -9.5q-4 -5 -8.5 -9t-7.5 -9q-4 -6 -6 -13.5t-5 -14.5q-27 -58 -62.5 -118.5t-68.5 -111.5t-59.5 -86.5t-36.5 -44.5q-2 -2 -6.5 -5t-9 -4t-8 1t-3.5 9q1 4 4.5 4.5t6.5 0.5
q32 37 59 78t53 84t52 86.5t48 89.5zM207 568q-34 -17 -60.5 -39t-48.5 -48q-15 -16 -30 -40.5t-24 -51.5t-9.5 -52.5t12.5 -42.5q7 -9 17.5 -11.5t22.5 -1t23.5 6t19.5 8.5q45 23 80 57t66 66q6 16 13 35.5t12 43.5q3 15 3.5 31.5t-4 29.5t-14.5 20.5t-28 4.5
q-14 -1 -27 -6t-24 -10z" />
    <glyph glyph-name="zero" unicode="0" horiz-adv-x="235" 
d="M167 443q27 -6 39 -29t13.5 -52.5t-6 -59t-19.5 -47.5q-16 -27 -37.5 -52.5t-49.5 -44.5q-6 -5 -15 -9.5t-18.5 -7.5t-19.5 -2t-18 8q-17 15 -17.5 45t8.5 64.5t23.5 67.5t26.5 54q2 2 0 4t0 5q3 4 6.5 7.5t7.5 8.5q7 9 14 20.5t15.5 22t17 18.5t18.5 10q7 2 11.5 -1
t5.5 -8t-0.5 -11.5t-5.5 -10.5zM133 424v0q-2 0 -2 -0.5t-1 -0.5q-25 -32 -45.5 -74t-33.5 -90q-3 -11 -6.5 -24.5t-4.5 -27.5t1.5 -26.5t11.5 -19.5q25 -1 42 11.5t30 25.5q40 37 59 73.5t22 67.5q3 26 -3.5 50t-20.5 35q-3 2 -9 5.5t-11 2.5q-4 -1 -8 -5.5t-6 -7.5
q-4 -4 -6.5 -8t-8.5 -5q-5 2 -3.5 7.5t3.5 10.5z" />
    <glyph glyph-name="numbersign" unicode="#" horiz-adv-x="368" 
d="M322 513q-5 -21 -15 -37.5t-15 -37.5q-1 -1 -6 -4q-5 -11 -10.5 -23t-10.5 -24q14 -1 31 0t36 0h7.5t11 -1t9.5 -2.5t3 -5.5q-1 -5 -11.5 -4t-15.5 1q-20 1 -38.5 0t-37.5 -2q-10 -19 -17.5 -38t-15.5 -39q9 -2 17 1.5t14 0.5q0 -5 -3.5 -7.5t-8.5 -4t-11.5 -1.5
t-11.5 -1q-14 -27 -23.5 -58.5t-18.5 -63.5q1 -2 4 -2.5t3 -3.5q-2 -8 -5.5 -17t-11.5 -13q-5 1 -6.5 6t-1.5 11t1.5 12l2.5 10q6 31 15.5 60t18.5 57q-26 -1 -52 -3.5t-52 -4.5q-6 -11 -9.5 -24.5t-6.5 -27.5q4 0 6.5 6.5t9.5 4.5q4 -8 -4 -15.5t-15 -9.5q-10 4 -8 14t4 17
q2 9 4.5 17.5t4.5 14.5q-7 0 -18 -1t-21 -1t-17 2t-7 8q0 2 1 2.5t0 2.5q2 2 4 2t8.5 -0.5t19 -0.5t35.5 2q7 17 13.5 34.5t14.5 34.5q-3 1 -10.5 -0.5l-15 -3t-14 -0.5t-6.5 7q0 7 8.5 7.5t14.5 2.5q8 1 15 2l14 2q9 17 17 34.5t17 34.5q3 5 6.5 10.5t10.5 6.5q2 1 2 0
t2 -1q4 -13 -4 -23.5t-16 -34.5q-2 -5 -2.5 -9.5t-4.5 -9.5q-3 -1 -4 0.5t-3 2.5l-2 -4t-2 -5q25 4 51 6l52 4q16 34 30 68.5t33 64.5q5 4 10 2t7 -7zM132 359q-16 -33 -31 -71q27 2 52.5 3.5t52.5 2.5q7 20 14.5 39t15.5 38q-27 -2 -53 -5t-51 -7z" />
    <glyph glyph-name="exclam" unicode="!" horiz-adv-x="218" 
d="M240 739q9 1 13 -9q-2 -14 -8.5 -25.5t-11.5 -23.5q-32 -78 -62 -158.5t-62 -159.5q-2 -5 -3.5 -12t-9.5 -7q-6 5 -3 12t5 12q15 43 31 88t32 87q15 37 28.5 74t27.5 75q3 6 4 13t3 14t5.5 12.5t10.5 7.5zM42 213q8 5 16 1.5t7 -11.5q0 -7 -5.5 -9.5t-10.5 -1t-8 6.5
t1 14z" />
    <glyph glyph-name="question" unicode="?" horiz-adv-x="367" 
d="M107 334q2 -3 6 -3t8 1t7.5 1t4.5 -4q1 -7 -6.5 -8.5t-12.5 -1.5q-13 0 -17 6t-3 15t5.5 18t8.5 15q23 35 54 65t65.5 58t69.5 56.5t67 61.5q12 13 22.5 27.5t11.5 38.5q-2 8 -6 13t-9 9q-19 11 -44.5 10t-52 -9t-51.5 -21t-43 -26q-30 -25 -56.5 -52.5t-46.5 -62.5
q-1 -2 3 -2t4 -2q4 -4 4 -8q-2 -8 -13 -11.5t-17 -0.5t-6.5 8.5t1.5 12t5 12.5l5 10q11 14 30 39.5t55 54.5q16 12 34.5 24t40 22.5t45.5 17.5t50 9q23 1 41.5 -4t31.5 -17q4 -6 8 -13q6 -21 0 -38t-17 -31.5t-24 -27t-23 -23.5q-29 -25 -58.5 -49.5t-57.5 -47.5t-53 -45.5
t-43 -44.5q-9 -11 -17.5 -23t-10.5 -29zM66 214q2 2 4 0.5t4 -3.5q2 -6 1.5 -13t-6.5 -9q-8 -1 -11.5 4.5t-1.5 13.5q4 6 10 7z" />
    <glyph glyph-name="parenleft" unicode="(" horiz-adv-x="370" 
d="M497 663q-19 0 -34 -3t-28 -8.5t-24.5 -12t-23.5 -12.5q-80 -46 -145 -108.5t-113 -142.5q-20 -34 -35.5 -71.5t-23 -76t-5 -77t17.5 -74.5q10 -23 23 -41.5t33 -29.5q5 -2 13 -1.5t9 -6.5q-3 -10 -15 -8t-17 5q-12 5 -21 15.5t-17 21.5q-23 31 -35 78.5t-5 101.5
q6 51 30 108.5t64 114.5t96 110.5t127 95.5q23 14 51.5 27.5t57.5 15.5q13 1 23.5 -2t14.5 -13q1 -8 -2 -14.5t-9 -5.5q-7 0 -6 5.5t-1 8.5z" />
    <glyph glyph-name="parenright" unicode=")" horiz-adv-x="402" 
d="M-46 -7q-9 -7 -18.5 -15.5t-20.5 -15.5q-3 -3 -9.5 -7t-12.5 -5q-6 -2 -13.5 -0.5t-5.5 12.5q2 6 6.5 3.5t9.5 -1.5q4 1 10 5t12 9l12 10t9 8q28 26 62 61t67.5 73t64 76t53.5 69q32 43 61 89t52 99q11 24 22 54t10 65t-19.5 55t-55.5 20q-13 0 -24.5 -3t-22.5 -8
q-4 -1 -4.5 -4t-3.5 -5q-8 0 -12 -4.5t-12 -2.5q-8 4 -7.5 9.5t5 10t12 8.5t12.5 6q11 5 23.5 7.5t23.5 3.5q48 1 74 -24.5t26 -73.5q0 -31 -8.5 -59t-18.5 -52q-27 -66 -67.5 -129.5t-88.5 -123.5t-100 -115.5t-103 -104.5z" />
    <glyph glyph-name="bracketleft" unicode="[" horiz-adv-x="248" 
d="M277 646q23 4 47 6t49 6q5 0 15.5 2t12.5 -4q2 -8 -9.5 -9.5t-18.5 -2.5q-26 -4 -53 -7t-53 -8q-81 -134 -152.5 -275.5t-143.5 -284.5q-8 -22 -19 -42.5t-9 -48.5q3 -8 11.5 -10.5t19.5 -2.5q25 0 48.5 7t46.5 15q17 6 32 11.5t32 11.5q5 2 10.5 4.5t9.5 -3.5
q-1 -8 -9 -9t-13 -5q-21 -7 -53 -19.5t-63.5 -20t-56.5 -4.5t-32 27q1 29 11 53.5t19 45.5q65 142 135 275t145 264q-5 2 -5 5q-5 1 -10 -0.5t-8 -3.5q-8 2 -15 2t-8 7q0 6 5 8t12 2.5t14.5 0t12.5 1.5q10 12 19 29.5t23 23.5q4 2 8 0t6 -5q3 -5 1.5 -11t-4.5 -11.5
t-6.5 -10.5t-3.5 -9z" />
    <glyph glyph-name="bracketright" unicode="]" horiz-adv-x="309" 
d="M35 -19q3 0 7 0.5t8 0.5t7 -1t4 -5q-3 -8 -14.5 -9t-21.5 -3q-30 -5 -57.5 -14.5t-50.5 -20.5q-2 -2 0.5 -6.5t-2.5 -6.5q-7 -2 -14.5 0.5t-9.5 10.5q1 9 9 13.5t15 7.5q23 11 50 18t55 12q8 51 25 93.5t36 84.5q36 79 69.5 142.5t61 111.5t47 81.5t28.5 52.5q6 8 11 18
t10 21q4 9 8.5 23.5t-0.5 25.5q-6 10 -24 11t-39 -2t-41.5 -8.5t-32.5 -8.5q2 -3 1.5 -8t-4.5 -7q-5 -2 -9.5 0.5t-9.5 2.5q-7 1 -13.5 1t-7.5 9q1 9 8.5 12t14.5 5q23 7 51 12.5t53 7.5q28 2 50 -5t23 -33q0 -12 -4 -24t-9 -23q-17 -41 -37 -76.5t-46.5 -80.5t-61 -107.5
t-79.5 -157.5q-19 -40 -36 -81.5t-28 -89.5z" />
    <glyph glyph-name="braceleft" unicode="{" horiz-adv-x="262" 
d="M100 307q4 -3 7 -6t5 -8q3 -23 -6 -44t-17 -42t-15 -42.5t-5 -46.5q2 -11 7.5 -22.5t17.5 -12.5q7 -1 12.5 2.5t10.5 -1.5q1 -6 -3.5 -9t-11 -4t-13 -0.5t-10.5 2.5q-8 5 -13 12t-8 14q-8 30 -3 57t14.5 51t17.5 44t6 36q-4 2 -10 1l-12 -2t-10.5 0t-5.5 7q0 5 4 8t9.5 5
t11.5 3.5t10 3.5q20 14 35 33t28 41q23 38 32.5 67.5t13.5 54.5t5.5 47.5t7.5 46.5q15 55 65 73q11 5 16.5 -4t-2.5 -15q-2 -1 -6 -1t-6 -2q-23 -7 -35.5 -30t-17.5 -49t-8 -48t-9 -45t-16.5 -48.5t-31.5 -56.5q-13 -21 -27.5 -39t-33.5 -31z" />
    <glyph glyph-name="braceright" unicode="}" horiz-adv-x="294" 
d="M215 389q6 -8 1 -13.5t-13.5 -9.5t-18 -7t-13.5 -7q-7 -3 -12.5 -6.5t-11.5 -8.5q-5 -3 -11.5 -8t-7.5 -11q-2 -9 7 -20.5t20 -26t21 -33.5t12 -44q2 -33 -10.5 -56t-31.5 -40q-11 -9 -27 -17.5t-34 -14t-37.5 -5.5t-35.5 9q-2 2 -3.5 4.5t-3.5 4.5q-2 6 -5.5 16t4.5 14
q8 -1 7.5 -10t4.5 -14q6 -6 15 -8.5t20 -1.5t21.5 4t19.5 6q16 6 31.5 16t27.5 24t18.5 31.5t4.5 39.5q-2 21 -11.5 36.5t-20.5 28t-20.5 24t-12.5 23.5q-3 14 2.5 24t15.5 17.5t21 13.5t19 11q-10 5 -20 17q-2 5 -3 9t-2 9q-1 29 8.5 52t24 43.5t30 39.5t27.5 40q3 6 6 13
t2 13t-6.5 10t-12.5 5q-5 1 -12.5 1t-11.5 -2q-3 -2 -3 -5.5t-5 -3.5q-4 0 -5.5 4t-0.5 8q1 9 13.5 14t27 3t26 -12t10.5 -29q-1 -12 -10 -27.5t-21 -32t-25 -34t-23 -33.5q-8 -14 -15 -29t-6 -38q4 -21 29 -24q6 1 12.5 4t13.5 0z" />
    <glyph glyph-name="less" unicode="&#x3c;" horiz-adv-x="384" 
d="M353 484q-2 -12 -13.5 -16t-20.5 -9q-29 -13 -59 -27t-57 -30q-20 -9 -37.5 -20t-35.5 -22q-16 -14 -33.5 -24.5t-25.5 -31.5q2 -8 9 -12.5t15 -8.5q22 -11 46 -20.5t46.5 -20t42.5 -23.5t35 -32q1 -1 4 -5t5 -8.5t2.5 -8.5t-4.5 -5q-5 -2 -7 3t-3 10q-14 18 -33 30.5
t-40.5 22.5t-44.5 18.5t-45 18.5q-12 6 -27.5 14t-16.5 25q0 8 4 14l8 12q39 37 92.5 68t106.5 60q13 7 27 13.5t28 13.5q7 4 17.5 9t14.5 -8z" />
    <glyph glyph-name="greater" unicode="&#x3e;" horiz-adv-x="360" 
d="M116 463q34 -29 78 -48.5t84 -42.5l26 -16t16 -26q0 -12 -8 -21.5t-19.5 -17.5t-25 -14.5t-23.5 -12.5q-45 -24 -88 -48t-85 -51q-8 -5 -17.5 -10.5t-14.5 -11.5q-2 -3 -2.5 -7t-5.5 -6q-10 2 -8 8.5t4 10.5q5 7 22 19t37.5 24.5t40 24t29.5 17.5q21 12 47 25.5t48.5 26
t37.5 23.5t15 20q0 8 -8.5 13t-16.5 9q-18 10 -41 20.5t-47 22t-47.5 25.5t-42.5 31q-6 5 -12 11.5t-5 17.5q2 8 9.5 9.5t14 -1.5t10 -9.5t-1.5 -14.5z" />
    <glyph glyph-name="backslash" unicode="\" horiz-adv-x="289" 
d="M7 677q-2 2 -4.5 0.5t-4.5 2.5q-5 10 -11 18.5t-5 24.5q2 7 6.5 11.5t12.5 1.5q11 -8 13.5 -21.5t5.5 -26.5q23 -94 50 -181.5t55 -178.5q15 -50 33 -100.5t35 -98.5q25 -72 38.5 -111t19.5 -57.5t7.5 -22.5t3.5 -6t6 -2.5t5 -5.5t-2 -8t-5 -3q-5 -2 -9.5 2t-8 9.5t-7 12
t-4.5 9.5q-7 12 -10.5 24t-7.5 23q-55 168 -109.5 338.5t-102.5 345.5z" />
    <glyph glyph-name="slash" unicode="/" horiz-adv-x="295" 
d="M382 730q5 2 8 -1t5 -7q-4 -16 -13.5 -25.5t-16.5 -22.5q-54 -82 -111 -170t-111.5 -178.5t-104.5 -182.5t-90 -182q-3 -6 -5 -14t-10 -10q-10 4 -7.5 13t4.5 14q7 20 17.5 39t19.5 37q38 76 78.5 148.5t83.5 143.5q57 94 118 184.5t116 185.5q2 22 19 28z" />
    <glyph glyph-name="bar" unicode="|" horiz-adv-x="297" 
d="M94 -26q-7 1 -7 7.5t-4 10.5q-1 5 2 5.5t2 5.5q1 73 5.5 148t10.5 146t13 135t13 115.5t10 88.5t5 54q1 11 0.5 22.5t7.5 19.5q6 2 11 -1.5t6 -6.5q0 -2 -2.5 -12t-7 -36.5t-11 -72.5t-13.5 -119t-13.5 -177t-12.5 -245q-1 -18 -1.5 -37t-4.5 -35l-2 -10t-7 -6z" />
    <glyph glyph-name="quotedbl" unicode="&#x22;" horiz-adv-x="220" 
d="M180 671q1 -10 -5 -18t-11 -16q-14 -23 -29 -46.5t-28 -49.5q-2 -2 -1 -5t-1 -5q-9 -2 -11 2t-0.5 10t4.5 11.5t5 8.5q14 29 29.5 57t31.5 55h2q4 3 8.5 1t5.5 -5zM113 655q-1 -9 -4 -15.5t-8 -15t-12.5 -20t-16.5 -29.5q-1 -2 1 -4t0 -4q-2 -6 -8.5 -4t-6.5 7q2 14 8 25
t11 22l10 22t13 20q7 3 12 -2q0 -2 1 -2z" />
    <glyph glyph-name="quotesingle" unicode="'" horiz-adv-x="164" 
d="M60 563q-2 1 -5 4q2 11 7.5 19t9.5 19q5 8 9.5 17.5t9.5 17.5q1 4 3 10q5 6 11.5 5t7.5 -8q1 -5 -3.5 -11.5t-8.5 -11.5q-7 -12 -12.5 -22.5t-12.5 -21.5q-3 -5 -6.5 -10.5t-9.5 -6.5z" />
    <glyph glyph-name="comma" unicode="," horiz-adv-x="218" 
d="M36 181q-8 5 -2 10.5t10 10.5q10 11 18 24t15 24q-1 2 -0.5 5t0.5 5q4 5 10 3.5t8 -6.5q0 -14 -8.5 -26.5t-15.5 -20.5q-4 -5 -7.5 -8.5l-7.5 -7.5l-9 -9t-11 -4z" />
    <glyph glyph-name="period" unicode="." horiz-adv-x="180" 
d="M69 250q5 2 8 -1t5 -6q1 -6 -1.5 -10.5t-7 -6t-9 0.5t-5.5 7q-2 13 10 16z" />
    <glyph glyph-name="ampersand" unicode="&#x26;" horiz-adv-x="593" 
d="M247 376q11 -51 29 -95.5t40 -85.5q16 12 41.5 30t53.5 37t57 35.5t53 24.5q8 2 18 3.5t14 -9.5q0 -16 -10 -16q-5 0 -5 4.5v6.5q-32 -10 -59.5 -26t-53.5 -33t-51 -34.5t-49 -37.5q20 -35 41 -67t43 -64q4 -1 8 -1t6 -4q2 -8 1 -17.5t-9 -10.5q-5 0 -9.5 4t-8.5 9.5
t-7 11t-6 8.5q-29 42 -45 69t-29 52q-19 -14 -41.5 -31.5t-47.5 -35t-50.5 -34t-49.5 -28.5q-17 -8 -38 -15t-44 1q-17 7 -22 23.5t-2.5 36t9 38t14.5 29.5q38 68 89.5 121t103.5 106q-20 84 -6.5 163.5t50.5 136.5q37 56 91 94q26 19 60 35.5t72 19.5q33 2 54.5 -11
t21.5 -43q0 -20 -7.5 -37t-15.5 -32q-18 -30 -36 -54q-60 -78 -129.5 -143.5t-138.5 -133.5zM555 767q4 27 -11.5 38.5t-43.5 9.5q-35 -2 -67.5 -17.5t-57.5 -33.5q-37 -26 -66.5 -63.5t-48 -85t-23.5 -103t7 -118.5q18 17 47.5 44.5t62.5 61t67.5 70t63 72t47.5 68t23 57.5
zM235 364l-1 1l-58 -58t-66 -72.5t-55 -77.5t-26 -72q-1 -11 1 -19t5 -14q6 -6 9 -8q22 -8 46 1.5t41 18.5q19 11 42 26t46 31.5t44.5 33t38.5 30.5q-21 41 -38.5 85t-28.5 94z" />
    <glyph glyph-name="asterisk" unicode="*" horiz-adv-x="247" 
d="M147 559h-1h1q18 7 32 20q15 2 14 -12q-6 -12 -18.5 -17t-23.5 -12q7 -11 15 -18q2 1 4 2.5t4 -0.5q3 -5 0.5 -9t-6.5 -6q-11 3 -16.5 10.5t-13.5 13.5q-7 -1 -9.5 -6t-4.5 -11t-4.5 -11t-8.5 -6q-8 2 -6 9t4 12q-8 -1 -15 -5t-18 -3q-2 1 -6 7q0 5 6 11q14 3 24.5 8.5
t21.5 11.5q-5 11 -11 19t-9 20q1 1 1.5 2t2.5 2q11 -2 13.5 -11t9.5 -15q8 11 12.5 25.5t17.5 22.5q9 -2 8 -9.5t-5.5 -16t-9.5 -16.5t-5 -12z" />
    <glyph glyph-name="percent" unicode="%" horiz-adv-x="436" 
d="M68 106q-6 -2 -9.5 0t-4.5 6t-0.5 8.5t1.5 8.5q2 8 6 16t6 13q20 40 43.5 77.5t46.5 72.5q32 49 66 94.5t71 89.5q-32 -11 -65 -21t-71 -15q-5 -1 -11 -2t-8 -3t0 -7.5t2 -10.5q2 -25 -7.5 -39.5t-21.5 -26.5q-12 -9 -26.5 -19t-34.5 -5q-4 1 -6.5 4t-4.5 5q-1 3 -2 5.5
t-2 5.5v13t4 20t12.5 28t26.5 38q11 14 28 29q8 7 19 12t23 1q10 -5 7.5 -18.5t-7.5 -20.5q45 5 82.5 17t75.5 25q30 32 61 63t68 59q10 8 25 18t30 11q10 0 13 -4t2.5 -10.5t-4 -13.5t-6.5 -11q-13 -17 -29 -31t-32 -25q-26 -19 -51 -31.5t-51 -24.5q-39 -42 -74 -87.5
t-70 -93.5q-32 -50 -65 -98t-56 -106q-1 -4 1.5 -8.5t-1.5 -7.5zM414 590q-15 -14 -29.5 -28t-28.5 -29q0 -2 -3.5 -4t-1.5 -4q22 11 42.5 23t39.5 26q17 16 34.5 31.5t27.5 38.5q-27 -8 -44.5 -23.5t-36.5 -30.5zM120 476q3 -3 5.5 -6.5t7.5 -5.5l4 10t3 12q-7 -1 -11 -4
t-9 -6zM102 459q-15 -15 -31 -42q-8 -13 -16 -30t0 -31q2 -2 5.5 -1.5t5.5 0.5q25 10 45 27.5t19 52.5q-2 0 -5 -0.5t-4 3.5q1 5 3.5 8t-1.5 7q-12 3 -21 6zM289 290q-5 -3 -8 -8q9 -9 11 -23.5t-1.5 -28.5t-11 -25.5t-18.5 -15.5q-9 -4 -17 2q-8 10 -8.5 22t2.5 25t9 24.5
t12 20.5q-1 2 -3 3t-1 5q1 2 4 3t5 -1q4 3 8 8t8.5 8.5t10 4.5t12.5 -2q4 -3 3.5 -10t-3.5 -13t-7 -7t-7 8zM253 201q9 2 15.5 10t9.5 18.5t2.5 22t-6.5 20.5q-8 -14 -17 -31t-4 -40z" />
    <glyph glyph-name="plus" unicode="+" horiz-adv-x="337" 
d="M225 434q-5 -20 -16 -32.5t-17 -30.5q-7 -8 -11.5 -18.5t-9.5 -20.5q24 1 49.5 2t48.5 5l14 4t12 -3q-2 -8 -10 -9t-16 -3q-23 -4 -50.5 -5t-52.5 -3q-9 -15 -16 -32.5t-14 -34.5q-2 -11 -2.5 -22t-11.5 -13q-9 2 -8 10.5t3 14.5q2 8 4 15t3 13q2 17 -7.5 28.5
t-21.5 18.5q-7 0 -14.5 0.5t-15.5 1.5q-7 0 -14 0.5t-8 8.5q3 6 10 7.5t15.5 0.5t16.5 -3.5t13 -3.5q13 -1 24.5 0t25.5 0q15 29 28.5 58.5t33.5 52.5q5 2 9 0t6 -7zM115 317q6 -5 9.5 -11.5t7.5 -14.5q2 8 5 14.5t6 13.5h-15t-13 -2z" />
    <glyph glyph-name="hyphen" unicode="-" horiz-adv-x="321" 
d="M267 342q-1 -9 -8 -8.5t-15 0.5q-32 -2 -67.5 -5t-69.5 -6q-5 0 -11.5 -1t-12 -0.5t-9.5 3t-4 7.5q0 3 1.5 5t3.5 4q38 2 81.5 2t84.5 2q5 1 14 1.5t12 -4.5z" />
    <glyph glyph-name="equal" unicode="=" horiz-adv-x="335" 
d="M86 365q2 9 13 9h19h40t40 1q35 2 45.5 2t11.5 -6q0 -3 -5 -4.5t-12 -2t-14 -0.5h-10q-24 -1 -46 -2.5t-45 -3.5q-5 0 -11 -1t-11 -1t-9.5 2t-5.5 7zM264 308q0 -7 -6 -7h-11q-32 0 -64 -3l-64 -6q-11 -2 -24.5 -3.5t-17.5 10.5q0 4 1.5 5.5l3.5 3.5q42 1 86.5 2.5
t87.5 3.5q8 -2 8 -6z" />
    <glyph glyph-name="underscore" unicode="_" horiz-adv-x="414" 
d="M337 222q-5 -1 -7 0.5t-6 2.5q-9 1 -18.5 0.5t-19.5 -1.5q-48 -2 -93 -4t-88 -8q-8 -2 -17 -3t-17 -2q-8 -2 -16 -1.5t-9 11.5q0 5 2.5 7t5.5 4q5 1 8.5 -1.5t8.5 -2.5q11 -1 24 1l26 4q37 3 78.5 5t78.5 4q5 0 18 0.5t24.5 -0.5t18 -4.5t-1.5 -11.5z" />
    <glyph glyph-name="dollar" unicode="$" horiz-adv-x="356" 
d="M319 664q-6 -6 -13 -3q-22 -61 -42 -131q10 3 24.5 7t29.5 4.5t28 -3.5t18 -16q7 -20 -1 -36t-16 -28q3 -10 0 -15t-8.5 -5t-11 3.5t-6.5 10.5q-2 8 3 15t9 15q4 7 8.5 15.5t3.5 14.5q-2 11 -17 11.5t-26 -1.5q-13 -2 -23 -6t-21 -7q-14 -44 -26 -87.5t-25 -87.5
q25 -16 48 -33.5t31 -51.5q1 -32 -15 -54t-35 -37q-38 -30 -83 -42q-9 -32 -16 -65t-17 -63q-4 -9 -7.5 -22t-13.5 -12q-6 1 -6.5 5.5t1 10t4.5 11.5t3 9q1 3 5 18.5t9 35.5t9.5 39.5t7.5 30.5q-42 -1 -71.5 13t-34.5 52q1 11 4 19.5t7 16.5q5 7 10 14.5t13 8.5
q5 -7 0 -13.5t-8 -11.5q-4 -7 -7 -13.5t-5 -14.5q0 -18 8 -29t21.5 -17.5t30.5 -8.5t35 -1q14 50 27 99.5t27 98.5q-19 11 -45 19.5t-43 21.5q-8 6 -13 14t-4 22q11 25 30 41.5t40 30.5q42 27 93 47q12 42 25 82.5t22 85.5q4 4 6 5q14 3 19 -9t0 -23zM239 501
q-27 -11 -58 -30t-54 -39q-7 -6 -16.5 -15.5t-8.5 -20.5q0 -6 5 -11t11.5 -8.5t13.5 -6.5t11 -6q13 -5 25 -11.5t25 -11.5q11 40 23.5 80t22.5 80zM226 168q19 14 34 32t14 49q-7 29 -27 43.5t-43 27.5q-1 0 -1 -2q-13 -45 -24.5 -91t-22.5 -93q19 4 36.5 13.5t33.5 20.5z
" />
    <glyph glyph-name="sterling" unicode="&#xa3;" horiz-adv-x="373" 
d="M308 400q-2 -2 -4 -4.5t-7 -2.5q-13 2 -12.5 14.5t2.5 20.5q6 30 17 58t11 62q-14 -7 -29 -22t-30.5 -35.5t-30.5 -44t-28 -46t-24 -42t-18 -32.5q23 0 47.5 1.5t48.5 2.5q7 0 14 -0.5t9 -8.5q0 -8 -5.5 -9.5t-11.5 -3.5q-3 1 -3.5 4t-0.5 5q-27 0 -53 -1t-52 -3
q-25 -45 -49 -89.5t-52 -86.5q30 8 69.5 9t78.5 0t72.5 -1.5t51.5 4.5q5 2 9.5 5t9.5 -2q1 -7 -8 -10t-16 -5q-25 -5 -56.5 -5t-60.5 2q-20 1 -40 0.5t-40 -1.5q-20 0 -38 -2.5t-32 -7.5q-6 -3 -11 -6.5t-13 -1.5q-6 7 -1 14t8 12q26 41 49.5 83.5t47.5 86.5q-14 0 -28.5 -2
t-28 -3.5t-24 -3.5t-15.5 -2q-10 3 -10 10q0 6 2.5 9t7 3.5t9.5 -0.5t10 -1q20 -2 43 1.5t40 1.5q27 47 54.5 95.5t60.5 92.5q13 17 27.5 33.5t34.5 24.5q3 1 6.5 0.5t6.5 -0.5q3 -2 5 -4t5 -4q8 -20 3 -42.5t-12 -44.5q-2 -7 -4.5 -14t-4.5 -15q-4 -12 -6.5 -22.5
t-0.5 -23.5z" />
    <glyph glyph-name="yen" unicode="&#xa5;" horiz-adv-x="360" 
d="M340 504q-48 -45 -86 -97.5t-70 -112.5q11 1 27 3t32 3t28 -2t15 -12q-1 -5 -5.5 -8.5t-10.5 -1.5q-5 4 -1 10q-23 4 -46 0t-45 -6q-8 -13 -14 -28l-12 -30q8 -1 18 1t20.5 3t19 -0.5t13.5 -7.5q0 -5 -4 -8t-9 -4t-9.5 0.5t-5.5 6.5q-13 -1 -24.5 -2t-23.5 -3
q-6 -19 -15 -42.5t-11 -47.5q-1 -10 1.5 -17.5t-2.5 -12.5q-8 0 -9.5 7t-2.5 14q-2 26 7.5 50.5t14.5 44.5q-14 0 -29 -4.5t-29 -4.5q-5 5 -4 8.5t5.5 6t11 3.5t12.5 2q11 2 20 2.5t17 1.5q7 14 12 28.5t12 27.5q-32 -3 -59.5 -13t-56.5 -18q-9 4 -9 11t6 9.5t11 4.5
q8 2 15 3.5t17 2.5q17 2 34 7t33 6q-9 20 -17 52t-15 66.5t-12 67.5t-8 54q5 8 12 8q9 -1 10 -9.5t2 -15.5q6 -41 13.5 -80t14.5 -79q3 -16 6 -31t11 -27q33 66 76.5 128.5t101.5 108.5q5 4 11 9t12 8.5t13 4.5t14 -3q2 -4 3 -7q-2 -12 -13 -20t-22 -15q-5 -3 -11 -7.5
t-11 3.5z" />
    <glyph glyph-name="Euro" unicode="&#x20ac;" horiz-adv-x="383" 
d="M161 362q26 1 56.5 2t56.5 -1q8 -1 16.5 -2t11.5 -8q-1 -9 -11 -12q-4 0 -4 3t-2 5q-35 2 -68 1t-65 -5q-11 -18 -19 -37.5t-16 -40.5q21 2 44.5 3.5t48.5 3.5q5 1 15 1.5t11 -6.5q0 -7 -10 -7t-18 -1q-25 -2 -50 -5.5t-48 -7.5q-4 -12 -7.5 -28t-4.5 -31.5t2.5 -30
t12.5 -24.5q9 -8 21.5 -8.5t25 3t24.5 9t21 9.5q18 9 33 18.5t28 17.5q28 19 54 42q6 6 12.5 11.5t11.5 12.5q3 2 5.5 5.5l5 7t6 6t8.5 2.5q4 -10 -4 -16.5t-11 -13.5q-29 -32 -67 -59.5t-81 -49.5q-20 -10 -42.5 -18.5t-48.5 -1.5q-16 5 -24 20t-10.5 34t0 39.5t8.5 37.5
q-11 -2 -20.5 -6.5t-21.5 -2.5q-5 3 -5.5 9t1.5 10q3 3 9.5 5t14.5 2.5t15.5 1t12.5 2.5q8 21 16.5 40.5t17.5 38.5q-20 0 -40 -7t-40 -5l-4 4t-2 6q0 5 2 7.5t4 4.5q21 3 43.5 4t45.5 5q17 27 33.5 54.5t38.5 50.5q17 22 44 44q13 9 27.5 17.5t31.5 10.5q17 1 27 -7
t14.5 -21.5t4.5 -30t-4 -31.5l-8 -18l-8 -18q-2 -5 -7 -11.5t-10 -10.5t-10.5 -3.5t-8.5 10.5q2 9 6 15.5t8.5 14.5t9.5 20.5t10 33.5v15.5t-3 13.5q-6 9 -15.5 10t-19.5 -3t-19 -10t-15 -11q-33 -26 -58.5 -62t-45.5 -72z" />
    <glyph glyph-name="asciitilde" unicode="~" horiz-adv-x="391" 
d="M298 272q-15 -23 -35 -41t-57 -20q-10 2 -15.5 8t-10.5 13q-5 11 -9 24.5t-6 28.5q-2 14 -4 28.5t-10 25.5q-14 -8 -22.5 -20t-16.5 -25t-14.5 -27t-13.5 -28q2 -10 -1 -18.5t-13 -9.5q-4 0 -6 1.5t-4 3.5q-2 12 1.5 22.5t8.5 18.5q10 22 28 49t39 43l4 2l4 2q6 2 10 0
q16 -7 19.5 -25.5t6.5 -38.5q3 -18 9 -37.5t20 -25.5q21 1 33.5 9.5t24.5 17.5q5 6 9.5 11.5t9.5 12.5q2 2 3.5 6.5t2.5 9t3 7.5t6 3t4.5 -3.5t-1 -9t-4 -10.5t-3.5 -8z" />
    <glyph glyph-name="cent" unicode="&#xa2;" horiz-adv-x="227" 
d="M157 511h7.5t7.5 -1q2 -2 4 -2.5t4 -2.5q9 -7 12 -22q0 -14 -3 -25.5t-8 -24.5q-2 -5 -4.5 -11.5t-6 -11.5t-8 -6.5t-9.5 3.5q0 10 3.5 20t7 20.5t5 21.5t-2.5 23q-6 3 -14 1q-6 -12 -14.5 -39t-16.5 -57t-15.5 -57.5t-10.5 -40.5q20 6 35.5 19t27.5 27q5 4 8 10t11 8
q3 -1 4 -3t3 -4q-6 -14 -16.5 -24t-21.5 -20q-11 -9 -24 -16.5t-30 -11.5q-5 -16 -7.5 -37t-6.5 -40q-2 -5 -3 -11.5t-9 -6.5q-6 2 -5.5 9t1.5 12q2 18 6 37t8 35q-26 3 -33 23t-4 44.5t12.5 48t17.5 35.5q14 21 30.5 39t38.5 31q2 7 5 17t7 21l7 21t11 13q8 1 9.5 -3.5
t-0.5 -11t-5 -13t-4 -9.5q-3 -8 -6 -13.5t-5 -13.5zM48 324q1 -8 5 -17q9 -12 26 -12q11 48 25 95t26 92q-33 -27 -57 -63t-25 -95z" />
    <glyph glyph-name="germandbls" unicode="&#xdf;" horiz-adv-x="234" 
d="M54 386q22 -5 44 -13.5t39 -22.5t27 -34t8 -49q-1 -20 -8 -37t-16.5 -31.5t-21.5 -26.5l-23 -23q-11 -10 -25 -20t-31 -18q-11 -6 -24.5 -11t-28 -7t-28.5 0t-25 10q-2 -8 -6 -15t1 -15q-5 -8 -9 -18t-15 -12q-8 1 -9 7.5t2.5 17t9.5 23.5t11 28q-4 11 -7.5 20.5
t-4.5 21.5q-2 24 4 43t17 34t25 26t29 20q11 23 21.5 45.5t21.5 44.5q-3 3 -6 5.5t-4 7.5q5 19 19.5 29t27.5 22q21 35 48.5 72t59.5 66q11 10 23 19.5t26 13.5q8 2 15 0t9 -10q-2 -20 -12.5 -32t-21.5 -25q-11 -12 -22.5 -23t-22.5 -22q-24 -22 -49 -42t-52 -39
q-4 -8 -8.5 -15t-7.5 -15zM231 595q-23 -9 -39.5 -25t-33.5 -32q-14 -17 -29 -35t-26 -38q17 15 35 29.5t34 31.5q17 15 34 31t28 38h-2h-1zM38 389q2 -1 3.5 1.5t-0.5 2.5q0 -2 -1.5 -2t-1.5 -2zM-53 119q13 -12 32.5 -11t40 10t40 22t32.5 25q10 9 21 21t20 26.5t15 31.5
t5 37q-1 22 -10.5 37t-24.5 25.5t-33.5 17t-38.5 10.5q-31 -57 -54.5 -121t-44.5 -131zM-66 140q11 32 23.5 63.5t23.5 61.5q-13 -8 -25 -21t-19.5 -30t-9 -36t6.5 -38z" />
    <glyph glyph-name="at" unicode="@" horiz-adv-x="719" 
d="M425 242q-6 1 -9.5 -1.5t-7.5 -5.5q-11 -8 -23 -16t-30 -7q-13 6 -10.5 20t6.5 23q8 17 20.5 35t29.5 34q4 4 11 9t15 8t16 2.5t13 -9.5q7 -13 1 -25t-8 -22q-1 -4 1 -5.5t1 -7.5q-1 -4 -3 -9t-4 -11q-2 -7 -4 -16.5t-2 -19.5t3 -18t10 -11q17 -2 30 5t24 15t21.5 16.5
t18.5 19.5q26 29 47.5 65t35.5 78q7 21 11.5 47t3 50.5t-9 46.5t-22.5 36q-26 32 -72 44.5t-100 6.5q-59 -7 -116.5 -36t-105 -74t-81 -102.5t-45.5 -120.5q-10 -56 0 -102.5t34 -79.5q25 -34 59.5 -54.5t87.5 -25.5q52 -5 99.5 2t88.5 21.5t74 35.5t55 45q3 3 7 7.5t9 1.5
q5 -5 1.5 -10t-6.5 -7q-3 -4 -6.5 -7t-6.5 -7q-7 -6 -13.5 -12.5t-14.5 -11.5q-20 -16 -51.5 -31.5t-69.5 -26.5t-82 -16.5t-89 -2.5q-60 5 -100 30.5t-66 67.5q-31 50 -35 107.5t14 115.5t54.5 112t86 96t109 68.5t123.5 30.5q55 3 96 -11t68 -43q15 -13 23.5 -32.5
t11.5 -43t1.5 -48t-7.5 -47.5q-11 -44 -29.5 -81t-41.5 -66q-22 -32 -52 -56q-7 -5 -15.5 -11.5t-18 -12t-20 -8t-22.5 0.5q-18 5 -22 25t0 43zM436 323q-16 -7 -25.5 -18.5t-19.5 -22.5q-8 -13 -16.5 -24.5t-10.5 -30.5q15 4 26.5 11.5t21.5 17.5q4 14 10.5 24.5t11.5 24.5
q2 3 4 9t-2 9z" />
    <glyph glyph-name="registered" unicode="&#xae;" horiz-adv-x="391" 
d="M243 676q29 -14 49 -41q14 -17 22.5 -35.5t6.5 -48.5q-3 -42 -28 -75t-59 -51.5t-71 -21t-62 17.5q-23 20 -30 55t1.5 74.5t32.5 78.5t64 67q14 11 32 20t37 9q21 -2 25 -18q-1 -11 -7.5 -17.5t-12.5 -13.5zM195 690q8 0 15 -2t13 -4q6 5 11.5 9.5t8.5 11.5
q-14 1 -26.5 -3.5t-21.5 -11.5zM178 679l-2 -1q-32 -26 -59 -66.5t-30 -95.5q-3 -43 16.5 -69.5t61.5 -24.5q29 2 54.5 14t44.5 30.5t30.5 41t13.5 46.5q2 26 -7 44t-21 32q-21 25 -49 38q-5 -1 -8 -5.5t-8 -2.5t-2.5 8t2.5 8q-8 2 -17 3t-20 0zM168 513q11 -4 24.5 -6
t27.5 -4q4 -1 8 -1t7 -3q-1 -9 -12.5 -8t-18.5 2q-13 2 -24 3.5t-21 4.5q-5 -6 -3.5 -12t1.5 -11q-4 -5 -9 -2t-5 8q-2 19 4.5 33t11.5 29q4 9 8 18.5t8 18.5t8 18.5t14 12.5q5 0 8 -5q-1 -8 -3.5 -13.5t-7 -13.5t-10.5 -19.5t-14 -29.5q22 16 44.5 30.5t33.5 41.5
q0 11 -1.5 13t-8.5 9q-2 0 -4.5 1t-5.5 2q-21 0 -35 -7t-27 -16q-5 -5 -9.5 -9t-8.5 -10q-3 -4 -6.5 -13.5t-8.5 -9.5t-6 3.5t0.5 9t4 10t3.5 6.5q5 8 10 13l10 10q15 11 32 19t43 7q6 -1 11 -3t10 -5q11 -11 11.5 -22.5t-5.5 -23t-15 -21.5t-17 -17q-14 -12 -28.5 -21
t-28.5 -17z" />
    <glyph glyph-name="copyright" unicode="&#xa9;" horiz-adv-x="359" 
d="M250 678q18 -11 31.5 -30t20.5 -43t6 -50.5t-12 -51.5q-8 -17 -21.5 -34.5t-32 -30.5t-41 -20t-47.5 -4q-38 5 -63.5 33.5t-28.5 68.5q-2 42 13 71t33 54q21 23 46 41.5t61 26.5q18 2 29 -6t6 -25zM230 687q0 1 -2 1.5t-2 -1.5q2 1 2.5 -0.5t1.5 0.5zM183 676
q-40 -19 -68 -58q-24 -32 -31 -61.5t-2.5 -53.5t19 -41.5t33.5 -25.5q26 -11 54 -4t51 24.5t39 43.5t18 55q3 37 -11 65t-37 46q-5 -8 -13 -4.5t-6 13.5q-10 4 -22.5 4t-23.5 -3zM188 573q-13 -12 -25 -26t-14 -35q8 -9 19 -5t19 8q4 2 8 4.5t8 5.5q3 3 7 6t9 -2
q0 -6 -6.5 -11t-12.5 -10t-16 -9t-19.5 -5.5t-18 2t-12.5 15.5q1 22 10 34.5t19 24.5q8 9 17 18t23 12q8 -2 9 -8t-2.5 -11.5t-9.5 -8.5t-12 1z" />
    <glyph glyph-name="uni00A0" unicode="&#xa0;" horiz-adv-x="0" 
 />
    <glyph glyph-name="colon" unicode=":" horiz-adv-x="196" 
d="M107 388q5 2 8 -1t5 -6q1 -6 -1.5 -10.5t-7 -6t-9 0.5t-5.5 7q-2 13 10 16zM64 234q8 5 16 1.5t7 -11.5q0 -7 -5.5 -9.5t-10.5 -1t-8 6.5t1 14z" />
    <glyph glyph-name="semicolon" unicode=";" horiz-adv-x="180" 
d="M94 378q5 2 8 -1t5 -6q1 -6 -1.5 -10.5t-7 -6t-9 0.5t-5.5 7q-2 13 10 16zM20 148q-8 5 -2 10.5t10 10.5q10 11 18 24t15 24q-1 2 -0.5 5t0.5 5q4 5 10 3.5t8 -6.5q0 -14 -8.5 -26.5t-15.5 -20.5l-15 -16l-9 -9t-11 -4z" />
    <glyph glyph-name="acute" unicode="&#xb4;" horiz-adv-x="134" 
d="M72 463q-10 -5 -16.5 -14t-18.5 -12q-1 1 -3 1q-3 7 0.5 11.5t7.5 7.5q7 9 15 15q7 6 16.5 15t17.5 14q2 2 6.5 0.5t5.5 -6.5q1 -6 -5 -10t-10 -7z" />
    <glyph glyph-name="grave" unicode="`" horiz-adv-x="157" 
d="M103 457q-7 -2 -10 2.5t-7 7.5q-11 11 -22.5 21t-17.5 26q1 6 7 7q6 -1 9.5 -5t6.5 -9q7 -8 13 -16t13 -16q3 -4 7 -8.5t1 -9.5z" />
    <glyph glyph-name="tilde" unicode="&#x2dc;" horiz-adv-x="239" 
d="M191 518q3 -8 -3 -13.5t-10 -10.5q-6 -5 -12 -9t-13 -7q-4 -1 -14 -1q-11 5 -17.5 14t-14.5 17q-6 -4 -10 -10t-9 -11q-6 -5 -9 -12t-13 -6q0 1 -3 1q-5 11 1.5 18t11.5 13q10 13 24 24q10 3 15.5 -1.5t10 -11.5t9 -13.5t12.5 -6.5q9 -1 15 4.5t13 9.5q4 3 6.5 8.5
t9.5 3.5z" />
    <glyph glyph-name="breve" unicode="&#x2d8;" horiz-adv-x="199" 
d="M82 475q3 0 6.5 -1t6.5 1q21 8 31 26q2 4 3.5 9.5t5.5 5.5q8 0 5.5 -8.5t-4.5 -11.5q-3 -6 -6 -10l-6 -8q-8 -8 -17.5 -15t-23.5 -6q-20 2 -25.5 22t5.5 37q7 2 10.5 -1.5t5.5 -8.5q-2 -8 -3 -17t6 -14z" />
    <glyph glyph-name="circumflex" unicode="&#x2c6;" horiz-adv-x="202" 
d="M145 473q-7 -6 -12 0.5t-8 11.5l-6 12t-5 14q-6 -5 -12 -13t-12 -15q-6 -4 -12.5 -15t-15.5 -11q-3 0 -6 3t-2 8q6 9 14 16t15 15q4 3 8.5 8.5l9 11t10 9t12.5 0.5q6 -10 8 -21.5t8 -21.5q2 -3 4.5 -5t1.5 -7z" />
    <glyph glyph-name="ogonek" unicode="&#x2db;" horiz-adv-x="185" 
d="M112 140q1 -5 -3 -6t-7 -3t-7 -2.5t-8 -1.5q-20 -2 -29.5 9.5t-4.5 28.5q3 9 9.5 20.5t15 23.5t16 22.5t11.5 16.5q10 1 12.5 -2.5t1 -9t-5.5 -11t-8 -7.5q-11 -14 -22 -32q-5 -7 -11.5 -17.5t-4.5 -21.5q1 -4 7 -8q6 -2 11.5 -1t10 2.5t9 2t7.5 -2.5z" />
    <glyph glyph-name="cedilla" unicode="&#xb8;" horiz-adv-x="183" 
d="M120 220q2 -6 -0.5 -11t-3.5 -10q-4 -4 -8 -2q-5 -7 -9.5 -13t-6.5 -14q8 -10 20 -14.5t17 -17.5q3 -14 -7 -26.5t-25 -18.5t-29.5 -4.5t-19.5 14.5q0 9 2 16t10 8q0 -1 2 -1q5 -5 0.5 -9t-3.5 -10t10 -6t19 4.5t18 11.5t8 14q0 6 -5.5 9t-11.5 5.5l-12 5t-8 7.5
q-5 7 -3 17t8 20t13 18t13 11q6 4 12 -4z" />
    <glyph glyph-name="dieresis" unicode="&#xa8;" horiz-adv-x="176" 
d="M117 479q5 2 8.5 -0.5t4.5 -6t-0.5 -8t-5.5 -5.5q-6 -2 -9.5 1t-4.5 7t0.5 8t6.5 4zM62 475q7 2 11 -1.5t3 -11.5q-3 -8 -8 -8t-9 4t-4.5 9t7.5 8z" />
    <glyph glyph-name="ring" unicode="&#x2da;" horiz-adv-x="159" 
d="M82 508q5 1 8.5 -2t2.5 -8q4 -2 10 -6q7 -11 3.5 -22t-12 -19t-19.5 -10.5t-20 4.5l-2 4l-2 4q0 3 -0.5 6.5t0.5 6.5q4 12 13 25t18 17zM87 488q-2 -3 -3.5 -6t-6.5 -3q-2 -6 -5 -10.5t-5 -12.5q7 -2 14 2t11 10t3.5 12t-8.5 8z" />
    <glyph glyph-name="hungarumlaut" unicode="&#x2dd;" horiz-adv-x="230" 
d="M124 519q1 -8 -4 -11.5t-9 -8.5q-10 -8 -20 -16.5t-20 -17.5q-2 -3 -5.5 -6.5t-8.5 -2.5q-7 4 -2.5 10t7.5 9q6 6 14 14.5t16.5 16t14.5 13t7 5.5q6 1 10 -5zM107 461q0 1 -2 1q-5 5 -0.5 9t7.5 7q18 21 41 39q4 2 7.5 0.5t3.5 -4.5q1 -4 -2 -8t-7.5 -7.5l-9 -7
t-7.5 -5.5q-9 -8 -15.5 -15t-15.5 -9z" />
    <glyph glyph-name="macron" unicode="&#xaf;" horiz-adv-x="202" 
d="M145 473q-2 -5 -7.5 -4.5t-10.5 -0.5q-30 -1 -45 -5t-24 1q-2 7 2 10t10 4t14 0.5t14 -0.5q20 1 32.5 2t14.5 -7z" />
    <glyph glyph-name="caron" unicode="&#x2c7;" horiz-adv-x="185" 
d="M49 501q7 6 12 -0.5t8 -11.5l6 -12t5 -14q6 5 12 13t12 15q6 4 12.5 15t15.5 11q3 0 6 -3t2 -8q-6 -9 -14 -16t-15 -15q-4 -3 -8.5 -8.5l-9 -11t-10 -9t-12.5 -0.5q-6 10 -8 21.5t-8 21.5q-2 3 -4.5 5t-1.5 7z" />
    <glyph glyph-name="Agrave" unicode="&#xc0;" horiz-adv-x="754" 
d="M826 792q5 -11 1.5 -25t-7.5 -24q-29 -78 -62 -151.5t-62 -151.5q54 6 106.5 14.5t106.5 16.5q17 2 34.5 6t37.5 3q7 -2 12.5 -4t7.5 -10q-1 -10 -7 -15t-17 -3q-3 2 -3 6t1 7q-17 -1 -34.5 -4t-34.5 -6q-53 -8 -107.5 -12.5t-107.5 -12.5q-18 -47 -35.5 -93t-33 -94
t-29 -98.5t-23.5 -104.5q-6 -36 -11.5 -74t-2.5 -80q2 -2 7 -1.5t6 -3.5q4 -6 3.5 -13.5t-4 -13.5t-9.5 -8t-13 2q-5 3 -7 14t-4 21q-4 30 -0.5 62.5t8.5 61.5q19 117 56 220t73 200q-60 -7 -118 -16t-118 -17q-51 -63 -99 -129t-94 -135q-48 -67 -91.5 -137t-93.5 -135
q-1 -4 -1 -8t-4 -6q-5 -1 -11.5 -3t-12.5 -2t-11 2t-6 10q0 9 7.5 11.5t17.5 0.5q18 18 50.5 68t78.5 120.5t106 157.5t134 180q-99 -17 -160.5 -29t-99 -20.5t-59.5 -13t-42 -4.5q-6 -2 -10.5 -6.5t-12.5 -2.5q-4 11 3.5 20t16.5 11q5 1 8 -1.5t8 -2.5q10 -1 48.5 6t90 17
t110 21t108.5 18q46 54 91 108t93 105q33 36 71 74.5t79 73.5q12 11 27.5 22.5t32.5 15.5q10 2 17 -5zM809 783q-18 -7 -48.5 -33.5t-66.5 -62.5t-74 -77.5t-70 -78.5t-55 -65t-29 -38q-4 -2 -6 -6t-5 -6q-2 -4 -6 -7.5t-2 -5.5q57 9 114 17t116 16q14 34 21.5 53.5t13 32
t9.5 23t11.5 27.5t19 45t31.5 75q8 18 16.5 38t11.5 40q1 3 1.5 7t-2.5 6h-1zM862 868q-7 -2 -10 2.5t-7 7.5q-11 11 -22.5 21t-17.5 26q1 6 7 7q6 -1 9.5 -5t6.5 -9q7 -8 13 -16t13 -16q3 -4 7 -8.5t1 -9.5z" />
    <glyph glyph-name="Aacute" unicode="&#xc1;" horiz-adv-x="754" 
d="M826 792q5 -11 1.5 -25t-7.5 -24q-29 -78 -62 -151.5t-62 -151.5q54 6 106.5 14.5t106.5 16.5q17 2 34.5 6t37.5 3q7 -2 12.5 -4t7.5 -10q-1 -10 -7 -15t-17 -3q-3 2 -3 6t1 7q-17 -1 -34.5 -4t-34.5 -6q-53 -8 -107.5 -12.5t-107.5 -12.5q-18 -47 -35.5 -93t-33 -94
t-29 -98.5t-23.5 -104.5q-6 -36 -11.5 -74t-2.5 -80q2 -2 7 -1.5t6 -3.5q4 -6 3.5 -13.5t-4 -13.5t-9.5 -8t-13 2q-5 3 -7 14t-4 21q-4 30 -0.5 62.5t8.5 61.5q19 117 56 220t73 200q-60 -7 -118 -16t-118 -17q-51 -63 -99 -129t-94 -135q-48 -67 -91.5 -137t-93.5 -135
q-1 -4 -1 -8t-4 -6q-5 -1 -11.5 -3t-12.5 -2t-11 2t-6 10q0 9 7.5 11.5t17.5 0.5q18 18 50.5 68t78.5 120.5t106 157.5t134 180q-99 -17 -160.5 -29t-99 -20.5t-59.5 -13t-42 -4.5q-6 -2 -10.5 -6.5t-12.5 -2.5q-4 11 3.5 20t16.5 11q5 1 8 -1.5t8 -2.5q10 -1 48.5 6t90 17
t110 21t108.5 18q46 54 91 108t93 105q33 36 71 74.5t79 73.5q12 11 27.5 22.5t32.5 15.5q10 2 17 -5zM809 783q-18 -7 -48.5 -33.5t-66.5 -62.5t-74 -77.5t-70 -78.5t-55 -65t-29 -38q-4 -2 -6 -6t-5 -6q-2 -4 -6 -7.5t-2 -5.5q57 9 114 17t116 16q14 34 21.5 53.5t13 32
t9.5 23t11.5 27.5t19 45t31.5 75q8 18 16.5 38t11.5 40q1 3 1.5 7t-2.5 6h-1zM848 891q-10 -5 -16.5 -14t-18.5 -12q-1 1 -3 1q-3 7 0.5 11.5t7.5 7.5q7 9 15 15q7 6 16.5 15t17.5 14q2 2 6.5 0.5t5.5 -6.5q1 -6 -5 -10t-10 -7z" />
    <glyph glyph-name="Acircumflex" unicode="&#xc2;" horiz-adv-x="754" 
d="M826 792q5 -11 1.5 -25t-7.5 -24q-29 -78 -62 -151.5t-62 -151.5q54 6 106.5 14.5t106.5 16.5q17 2 34.5 6t37.5 3q7 -2 12.5 -4t7.5 -10q-1 -10 -7 -15t-17 -3q-3 2 -3 6t1 7q-17 -1 -34.5 -4t-34.5 -6q-53 -8 -107.5 -12.5t-107.5 -12.5q-18 -47 -35.5 -93t-33 -94
t-29 -98.5t-23.5 -104.5q-6 -36 -11.5 -74t-2.5 -80q2 -2 7 -1.5t6 -3.5q4 -6 3.5 -13.5t-4 -13.5t-9.5 -8t-13 2q-5 3 -7 14t-4 21q-4 30 -0.5 62.5t8.5 61.5q19 117 56 220t73 200q-60 -7 -118 -16t-118 -17q-51 -63 -99 -129t-94 -135q-48 -67 -91.5 -137t-93.5 -135
q-1 -4 -1 -8t-4 -6q-5 -1 -11.5 -3t-12.5 -2t-11 2t-6 10q0 9 7.5 11.5t17.5 0.5q18 18 50.5 68t78.5 120.5t106 157.5t134 180q-99 -17 -160.5 -29t-99 -20.5t-59.5 -13t-42 -4.5q-6 -2 -10.5 -6.5t-12.5 -2.5q-4 11 3.5 20t16.5 11q5 1 8 -1.5t8 -2.5q10 -1 48.5 6t90 17
t110 21t108.5 18q46 54 91 108t93 105q33 36 71 74.5t79 73.5q12 11 27.5 22.5t32.5 15.5q10 2 17 -5zM809 783q-18 -7 -48.5 -33.5t-66.5 -62.5t-74 -77.5t-70 -78.5t-55 -65t-29 -38q-4 -2 -6 -6t-5 -6q-2 -4 -6 -7.5t-2 -5.5q57 9 114 17t116 16q14 34 21.5 53.5t13 32
t9.5 23t11.5 27.5t19 45t31.5 75q8 18 16.5 38t11.5 40q1 3 1.5 7t-2.5 6h-1zM876 867q-7 -6 -12 0.5t-8 11.5l-6 12t-5 14q-6 -5 -12 -13t-12 -15q-6 -4 -12.5 -15t-15.5 -11q-3 0 -6 3t-2 8q6 9 14 16t15 15q4 3 8.5 8.5l9 11t10 9t12.5 0.5q6 -10 8 -21.5t8 -21.5
q2 -3 4.5 -5t1.5 -7z" />
    <glyph glyph-name="Atilde" unicode="&#xc3;" horiz-adv-x="754" 
d="M826 792q5 -11 1.5 -25t-7.5 -24q-29 -78 -62 -151.5t-62 -151.5q54 6 106.5 14.5t106.5 16.5q17 2 34.5 6t37.5 3q7 -2 12.5 -4t7.5 -10q-1 -10 -7 -15t-17 -3q-3 2 -3 6t1 7q-17 -1 -34.5 -4t-34.5 -6q-53 -8 -107.5 -12.5t-107.5 -12.5q-18 -47 -35.5 -93t-33 -94
t-29 -98.5t-23.5 -104.5q-6 -36 -11.5 -74t-2.5 -80q2 -2 7 -1.5t6 -3.5q4 -6 3.5 -13.5t-4 -13.5t-9.5 -8t-13 2q-5 3 -7 14t-4 21q-4 30 -0.5 62.5t8.5 61.5q19 117 56 220t73 200q-60 -7 -118 -16t-118 -17q-51 -63 -99 -129t-94 -135q-48 -67 -91.5 -137t-93.5 -135
q-1 -4 -1 -8t-4 -6q-5 -1 -11.5 -3t-12.5 -2t-11 2t-6 10q0 9 7.5 11.5t17.5 0.5q18 18 50.5 68t78.5 120.5t106 157.5t134 180q-99 -17 -160.5 -29t-99 -20.5t-59.5 -13t-42 -4.5q-6 -2 -10.5 -6.5t-12.5 -2.5q-4 11 3.5 20t16.5 11q5 1 8 -1.5t8 -2.5q10 -1 48.5 6t90 17
t110 21t108.5 18q46 54 91 108t93 105q33 36 71 74.5t79 73.5q12 11 27.5 22.5t32.5 15.5q10 2 17 -5zM809 783q-18 -7 -48.5 -33.5t-66.5 -62.5t-74 -77.5t-70 -78.5t-55 -65t-29 -38q-4 -2 -6 -6t-5 -6q-2 -4 -6 -7.5t-2 -5.5q57 9 114 17t116 16q14 34 21.5 53.5t13 32
t9.5 23t11.5 27.5t19 45t31.5 75q8 18 16.5 38t11.5 40q1 3 1.5 7t-2.5 6h-1zM915 919q3 -8 -3 -13.5t-10 -10.5q-6 -5 -12 -9t-13 -7q-4 -1 -14 -1q-11 5 -17.5 14t-14.5 17q-6 -4 -10 -10t-9 -11q-6 -5 -9 -12t-13 -6q0 1 -3 1q-5 11 1.5 18t11.5 13q10 13 24 24
q10 3 15.5 -1.5t10 -11.5t9 -13.5t12.5 -6.5q9 -1 15 4.5t13 9.5q4 3 6.5 8.5t9.5 3.5z" />
    <glyph glyph-name="Adieresis" unicode="&#xc4;" horiz-adv-x="754" 
d="M826 792q5 -11 1.5 -25t-7.5 -24q-29 -78 -62 -151.5t-62 -151.5q54 6 106.5 14.5t106.5 16.5q17 2 34.5 6t37.5 3q7 -2 12.5 -4t7.5 -10q-1 -10 -7 -15t-17 -3q-3 2 -3 6t1 7q-17 -1 -34.5 -4t-34.5 -6q-53 -8 -107.5 -12.5t-107.5 -12.5q-18 -47 -35.5 -93t-33 -94
t-29 -98.5t-23.5 -104.5q-6 -36 -11.5 -74t-2.5 -80q2 -2 7 -1.5t6 -3.5q4 -6 3.5 -13.5t-4 -13.5t-9.5 -8t-13 2q-5 3 -7 14t-4 21q-4 30 -0.5 62.5t8.5 61.5q19 117 56 220t73 200q-60 -7 -118 -16t-118 -17q-51 -63 -99 -129t-94 -135q-48 -67 -91.5 -137t-93.5 -135
q-1 -4 -1 -8t-4 -6q-5 -1 -11.5 -3t-12.5 -2t-11 2t-6 10q0 9 7.5 11.5t17.5 0.5q18 18 50.5 68t78.5 120.5t106 157.5t134 180q-99 -17 -160.5 -29t-99 -20.5t-59.5 -13t-42 -4.5q-6 -2 -10.5 -6.5t-12.5 -2.5q-4 11 3.5 20t16.5 11q5 1 8 -1.5t8 -2.5q10 -1 48.5 6t90 17
t110 21t108.5 18q46 54 91 108t93 105q33 36 71 74.5t79 73.5q12 11 27.5 22.5t32.5 15.5q10 2 17 -5zM809 783q-18 -7 -48.5 -33.5t-66.5 -62.5t-74 -77.5t-70 -78.5t-55 -65t-29 -38q-4 -2 -6 -6t-5 -6q-2 -4 -6 -7.5t-2 -5.5q57 9 114 17t116 16q14 34 21.5 53.5t13 32
t9.5 23t11.5 27.5t19 45t31.5 75q8 18 16.5 38t11.5 40q1 3 1.5 7t-2.5 6h-1zM850 888q5 2 8.5 -0.5t4.5 -6t-0.5 -8t-5.5 -5.5q-6 -2 -9.5 1t-4.5 7t0.5 8t6.5 4zM795 884q7 2 11 -1.5t3 -11.5q-3 -8 -8 -8t-9 4t-4.5 9t7.5 8z" />
    <glyph glyph-name="Aring" unicode="&#xc5;" horiz-adv-x="754" 
d="M826 792q5 -11 1.5 -25t-7.5 -24q-29 -78 -62 -151.5t-62 -151.5q54 6 106.5 14.5t106.5 16.5q17 2 34.5 6t37.5 3q7 -2 12.5 -4t7.5 -10q-1 -10 -7 -15t-17 -3q-3 2 -3 6t1 7q-17 -1 -34.5 -4t-34.5 -6q-53 -8 -107.5 -12.5t-107.5 -12.5q-18 -47 -35.5 -93t-33 -94
t-29 -98.5t-23.5 -104.5q-6 -36 -11.5 -74t-2.5 -80q2 -2 7 -1.5t6 -3.5q4 -6 3.5 -13.5t-4 -13.5t-9.5 -8t-13 2q-5 3 -7 14t-4 21q-4 30 -0.5 62.5t8.5 61.5q19 117 56 220t73 200q-60 -7 -118 -16t-118 -17q-51 -63 -99 -129t-94 -135q-48 -67 -91.5 -137t-93.5 -135
q-1 -4 -1 -8t-4 -6q-5 -1 -11.5 -3t-12.5 -2t-11 2t-6 10q0 9 7.5 11.5t17.5 0.5q18 18 50.5 68t78.5 120.5t106 157.5t134 180q-99 -17 -160.5 -29t-99 -20.5t-59.5 -13t-42 -4.5q-6 -2 -10.5 -6.5t-12.5 -2.5q-4 11 3.5 20t16.5 11q5 1 8 -1.5t8 -2.5q10 -1 48.5 6t90 17
t110 21t108.5 18q46 54 91 108t93 105q33 36 71 74.5t79 73.5q12 11 27.5 22.5t32.5 15.5q10 2 17 -5zM809 783q-18 -7 -48.5 -33.5t-66.5 -62.5t-74 -77.5t-70 -78.5t-55 -65t-29 -38q-4 -2 -6 -6t-5 -6q-2 -4 -6 -7.5t-2 -5.5q57 9 114 17t116 16q14 34 21.5 53.5t13 32
t9.5 23t11.5 27.5t19 45t31.5 75q8 18 16.5 38t11.5 40q1 3 1.5 7t-2.5 6h-1zM865 926q5 1 8.5 -2t2.5 -8q4 -2 10 -6q7 -11 3.5 -22t-12 -19t-19.5 -10.5t-20 4.5l-2 4l-2 4q0 3 -0.5 6.5t0.5 6.5q4 12 13 25t18 17zM870 906q-2 -3 -3.5 -6t-6.5 -3q-2 -6 -5 -10.5
t-5 -12.5q7 -2 14 2t11 10t3.5 12t-8.5 8z" />
    <glyph glyph-name="Ccedilla" unicode="&#xc7;" horiz-adv-x="735" 
d="M757 329q3 -7 -2.5 -11.5t-8.5 -8.5q-63 -63 -128 -125.5t-131 -124.5q-34 -32 -70.5 -63.5t-76.5 -60.5q-12 -9 -27.5 -19t-33.5 -18.5t-37.5 -13.5t-39.5 -5q-1 -4 -2.5 -7.5t-1.5 -7.5q-4 -4 -8 -2q-5 -7 -9.5 -13t-6.5 -14q8 -10 20 -14.5t17 -17.5q3 -14 -7 -26.5
t-25 -18.5t-29.5 -4.5t-19.5 14.5q0 9 2 16t10 8q0 -1 2 -1q5 -5 0.5 -9t-3.5 -10t10 -6t19 4.5t18 11.5t8 14q0 6 -5.5 9t-11.5 5.5l-12 5t-8 7.5q-4 6 -3.5 13.5t4 16t9 16t10.5 12.5q-18 4 -36 15q-35 21 -55 60.5t-26 90.5t1 107t23.5 110.5t40 106.5t50.5 96
q44 71 95 136.5t120 114.5q22 15 50 31t59 18q32 2 51.5 -11.5t28.5 -36.5q10 -24 9.5 -54.5t-4.5 -59.5q-3 -23 -8.5 -50.5t-11.5 -54.5t-11.5 -50.5t-9.5 -36.5q-1 -5 -1.5 -9t-5.5 -6q-6 -2 -9.5 2t-6.5 9q-2 9 3 11.5t5 10.5q8 34 15.5 68.5t15.5 70.5q4 24 8 54.5
t1.5 58t-14.5 47t-40 21.5q-18 2 -33.5 -3.5t-29.5 -11.5q-44 -21 -92 -64.5t-93 -102t-83.5 -128t-65 -141t-37.5 -142t0 -130.5q7 -37 21.5 -65.5t36.5 -45t50 -20.5t63 8q28 10 52 25t46 32t43 35.5t42 35.5q39 35 79 72.5t79 74.5t75 72t67 64q5 4 9.5 11t11.5 2z" />
    <glyph glyph-name="Egrave" unicode="&#xc8;" horiz-adv-x="606" 
d="M529 677q71 6 150 12t157 0q19 -1 36.5 -3t32.5 -9q4 -2 9 -4t4 -8q-7 -5 -11.5 -1t-9.5 6q-19 7 -43 8.5t-49 1.5q-75 0 -148.5 -4.5t-136.5 -13.5q-63 -93 -122 -189t-113 -198q48 8 99 15.5t104 13.5q6 0 13.5 1.5t12.5 -5.5q-3 -8 -11.5 -8t-14.5 -1
q-54 -7 -107.5 -15.5t-104.5 -18.5q-20 -36 -45.5 -85t-50.5 -100t-46.5 -98t-31.5 -78q-5 -14 -9 -30t2 -32q2 0 2 -1t1 -1q19 -4 36 2t33 12q28 9 72 23.5t95 30t106 30t105.5 23t93.5 9.5t70 -10q5 -2 9 -4t4 -7q-6 -6 -14.5 -1.5t-16.5 6.5q-25 7 -57 4.5t-59 -6.5
q-110 -16 -208 -48t-193 -63q-10 -4 -25 -9t-30 -6.5t-27.5 3t-15.5 20.5q1 33 11 61t21 54q33 78 69.5 150t74.5 146q-28 -5 -56.5 -11t-57.5 -13q-8 -2 -19 -3t-13 10q0 7 3.5 9.5t8.5 3t10.5 0t10.5 -0.5q6 0 11.5 1t17.5 4t33.5 7.5t58.5 10.5q54 100 111 196.5
t120 190.5q-21 -4 -40.5 -8t-39.5 -9q-2 -1 0 -5.5t-3 -5.5q-3 -3 -8.5 -1t-8.5 0l-22 -4l-22 -4q-4 -1 -10.5 -3t-12.5 -2.5t-11 1t-5 6.5q-1 5 4 8.5t11.5 5.5t14 3.5t11.5 3.5q35 10 75 18t77 13q8 9 13.5 19t11.5 20q-2 1 -6.5 0.5t-5.5 2.5t-0.5 6.5t0.5 7.5q3 6 11 8
q18 2 23 -8q2 -18 -6 -29t-13 -24zM669 781q-7 -2 -10 2.5t-7 7.5q-11 11 -22.5 21t-17.5 26q1 6 7 7q6 -1 9.5 -5t6.5 -9q7 -8 13 -16t13 -16q3 -4 7 -8.5t1 -9.5z" />
    <glyph glyph-name="Eacute" unicode="&#xc9;" horiz-adv-x="606" 
d="M529 677q71 6 150 12t157 0q19 -1 36.5 -3t32.5 -9q4 -2 9 -4t4 -8q-7 -5 -11.5 -1t-9.5 6q-19 7 -43 8.5t-49 1.5q-75 0 -148.5 -4.5t-136.5 -13.5q-63 -93 -122 -189t-113 -198q48 8 99 15.5t104 13.5q6 0 13.5 1.5t12.5 -5.5q-3 -8 -11.5 -8t-14.5 -1
q-54 -7 -107.5 -15.5t-104.5 -18.5q-20 -36 -45.5 -85t-50.5 -100t-46.5 -98t-31.5 -78q-5 -14 -9 -30t2 -32q2 0 2 -1t1 -1q19 -4 36 2t33 12q28 9 72 23.5t95 30t106 30t105.5 23t93.5 9.5t70 -10q5 -2 9 -4t4 -7q-6 -6 -14.5 -1.5t-16.5 6.5q-25 7 -57 4.5t-59 -6.5
q-110 -16 -208 -48t-193 -63q-10 -4 -25 -9t-30 -6.5t-27.5 3t-15.5 20.5q1 33 11 61t21 54q33 78 69.5 150t74.5 146q-28 -5 -56.5 -11t-57.5 -13q-8 -2 -19 -3t-13 10q0 7 3.5 9.5t8.5 3t10.5 0t10.5 -0.5q6 0 11.5 1t17.5 4t33.5 7.5t58.5 10.5q54 100 111 196.5
t120 190.5q-21 -4 -40.5 -8t-39.5 -9q-2 -1 0 -5.5t-3 -5.5q-3 -3 -8.5 -1t-8.5 0l-22 -4l-22 -4q-4 -1 -10.5 -3t-12.5 -2.5t-11 1t-5 6.5q-1 5 4 8.5t11.5 5.5t14 3.5t11.5 3.5q35 10 75 18t77 13q8 9 13.5 19t11.5 20q-2 1 -6.5 0.5t-5.5 2.5t-0.5 6.5t0.5 7.5q3 6 11 8
q18 2 23 -8q2 -18 -6 -29t-13 -24zM694 792q-10 -5 -16.5 -14t-18.5 -12q-1 1 -3 1q-3 7 0.5 11.5t7.5 7.5q7 9 15 15q7 6 16.5 15t17.5 14q2 2 6.5 0.5t5.5 -6.5q1 -6 -5 -10t-10 -7z" />
    <glyph glyph-name="Ecircumflex" unicode="&#xca;" horiz-adv-x="606" 
d="M529 677q71 6 150 12t157 0q19 -1 36.5 -3t32.5 -9q4 -2 9 -4t4 -8q-7 -5 -11.5 -1t-9.5 6q-19 7 -43 8.5t-49 1.5q-75 0 -148.5 -4.5t-136.5 -13.5q-63 -93 -122 -189t-113 -198q48 8 99 15.5t104 13.5q6 0 13.5 1.5t12.5 -5.5q-3 -8 -11.5 -8t-14.5 -1
q-54 -7 -107.5 -15.5t-104.5 -18.5q-20 -36 -45.5 -85t-50.5 -100t-46.5 -98t-31.5 -78q-5 -14 -9 -30t2 -32q2 0 2 -1t1 -1q19 -4 36 2t33 12q28 9 72 23.5t95 30t106 30t105.5 23t93.5 9.5t70 -10q5 -2 9 -4t4 -7q-6 -6 -14.5 -1.5t-16.5 6.5q-25 7 -57 4.5t-59 -6.5
q-110 -16 -208 -48t-193 -63q-10 -4 -25 -9t-30 -6.5t-27.5 3t-15.5 20.5q1 33 11 61t21 54q33 78 69.5 150t74.5 146q-28 -5 -56.5 -11t-57.5 -13q-8 -2 -19 -3t-13 10q0 7 3.5 9.5t8.5 3t10.5 0t10.5 -0.5q6 0 11.5 1t17.5 4t33.5 7.5t58.5 10.5q54 100 111 196.5
t120 190.5q-21 -4 -40.5 -8t-39.5 -9q-2 -1 0 -5.5t-3 -5.5q-3 -3 -8.5 -1t-8.5 0l-22 -4l-22 -4q-4 -1 -10.5 -3t-12.5 -2.5t-11 1t-5 6.5q-1 5 4 8.5t11.5 5.5t14 3.5t11.5 3.5q35 10 75 18t77 13q8 9 13.5 19t11.5 20q-2 1 -6.5 0.5t-5.5 2.5t-0.5 6.5t0.5 7.5q3 6 11 8
q18 2 23 -8q2 -18 -6 -29t-13 -24zM723 792q-7 -6 -12 0.5t-8 11.5l-6 12t-5 14q-6 -5 -12 -13t-12 -15q-6 -4 -12.5 -15t-15.5 -11q-3 0 -6 3t-2 8q6 9 14 16t15 15q4 3 8.5 8.5l9 11t10 9t12.5 0.5q6 -10 8 -21.5t8 -21.5q2 -3 4.5 -5t1.5 -7z" />
    <glyph glyph-name="Edieresis" unicode="&#xcb;" horiz-adv-x="606" 
d="M529 677q71 6 150 12t157 0q19 -1 36.5 -3t32.5 -9q4 -2 9 -4t4 -8q-7 -5 -11.5 -1t-9.5 6q-19 7 -43 8.5t-49 1.5q-75 0 -148.5 -4.5t-136.5 -13.5q-63 -93 -122 -189t-113 -198q48 8 99 15.5t104 13.5q6 0 13.5 1.5t12.5 -5.5q-3 -8 -11.5 -8t-14.5 -1
q-54 -7 -107.5 -15.5t-104.5 -18.5q-20 -36 -45.5 -85t-50.5 -100t-46.5 -98t-31.5 -78q-5 -14 -9 -30t2 -32q2 0 2 -1t1 -1q19 -4 36 2t33 12q28 9 72 23.5t95 30t106 30t105.5 23t93.5 9.5t70 -10q5 -2 9 -4t4 -7q-6 -6 -14.5 -1.5t-16.5 6.5q-25 7 -57 4.5t-59 -6.5
q-110 -16 -208 -48t-193 -63q-10 -4 -25 -9t-30 -6.5t-27.5 3t-15.5 20.5q1 33 11 61t21 54q33 78 69.5 150t74.5 146q-28 -5 -56.5 -11t-57.5 -13q-8 -2 -19 -3t-13 10q0 7 3.5 9.5t8.5 3t10.5 0t10.5 -0.5q6 0 11.5 1t17.5 4t33.5 7.5t58.5 10.5q54 100 111 196.5
t120 190.5q-21 -4 -40.5 -8t-39.5 -9q-2 -1 0 -5.5t-3 -5.5q-3 -3 -8.5 -1t-8.5 0l-22 -4l-22 -4q-4 -1 -10.5 -3t-12.5 -2.5t-11 1t-5 6.5q-1 5 4 8.5t11.5 5.5t14 3.5t11.5 3.5q35 10 75 18t77 13q8 9 13.5 19t11.5 20q-2 1 -6.5 0.5t-5.5 2.5t-0.5 6.5t0.5 7.5q3 6 11 8
q18 2 23 -8q2 -18 -6 -29t-13 -24zM723 799q5 2 8.5 -0.5t4.5 -6t-0.5 -8t-5.5 -5.5q-6 -2 -9.5 1t-4.5 7t0.5 8t6.5 4zM668 795q7 2 11 -1.5t3 -11.5q-3 -8 -8 -8t-9 4t-4.5 9t7.5 8z" />
    <glyph glyph-name="Igrave" unicode="&#xcc;" 
d="M875 635q-5 4 -4 7.5t4 6.5t5.5 7t2.5 9q0 8 -7 12t-13 6q-24 10 -54 14t-62.5 3.5t-64.5 -4t-60 -6.5q-1 -3 -1 -6t-1 -6q-9 -23 -26.5 -42.5t-27.5 -42.5q-70 -112 -130 -233t-116 -249q-14 -32 -26.5 -64t-20.5 -70q-2 -5 -3.5 -11.5t-3.5 -12.5q-2 -5 -3.5 -10.5
t-9.5 -6.5q-7 0 -9.5 4t-2.5 9t1.5 11.5t1.5 11.5q2 3 3.5 5t2.5 5q5 10 7 17.5t8 23.5t18.5 46.5t38.5 88.5q62 136 109 226t79 147.5t49.5 87.5t22.5 46q3 5 6.5 10t6.5 10q-103 -16 -177.5 -33.5t-128.5 -33.5t-91.5 -29t-65.5 -19q-8 4 -9 9t2.5 9t10 7.5t12.5 4.5
q8 4 15 8t15 6q6 1 8.5 -1t6.5 -3q61 18 125 35.5t132 32.5t140 25.5t147 13.5q17 1 36.5 0t38.5 -4t35.5 -8t27.5 -11q6 -3 11.5 -8.5t8.5 -12t2.5 -14t-6.5 -14.5q-3 -3 -6 -7.5t-10 -2.5zM603 -126q-2 1 -3 2.5t-3 2.5q-2 2 -0.5 4.5t-0.5 3.5q-66 8 -136.5 5.5
t-136.5 -7.5q-41 -3 -82.5 -7.5t-77 -9.5t-61 -9.5t-32.5 -6.5q-5 -2 -10.5 -4t-10.5 -4q-29 -8 -52.5 -15t-43 -12.5t-36.5 -8.5t-34 -3q-9 3 -10 11q2 10 10 13t15 5q49 17 111 30t127 22t128.5 14t114.5 7q10 0 20 1t21 1q18 0 51.5 1t66.5 -0.5t57 -6.5t23 -18
q0 -5 -4.5 -7.5t-10.5 -3.5zM655 807q-7 -2 -10 2.5t-7 7.5q-11 11 -22.5 21t-17.5 26q1 6 7 7q6 -1 9.5 -5t6.5 -9q7 -8 13 -16t13 -16q3 -4 7 -8.5t1 -9.5z" />
    <glyph glyph-name="Iacute" unicode="&#xcd;" 
d="M875 635q-5 4 -4 7.5t4 6.5t5.5 7t2.5 9q0 8 -7 12t-13 6q-24 10 -54 14t-62.5 3.5t-64.5 -4t-60 -6.5q-1 -3 -1 -6t-1 -6q-9 -23 -26.5 -42.5t-27.5 -42.5q-70 -112 -130 -233t-116 -249q-14 -32 -26.5 -64t-20.5 -70q-2 -5 -3.5 -11.5t-3.5 -12.5q-2 -5 -3.5 -10.5
t-9.5 -6.5q-7 0 -9.5 4t-2.5 9t1.5 11.5t1.5 11.5q2 3 3.5 5t2.5 5q5 10 7 17.5t8 23.5t18.5 46.5t38.5 88.5q62 136 109 226t79 147.5t49.5 87.5t22.5 46q3 5 6.5 10t6.5 10q-103 -16 -177.5 -33.5t-128.5 -33.5t-91.5 -29t-65.5 -19q-8 4 -9 9t2.5 9t10 7.5t12.5 4.5
q8 4 15 8t15 6q6 1 8.5 -1t6.5 -3q61 18 125 35.5t132 32.5t140 25.5t147 13.5q17 1 36.5 0t38.5 -4t35.5 -8t27.5 -11q6 -3 11.5 -8.5t8.5 -12t2.5 -14t-6.5 -14.5q-3 -3 -6 -7.5t-10 -2.5zM603 -126q-2 1 -3 2.5t-3 2.5q-2 2 -0.5 4.5t-0.5 3.5q-66 8 -136.5 5.5
t-136.5 -7.5q-41 -3 -82.5 -7.5t-77 -9.5t-61 -9.5t-32.5 -6.5q-5 -2 -10.5 -4t-10.5 -4q-29 -8 -52.5 -15t-43 -12.5t-36.5 -8.5t-34 -3q-9 3 -10 11q2 10 10 13t15 5q49 17 111 30t127 22t128.5 14t114.5 7q10 0 20 1t21 1q18 0 51.5 1t66.5 -0.5t57 -6.5t23 -18
q0 -5 -4.5 -7.5t-10.5 -3.5zM621 818q-10 -5 -16.5 -14t-18.5 -12q-1 1 -3 1q-3 7 0.5 11.5t7.5 7.5q7 9 15 15q7 6 16.5 15t17.5 14q2 2 6.5 0.5t5.5 -6.5q1 -6 -5 -10t-10 -7z" />
    <glyph glyph-name="Icircumflex" unicode="&#xce;" 
d="M875 635q-5 4 -4 7.5t4 6.5t5.5 7t2.5 9q0 8 -7 12t-13 6q-24 10 -54 14t-62.5 3.5t-64.5 -4t-60 -6.5q-1 -3 -1 -6t-1 -6q-9 -23 -26.5 -42.5t-27.5 -42.5q-70 -112 -130 -233t-116 -249q-14 -32 -26.5 -64t-20.5 -70q-2 -5 -3.5 -11.5t-3.5 -12.5q-2 -5 -3.5 -10.5
t-9.5 -6.5q-7 0 -9.5 4t-2.5 9t1.5 11.5t1.5 11.5q2 3 3.5 5t2.5 5q5 10 7 17.5t8 23.5t18.5 46.5t38.5 88.5q62 136 109 226t79 147.5t49.5 87.5t22.5 46q3 5 6.5 10t6.5 10q-103 -16 -177.5 -33.5t-128.5 -33.5t-91.5 -29t-65.5 -19q-8 4 -9 9t2.5 9t10 7.5t12.5 4.5
q8 4 15 8t15 6q6 1 8.5 -1t6.5 -3q61 18 125 35.5t132 32.5t140 25.5t147 13.5q17 1 36.5 0t38.5 -4t35.5 -8t27.5 -11q6 -3 11.5 -8.5t8.5 -12t2.5 -14t-6.5 -14.5q-3 -3 -6 -7.5t-10 -2.5zM603 -126q-2 1 -3 2.5t-3 2.5q-2 2 -0.5 4.5t-0.5 3.5q-66 8 -136.5 5.5
t-136.5 -7.5q-41 -3 -82.5 -7.5t-77 -9.5t-61 -9.5t-32.5 -6.5q-5 -2 -10.5 -4t-10.5 -4q-29 -8 -52.5 -15t-43 -12.5t-36.5 -8.5t-34 -3q-9 3 -10 11q2 10 10 13t15 5q49 17 111 30t127 22t128.5 14t114.5 7q10 0 20 1t21 1q18 0 51.5 1t66.5 -0.5t57 -6.5t23 -18
q0 -5 -4.5 -7.5t-10.5 -3.5zM674 795q-7 -6 -12 0.5t-8 11.5l-6 12t-5 14q-6 -5 -12 -13t-12 -15q-6 -4 -12.5 -15t-15.5 -11q-3 0 -6 3t-2 8q6 9 14 16t15 15q4 3 8.5 8.5l9 11t10 9t12.5 0.5q6 -10 8 -21.5t8 -21.5q2 -3 4.5 -5t1.5 -7z" />
    <glyph glyph-name="Idieresis" unicode="&#xcf;" 
d="M875 635q-5 4 -4 7.5t4 6.5t5.5 7t2.5 9q0 8 -7 12t-13 6q-24 10 -54 14t-62.5 3.5t-64.5 -4t-60 -6.5q-1 -3 -1 -6t-1 -6q-9 -23 -26.5 -42.5t-27.5 -42.5q-70 -112 -130 -233t-116 -249q-14 -32 -26.5 -64t-20.5 -70q-2 -5 -3.5 -11.5t-3.5 -12.5q-2 -5 -3.5 -10.5
t-9.5 -6.5q-7 0 -9.5 4t-2.5 9t1.5 11.5t1.5 11.5q2 3 3.5 5t2.5 5q5 10 7 17.5t8 23.5t18.5 46.5t38.5 88.5q62 136 109 226t79 147.5t49.5 87.5t22.5 46q3 5 6.5 10t6.5 10q-103 -16 -177.5 -33.5t-128.5 -33.5t-91.5 -29t-65.5 -19q-8 4 -9 9t2.5 9t10 7.5t12.5 4.5
q8 4 15 8t15 6q6 1 8.5 -1t6.5 -3q61 18 125 35.5t132 32.5t140 25.5t147 13.5q17 1 36.5 0t38.5 -4t35.5 -8t27.5 -11q6 -3 11.5 -8.5t8.5 -12t2.5 -14t-6.5 -14.5q-3 -3 -6 -7.5t-10 -2.5zM603 -126q-2 1 -3 2.5t-3 2.5q-2 2 -0.5 4.5t-0.5 3.5q-66 8 -136.5 5.5
t-136.5 -7.5q-41 -3 -82.5 -7.5t-77 -9.5t-61 -9.5t-32.5 -6.5q-5 -2 -10.5 -4t-10.5 -4q-29 -8 -52.5 -15t-43 -12.5t-36.5 -8.5t-34 -3q-9 3 -10 11q2 10 10 13t15 5q49 17 111 30t127 22t128.5 14t114.5 7q10 0 20 1t21 1q18 0 51.5 1t66.5 -0.5t57 -6.5t23 -18
q0 -5 -4.5 -7.5t-10.5 -3.5zM664 813q5 2 8.5 -0.5t4.5 -6t-0.5 -8t-5.5 -5.5q-6 -2 -9.5 1t-4.5 7t0.5 8t6.5 4zM609 809q7 2 11 -1.5t3 -11.5q-3 -8 -8 -8t-9 4t-4.5 9t7.5 8z" />
    <glyph glyph-name="Ntilde" unicode="&#xd1;" horiz-adv-x="737" 
d="M277 627q3 1 6 6.5t17 20.5q8 11 17.5 21t20.5 19q10 9 22.5 17.5t30.5 6.5q20 -4 27.5 -33t7 -77t-6.5 -111t-13 -134t-13 -147t-6 -149q0 -19 0.5 -48t3.5 -59.5t9 -58t17 -43.5q8 -11 17 -12t17.5 4t16 13.5t12.5 16.5q23 35 40.5 77.5t31.5 85.5q20 60 39.5 119
t36.5 119q25 87 47 168.5t39 147.5t30 111.5t22 61.5q2 1 1.5 2t1.5 1q1 0 1.5 0.5t1.5 0.5q8 1 12 -7q2 -19 -3.5 -35.5t-13.5 -27.5q-32 -119 -67 -233.5t-70 -230.5q-11 -31 -24 -73.5t-28.5 -89t-32 -91.5t-34.5 -80t-37 -56.5t-39 -19.5q-11 1 -19.5 8.5t-14.5 18.5
t-9.5 24t-6.5 24q-12 53 -12 113t2 119q2 77 9 154t14 146t10.5 126t-1.5 95q-2 14 -5.5 27t-13.5 16q-13 2 -25 -7t-20 -17q-26 -25 -48 -55t-42 -60q-57 -152 -110 -306t-113 -303q-5 -8 -9.5 -17.5t-15.5 -11.5q-12 -1 -12.5 13.5t1.5 27.5q5 35 14.5 66.5t19.5 61.5
q33 104 71.5 198t86.5 184q9 18 19 35.5t18 35.5q14 40 29 78t29 80q1 15 7 29q2 6 5 13t11 6q10 0 10 -11t-2 -19q-8 -24 -17.5 -49t-17.5 -46zM181 431q-49 -102 -91.5 -210t-68.5 -230q42 109 81.5 219t78.5 221q2 0 1 1t-1 -1zM628 847q3 -8 -3 -13.5t-10 -10.5
q-6 -5 -12 -9t-13 -7q-4 -1 -14 -1q-11 5 -17.5 14t-14.5 17q-6 -4 -10 -10t-9 -11q-6 -5 -9 -12t-13 -6q0 1 -3 1q-5 11 1.5 18t11.5 13q10 13 24 24q10 3 15.5 -1.5t10 -11.5t9 -13.5t12.5 -6.5q9 -1 15 4.5t13 9.5q4 3 6.5 8.5t9.5 3.5z" />
    <glyph glyph-name="Ograve" unicode="&#xd2;" horiz-adv-x="828" 
d="M531 781q-47 -24 -87.5 -53.5t-78.5 -61.5q29 12 61.5 20t70.5 3q32 -4 59 -18t46 -34q39 -39 60.5 -99t21.5 -135q1 -70 -14 -126.5t-35 -108.5q51 29 97 65t89 74q8 3 13 10.5t15 5.5q2 -10 -7 -15.5t-14 -11.5q-42 -38 -96 -80t-106 -70q-36 -76 -84 -142t-112 -116
q-32 -24 -70 -44.5t-86 -27.5q-55 -8 -96.5 10t-68.5 48q-38 39 -55 97t-17 134q1 72 20 131.5t41 110.5q26 60 63.5 117t82.5 109t96.5 97.5t106.5 83.5q25 16 51 33t47 20q5 2 11 -0.5t7 -9.5q1 -9 -7.5 -16.5t-16.5 -23.5q-4 -6 -7.5 -16t-11.5 -8q-9 2 -6.5 11.5
t4.5 13.5q3 8 6.5 13t6.5 10zM600 614q-21 24 -55.5 42.5t-78.5 16.5q-40 -2 -73.5 -15t-59.5 -31q-27 -18 -48.5 -40t-41.5 -46q-45 -55 -71 -120.5t-21 -137.5q2 -41 16.5 -71.5t38 -51.5t54.5 -33.5t67 -19.5q62 -12 122 -3.5t107 26.5q16 6 31.5 12t28.5 16
q22 47 36.5 107.5t15.5 123.5t-14.5 122t-53.5 103zM149 405q0 -1 -0.5 -1t-0.5 -1q-33 -61 -59 -130.5t-32 -157.5q-5 -93 24.5 -162.5t89.5 -100.5q34 -17 74.5 -18t79.5 13q35 13 64 31.5t54 39.5q52 45 91.5 99t70.5 117q-102 -48 -191.5 -49.5t-159.5 27.5
q-57 23 -90 71t-30 130q2 25 5.5 47t9.5 45q2 0 1 1t-1 -1zM583 865q-7 -2 -10 2.5t-7 7.5q-11 11 -22.5 21t-17.5 26q1 6 7 7q6 -1 9.5 -5t6.5 -9q7 -8 13 -16t13 -16q3 -4 7 -8.5t1 -9.5z" />
    <glyph glyph-name="Oacute" unicode="&#xd3;" horiz-adv-x="828" 
d="M531 781q-47 -24 -87.5 -53.5t-78.5 -61.5q29 12 61.5 20t70.5 3q32 -4 59 -18t46 -34q39 -39 60.5 -99t21.5 -135q1 -70 -14 -126.5t-35 -108.5q51 29 97 65t89 74q8 3 13 10.5t15 5.5q2 -10 -7 -15.5t-14 -11.5q-42 -38 -96 -80t-106 -70q-36 -76 -84 -142t-112 -116
q-32 -24 -70 -44.5t-86 -27.5q-55 -8 -96.5 10t-68.5 48q-38 39 -55 97t-17 134q1 72 20 131.5t41 110.5q26 60 63.5 117t82.5 109t96.5 97.5t106.5 83.5q25 16 51 33t47 20q5 2 11 -0.5t7 -9.5q1 -9 -7.5 -16.5t-16.5 -23.5q-4 -6 -7.5 -16t-11.5 -8q-9 2 -6.5 11.5
t4.5 13.5q3 8 6.5 13t6.5 10zM600 614q-21 24 -55.5 42.5t-78.5 16.5q-40 -2 -73.5 -15t-59.5 -31q-27 -18 -48.5 -40t-41.5 -46q-45 -55 -71 -120.5t-21 -137.5q2 -41 16.5 -71.5t38 -51.5t54.5 -33.5t67 -19.5q62 -12 122 -3.5t107 26.5q16 6 31.5 12t28.5 16
q22 47 36.5 107.5t15.5 123.5t-14.5 122t-53.5 103zM149 405q0 -1 -0.5 -1t-0.5 -1q-33 -61 -59 -130.5t-32 -157.5q-5 -93 24.5 -162.5t89.5 -100.5q34 -17 74.5 -18t79.5 13q35 13 64 31.5t54 39.5q52 45 91.5 99t70.5 117q-102 -48 -191.5 -49.5t-159.5 27.5
q-57 23 -90 71t-30 130q2 25 5.5 47t9.5 45q2 0 1 1t-1 -1zM581 881q-10 -5 -16.5 -14t-18.5 -12q-1 1 -3 1q-3 7 0.5 11.5t7.5 7.5q7 9 15 15q7 6 16.5 15t17.5 14q2 2 6.5 0.5t5.5 -6.5q1 -6 -5 -10t-10 -7z" />
    <glyph glyph-name="Ocircumflex" unicode="&#xd4;" horiz-adv-x="828" 
d="M531 781q-47 -24 -87.5 -53.5t-78.5 -61.5q29 12 61.5 20t70.5 3q32 -4 59 -18t46 -34q39 -39 60.5 -99t21.5 -135q1 -70 -14 -126.5t-35 -108.5q51 29 97 65t89 74q8 3 13 10.5t15 5.5q2 -10 -7 -15.5t-14 -11.5q-42 -38 -96 -80t-106 -70q-36 -76 -84 -142t-112 -116
q-32 -24 -70 -44.5t-86 -27.5q-55 -8 -96.5 10t-68.5 48q-38 39 -55 97t-17 134q1 72 20 131.5t41 110.5q26 60 63.5 117t82.5 109t96.5 97.5t106.5 83.5q25 16 51 33t47 20q5 2 11 -0.5t7 -9.5q1 -9 -7.5 -16.5t-16.5 -23.5q-4 -6 -7.5 -16t-11.5 -8q-9 2 -6.5 11.5
t4.5 13.5q3 8 6.5 13t6.5 10zM600 614q-21 24 -55.5 42.5t-78.5 16.5q-40 -2 -73.5 -15t-59.5 -31q-27 -18 -48.5 -40t-41.5 -46q-45 -55 -71 -120.5t-21 -137.5q2 -41 16.5 -71.5t38 -51.5t54.5 -33.5t67 -19.5q62 -12 122 -3.5t107 26.5q16 6 31.5 12t28.5 16
q22 47 36.5 107.5t15.5 123.5t-14.5 122t-53.5 103zM149 405q0 -1 -0.5 -1t-0.5 -1q-33 -61 -59 -130.5t-32 -157.5q-5 -93 24.5 -162.5t89.5 -100.5q34 -17 74.5 -18t79.5 13q35 13 64 31.5t54 39.5q52 45 91.5 99t70.5 117q-102 -48 -191.5 -49.5t-159.5 27.5
q-57 23 -90 71t-30 130q2 25 5.5 47t9.5 45q2 0 1 1t-1 -1zM588 856q-7 -6 -12 0.5t-8 11.5l-6 12t-5 14q-6 -5 -12 -13t-12 -15q-6 -4 -12.5 -15t-15.5 -11q-3 0 -6 3t-2 8q6 9 14 16t15 15q4 3 8.5 8.5l9 11t10 9t12.5 0.5q6 -10 8 -21.5t8 -21.5q2 -3 4.5 -5t1.5 -7z" />
    <glyph glyph-name="Otilde" unicode="&#xd5;" horiz-adv-x="828" 
d="M531 781q-47 -24 -87.5 -53.5t-78.5 -61.5q29 12 61.5 20t70.5 3q32 -4 59 -18t46 -34q39 -39 60.5 -99t21.5 -135q1 -70 -14 -126.5t-35 -108.5q51 29 97 65t89 74q8 3 13 10.5t15 5.5q2 -10 -7 -15.5t-14 -11.5q-42 -38 -96 -80t-106 -70q-36 -76 -84 -142t-112 -116
q-32 -24 -70 -44.5t-86 -27.5q-55 -8 -96.5 10t-68.5 48q-38 39 -55 97t-17 134q1 72 20 131.5t41 110.5q26 60 63.5 117t82.5 109t96.5 97.5t106.5 83.5q25 16 51 33t47 20q5 2 11 -0.5t7 -9.5q1 -9 -7.5 -16.5t-16.5 -23.5q-4 -6 -7.5 -16t-11.5 -8q-9 2 -6.5 11.5
t4.5 13.5q3 8 6.5 13t6.5 10zM600 614q-21 24 -55.5 42.5t-78.5 16.5q-40 -2 -73.5 -15t-59.5 -31q-27 -18 -48.5 -40t-41.5 -46q-45 -55 -71 -120.5t-21 -137.5q2 -41 16.5 -71.5t38 -51.5t54.5 -33.5t67 -19.5q62 -12 122 -3.5t107 26.5q16 6 31.5 12t28.5 16
q22 47 36.5 107.5t15.5 123.5t-14.5 122t-53.5 103zM149 405q0 -1 -0.5 -1t-0.5 -1q-33 -61 -59 -130.5t-32 -157.5q-5 -93 24.5 -162.5t89.5 -100.5q34 -17 74.5 -18t79.5 13q35 13 64 31.5t54 39.5q52 45 91.5 99t70.5 117q-102 -48 -191.5 -49.5t-159.5 27.5
q-57 23 -90 71t-30 130q2 25 5.5 47t9.5 45q2 0 1 1t-1 -1zM626 908q3 -8 -3 -13.5t-10 -10.5q-6 -5 -12 -9t-13 -7q-4 -1 -14 -1q-11 5 -17.5 14t-14.5 17q-6 -4 -10 -10t-9 -11q-6 -5 -9 -12t-13 -6q0 1 -3 1q-5 11 1.5 18t11.5 13q10 13 24 24q10 3 15.5 -1.5t10 -11.5
t9 -13.5t12.5 -6.5q9 -1 15 4.5t13 9.5q4 3 6.5 8.5t9.5 3.5z" />
    <glyph glyph-name="Odieresis" unicode="&#xd6;" horiz-adv-x="828" 
d="M531 781q-47 -24 -87.5 -53.5t-78.5 -61.5q29 12 61.5 20t70.5 3q32 -4 59 -18t46 -34q39 -39 60.5 -99t21.5 -135q1 -70 -14 -126.5t-35 -108.5q51 29 97 65t89 74q8 3 13 10.5t15 5.5q2 -10 -7 -15.5t-14 -11.5q-42 -38 -96 -80t-106 -70q-36 -76 -84 -142t-112 -116
q-32 -24 -70 -44.5t-86 -27.5q-55 -8 -96.5 10t-68.5 48q-38 39 -55 97t-17 134q1 72 20 131.5t41 110.5q26 60 63.5 117t82.5 109t96.5 97.5t106.5 83.5q25 16 51 33t47 20q5 2 11 -0.5t7 -9.5q1 -9 -7.5 -16.5t-16.5 -23.5q-4 -6 -7.5 -16t-11.5 -8q-9 2 -6.5 11.5
t4.5 13.5q3 8 6.5 13t6.5 10zM600 614q-21 24 -55.5 42.5t-78.5 16.5q-40 -2 -73.5 -15t-59.5 -31q-27 -18 -48.5 -40t-41.5 -46q-45 -55 -71 -120.5t-21 -137.5q2 -41 16.5 -71.5t38 -51.5t54.5 -33.5t67 -19.5q62 -12 122 -3.5t107 26.5q16 6 31.5 12t28.5 16
q22 47 36.5 107.5t15.5 123.5t-14.5 122t-53.5 103zM149 405q0 -1 -0.5 -1t-0.5 -1q-33 -61 -59 -130.5t-32 -157.5q-5 -93 24.5 -162.5t89.5 -100.5q34 -17 74.5 -18t79.5 13q35 13 64 31.5t54 39.5q52 45 91.5 99t70.5 117q-102 -48 -191.5 -49.5t-159.5 27.5
q-57 23 -90 71t-30 130q2 25 5.5 47t9.5 45q2 0 1 1t-1 -1zM584 883q5 2 8.5 -0.5t4.5 -6t-0.5 -8t-5.5 -5.5q-6 -2 -9.5 1t-4.5 7t0.5 8t6.5 4zM529 879q7 2 11 -1.5t3 -11.5q-3 -8 -8 -8t-9 4t-4.5 9t7.5 8z" />
    <glyph glyph-name="Oslash" unicode="&#xd8;" horiz-adv-x="828" 
d="M531 781q-47 -24 -87.5 -53.5t-78.5 -61.5q29 12 61.5 20t70.5 3q26 -3 49.5 -13.5t41.5 -25.5q8 13 15.5 25.5t15.5 26.5q2 22 19 28q5 2 8 -1t5 -7q-4 -16 -13.5 -25.5t-16.5 -22.5l-23 -34l4 -3q39 -39 60.5 -99t21.5 -135q1 -70 -14 -126.5t-35 -108.5q51 29 97 65
t89 74q8 3 13 10.5t15 5.5q2 -10 -7 -15.5t-14 -11.5q-42 -38 -96 -80t-106 -70q-36 -76 -84 -142t-112 -116q-32 -24 -70 -44.5t-86 -27.5q-44 -6 -79 4t-61 30l-26 -56q-3 -6 -5 -14t-10 -10q-10 4 -7.5 13t4.5 14q5 17 14 33t17 32l-12 12q-38 39 -55 97t-17 134
q1 72 20 131.5t41 110.5q26 60 63.5 117t82.5 109t96.5 97.5t106.5 83.5q25 16 51 33t47 20q5 2 11 -0.5t7 -9.5q1 -9 -7.5 -16.5t-16.5 -23.5q-4 -6 -7.5 -16t-11.5 -8q-9 2 -6.5 11.5t4.5 13.5q3 8 6.5 13t6.5 10zM385 332q47 77 96 151.5t97 150.5q-21 17 -49.5 29
t-62.5 10q-40 -2 -73.5 -15t-59.5 -31q-27 -18 -48.5 -40t-41.5 -46q-45 -55 -71 -120.5t-21 -137.5q3 -64 34 -101.5t79 -57.5q36 63 68.5 119t52.5 89zM600 614q-3 3 -5.5 6t-5.5 5q-33 -51 -71.5 -111.5t-78.5 -125.5t-81 -133.5t-79 -135.5q22 -8 48 -12
q62 -12 122 -3.5t107 26.5q16 6 31.5 12t28.5 16q22 47 36.5 107.5t15.5 123.5t-14.5 122t-53.5 103zM144 -130q12 -11 27 -18q34 -17 74.5 -18t79.5 13q35 13 64 31.5t54 39.5q52 45 91.5 99t70.5 117q-96 -45 -181 -49t-153 20q-36 -63 -68.5 -122t-58.5 -113zM149 405
q0 -1 -0.5 -1t-0.5 -1q-33 -61 -59 -130.5t-32 -157.5q-5 -75 14.5 -135.5t59.5 -98.5q20 40 53.5 102t71.5 128q-1 0 -2 1q-57 23 -90 71t-30 130q2 25 5.5 47t9.5 45z" />
    <glyph glyph-name="Ugrave" unicode="&#xd9;" horiz-adv-x="751" 
d="M577 -98q-11 -5 -15 3t-6 16q-2 10 -2 21.5t2 20.5q4 47 18.5 114t32.5 137.5t37.5 136t34.5 110.5q-23 -33 -61.5 -88t-85.5 -119.5t-99.5 -132t-104.5 -126t-100 -102t-85 -59.5q-24 -10 -45.5 -8t-35.5 20q-12 16 -16.5 40t-4.5 51t3.5 53.5t7.5 48.5q15 85 39.5 170
t57 167t70.5 161.5t80 154.5q-8 -7 -14.5 -18.5t-14.5 -19.5q-3 -3 -4 -8t-6 -4q-4 1 -4.5 5t1 9.5t3.5 10.5t3 7q4 9 8.5 14.5t8.5 10.5t9 11.5t11 12t13 8.5t17 2q4 -7 3 -13.5t-4.5 -13.5t-7.5 -13t-7 -12q-36 -66 -70.5 -136t-65 -144.5t-56 -154.5t-43.5 -166
q-5 -22 -11 -57.5t-7.5 -71t4.5 -65t26 -38.5q19 -3 34.5 1t28.5 11t24.5 16t22.5 16q41 33 86 80t91 101.5t91.5 113.5t86.5 116.5t77 111t64 95.5q12 32 24.5 64t26.5 61q14 30 28.5 60t38.5 50q10 4 14 -5q3 -6 1 -14.5t-5.5 -16.5t-7.5 -15.5t-4 -12.5q-39 -76 -87 -148
q-44 -121 -84 -252t-66 -274q-3 -19 -7 -43t0 -41q2 -7 6.5 -10t1.5 -11zM808 710q-31 -50 -53 -106q14 26 28 51.5t25 54.5v0zM575 762q-7 -2 -10 2.5t-7 7.5q-11 11 -22.5 21t-17.5 26q1 6 7 7q6 -1 9.5 -5t6.5 -9q7 -8 13 -16t13 -16q3 -4 7 -8.5t1 -9.5z" />
    <glyph glyph-name="Uacute" unicode="&#xda;" horiz-adv-x="751" 
d="M577 -98q-11 -5 -15 3t-6 16q-2 10 -2 21.5t2 20.5q4 47 18.5 114t32.5 137.5t37.5 136t34.5 110.5q-23 -33 -61.5 -88t-85.5 -119.5t-99.5 -132t-104.5 -126t-100 -102t-85 -59.5q-24 -10 -45.5 -8t-35.5 20q-12 16 -16.5 40t-4.5 51t3.5 53.5t7.5 48.5q15 85 39.5 170
t57 167t70.5 161.5t80 154.5q-8 -7 -14.5 -18.5t-14.5 -19.5q-3 -3 -4 -8t-6 -4q-4 1 -4.5 5t1 9.5t3.5 10.5t3 7q4 9 8.5 14.5t8.5 10.5t9 11.5t11 12t13 8.5t17 2q4 -7 3 -13.5t-4.5 -13.5t-7.5 -13t-7 -12q-36 -66 -70.5 -136t-65 -144.5t-56 -154.5t-43.5 -166
q-5 -22 -11 -57.5t-7.5 -71t4.5 -65t26 -38.5q19 -3 34.5 1t28.5 11t24.5 16t22.5 16q41 33 86 80t91 101.5t91.5 113.5t86.5 116.5t77 111t64 95.5q12 32 24.5 64t26.5 61q14 30 28.5 60t38.5 50q10 4 14 -5q3 -6 1 -14.5t-5.5 -16.5t-7.5 -15.5t-4 -12.5q-39 -76 -87 -148
q-44 -121 -84 -252t-66 -274q-3 -19 -7 -43t0 -41q2 -7 6.5 -10t1.5 -11zM808 710q-31 -50 -53 -106q14 26 28 51.5t25 54.5v0zM549 769q-10 -5 -16.5 -14t-18.5 -12q-1 1 -3 1q-3 7 0.5 11.5t7.5 7.5q7 9 15 15q7 6 16.5 15t17.5 14q2 2 6.5 0.5t5.5 -6.5q1 -6 -5 -10
t-10 -7z" />
    <glyph glyph-name="Ucircumflex" unicode="&#xdb;" horiz-adv-x="751" 
d="M577 -98q-11 -5 -15 3t-6 16q-2 10 -2 21.5t2 20.5q4 47 18.5 114t32.5 137.5t37.5 136t34.5 110.5q-23 -33 -61.5 -88t-85.5 -119.5t-99.5 -132t-104.5 -126t-100 -102t-85 -59.5q-24 -10 -45.5 -8t-35.5 20q-12 16 -16.5 40t-4.5 51t3.5 53.5t7.5 48.5q15 85 39.5 170
t57 167t70.5 161.5t80 154.5q-8 -7 -14.5 -18.5t-14.5 -19.5q-3 -3 -4 -8t-6 -4q-4 1 -4.5 5t1 9.5t3.5 10.5t3 7q4 9 8.5 14.5t8.5 10.5t9 11.5t11 12t13 8.5t17 2q4 -7 3 -13.5t-4.5 -13.5t-7.5 -13t-7 -12q-36 -66 -70.5 -136t-65 -144.5t-56 -154.5t-43.5 -166
q-5 -22 -11 -57.5t-7.5 -71t4.5 -65t26 -38.5q19 -3 34.5 1t28.5 11t24.5 16t22.5 16q41 33 86 80t91 101.5t91.5 113.5t86.5 116.5t77 111t64 95.5q12 32 24.5 64t26.5 61q14 30 28.5 60t38.5 50q10 4 14 -5q3 -6 1 -14.5t-5.5 -16.5t-7.5 -15.5t-4 -12.5q-39 -76 -87 -148
q-44 -121 -84 -252t-66 -274q-3 -19 -7 -43t0 -41q2 -7 6.5 -10t1.5 -11zM808 710q-31 -50 -53 -106q14 26 28 51.5t25 54.5v0zM604 783q-7 -6 -12 0.5t-8 11.5l-6 12t-5 14q-6 -5 -12 -13t-12 -15q-6 -4 -12.5 -15t-15.5 -11q-3 0 -6 3t-2 8q6 9 14 16t15 15q4 3 8.5 8.5
l9 11t10 9t12.5 0.5q6 -10 8 -21.5t8 -21.5q2 -3 4.5 -5t1.5 -7z" />
    <glyph glyph-name="Udieresis" unicode="&#xdc;" horiz-adv-x="751" 
d="M577 -98q-11 -5 -15 3t-6 16q-2 10 -2 21.5t2 20.5q4 47 18.5 114t32.5 137.5t37.5 136t34.5 110.5q-23 -33 -61.5 -88t-85.5 -119.5t-99.5 -132t-104.5 -126t-100 -102t-85 -59.5q-24 -10 -45.5 -8t-35.5 20q-12 16 -16.5 40t-4.5 51t3.5 53.5t7.5 48.5q15 85 39.5 170
t57 167t70.5 161.5t80 154.5q-8 -7 -14.5 -18.5t-14.5 -19.5q-3 -3 -4 -8t-6 -4q-4 1 -4.5 5t1 9.5t3.5 10.5t3 7q4 9 8.5 14.5t8.5 10.5t9 11.5t11 12t13 8.5t17 2q4 -7 3 -13.5t-4.5 -13.5t-7.5 -13t-7 -12q-36 -66 -70.5 -136t-65 -144.5t-56 -154.5t-43.5 -166
q-5 -22 -11 -57.5t-7.5 -71t4.5 -65t26 -38.5q19 -3 34.5 1t28.5 11t24.5 16t22.5 16q41 33 86 80t91 101.5t91.5 113.5t86.5 116.5t77 111t64 95.5q12 32 24.5 64t26.5 61q14 30 28.5 60t38.5 50q10 4 14 -5q3 -6 1 -14.5t-5.5 -16.5t-7.5 -15.5t-4 -12.5q-39 -76 -87 -148
q-44 -121 -84 -252t-66 -274q-3 -19 -7 -43t0 -41q2 -7 6.5 -10t1.5 -11zM808 710q-31 -50 -53 -106q14 26 28 51.5t25 54.5v0zM575 761q5 2 8.5 -0.5t4.5 -6t-0.5 -8t-5.5 -5.5q-6 -2 -9.5 1t-4.5 7t0.5 8t6.5 4zM520 757q7 2 11 -1.5t3 -11.5q-3 -8 -8 -8t-9 4t-4.5 9
t7.5 8z" />
    <glyph glyph-name="Yacute" unicode="&#xdd;" horiz-adv-x="704" 
d="M488 168q18 12 30.5 21t31 21.5t48.5 32.5t84 53q8 3 14 9.5t17 5.5q1 -11 -9 -15t-17 -10q-55 -34 -107.5 -70t-103.5 -74q-53 -95 -109.5 -184.5t-127.5 -166.5q-17 -16 -37.5 -34.5t-43.5 -31.5q-6 -3 -15 -6.5t-17.5 -4t-15.5 2.5t-11 12t-3 19.5t4.5 20.5t8.5 19.5
t8 15.5q9 17 19 30t21 27q66 79 142 148t157 133q37 74 71 148.5t62 156.5q5 14 9 28l8 28t7.5 29.5t1.5 31.5q-23 -9 -38 -26t-31 -34q-15 -15 -38.5 -43t-49 -58.5t-50 -59t-40.5 -46.5q-46 -51 -91 -101t-102 -91q-16 -11 -39.5 -25.5t-49.5 -14.5q-23 0 -33.5 15.5
t-13 37t1 45.5t7.5 42q12 52 31.5 106t43.5 107.5t51 104.5t54 96q0 3 -1.5 8t-0.5 11q5 21 22 40q7 7 17.5 18t17.5 11q9 1 12 -7q3 -11 -6 -20t-11 -17q-20 -33 -37 -61.5t-33 -57.5t-31.5 -60t-31.5 -67q-11 -24 -24 -56.5t-25 -66t-21 -65.5t-13 -55q-2 -11 -3 -25
t0.5 -26.5t6 -22.5t14.5 -13q15 0 27.5 3.5t23 9.5t19.5 13t19 13q59 44 116.5 103.5t110 121t98.5 117t83 91.5q10 6 18.5 14.5t22.5 7.5q7 -1 10.5 -7t4.5 -14t0 -17.5t-2 -17.5q-9 -44 -24 -84t-30 -76q-21 -53 -43 -102.5t-46 -94.5zM435 109q-39 -30 -79.5 -65.5
t-76.5 -71t-66.5 -68t-49.5 -56.5q-14 -17 -28 -38.5t-22 -45.5q-3 -9 -3.5 -20t5.5 -15q7 -5 17.5 -1.5t16.5 7.5q23 11 39.5 27.5t33.5 32.5q64 69 116 149t100 167h-1q-2 0 -2 -2zM448 670q-10 -5 -16.5 -14t-18.5 -12q-1 1 -3 1q-3 7 0.5 11.5t7.5 7.5q7 9 15 15
q7 6 16.5 15t17.5 14q2 2 6.5 0.5t5.5 -6.5q1 -6 -5 -10t-10 -7z" />
    <glyph glyph-name="Ydieresis" unicode="&#x178;" horiz-adv-x="704" 
d="M488 168q18 12 30.5 21t31 21.5t48.5 32.5t84 53q8 3 14 9.5t17 5.5q1 -11 -9 -15t-17 -10q-55 -34 -107.5 -70t-103.5 -74q-53 -95 -109.5 -184.5t-127.5 -166.5q-17 -16 -37.5 -34.5t-43.5 -31.5q-6 -3 -15 -6.5t-17.5 -4t-15.5 2.5t-11 12t-3 19.5t4.5 20.5t8.5 19.5
t8 15.5q9 17 19 30t21 27q66 79 142 148t157 133q37 74 71 148.5t62 156.5q5 14 9 28l8 28t7.5 29.5t1.5 31.5q-23 -9 -38 -26t-31 -34q-15 -15 -38.5 -43t-49 -58.5t-50 -59t-40.5 -46.5q-46 -51 -91 -101t-102 -91q-16 -11 -39.5 -25.5t-49.5 -14.5q-23 0 -33.5 15.5
t-13 37t1 45.5t7.5 42q12 52 31.5 106t43.5 107.5t51 104.5t54 96q0 3 -1.5 8t-0.5 11q5 21 22 40q7 7 17.5 18t17.5 11q9 1 12 -7q3 -11 -6 -20t-11 -17q-20 -33 -37 -61.5t-33 -57.5t-31.5 -60t-31.5 -67q-11 -24 -24 -56.5t-25 -66t-21 -65.5t-13 -55q-2 -11 -3 -25
t0.5 -26.5t6 -22.5t14.5 -13q15 0 27.5 3.5t23 9.5t19.5 13t19 13q59 44 116.5 103.5t110 121t98.5 117t83 91.5q10 6 18.5 14.5t22.5 7.5q7 -1 10.5 -7t4.5 -14t0 -17.5t-2 -17.5q-9 -44 -24 -84t-30 -76q-21 -53 -43 -102.5t-46 -94.5zM435 109q-39 -30 -79.5 -65.5
t-76.5 -71t-66.5 -68t-49.5 -56.5q-14 -17 -28 -38.5t-22 -45.5q-3 -9 -3.5 -20t5.5 -15q7 -5 17.5 -1.5t16.5 7.5q23 11 39.5 27.5t33.5 32.5q64 69 116 149t100 167h-1q-2 0 -2 -2zM472 702q5 2 8.5 -0.5t4.5 -6t-0.5 -8t-5.5 -5.5q-6 -2 -9.5 1t-4.5 7t0.5 8t6.5 4z
M417 698q7 2 11 -1.5t3 -11.5q-3 -8 -8 -8t-9 4t-4.5 9t7.5 8z" />
    <glyph glyph-name="agrave" unicode="&#xe0;" horiz-adv-x="211" 
d="M66 324q2 0 4.5 1.5t6.5 0.5q4 -4 5 -10t0.5 -13t-1.5 -15t-1 -15q0 -17 10 -23q23 -2 41 6.5t34 17.5q15 9 24.5 16t14.5 11.5t8 5.5t6 -3q0 -5 -3.5 -8t-6.5 -6q-3 -2 -6.5 -5t-7.5 -5q-6 -5 -13.5 -9.5t-14.5 -9.5q-9 -4 -18.5 -8.5t-19.5 -8.5t-21 -5.5t-24 0.5
q-15 7 -16 29.5t3 41.5q-5 -3 -10.5 -9.5t-10.5 -12.5q-8 -6 -15 -14t-15.5 -16t-17.5 -14t-20 -6q-4 2 -10 8q-3 21 6.5 38.5t20.5 33.5q10 13 21 24.5t25 16.5q10 4 20 0q2 -2 3 -4t3 -4q2 -8 0 -14.5t-4 -12.5zM-9 260q11 5 19 12t16 15q-2 4 -2 7q6 11 13.5 21t9.5 24
q-18 -16 -33 -34.5t-23 -44.5zM86 406q-7 -2 -10 2.5t-7 7.5q-11 11 -22.5 21t-17.5 26q1 6 7 7q6 -1 9.5 -5t6.5 -9q7 -8 13 -16t13 -16q3 -4 7 -8.5t1 -9.5z" />
    <glyph glyph-name="aacute" unicode="&#xe1;" horiz-adv-x="211" 
d="M66 324q2 0 4.5 1.5t6.5 0.5q4 -4 5 -10t0.5 -13t-1.5 -15t-1 -15q0 -17 10 -23q23 -2 41 6.5t34 17.5q15 9 24.5 16t14.5 11.5t8 5.5t6 -3q0 -5 -3.5 -8t-6.5 -6q-3 -2 -6.5 -5t-7.5 -5q-6 -5 -13.5 -9.5t-14.5 -9.5q-9 -4 -18.5 -8.5t-19.5 -8.5t-21 -5.5t-24 0.5
q-15 7 -16 29.5t3 41.5q-5 -3 -10.5 -9.5t-10.5 -12.5q-8 -6 -15 -14t-15.5 -16t-17.5 -14t-20 -6q-4 2 -10 8q-3 21 6.5 38.5t20.5 33.5q10 13 21 24.5t25 16.5q10 4 20 0q2 -2 3 -4t3 -4q2 -8 0 -14.5t-4 -12.5zM-9 260q11 5 19 12t16 15q-2 4 -2 7q6 11 13.5 21t9.5 24
q-18 -16 -33 -34.5t-23 -44.5zM59 414q-10 -5 -16.5 -14t-18.5 -12q-1 1 -3 1q-3 7 0.5 11.5t7.5 7.5q7 9 15 15q7 6 16.5 15t17.5 14q2 2 6.5 0.5t5.5 -6.5q1 -6 -5 -10t-10 -7z" />
    <glyph glyph-name="acircumflex" unicode="&#xe2;" horiz-adv-x="211" 
d="M66 324q2 0 4.5 1.5t6.5 0.5q4 -4 5 -10t0.5 -13t-1.5 -15t-1 -15q0 -17 10 -23q23 -2 41 6.5t34 17.5q15 9 24.5 16t14.5 11.5t8 5.5t6 -3q0 -5 -3.5 -8t-6.5 -6q-3 -2 -6.5 -5t-7.5 -5q-6 -5 -13.5 -9.5t-14.5 -9.5q-9 -4 -18.5 -8.5t-19.5 -8.5t-21 -5.5t-24 0.5
q-15 7 -16 29.5t3 41.5q-5 -3 -10.5 -9.5t-10.5 -12.5q-8 -6 -15 -14t-15.5 -16t-17.5 -14t-20 -6q-4 2 -10 8q-3 21 6.5 38.5t20.5 33.5q10 13 21 24.5t25 16.5q10 4 20 0q2 -2 3 -4t3 -4q2 -8 0 -14.5t-4 -12.5zM-9 260q11 5 19 12t16 15q-2 4 -2 7q6 11 13.5 21t9.5 24
q-18 -16 -33 -34.5t-23 -44.5zM99 400q-7 -6 -12 0.5t-8 11.5l-6 12t-5 14q-6 -5 -12 -13t-12 -15q-6 -4 -12.5 -15t-15.5 -11q-3 0 -6 3t-2 8q6 9 14 16t15 15q4 3 8.5 8.5l9 11t10 9t12.5 0.5q6 -10 8 -21.5t8 -21.5q2 -3 4.5 -5t1.5 -7z" />
    <glyph glyph-name="atilde" unicode="&#xe3;" horiz-adv-x="211" 
d="M66 324q2 0 4.5 1.5t6.5 0.5q4 -4 5 -10t0.5 -13t-1.5 -15t-1 -15q0 -17 10 -23q23 -2 41 6.5t34 17.5q15 9 24.5 16t14.5 11.5t8 5.5t6 -3q0 -5 -3.5 -8t-6.5 -6q-3 -2 -6.5 -5t-7.5 -5q-6 -5 -13.5 -9.5t-14.5 -9.5q-9 -4 -18.5 -8.5t-19.5 -8.5t-21 -5.5t-24 0.5
q-15 7 -16 29.5t3 41.5q-5 -3 -10.5 -9.5t-10.5 -12.5q-8 -6 -15 -14t-15.5 -16t-17.5 -14t-20 -6q-4 2 -10 8q-3 21 6.5 38.5t20.5 33.5q10 13 21 24.5t25 16.5q10 4 20 0q2 -2 3 -4t3 -4q2 -8 0 -14.5t-4 -12.5zM-9 260q11 5 19 12t16 15q-2 4 -2 7q6 11 13.5 21t9.5 24
q-18 -16 -33 -34.5t-23 -44.5zM119 440q3 -8 -3 -13.5t-10 -10.5q-6 -5 -12 -9t-13 -7q-4 -1 -14 -1q-11 5 -17.5 14t-14.5 17q-6 -4 -10 -10t-9 -11q-6 -5 -9 -12t-13 -6q0 1 -3 1q-5 11 1.5 18t11.5 13q10 13 24 24q10 3 15.5 -1.5t10 -11.5t9 -13.5t12.5 -6.5
q9 -1 15 4.5t13 9.5q4 3 6.5 8.5t9.5 3.5z" />
    <glyph glyph-name="adieresis" unicode="&#xe4;" horiz-adv-x="211" 
d="M66 324q2 0 4.5 1.5t6.5 0.5q4 -4 5 -10t0.5 -13t-1.5 -15t-1 -15q0 -17 10 -23q23 -2 41 6.5t34 17.5q15 9 24.5 16t14.5 11.5t8 5.5t6 -3q0 -5 -3.5 -8t-6.5 -6q-3 -2 -6.5 -5t-7.5 -5q-6 -5 -13.5 -9.5t-14.5 -9.5q-9 -4 -18.5 -8.5t-19.5 -8.5t-21 -5.5t-24 0.5
q-15 7 -16 29.5t3 41.5q-5 -3 -10.5 -9.5t-10.5 -12.5q-8 -6 -15 -14t-15.5 -16t-17.5 -14t-20 -6q-4 2 -10 8q-3 21 6.5 38.5t20.5 33.5q10 13 21 24.5t25 16.5q10 4 20 0q2 -2 3 -4t3 -4q2 -8 0 -14.5t-4 -12.5zM-9 260q11 5 19 12t16 15q-2 4 -2 7q6 11 13.5 21t9.5 24
q-18 -16 -33 -34.5t-23 -44.5zM75 430q5 2 8.5 -0.5t4.5 -6t-0.5 -8t-5.5 -5.5q-6 -2 -9.5 1t-4.5 7t0.5 8t6.5 4zM20 426q7 2 11 -1.5t3 -11.5q-3 -8 -8 -8t-9 4t-4.5 9t7.5 8z" />
    <glyph glyph-name="aring" unicode="&#xe5;" horiz-adv-x="211" 
d="M66 324q2 0 4.5 1.5t6.5 0.5q4 -4 5 -10t0.5 -13t-1.5 -15t-1 -15q0 -17 10 -23q23 -2 41 6.5t34 17.5q15 9 24.5 16t14.5 11.5t8 5.5t6 -3q0 -5 -3.5 -8t-6.5 -6q-3 -2 -6.5 -5t-7.5 -5q-6 -5 -13.5 -9.5t-14.5 -9.5q-9 -4 -18.5 -8.5t-19.5 -8.5t-21 -5.5t-24 0.5
q-15 7 -16 29.5t3 41.5q-5 -3 -10.5 -9.5t-10.5 -12.5q-8 -6 -15 -14t-15.5 -16t-17.5 -14t-20 -6q-4 2 -10 8q-3 21 6.5 38.5t20.5 33.5q10 13 21 24.5t25 16.5q10 4 20 0q2 -2 3 -4t3 -4q2 -8 0 -14.5t-4 -12.5zM-9 260q11 5 19 12t16 15q-2 4 -2 7q6 11 13.5 21t9.5 24
q-18 -16 -33 -34.5t-23 -44.5zM57 465q5 1 8.5 -2t2.5 -8q4 -2 10 -6q7 -11 3.5 -22t-12 -19t-19.5 -10.5t-20 4.5l-2 4l-2 4q0 3 -0.5 6.5t0.5 6.5q4 12 13 25t18 17zM62 445q-2 -3 -3.5 -6t-6.5 -3q-2 -6 -5 -10.5t-5 -12.5q7 -2 14 2t11 10t3.5 12t-8.5 8z" />
    <glyph glyph-name="ccedilla" unicode="&#xe7;" horiz-adv-x="217" 
d="M94 370q-15 -1 -23.5 -8t-17.5 -14q-10 -10 -22 -23t-23 -28.5t-18.5 -33.5t-7.5 -37q0 -12 5 -23.5t16 -16.5q23 -7 42 1.5t35 19.5q32 20 51 36t45 35q5 5 11 9t13 9q5 5 11 10t14 4q2 -6 -1.5 -9.5t-6.5 -5.5q-60 -46 -103 -81t-77 -44q-1 -4 -2.5 -7t-1.5 -6
q-4 -4 -8 -2q-5 -7 -9.5 -13t-6.5 -14q8 -10 20 -14.5t17 -17.5q3 -14 -7 -26.5t-25 -18.5t-29.5 -4.5t-19.5 14.5q0 9 2 16t10 8q0 -1 2 -1q5 -5 0.5 -9t-3.5 -10t10 -6t19 4.5t18 11.5t8 14q0 6 -5.5 9t-11.5 5.5l-12 5t-8 7.5q-7 9 -1 24.5t15 26.5l-13 4q-26 15 -29 51
q-2 33 13 58t29 44q16 20 34.5 37.5t44.5 26.5q1 0 1 0.5t1 0.5q5 0 8 -0.5t6 -1.5q11 -6 10 -19.5t-6 -26.5q-3 -6 -7 -11t-6 -10t-4 -12.5t-12 -5.5q-6 1 -7 5.5t0.5 9.5t4 10t5.5 7q4 9 8 17t5 19z" />
    <glyph glyph-name="egrave" unicode="&#xe8;" horiz-adv-x="223" 
d="M236 312q-2 -9 -10.5 -12t-14.5 -8q-20 -14 -40 -27.5t-41 -27.5q-17 -12 -36 -25t-38.5 -22.5t-37.5 -12.5t-34 7q-9 7 -12 20t-2 27.5t5.5 27.5t9.5 22q-4 0 -8.5 -2t-6.5 3q0 7 7 7t12 2q6 9 12.5 19t13.5 19t16.5 15.5t21.5 9.5q4 0 6 -1t4 -3l3 -6q-5 -25 -21 -38
t-37 -21q-8 -15 -14.5 -31t-5.5 -39q3 -18 19 -22q21 1 38 7.5t31 15t27.5 18t28.5 17.5q19 13 38.5 26t39.5 25q5 3 12 9t14 1zM18 300q10 8 20.5 16.5t12.5 22.5q-11 -7 -19.5 -17.5t-13.5 -21.5zM65 398q-7 -2 -10 2.5t-7 7.5q-11 11 -22.5 21t-17.5 26q1 6 7 7
q6 -1 9.5 -5t6.5 -9q7 -8 13 -16t13 -16q3 -4 7 -8.5t1 -9.5z" />
    <glyph glyph-name="eacute" unicode="&#xe9;" horiz-adv-x="223" 
d="M236 312q-2 -9 -10.5 -12t-14.5 -8q-20 -14 -40 -27.5t-41 -27.5q-17 -12 -36 -25t-38.5 -22.5t-37.5 -12.5t-34 7q-9 7 -12 20t-2 27.5t5.5 27.5t9.5 22q-4 0 -8.5 -2t-6.5 3q0 7 7 7t12 2q6 9 12.5 19t13.5 19t16.5 15.5t21.5 9.5q4 0 6 -1t4 -3l3 -6q-5 -25 -21 -38
t-37 -21q-8 -15 -14.5 -31t-5.5 -39q3 -18 19 -22q21 1 38 7.5t31 15t27.5 18t28.5 17.5q19 13 38.5 26t39.5 25q5 3 12 9t14 1zM18 300q10 8 20.5 16.5t12.5 22.5q-11 -7 -19.5 -17.5t-13.5 -21.5zM60 421q-10 -5 -16.5 -14t-18.5 -12q-1 1 -3 1q-3 7 0.5 11.5t7.5 7.5
q7 9 15 15q7 6 16.5 15t17.5 14q2 2 6.5 0.5t5.5 -6.5q1 -6 -5 -10t-10 -7z" />
    <glyph glyph-name="ecircumflex" unicode="&#xea;" horiz-adv-x="223" 
d="M236 312q-2 -9 -10.5 -12t-14.5 -8q-20 -14 -40 -27.5t-41 -27.5q-17 -12 -36 -25t-38.5 -22.5t-37.5 -12.5t-34 7q-9 7 -12 20t-2 27.5t5.5 27.5t9.5 22q-4 0 -8.5 -2t-6.5 3q0 7 7 7t12 2q6 9 12.5 19t13.5 19t16.5 15.5t21.5 9.5q4 0 6 -1t4 -3l3 -6q-5 -25 -21 -38
t-37 -21q-8 -15 -14.5 -31t-5.5 -39q3 -18 19 -22q21 1 38 7.5t31 15t27.5 18t28.5 17.5q19 13 38.5 26t39.5 25q5 3 12 9t14 1zM18 300q10 8 20.5 16.5t12.5 22.5q-11 -7 -19.5 -17.5t-13.5 -21.5zM98 408q-7 -6 -12 0.5t-8 11.5l-6 12t-5 14q-6 -5 -12 -13t-12 -15
q-6 -4 -12.5 -15t-15.5 -11q-3 0 -6 3t-2 8q6 9 14 16t15 15q4 3 8.5 8.5l9 11t10 9t12.5 0.5q6 -10 8 -21.5t8 -21.5q2 -3 4.5 -5t1.5 -7z" />
    <glyph glyph-name="edieresis" unicode="&#xeb;" horiz-adv-x="223" 
d="M236 312q-2 -9 -10.5 -12t-14.5 -8q-20 -14 -40 -27.5t-41 -27.5q-17 -12 -36 -25t-38.5 -22.5t-37.5 -12.5t-34 7q-9 7 -12 20t-2 27.5t5.5 27.5t9.5 22q-4 0 -8.5 -2t-6.5 3q0 7 7 7t12 2q6 9 12.5 19t13.5 19t16.5 15.5t21.5 9.5q4 0 6 -1t4 -3l3 -6q-5 -25 -21 -38
t-37 -21q-8 -15 -14.5 -31t-5.5 -39q3 -18 19 -22q21 1 38 7.5t31 15t27.5 18t28.5 17.5q19 13 38.5 26t39.5 25q5 3 12 9t14 1zM18 300q10 8 20.5 16.5t12.5 22.5q-11 -7 -19.5 -17.5t-13.5 -21.5zM77 420q5 2 8.5 -0.5t4.5 -6t-0.5 -8t-5.5 -5.5q-6 -2 -9.5 1t-4.5 7
t0.5 8t6.5 4zM22 416q7 2 11 -1.5t3 -11.5q-3 -8 -8 -8t-9 4t-4.5 9t7.5 8z" />
    <glyph glyph-name="dotlessi" unicode="&#x131;" horiz-adv-x="159" 
d="M-16 208q14 -1 26 6t23 14q27 17 53 36t55 35q5 2 12 6t12 -1q-1 -7 -8.5 -9.5t-12.5 -5.5q-29 -16 -56 -35.5t-54 -37.5q-11 -7 -23.5 -14t-27.5 -8q-12 4 -16 14t-2.5 23t6 26.5t9.5 24.5q4 7 7 12.5t7 12.5q4 6 9 14t11 8q5 1 8 -2.5t3 -6.5q1 -8 -5.5 -14t-9.5 -11
q-5 -6 -8 -14t-7 -17q-2 -5 -5.5 -12.5t-6 -15.5t-3 -15.5t3.5 -12.5z" />
    <glyph glyph-name="igrave" unicode="&#xec;" horiz-adv-x="159" 
d="M-16 208q14 -1 26 6t23 14q27 17 53 36t55 35q5 2 12 6t12 -1q-1 -7 -8.5 -9.5t-12.5 -5.5q-29 -16 -56 -35.5t-54 -37.5q-11 -7 -23.5 -14t-27.5 -8q-12 4 -16 14t-2.5 23t6 26.5t9.5 24.5q4 7 7 12.5t7 12.5q4 6 9 14t11 8q5 1 8 -2.5t3 -6.5q1 -8 -5.5 -14t-9.5 -11
q-5 -6 -8 -14t-7 -17q-2 -5 -5.5 -12.5t-6 -15.5t-3 -15.5t3.5 -12.5zM64 380q-7 -2 -10 2.5t-7 7.5q-11 11 -22.5 21t-17.5 26q1 6 7 7q6 -1 9.5 -5t6.5 -9q7 -8 13 -16t13 -16q3 -4 7 -8.5t1 -9.5z" />
    <glyph glyph-name="iacute" unicode="&#xed;" horiz-adv-x="159" 
d="M-16 208q14 -1 26 6t23 14q27 17 53 36t55 35q5 2 12 6t12 -1q-1 -7 -8.5 -9.5t-12.5 -5.5q-29 -16 -56 -35.5t-54 -37.5q-11 -7 -23.5 -14t-27.5 -8q-12 4 -16 14t-2.5 23t6 26.5t9.5 24.5q4 7 7 12.5t7 12.5q4 6 9 14t11 8q5 1 8 -2.5t3 -6.5q1 -8 -5.5 -14t-9.5 -11
q-5 -6 -8 -14t-7 -17q-2 -5 -5.5 -12.5t-6 -15.5t-3 -15.5t3.5 -12.5zM58 407q-10 -5 -16.5 -14t-18.5 -12q-1 1 -3 1q-3 7 0.5 11.5t7.5 7.5q7 9 15 15q7 6 16.5 15t17.5 14q2 2 6.5 0.5t5.5 -6.5q1 -6 -5 -10t-10 -7z" />
    <glyph glyph-name="icircumflex" unicode="&#xee;" horiz-adv-x="159" 
d="M-16 208q14 -1 26 6t23 14q27 17 53 36t55 35q5 2 12 6t12 -1q-1 -7 -8.5 -9.5t-12.5 -5.5q-29 -16 -56 -35.5t-54 -37.5q-11 -7 -23.5 -14t-27.5 -8q-12 4 -16 14t-2.5 23t6 26.5t9.5 24.5q4 7 7 12.5t7 12.5q4 6 9 14t11 8q5 1 8 -2.5t3 -6.5q1 -8 -5.5 -14t-9.5 -11
q-5 -6 -8 -14t-7 -17q-2 -5 -5.5 -12.5t-6 -15.5t-3 -15.5t3.5 -12.5zM86 393q-7 -6 -12 0.5t-8 11.5l-6 12t-5 14q-6 -5 -12 -13t-12 -15q-6 -4 -12.5 -15t-15.5 -11q-3 0 -6 3t-2 8q6 9 14 16t15 15q4 3 8.5 8.5l9 11t10 9t12.5 0.5q6 -10 8 -21.5t8 -21.5q2 -3 4.5 -5
t1.5 -7z" />
    <glyph glyph-name="idieresis" unicode="&#xef;" horiz-adv-x="159" 
d="M-16 208q14 -1 26 6t23 14q27 17 53 36t55 35q5 2 12 6t12 -1q-1 -7 -8.5 -9.5t-12.5 -5.5q-29 -16 -56 -35.5t-54 -37.5q-11 -7 -23.5 -14t-27.5 -8q-12 4 -16 14t-2.5 23t6 26.5t9.5 24.5q4 7 7 12.5t7 12.5q4 6 9 14t11 8q5 1 8 -2.5t3 -6.5q1 -8 -5.5 -14t-9.5 -11
q-5 -6 -8 -14t-7 -17q-2 -5 -5.5 -12.5t-6 -15.5t-3 -15.5t3.5 -12.5zM70 416q5 2 8.5 -0.5t4.5 -6t-0.5 -8t-5.5 -5.5q-6 -2 -9.5 1t-4.5 7t0.5 8t6.5 4zM15 412q7 2 11 -1.5t3 -11.5q-3 -8 -8 -8t-9 4t-4.5 9t7.5 8z" />
    <glyph glyph-name="ntilde" unicode="&#xf1;" horiz-adv-x="252" 
d="M-16 230q23 20 44 45.5t44 46.5q9 6 16.5 13.5t21.5 8.5q10 -5 9.5 -19t-3.5 -30.5t-4 -33.5t9 -27q24 1 41 12t34 21q21 14 32 23.5t17 14.5t8.5 6t5.5 -1q2 -7 -3 -9.5t-7 -6.5q-12 -9 -23 -18t-24 -17q-15 -11 -32.5 -21t-38.5 -16h-11q-2 1 -4.5 2t-4.5 2
q-8 9 -10 21.5t-1 26.5t3.5 29t2.5 27q-20 -11 -35.5 -29.5t-30.5 -35.5q-11 -12 -21.5 -26.5t-20.5 -25t-19.5 -13.5t-16.5 8q-1 28 11.5 54.5t30.5 61.5q2 4 5.5 11.5t8 12t9 5t9.5 -8.5q-2 -11 -6.5 -19t-9.5 -18q-7 -22 -15 -37q0 -4 -3 -3.5t-5 -1.5q-3 -9 -6.5 -17.5
t-6.5 -17.5zM158 447q3 -8 -3 -13.5t-10 -10.5q-6 -5 -12 -9t-13 -7q-4 -1 -14 -1q-11 5 -17.5 14t-14.5 17q-6 -4 -10 -10t-9 -11q-6 -5 -9 -12t-13 -6q0 1 -3 1q-5 11 1.5 18t11.5 13q10 13 24 24q10 3 15.5 -1.5t10 -11.5t9 -13.5t12.5 -6.5q9 -1 15 4.5t13 9.5
q4 3 6.5 8.5t9.5 3.5z" />
    <glyph glyph-name="ograve" unicode="&#xf2;" horiz-adv-x="168" 
d="M39 295q32 -11 66 -3.5t59 17.5q3 2 7.5 3.5t6.5 -3.5q-1 -8 -8 -9.5t-12 -4.5q-23 -11 -56.5 -16.5t-63.5 2.5q-4 -13 -8.5 -24.5t-12.5 -21.5q-6 -9 -15 -17.5t-25 -8.5l-6 3q-5 3 -8 12q0 19 7 35.5t15 31.5q8 14 16.5 27.5t19.5 23.5q3 3 11 7q6 1 8.5 -2t4.5 -7
q-1 -8 -4 -14l-6 -12q4 -7 4 -19zM-18 229q16 4 28.5 24t11.5 37q-2 0 -3 -3.5t-5 -3.5q-7 0 -7 8q-8 -14 -15.5 -28t-9.5 -34zM72 382q-7 -2 -10 2.5t-7 7.5q-11 11 -22.5 21t-17.5 26q1 6 7 7q6 -1 9.5 -5t6.5 -9q7 -8 13 -16t13 -16q3 -4 7 -8.5t1 -9.5z" />
    <glyph glyph-name="oacute" unicode="&#xf3;" horiz-adv-x="168" 
d="M39 295q32 -11 66 -3.5t59 17.5q3 2 7.5 3.5t6.5 -3.5q-1 -8 -8 -9.5t-12 -4.5q-23 -11 -56.5 -16.5t-63.5 2.5q-4 -13 -8.5 -24.5t-12.5 -21.5q-6 -9 -15 -17.5t-25 -8.5l-6 3q-5 3 -8 12q0 19 7 35.5t15 31.5q8 14 16.5 27.5t19.5 23.5q3 3 11 7q6 1 8.5 -2t4.5 -7
q-1 -8 -4 -14l-6 -12q4 -7 4 -19zM-18 229q16 4 28.5 24t11.5 37q-2 0 -3 -3.5t-5 -3.5q-7 0 -7 8q-8 -14 -15.5 -28t-9.5 -34zM64 413q-10 -5 -16.5 -14t-18.5 -12q-1 1 -3 1q-3 7 0.5 11.5t7.5 7.5q7 9 15 15q7 6 16.5 15t17.5 14q2 2 6.5 0.5t5.5 -6.5q1 -6 -5 -10
t-10 -7z" />
    <glyph glyph-name="ocircumflex" unicode="&#xf4;" horiz-adv-x="168" 
d="M39 295q32 -11 66 -3.5t59 17.5q3 2 7.5 3.5t6.5 -3.5q-1 -8 -8 -9.5t-12 -4.5q-23 -11 -56.5 -16.5t-63.5 2.5q-4 -13 -8.5 -24.5t-12.5 -21.5q-6 -9 -15 -17.5t-25 -8.5l-6 3q-5 3 -8 12q0 19 7 35.5t15 31.5q8 14 16.5 27.5t19.5 23.5q3 3 11 7q6 1 8.5 -2t4.5 -7
q-1 -8 -4 -14l-6 -12q4 -7 4 -19zM-18 229q16 4 28.5 24t11.5 37q-2 0 -3 -3.5t-5 -3.5q-7 0 -7 8q-8 -14 -15.5 -28t-9.5 -34zM88 403q-7 -6 -12 0.5t-8 11.5l-6 12t-5 14q-6 -5 -12 -13t-12 -15q-6 -4 -12.5 -15t-15.5 -11q-3 0 -6 3t-2 8q6 9 14 16t15 15q4 3 8.5 8.5
l9 11t10 9t12.5 0.5q6 -10 8 -21.5t8 -21.5q2 -3 4.5 -5t1.5 -7z" />
    <glyph glyph-name="otilde" unicode="&#xf5;" horiz-adv-x="168" 
d="M39 295q32 -11 66 -3.5t59 17.5q3 2 7.5 3.5t6.5 -3.5q-1 -8 -8 -9.5t-12 -4.5q-23 -11 -56.5 -16.5t-63.5 2.5q-4 -13 -8.5 -24.5t-12.5 -21.5q-6 -9 -15 -17.5t-25 -8.5l-6 3q-5 3 -8 12q0 19 7 35.5t15 31.5q8 14 16.5 27.5t19.5 23.5q3 3 11 7q6 1 8.5 -2t4.5 -7
q-1 -8 -4 -14l-6 -12q4 -7 4 -19zM-18 229q16 4 28.5 24t11.5 37q-2 0 -3 -3.5t-5 -3.5q-7 0 -7 8q-8 -14 -15.5 -28t-9.5 -34zM119 443q3 -8 -3 -13.5t-10 -10.5q-6 -5 -12 -9t-13 -7q-4 -1 -14 -1q-11 5 -17.5 14t-14.5 17q-6 -4 -10 -10t-9 -11q-6 -5 -9 -12t-13 -6
q0 1 -3 1q-5 11 1.5 18t11.5 13q10 13 24 24q10 3 15.5 -1.5t10 -11.5t9 -13.5t12.5 -6.5q9 -1 15 4.5t13 9.5q4 3 6.5 8.5t9.5 3.5z" />
    <glyph glyph-name="odieresis" unicode="&#xf6;" horiz-adv-x="168" 
d="M39 295q32 -11 66 -3.5t59 17.5q3 2 7.5 3.5t6.5 -3.5q-1 -8 -8 -9.5t-12 -4.5q-23 -11 -56.5 -16.5t-63.5 2.5q-4 -13 -8.5 -24.5t-12.5 -21.5q-6 -9 -15 -17.5t-25 -8.5l-6 3q-5 3 -8 12q0 19 7 35.5t15 31.5q8 14 16.5 27.5t19.5 23.5q3 3 11 7q6 1 8.5 -2t4.5 -7
q-1 -8 -4 -14l-6 -12q4 -7 4 -19zM-18 229q16 4 28.5 24t11.5 37q-2 0 -3 -3.5t-5 -3.5q-7 0 -7 8q-8 -14 -15.5 -28t-9.5 -34zM68 411q5 2 8.5 -0.5t4.5 -6t-0.5 -8t-5.5 -5.5q-6 -2 -9.5 1t-4.5 7t0.5 8t6.5 4zM13 407q7 2 11 -1.5t3 -11.5q-3 -8 -8 -8t-9 4t-4.5 9t7.5 8
z" />
    <glyph glyph-name="oslash" unicode="&#xf8;" horiz-adv-x="168" 
d="M39 295q32 -11 66 -3.5t59 17.5q3 2 7.5 3.5t6.5 -3.5q-1 -8 -8 -9.5t-12 -4.5q-23 -11 -56.5 -16.5t-63.5 2.5q-4 -13 -8.5 -24.5t-12.5 -21.5q-6 -9 -15 -17.5t-25 -8.5l-6 3q-5 3 -8 12q0 19 7 35.5t15 31.5q8 14 16.5 27.5t19.5 23.5q3 3 11 7q6 1 8.5 -2t4.5 -7
q-1 -8 -4 -14l-6 -12q4 -7 4 -19zM-18 229q16 4 28.5 24t11.5 37q-2 0 -3 -3.5t-5 -3.5q-7 0 -7 8q-8 -14 -15.5 -28t-9.5 -34z" />
    <glyph glyph-name="ugrave" unicode="&#xf9;" horiz-adv-x="214" 
d="M-11 248q22 14 38.5 31.5t35.5 34.5q7 5 12 11t16 8q8 -8 4 -19t-7 -21l-6 -22t2 -22q19 0 33.5 8.5t28.5 16.5t28.5 16t28.5 17l9 4.5t9 -2.5q0 -6 -5 -8t-9 -4q-20 -11 -39.5 -23.5t-37 -22t-32 -13.5t-23.5 3q-5 9 -5.5 18.5t2 19.5t6 19.5t5.5 17.5
q-13 -9 -24.5 -21.5t-23.5 -23.5q-12 -14 -24 -23q-6 -5 -12 -11t-19 -6q0 1 -2 1q-6 2 -7 10t1 16q7 23 17.5 41t23.5 34q0 7 4.5 12t10 6t10 -2t4.5 -12q-2 -6 -5.5 -9.5l-7.5 -7.5q-11 -14 -20 -29.5t-17 -31.5q-2 -6 -3 -8v-2v-1zM86 393q-7 -2 -10 2.5t-7 7.5
q-11 11 -22.5 21t-17.5 26q1 6 7 7q6 -1 9.5 -5t6.5 -9q7 -8 13 -16t13 -16q3 -4 7 -8.5t1 -9.5z" />
    <glyph glyph-name="uacute" unicode="&#xfa;" horiz-adv-x="214" 
d="M-11 248q22 14 38.5 31.5t35.5 34.5q7 5 12 11t16 8q8 -8 4 -19t-7 -21l-6 -22t2 -22q19 0 33.5 8.5t28.5 16.5t28.5 16t28.5 17l9 4.5t9 -2.5q0 -6 -5 -8t-9 -4q-20 -11 -39.5 -23.5t-37 -22t-32 -13.5t-23.5 3q-5 9 -5.5 18.5t2 19.5t6 19.5t5.5 17.5
q-13 -9 -24.5 -21.5t-23.5 -23.5q-12 -14 -24 -23q-6 -5 -12 -11t-19 -6q0 1 -2 1q-6 2 -7 10t1 16q7 23 17.5 41t23.5 34q0 7 4.5 12t10 6t10 -2t4.5 -12q-2 -6 -5.5 -9.5l-7.5 -7.5q-11 -14 -20 -29.5t-17 -31.5q-2 -6 -3 -8v-2v-1zM91 409q-10 -5 -16.5 -14t-18.5 -12
q-1 1 -3 1q-3 7 0.5 11.5t7.5 7.5q7 9 15 15q7 6 16.5 15t17.5 14q2 2 6.5 0.5t5.5 -6.5q1 -6 -5 -10t-10 -7z" />
    <glyph glyph-name="ucircumflex" unicode="&#xfb;" horiz-adv-x="214" 
d="M-11 248q22 14 38.5 31.5t35.5 34.5q7 5 12 11t16 8q8 -8 4 -19t-7 -21l-6 -22t2 -22q19 0 33.5 8.5t28.5 16.5t28.5 16t28.5 17l9 4.5t9 -2.5q0 -6 -5 -8t-9 -4q-20 -11 -39.5 -23.5t-37 -22t-32 -13.5t-23.5 3q-5 9 -5.5 18.5t2 19.5t6 19.5t5.5 17.5
q-13 -9 -24.5 -21.5t-23.5 -23.5q-12 -14 -24 -23q-6 -5 -12 -11t-19 -6q0 1 -2 1q-6 2 -7 10t1 16q7 23 17.5 41t23.5 34q0 7 4.5 12t10 6t10 -2t4.5 -12q-2 -6 -5.5 -9.5l-7.5 -7.5q-11 -14 -20 -29.5t-17 -31.5q-2 -6 -3 -8v-2v-1zM110 401q-7 -6 -12 0.5t-8 11.5l-6 12
t-5 14q-6 -5 -12 -13t-12 -15q-6 -4 -12.5 -15t-15.5 -11q-3 0 -6 3t-2 8q6 9 14 16t15 15q4 3 8.5 8.5l9 11t10 9t12.5 0.5q6 -10 8 -21.5t8 -21.5q2 -3 4.5 -5t1.5 -7z" />
    <glyph glyph-name="udieresis" unicode="&#xfc;" horiz-adv-x="214" 
d="M-11 248q22 14 38.5 31.5t35.5 34.5q7 5 12 11t16 8q8 -8 4 -19t-7 -21l-6 -22t2 -22q19 0 33.5 8.5t28.5 16.5t28.5 16t28.5 17l9 4.5t9 -2.5q0 -6 -5 -8t-9 -4q-20 -11 -39.5 -23.5t-37 -22t-32 -13.5t-23.5 3q-5 9 -5.5 18.5t2 19.5t6 19.5t5.5 17.5
q-13 -9 -24.5 -21.5t-23.5 -23.5q-12 -14 -24 -23q-6 -5 -12 -11t-19 -6q0 1 -2 1q-6 2 -7 10t1 16q7 23 17.5 41t23.5 34q0 7 4.5 12t10 6t10 -2t4.5 -12q-2 -6 -5.5 -9.5l-7.5 -7.5q-11 -14 -20 -29.5t-17 -31.5q-2 -6 -3 -8v-2v-1zM95 418q5 2 8.5 -0.5t4.5 -6t-0.5 -8
t-5.5 -5.5q-6 -2 -9.5 1t-4.5 7t0.5 8t6.5 4zM40 414q7 2 11 -1.5t3 -11.5q-3 -8 -8 -8t-9 4t-4.5 9t7.5 8z" />
    <glyph glyph-name="yacute" unicode="&#xfd;" horiz-adv-x="297" 
d="M113 217q24 11 49.5 23.5t50.5 23.5q39 18 75 36q5 3 11.5 8t12.5 -1q0 -8 -7.5 -11.5t-12.5 -6.5q-43 -26 -91.5 -46.5t-92.5 -44.5q-18 -68 -39 -134t-47.5 -127t-59.5 -116t-75 -100q-29 -31 -68 -57.5t-80 -27.5q-24 0 -39.5 8t-29.5 19q-14 16 -22.5 38.5t-8.5 50.5
q-1 53 18.5 94t39.5 73q30 45 68.5 81.5t87 69.5t107.5 65.5t130 69.5q8 37 17.5 73.5t11.5 78.5q-16 -13 -30 -29t-27.5 -32.5l-27 -33t-28.5 -31.5q-10 -10 -20.5 -20t-26.5 -12q-6 2 -11 9q-2 17 4 30t12 24q6 12 12 23.5t12 23.5q5 7 8 16t13 11q10 -3 10.5 -8.5
t-3 -12.5t-8.5 -14.5t-6 -14.5q-1 -5 0.5 -8t-1.5 -8q-6 -3 -8 4q-6 -13 -12 -24.5t-11 -25.5q22 16 42 38.5t38 45t34.5 41t31.5 27.5q1 0 1 0.5t1 0.5q3 -1 6 -0.5t4 -1.5q5 -2 6.5 -7t3.5 -10q-1 -41 -9 -73.5t-16 -67.5zM-271 -64q-17 -21 -31 -44t-25 -51
q-15 -40 -17.5 -75.5t7 -62t30.5 -41t52 -11.5q34 3 56 17.5t45 32.5q49 41 86.5 99t66 123.5t49.5 133t37 128.5q0 1 -1 1t0 -1q-121 -62 -211.5 -120.5t-143.5 -128.5zM67 423q-10 -5 -16.5 -14t-18.5 -12q-1 1 -3 1q-3 7 0.5 11.5t7.5 7.5q7 9 15 15q7 6 16.5 15t17.5 14
q2 2 6.5 0.5t5.5 -6.5q1 -6 -5 -10t-10 -7z" />
    <glyph glyph-name="ydieresis" unicode="&#xff;" horiz-adv-x="297" 
d="M113 217q24 11 49.5 23.5t50.5 23.5q39 18 75 36q5 3 11.5 8t12.5 -1q0 -8 -7.5 -11.5t-12.5 -6.5q-43 -26 -91.5 -46.5t-92.5 -44.5q-18 -68 -39 -134t-47.5 -127t-59.5 -116t-75 -100q-29 -31 -68 -57.5t-80 -27.5q-24 0 -39.5 8t-29.5 19q-14 16 -22.5 38.5t-8.5 50.5
q-1 53 18.5 94t39.5 73q30 45 68.5 81.5t87 69.5t107.5 65.5t130 69.5q8 37 17.5 73.5t11.5 78.5q-16 -13 -30 -29t-27.5 -32.5l-27 -33t-28.5 -31.5q-10 -10 -20.5 -20t-26.5 -12q-6 2 -11 9q-2 17 4 30t12 24q6 12 12 23.5t12 23.5q5 7 8 16t13 11q10 -3 10.5 -8.5
t-3 -12.5t-8.5 -14.5t-6 -14.5q-1 -5 0.5 -8t-1.5 -8q-6 -3 -8 4q-6 -13 -12 -24.5t-11 -25.5q22 16 42 38.5t38 45t34.5 41t31.5 27.5q1 0 1 0.5t1 0.5q3 -1 6 -0.5t4 -1.5q5 -2 6.5 -7t3.5 -10q-1 -41 -9 -73.5t-16 -67.5zM-271 -64q-17 -21 -31 -44t-25 -51
q-15 -40 -17.5 -75.5t7 -62t30.5 -41t52 -11.5q34 3 56 17.5t45 32.5q49 41 86.5 99t66 123.5t49.5 133t37 128.5q0 1 -1 1t0 -1q-121 -62 -211.5 -120.5t-143.5 -128.5zM85 434q5 2 8.5 -0.5t4.5 -6t-0.5 -8t-5.5 -5.5q-6 -2 -9.5 1t-4.5 7t0.5 8t6.5 4zM30 430
q7 2 11 -1.5t3 -11.5q-3 -8 -8 -8t-9 4t-4.5 9t7.5 8z" />
    <glyph glyph-name="Zcaron" unicode="&#x17d;" horiz-adv-x="756" 
d="M328 271q8 -10 19.5 -14t22.5 -9q35 -13 67.5 -30t55.5 -43q58 33 117.5 63.5t121.5 59.5q9 4 17.5 8.5t18.5 4.5q0 -5 -3.5 -8t-8 -5t-9 -3.5t-7.5 -4.5q-63 -29 -121.5 -59.5t-117.5 -62.5q14 -24 25 -50.5t8 -65.5q-2 -25 -9.5 -48t-18.5 -43q-32 -58 -80.5 -102
t-104.5 -75q-37 -20 -84.5 -36.5t-102.5 -14.5q-27 1 -51 8.5t-38 22.5q-14 16 -15.5 41.5t12.5 47.5q18 29 42 52.5t50 43.5q79 60 166.5 113t176.5 104q-7 9 -15.5 16.5t-19.5 15.5q-21 15 -43.5 24t-41.5 16t-31 13.5t-13 17.5q-1 7 2.5 13t9 11t12 9t11.5 7q21 14 61 38
t86.5 53t94 60.5t85.5 62t61 57t19 45.5q-10 20 -37 23t-53 1q-56 -4 -127.5 -27t-145.5 -61.5t-144 -90.5t-123 -114q-5 -5 -7 -13t-10 -8t-9 9.5t1 18.5q2 11 8 22t18 3q61 66 137 116.5t152 86t145.5 54.5t117.5 21q37 2 61 -5.5t32.5 -23t-0.5 -38t-36 -49.5
q-35 -35 -80.5 -68t-94 -64t-94.5 -57.5t-82 -47.5q-16 -9 -31 -18.5t-25 -23.5zM112 -85q-14 -12 -28.5 -27t-25.5 -32t-15.5 -35t2.5 -34q9 -21 33 -30.5t54 -11t61.5 5t55.5 17.5q81 31 144 86q24 20 46.5 45.5t40 54t27.5 59t9 61.5q-2 26 -10 46.5t-22 36.5h-1
q-98 -56 -192 -114.5t-179 -127.5zM494 783q7 6 12 -0.5t8 -11.5l6 -12t5 -14q6 5 12 13t12 15q6 4 12.5 15t15.5 11q3 0 6 -3t2 -8q-6 -9 -14 -16t-15 -15q-4 -3 -8.5 -8.5l-9 -11t-10 -9t-12.5 -0.5q-6 10 -8 21.5t-8 21.5q-2 3 -4.5 5t-1.5 7z" />
    <glyph glyph-name="zcaron" unicode="&#x17e;" horiz-adv-x="325" 
d="M123 205q44 26 90.5 50t94.5 47q5 3 12 7.5t14 -0.5q2 -10 -7 -12t-14 -6q-47 -24 -93 -48t-90 -51q9 -16 14 -38.5t5.5 -47t-3.5 -48t-13 -41.5q-25 -57 -64 -100.5t-82.5 -72.5t-87 -43.5t-78 -13t-55.5 19.5t-18 53q1 19 7.5 35t15.5 29.5t18.5 26t18.5 24.5
q65 66 142 118.5t158 102.5q-5 11 -12.5 20t-15.5 17q-7 10 -16.5 17.5t-10.5 21.5q0 14 11 24t19 19q10 11 18.5 20t13.5 20q-13 -3 -24.5 -8t-22.5 -11t-21.5 -12.5t-18.5 -14.5q-8 -2 -12 -9t-14 -8q-8 3 -8.5 8t3 10.5t9 10t9.5 6.5q7 5 14.5 9.5t15.5 9.5q14 7 31 17.5
t37 12.5q8 1 14.5 -2t9.5 -10q0 -1 1 -1q-1 -17 -9.5 -27.5t-19.5 -21.5l-9.5 -9.5t-10.5 -9.5q-5 -5 -11 -10.5t-6 -11.5q0 -5 3.5 -9.5t8 -8.5l9 -8t5.5 -8q8 -7 13.5 -16t11.5 -18zM112 182q-78 -49 -153.5 -100.5t-138.5 -115.5q-19 -23 -38 -53t-19 -60
q-1 -16 6.5 -27.5t18.5 -16.5q18 -9 38.5 -8.5t41 5t38.5 12.5t31 14q27 14 54.5 34.5t51.5 46t43.5 54.5t31.5 60q14 35 15 79t-17 77l-1 1q-1 0 -3 -2zM39 476q7 6 12 -0.5t8 -11.5l6 -12t5 -14q6 5 12 13t12 15q6 4 12.5 15t15.5 11q3 0 6 -3t2 -8q-6 -9 -14 -16t-15 -15
q-4 -3 -8.5 -8.5l-9 -11t-10 -9t-12.5 -0.5q-6 10 -8 21.5t-8 21.5q-2 3 -4.5 5t-1.5 7z" />
    <glyph glyph-name="Scaron" unicode="&#x160;" horiz-adv-x="723" 
d="M633 414q5 3 9 0t7 -4q20 32 39 65.5t36 70.5q7 15 14.5 36.5t10 45t-1.5 45t-19 35.5q-14 14 -34.5 19.5t-43.5 6t-46 -3t-42 -7.5q-42 -11 -79 -26.5t-69 -32.5q-68 -36 -129 -77t-115 -90q-20 -19 -48.5 -46.5t-48.5 -61.5q-8 -15 -15.5 -36t2.5 -41
q13 -26 51.5 -43.5t89 -35t107 -38.5t105.5 -53q27 16 60.5 36t70.5 41t75.5 41.5t75.5 38.5q20 9 28 14t14 1q3 -8 -2.5 -10.5t-10.5 -5.5q-79 -37 -151 -79.5t-146 -84.5q8 -8 20.5 -19t23.5 -25.5t18 -33t5 -40.5q-2 -32 -21 -54.5t-38 -39.5q-24 -21 -58 -42.5
t-71.5 -39t-75 -30.5t-67.5 -15.5t-50 6t-23 32.5q-2 18 3 33.5t12 28.5q19 36 54.5 70t76.5 64t84.5 56.5t79.5 48.5q-37 26 -80.5 43.5t-86.5 32t-81 28t-65 30.5t-39.5 39.5t-2.5 55.5q10 26 25 48.5t32.5 42t36.5 37.5t39 35q63 56 141.5 106t161.5 83q36 15 75.5 26.5
t83.5 12.5q57 1 92.5 -23.5t37.5 -79.5q2 -28 -5 -52t-15 -45q-15 -38 -37.5 -77.5t-45.5 -73.5q-3 -5 -7.5 -12t-11.5 -7q-10 -1 -17 9.5t2 20.5zM410 123q-35 -21 -77.5 -47.5t-83 -56.5t-74.5 -64t-52 -70q-6 -13 -11.5 -27.5t1.5 -31.5q9 -11 26 -12t32 1q47 7 84.5 25
t72.5 35q23 12 44.5 26t41.5 30q19 18 37 36t23 49q2 19 -3 35.5t-14.5 30t-21 24t-22.5 18.5q-2 0 -3 -1zM524 877q7 6 12 -0.5t8 -11.5l6 -12t5 -14q6 5 12 13t12 15q6 4 12.5 15t15.5 11q3 0 6 -3t2 -8q-6 -9 -14 -16t-15 -15q-4 -3 -8.5 -8.5l-9 -11t-10 -9t-12.5 -0.5
q-6 10 -8 21.5t-8 21.5q-2 3 -4.5 5t-1.5 7z" />
    <glyph glyph-name="scaron" unicode="&#x161;" horiz-adv-x="245" 
d="M101 354q-18 1 -30.5 -7t-25.5 -15q-7 -6 -14.5 -12t-13.5 -13.5t-10 -17t-4 -23.5q5 -21 17.5 -34t24.5 -27q45 24 92 45t91 47q5 3 11 7.5t14 2.5q2 -8 -5.5 -12t-12.5 -7q-42 -26 -89 -47t-92 -44q13 -17 26.5 -34.5t15.5 -45.5q1 -24 -11.5 -43.5t-33 -35
t-46.5 -25.5t-52 -14t-48.5 -1.5t-35.5 12.5l-5.5 5.5t-4.5 6.5q-8 26 4 46t25 34q26 29 65 52.5t74 41.5q-4 7 -11.5 14t-12.5 15q-12 12 -17 33.5t4 41.5q12 28 42.5 48t60.5 28q13 0 18 -2q8 -5 11 -14q1 -17 -7 -25.5t-17 -16.5q-3 -3 -8.5 -7.5t-11 -7.5t-10.5 -2t-8 9
q-1 7 4.5 9.5t10.5 5.5q8 5 15 12t11 17zM-130 52q-6 -23 7 -32t33 -11q29 -2 53.5 4t47.5 16q22 10 39.5 24t25.5 31q4 8 5 16.5t1 19.5q-5 23 -17.5 38t-27.5 29q-20 -10 -46 -24.5t-51 -32t-44.5 -37.5t-25.5 -41zM35 470q7 6 12 -0.5t8 -11.5l6 -12t5 -14q6 5 12 13
t12 15q6 4 12.5 15t15.5 11q3 0 6 -3t2 -8q-6 -9 -14 -16t-15 -15q-4 -3 -8.5 -8.5l-9 -11t-10 -9t-12.5 -0.5q-6 10 -8 21.5t-8 21.5q-2 3 -4.5 5t-1.5 7z" />
    <glyph glyph-name="Eth" unicode="&#xd0;" horiz-adv-x="760" 
d="M139 93q21 65 43.5 128.5t45.5 126.5l-45 -4q-5 0 -11.5 -1t-12 -0.5t-9.5 3t-4 7.5q0 3 1.5 5t3.5 4q20 1 40.5 1.5t42.5 0.5q26 72 51 142.5t50 142.5q7 20 12 41t13 41q2 5 4 7.5t5 6.5q-77 -4 -139 -21t-117 -43q3 -2 9 -4.5t5 -9.5q-2 -9 -12.5 -7t-16.5 5h-17.5
t-11.5 6q0 11 9.5 15t17.5 8q49 25 108 42.5t126 24.5q112 12 193.5 -19.5t129.5 -91.5q25 -32 39.5 -69.5t19.5 -77.5t1.5 -81t-15.5 -79q-22 -72 -66.5 -138t-103.5 -122.5t-127 -101.5t-135.5 -75t-130 -43t-109.5 -5q-15 2 -28.5 6.5t-24 12t-16.5 19.5t-5 30
q9 38 33 61t49 45q25 17 50.5 32.5t54.5 28.5zM343 363q-1 -9 -8 -8.5t-15 0.5q-17 -1 -36 -2t-39 -3q-22 -65 -42 -126.5t-37 -118.5q43 17 93 33t107 21q9 1 20 1t21 -1.5t16.5 -6t6.5 -12.5q0 -6 -3 -12t-7.5 -11t-10 -7.5t-9.5 0.5q0 5 3 8l6 6t5.5 6.5t2.5 9.5
q-4 5 -12.5 7t-18.5 2t-20 -1t-17 -2q-54 -8 -100.5 -24t-88.5 -33q-13 -42 -29.5 -88.5t-27.5 -92.5q-2 -8 -4 -14t-10 -5q-7 0 -9 7.5t-1 13.5q1 5 4 6.5t3 5.5q22 77 48 154q-28 -11 -54 -27.5t-49 -33.5q-11 -9 -21.5 -19t-20.5 -23q-5 -7 -11 -16t-10 -19t-4 -20.5
t6 -20.5l3 -3t2 -3q20 -18 55.5 -23.5t81.5 2t100 27t110.5 50.5t113.5 74t109 97q24 26 48 56t44 64.5t34.5 73.5t20.5 83q7 52 2 98t-21 84.5t-40.5 68t-55.5 49.5q-73 50 -192 50q-2 0 -1 -1t2 -1q2 -5 -0.5 -9.5t-4.5 -9.5t-4 -9t-4 -9q-31 -77 -62 -164.5t-61 -177.5
l67 2q5 1 14 1.5t12 -4.5z" />
    <glyph glyph-name="eth" unicode="&#xf0;" horiz-adv-x="314" 
d="M265 609q4 -10 1 -20t-6 -18q-9 -22 -24.5 -50.5t-33 -57.5t-35 -56.5t-30.5 -46.5q-5 -22 -11.5 -48.5t-10.5 -55t-3 -57.5t10 -55q3 -4 6 -7t8 -5q22 2 32.5 14.5t22.5 23.5q31 37 59 73t48 56l13 13t16 4q3 -3 2.5 -8t-2.5 -8.5t-5.5 -4.5t-5.5 5q-34 -32 -61.5 -71
t-59.5 -75q-11 -12 -22.5 -23t-28.5 -15h-10q-12 3 -19.5 12.5t-12 22.5t-6 28t-1.5 29q1 32 6 61t10 52q-3 -3 -5.5 -7t-5.5 -8q-3 -34 -17 -60q-1 -3 -0.5 -6t-2.5 -5t-6 -0.5l-5 2.5q-4 3 -4 10.5t2 12.5q-9 -9 -20 -23t-22.5 -28t-23.5 -26.5t-25 -19.5
q-9 -5 -19.5 -3.5t-12.5 14.5q2 33 14.5 61.5t26.5 51.5q14 22 30.5 41t41.5 27q2 0 2 0.5t1 0.5h11q11 -3 18 -10q2 -4 4.5 -8t4.5 -9q7 7 12.5 16t11.5 17q9 30 20 60.5t24 60.5t28.5 57t33.5 50q6 8 13.5 15t15.5 7q4 1 8 -3zM154 409q26 46 54.5 89.5t45.5 98.5
q0 1 -1 0q-35 -37 -58.5 -86t-40.5 -102zM25 233l28 34t26 35q1 11 -1 20.5t-8 14.5q-16 2 -28.5 -8.5t-20.5 -19.5q-17 -18 -28.5 -39t-20.5 -43q-5 -12 -9 -25t-2 -27q20 10 35 25.5t29 32.5z" />
    <glyph glyph-name="AE" unicode="&#xc6;" horiz-adv-x="942" 
d="M891 677q71 6 150 12t157 0q19 -1 36.5 -3t32.5 -9q4 -2 9 -4t4 -8q-7 -5 -11.5 -1t-9.5 6q-19 7 -43 8.5t-49 1.5q-75 0 -148.5 -4.5t-136.5 -13.5q-36 -53 -70.5 -107t-68.5 -110q42 6 83 12.5t83 13.5q17 2 34.5 6t37.5 3q7 -2 12.5 -4t7.5 -10q-1 -10 -7 -15t-17 -3
q-3 2 -3 6t1 7q-17 -1 -34.5 -4t-34.5 -6q-42 -6 -85 -10t-86 -9q-23 -39 -45 -78t-43 -79q48 8 99 15.5t104 13.5q6 0 13.5 1.5t12.5 -5.5q-3 -8 -11.5 -8t-14.5 -1q-54 -7 -107.5 -15.5t-104.5 -18.5l-23 -43q-14 -42 -25.5 -86t-19.5 -92q-6 -36 -11.5 -74t-2.5 -80
q2 -2 7 -1.5t6 -3.5q5 -8 3 -16q34 11 77.5 25t91 27.5t96 25t92.5 18t81 6t61 -10.5q5 -2 9 -4t4 -7q-6 -6 -14.5 -1.5t-16.5 6.5q-25 7 -57 4.5t-59 -6.5q-110 -16 -208 -48t-193 -63q-10 -4 -25 -9t-30 -6.5t-27.5 3t-15.5 20.5q1 33 11 61t21 54q29 69 62 134t66 131
q3 8 5.5 15t4.5 15q-26 -5 -53.5 -11t-54.5 -12q-8 -2 -19 -3t-13 10q0 7 3.5 9.5t8.5 3t10.5 0t10.5 -0.5t11 1t17 3.5t31 6.5t54 10q14 40 29 78.5t29 76.5q-60 -7 -118 -16t-118 -17q-51 -63 -99 -129t-94 -135q-48 -67 -91.5 -137t-93.5 -135q-1 -4 -1 -8t-4 -6
q-5 -1 -11.5 -3t-12.5 -2t-11 2t-6 10q0 9 7.5 11.5t17.5 0.5q18 18 50.5 68t78.5 120.5t106 157.5t134 180q-99 -17 -160.5 -29t-99 -20.5t-59.5 -13t-42 -4.5q-6 -2 -10.5 -6.5t-12.5 -2.5q-4 11 3.5 20t16.5 11q5 1 8 -1.5t8 -2.5q10 -1 48.5 6t90 17t110 21t108.5 18
q46 54 91 108t93 105q33 36 71 74.5t79 73.5q12 11 27.5 22.5t32.5 15.5q10 2 17 -5q5 -11 1.5 -25t-7.5 -24l-33 -82q20 4 39 7t37 6q8 9 13.5 19t11.5 20q-2 1 -6.5 0.5t-5.5 2.5t-0.5 6.5t0.5 7.5q3 6 11 8q18 2 23 -8q2 -18 -6 -29t-13 -24zM809 783q-18 -7 -48.5 -33.5
t-66.5 -62.5t-74 -77.5t-70 -78.5t-55 -65t-29 -38q-4 -2 -6 -6t-5 -6q-2 -4 -6 -7.5t-2 -5.5q57 9 114 17t116 16q12 30 19.5 48t12.5 30.5t8.5 21.5t8.5 20.5t11.5 28t18.5 43.5h-3l-22 -4l-22 -4q-4 -1 -10.5 -3t-12.5 -2.5t-11 1t-5 6.5q-1 5 4 8.5t11.5 5.5t14 3.5
t11.5 3.5q13 4 27.5 7t29.5 7q3 8 6.5 16.5t8.5 18.5q8 18 16.5 38t11.5 40q1 3 1.5 7t-2.5 6h-1zM535 -121q-4 30 -0.5 62.5t8.5 61.5q10 64 27 126q-17 -32 -33 -65t-30 -64t-25 -57.5t-18 -46.5q-5 -14 -9 -30t2 -32q2 0 2 -1t1 -1q19 -4 36 2t33 12l12 4q-2 6 -3.5 14
t-2.5 15zM696 440l23 2q32 55 65.5 108.5t68.5 106.5q-20 -4 -38 -8l-36 -8q-21 -51 -42 -100t-41 -101zM691 426l-36 -95q14 25 28 49t28 49z" />
    <glyph glyph-name="ae" unicode="&#xe6;" horiz-adv-x="304" 
d="M311 308q-2 -9 -10.5 -12t-14.5 -8q-10 -7 -16 -12t-11.5 -9t-12.5 -8.5t-17 -11.5q-17 -12 -36 -25t-38.5 -22.5t-37.5 -12.5t-34 7q-11 8 -13.5 23.5t0.5 31.5q-4 12 -3.5 27t3.5 28q-5 -3 -10.5 -9.5t-10.5 -12.5q-8 -6 -15 -14t-15.5 -16t-17.5 -14t-20 -6
q-4 2 -10 8q-3 21 6.5 38.5t20.5 33.5q10 13 21 24.5t25 16.5q10 4 20 0l6 -8q2 -8 0 -14.5t-4 -12.5q2 0 4.5 1.5t6.5 0.5q6 -6 6 -20q3 0 5 1q6 9 12.5 19t13.5 19t16.5 15.5t21.5 9.5q4 0 6 -1t4 -3l3 -6q-5 -25 -21 -38t-37 -21q-8 -15 -14.5 -31t-5.5 -39q3 -18 19 -22
q21 1 38 7.5t31 15t27.5 18t28.5 17.5q9 6 15 10.5t11 8.5t11.5 8t16.5 10q5 3 12 9t14 1zM-9 254q11 5 19 12t16 15q-2 4 -2 7q6 11 13.5 21t9.5 24q-18 -16 -33 -34.5t-23 -44.5zM117 310q10 8 20.5 16.5t12.5 22.5q-11 -7 -19.5 -17.5t-13.5 -21.5zM81 286l3 5h-2
q0 -2 -0.5 -3t-0.5 -2z" />
    <glyph glyph-name="oe" unicode="&#x153;" horiz-adv-x="276" 
d="M287 312q-2 -9 -10.5 -12t-14.5 -8q-20 -14 -40 -27.5t-41 -27.5q-17 -12 -36 -25t-38.5 -22.5t-37.5 -12.5t-34 7q-11 9 -13.5 25.5t0.5 33.5q-2 -5 -5 -8q-6 -9 -15 -17.5t-25 -8.5l-6 3q-5 3 -8 12q0 19 7 35.5t15 31.5q8 14 16.5 27.5t19.5 23.5q3 3 11 7q6 1 8.5 -2
t4.5 -7q-1 -8 -4 -14l-6 -12q4 -7 4 -19h4q12 18 25 36t36 23q4 0 6 -1t4 -3l3 -6q-5 -25 -21 -38t-37 -21q-8 -15 -14.5 -31t-5.5 -39q3 -18 19 -22q21 1 38 7.5t31 15t27.5 18t28.5 17.5q19 13 38.5 26t39.5 25q5 3 12 9t14 1zM-18 229q14 3 25.5 19t13.5 33v1q0 2 1 3v5
q-2 0 -3 -3.5t-5 -3.5q-7 0 -7 8q-8 -14 -15.5 -28t-9.5 -34zM69 300q10 8 20.5 16.5t12.5 22.5q-11 -7 -19.5 -17.5t-13.5 -21.5z" />
    </font>
</defs>
</svg>
