<svg id="Warstwa_1" data-name="Warstwa 1" xmlns="http://www.w3.org/2000/svg" viewBox="0 0 242.9 179.5"><defs><style>.cls-1{fill:#fff;}</style></defs><path class="cls-1" d="M262.6,172.1a33.08,33.08,0,0,0,3.1-4.8c.5-1.1.5-1.3.2-1.3s-.4.3-.6.8a39.43,39.43,0,0,1-4.3,6.3c-.7.9-1.4,1.7-1.4,1.8s.1.2.3.2S260.8,174.5,262.6,172.1Z" transform="translate(-155.1 -111.9)"/><path class="cls-1" d="M270.5,223.9a42.64,42.64,0,0,1-42.6-42.6V154.5a42.6,42.6,0,0,1,85.2,0v26.8A42.64,42.64,0,0,1,270.5,223.9Zm0-111a41.63,41.63,0,0,0-41.6,41.6v26.8a41.63,41.63,0,0,0,41.6,41.6h0a41.63,41.63,0,0,0,41.6-41.6V154.5A41.63,41.63,0,0,0,270.5,112.9Z" transform="translate(-155.1 -111.9)"/><path class="cls-1" d="M297.4,165.2a3.59,3.59,0,0,0-1.6-1.9c-1.3-.7-3-.5-5.2.4-.7.3-1.3.6-1.4.5a19.69,19.69,0,0,1,1-1.9c2.1-3.5,3.3-6.6,3.3-8.3,0-.4.1-.5.3-.6a5.17,5.17,0,0,0,1.8-1.5c.7-1.1.2-1.8-1.2-2.2l-.7-.2-.1-4.1a50.48,50.48,0,0,1,.4-8.8c.2-1.9-.1-2.8-1.1-3.3a3.07,3.07,0,0,0-2.1-.1,7.68,7.68,0,0,0-2.6,3c-.2.4-.2.5-.4.3s-.1-.4-.1-.6a23.75,23.75,0,0,0-1.1-4.2,2.06,2.06,0,0,0-2.8-.9c-1.2.4-2.2,2.1-2.5,4a11.28,11.28,0,0,0,.1,3.1c.3,2.1.3,3.4.1,2.8-.1-.2-.5-1.4-.9-2.7-1-3-1.2-3.4-2.5-3.5s-1.7.3-2.3,1.8c-.8,1.9-.8,4.1,0,7.5a14,14,0,0,1,.2,2.3,57.11,57.11,0,0,1-.7,7.3c-.2.4-.2.4-1,.3a7.75,7.75,0,0,1-.9-.1,13.58,13.58,0,0,1,.1-1.5c.2-1.5.1-2.3-.5-4.8-.2-.7-.6-2.5-.9-3.9-.7-3-.9-3.5-1.5-3.9-1.3-.8-2.8.2-3.3,2.3-.4,1.8-.3,3.4.4,7.3.2.9.2,1.1-.3,2.9-.1.5-.2.5-1,.7a37.22,37.22,0,0,0-4.7,1.7c-2.1.8-4.3,1.6-4.9,1.8-2.4.7-2.8,1.1-6.3,5.5-2,2.5-4.7,5.8-5.6,6.8a35,35,0,0,0-3.7,5.5,61.2,61.2,0,0,1-4.2,6.1c-7.2,8.5-8,10.5-7.4,9.8s1.8-2.1,2.7-3.2,2.4-2.8,3.2-3.7,1.7-2.1,2.1-2.5a47.8,47.8,0,0,0,4.1-5.9,39.73,39.73,0,0,1,4-5.8c1.7-2,4.2-5.1,5-6.1a26.84,26.84,0,0,1,4.2-4.7,19.06,19.06,0,0,1,2.3-1c.9-.3,2.6-.9,3.8-1.4,3.1-1.2,4.7-1.8,5.4-2,1.1-.3,1.9-.2,5.6.6a27,27,0,0,0,2.8.4,15.78,15.78,0,0,1,4,.6c.3.2.4.3.3.6-.2.7-.4,1-1.4,1.6a11.16,11.16,0,0,1-4.8,1.4l-1.4.1-.5-.7a2.23,2.23,0,0,0-1.7-1.1c-.4,0-1.1.7-1.2,1.3-.2.8-.5.1-.5-1.2,0-.5,0-.6-.3-.5s-.3.2-.3,1.1v1.1l-.8.5c-.4.3-1.3.8-1.8,1.1s-1.4.8-1.9,1.1-.9.5-.9.6a5.06,5.06,0,0,1-2.5-.8c-.3-.3-.4-.3-.6-.2s-.2.2-.2.3c0,.3.8.9,1.8,1.2a8.35,8.35,0,0,0,6.4-.3,8.83,8.83,0,0,1,1.6-.6s.2.4.4.9a16.67,16.67,0,0,0,2.1,3.9l.7,1v2.6c.1,2.9.1,2.7-1.3,3.7-.7.5-.7.5-1.1,1.7-.6,2-.4,4,.3,4,.3,0,.3-.1.2-.8a6.15,6.15,0,0,1-.1-1.3,6.9,6.9,0,0,1,.7-2.7,8,8,0,0,0,.8-.6l.7-.5.4.7c.4.7.8.9.9.5a2.67,2.67,0,0,0-.4-1c-.4-.7-.5-.8-.6-3-.1-1.9-.1-2.3.1-2.1a.76.76,0,0,0,.5.2c.1,0,.3-.1.3-.2a9.78,9.78,0,0,0-1.2-1.8c-2.2-3-3.1-5.3-3-7.4,0-.9.1-1.2.4-1.4l.3-.3.4.3a6.94,6.94,0,0,1,1,1.2c.3.5,1.3,1.9,2.2,3.1,2,2.8,2.1,3,2.6,4.3.7,1.9,1.4,6,1.1,7.2-.1.3-.9,1.5-4.1,5.7a19.71,19.71,0,0,1-3.8,4.1c-.8.5-1.9.9-6.2,2.1a67,67,0,0,1-8.2,2c-.7.1-2.3.4-3.5.6-3.1.5-2.9.5-2.9.9s.1.3.8.2c.4-.1,1-.1,1.3-.2l.5-.1-.5.6c-.6.6-2.8,3.7-3.5,4.6-.2.3-1.6,2.8-3,5.4s-3.2,5.8-3.9,7c-1.4,2.5-1.6,4.2,1.2-.7,1.1-2,2.8-5,4.7-8.5s4.6-7.3,5.8-8.3c.5-.4.9-.5,3.1-.9a94.25,94.25,0,0,0,10.1-2.6,22.56,22.56,0,0,0,4.9-1.8c.8-.4,4.6-5.1,6.9-8.5.4-.6.6-.8,1-.9a9.51,9.51,0,0,0,2.2-.7l1.4-.7a11.41,11.41,0,0,0,4.5-3.4c1.9-2.6,3-3.7,4.9-4.7,2.4-1.3,4.1-1.6,5.3-.8.7.5,1.1.9,1.1,1.4a5.12,5.12,0,0,1-1.6,2.6,17.41,17.41,0,0,0-1.8,2.2,11.12,11.12,0,0,1-1.2,1.5,12.83,12.83,0,0,0-1,1.5,17.62,17.62,0,0,1-3.6,4,32.57,32.57,0,0,0-5.5,6.2,39,39,0,0,1-9.8,9.6,28.39,28.39,0,0,1-6.6,3.2,23.56,23.56,0,0,0-6.9,3.5c-1.2.9-1.9,2-1.8,2.3.1.1.4-.1,1.3-1a10.83,10.83,0,0,1,2.9-2.1,8.59,8.59,0,0,1,1.8-.8,10.23,10.23,0,0,1-.3,1.1c-.6,1.5-.7,2.1-1.5,7a38.33,38.33,0,0,0-.5,6c0,2.4.2,9.4.3,10.1,0,.2,1.1,1,.9-.3-.2-.9-.6-11.6-.4-13.1a54,54,0,0,1,1.9-9.6,3.71,3.71,0,0,1,1.3-1.7,29.17,29.17,0,0,1,3.1-1.4c.7-.4,1.5-.7,2.2-1.1a43.17,43.17,0,0,0,5.3-3.4,49.82,49.82,0,0,0,8.2-8.9,27.11,27.11,0,0,1,3.5-4,32.25,32.25,0,0,0,5-5.3,38.84,38.84,0,0,1,3.7-4.8C296.7,167.4,297.5,165.8,297.4,165.2Zm-24.8-11.6c-.1,0-.9-.2-1.8-.4a17.83,17.83,0,0,0-2.2-.4c-.5,0-.5-.1-.5-.5a1.93,1.93,0,0,1,.3-1c.3-.6.3-.7-.2-3.8-.7-4-.5-5.8.7-7,.8-.7,1.3-.7,1.8.3a60.27,60.27,0,0,1,2.2,8.7C272.9,150.5,272.8,153.6,272.6,153.6Zm-4.9,7.3a23.5,23.5,0,0,1-3.8,1.4,3.28,3.28,0,0,1-1,0c-.3-.1-.3-.2.4-.5a18,18,0,0,0,2.2-1.4c1.9-1.2,2.1-1.2,2.3-.3C267.8,160.5,267.8,160.9,267.7,160.9Zm27.1-10.1c.7.6.2,1.1-2.1,2.5a36.81,36.81,0,0,1-4.9,2.5s-.1-.8-.2-1.8l-.1-1.7.7-.4a25.71,25.71,0,0,1,3.8-1.4C292.8,150.4,294.1,150.2,294.8,150.8Zm-6.5-13.2c.6-1.5,2.1-3.3,3-3.6a1.58,1.58,0,0,1,1.3.2c.5.3.7,1.2.6,3.3,0,1-.2,2.3-.2,2.9a65.72,65.72,0,0,0,.2,9.2c.1,0-.3.2-.9.3s-1.9.5-2.9.8c-2.1.7-2,.7-2-.4,0-.3-.1-1.3-.2-2a5.42,5.42,0,0,1-.1-2.8A27,27,0,0,1,288.3,137.6Zm-3.6,19.9a44.57,44.57,0,0,1-.6-5.4,6.89,6.89,0,0,0-.4-2.4c-.3-.4-.3-.7.1-1.5.7-1.5,1.9-2.2,2.3-1.3a59.92,59.92,0,0,1,.9,8.7,20.17,20.17,0,0,1-1.8,7.5l-.5.8.1-2.7A19.74,19.74,0,0,0,284.7,157.5Zm-2.9-11.2a39.12,39.12,0,0,0,.2-8.3,9,9,0,0,1,.4-4.9c.9-1.9,2.9-2.3,3.7-.8a26.67,26.67,0,0,1,1.1,5.4,5.17,5.17,0,0,1-.2,2.1,27.93,27.93,0,0,0-.7,4.8,7.72,7.72,0,0,1-.1,1c0,.1-.4.2-.7.2a4,4,0,0,0-2.4,2.4c-.3.8-.4.9-.8.9s-.5-.1-.6-.5A10,10,0,0,1,281.8,146.3Zm-2.9,8.3a6.55,6.55,0,0,0-2.5-.5c-.5,0-.5,0-.4-.6,0-.3.2-1.3.2-2.3s.2-2.1.3-2.6a10.19,10.19,0,0,0,0-4.3,20.67,20.67,0,0,1-.7-5.7c.2-2.2,1-3.5,2.2-3.4.5,0,.6.2,1,.8a29.72,29.72,0,0,1,2.1,6.2,9.22,9.22,0,0,1,.1,3.8c-.1,1.3-.1,2.6-.1,2.9.1.5,0,.7-.5,1.6a7.12,7.12,0,0,0-1.1,3.2l-.2,1.2Zm-5.2,7.9c-.9-1.2-2.1-2.8-2.1-2.9a8.87,8.87,0,0,1,1.3-.1,7.22,7.22,0,0,0,2.8-.5,9,9,0,0,0,3.3-1.8l.4-.4v1.1a6.48,6.48,0,0,1-.2,2l-.2.9-1.1.5c-.6.3-1.6.9-2.3,1.3l-1.2.8Zm2.5,4.2a11.94,11.94,0,0,0-.7-1.5l-.7-1.3.7-.5c.6-.4,3-1.8,3.2-1.9a5.27,5.27,0,0,1-.2,1.3c-.1.7-.3,1.7-.4,2.1l-.1.8-.9.5C276.7,166.6,276.2,166.8,276.2,166.7Zm.9,4.8c-.1-.9-.2-2.1-.3-2.5a6.53,6.53,0,0,1-.2-1.1c-.1-.3.1-.4.6-.8l.7-.5.1.6c.1.5.1.6.4.6s.3-.2.5-1.9a41.14,41.14,0,0,1,1.1-6,28.62,28.62,0,0,0,.3-3.4c.1-3.3.2-3.7.5-4.8.5-1.6,2-2.6,2.5-1.6a18.33,18.33,0,0,1,.3,2.6c.1,1.3.3,3.3.5,4.4a8,8,0,0,1,.2,2.4c0,.2-.1,1.3-.1,2.5,0,3.3-.2,5.2-.6,5.9s-1.6,1.9-4.2,3.7l-2,1.4Zm9.5-4.7c-2.4,3.1-3.6,4.3-5.2,5.2a12.18,12.18,0,0,1-2.7,1.1s.7-.5,1.5-1.1c3.6-2.5,4.2-3.4,4.4-5.6a3.55,3.55,0,0,1,.4-1.6,14.73,14.73,0,0,0,2.3-6,3.08,3.08,0,0,1,.7-1.8,29.79,29.79,0,0,1,4.5-2.7c.1,0,.1.1.1.2a10.42,10.42,0,0,0-.1,1.1C292.2,157.4,288.9,163.7,286.6,166.8Z" transform="translate(-155.1 -111.9)"/><path class="cls-1" d="M260.8,222.3c0-1.6-.1-2.7-.1-2.8-.1-.7-.3-4.8-.3-7.3a29.17,29.17,0,0,1,.5-6c.8-4.9.9-5.4,1.5-7a2.94,2.94,0,0,0,.3-.9l-1.6.8a8.76,8.76,0,0,0-2.8,2c-.9.9-1.2,1.1-1.3,1s-.1,0-.1-.1c-.3-.4.7-1.5,1.8-2.4a20.54,20.54,0,0,1,6.9-3.6,33.07,33.07,0,0,0,6.6-3.2,39,39,0,0,0,9.8-9.6,32.57,32.57,0,0,1,5.5-6.2,14,14,0,0,0,3.6-4,12.83,12.83,0,0,1,1-1.5c.2-.3.7-.9,1.2-1.5s1.2-1.5,1.8-2.2c1.3-1.5,1.6-2.2,1.6-2.5s-.4-.8-1.1-1.3c-1.1-.7-2.8-.5-5.2.8-1.8,1-2.9,2.1-4.8,4.7a10.73,10.73,0,0,1-4.5,3.5c-.6.3-1.3.6-1.4.7a17.69,17.69,0,0,1-2.2.8c-.4.1-.6.2-1,.8-2.4,3.5-6.1,8.1-6.9,8.5a18.24,18.24,0,0,1-4.9,1.8,100.62,100.62,0,0,1-10.2,2.6c-2.2.4-2.6.5-3.1.9-1.2.9-4,4.8-5.8,8.2s-3.5,6.5-4.7,8.5h0c-2.8,4.8-2.4,2.3-1.3.5.7-1.2,2.5-4.4,3.9-7s2.8-5.1,3-5.4c.6-1,2.9-4,3.5-4.7l.3-.4h-.2c-.3.1-.9.1-1.3.2s-.7.1-.8,0a.37.37,0,0,1-.1-.3h0c0-.4,0-.4,2.6-.8l.4-.1c1.2-.2,2.8-.5,3.5-.6,1.6-.3,3.9-.8,8.2-2s5.4-1.6,6.2-2.1a21.39,21.39,0,0,0,3.8-4,66.43,66.43,0,0,0,4.1-5.6c.3-1.1-.4-5.2-1.1-7.1-.5-1.2-.6-1.4-2.6-4.3-.9-1.2-1.8-2.6-2.2-3.1a4.43,4.43,0,0,0-1-1.2l-.3-.3-.3.3c-.2.2-.3.5-.4,1.4-.1,2.1.8,4.3,3,7.3,0,.1,1.2,1.7,1.2,1.9s0,.1-.1.2a.37.37,0,0,1-.3.1.76.76,0,0,1-.5-.2v2c.1,2.2.1,2.3.5,3a2.6,2.6,0,0,1,.4,1q-.15.3-.3.3c-.3,0-.6-.4-.8-.8l-.4-.6-.6.4a5,5,0,0,1-.8.6,6.41,6.41,0,0,0-.7,2.7,6.15,6.15,0,0,0,.1,1.3c.1.5.1.7,0,.8a.37.37,0,0,1-.3.1.76.76,0,0,1-.4-.2c-.4-.6-.4-2.3,0-3.9.3-1.2.4-1.3,1.1-1.7l.2-.1c1.1-.7,1.1-.7,1.1-3.1l-.1-2.9-.7-1a16.67,16.67,0,0,1-2.1-3.9c-.2-.4-.3-.8-.4-.9-.2.1-.8.3-1.5.6a8.2,8.2,0,0,1-6.5.3c-.9-.3-1.8-.9-1.8-1.3a.76.76,0,0,1,.2-.4c.2-.2.5,0,.7.2a6.77,6.77,0,0,0,2.3.9,2.66,2.66,0,0,1,1-.6,13,13,0,0,0,1.9-1.1,14.19,14.19,0,0,0,1.8-1.1l.8-.5v-1c0-.9,0-1.2.3-1.2h.2c.1.1.1.3.1.6,0,.9.1,1.3.2,1.4a.77.77,0,0,1,.1-.3c.2-.6.9-1.4,1.3-1.4a2.27,2.27,0,0,1,1.8,1.2l.4.7,1.4-.1a10.35,10.35,0,0,0,4.7-1.4c1-.6,1.2-.9,1.4-1.5.1-.3,0-.4-.3-.5a14.92,14.92,0,0,0-4-.6c-.7-.1-2-.2-2.8-.4-3.7-.8-4.5-.9-5.6-.6-.7.2-2.3.8-5.4,2-1.2.4-2.8,1.1-3.8,1.4a8.57,8.57,0,0,0-2.3,1,32.57,32.57,0,0,0-4.1,4.7c-.8,1.1-3.3,4.1-5,6.1a39.73,39.73,0,0,0-4,5.8,47.8,47.8,0,0,1-4.1,5.9c-.4.4-1.3,1.5-2.1,2.5s-2.2,2.6-3.2,3.7-2.2,2.6-2.7,3.2.1-1.4,7.3-10a50.75,50.75,0,0,0,4.2-6,35,35,0,0,1,3.7-5.5c.9-1,3.6-4.3,5.6-6.8,3.5-4.4,3.9-4.8,6.4-5.5.6-.2,2.8-1,4.9-1.8s4.2-1.6,4.7-1.7c.8-.2.8-.2.9-.7.5-1.8.5-1.9.3-2.9-.7-4-.8-5.6-.4-7.4a3.24,3.24,0,0,1,1.7-2.4,2,2,0,0,1,1.7.1c.7.4.9,1,1.6,4,.3,1.4.7,3.2.9,3.9.6,2.5.7,3.3.5,4.8a9.51,9.51,0,0,0-.1,1.4,5.38,5.38,0,0,0,.8.1c.7.1.7.1.9-.3a51.2,51.2,0,0,0,.7-7.2,7.86,7.86,0,0,0-.2-2.3c-.8-3.4-.8-5.7,0-7.6.6-1.5,1.2-1.9,2.4-1.8s1.6.5,2.5,3.5c.4,1.1.7,2.2.8,2.6,0-.4-.1-1.2-.2-2.7a11.28,11.28,0,0,1-.1-3.1c.3-1.9,1.4-3.6,2.6-4a2.24,2.24,0,0,1,3,1,24.73,24.73,0,0,1,1.1,4.3,4.33,4.33,0,0,0,.1.5h0a1.24,1.24,0,0,0,.2-.3,7.68,7.68,0,0,1,2.6-3,2.82,2.82,0,0,1,2.2.1c1,.5,1.4,1.5,1.1,3.4a50,50,0,0,0-.4,8.8l.1,4.1.7.2c.8.2,1.3.5,1.5,1s.1.8-.2,1.4a4.71,4.71,0,0,1-1.9,1.5c-.1,0-.2.1-.2.5,0,1.7-1.2,4.9-3.3,8.4-.5.8-.8,1.4-1,1.7.2-.1.6-.2,1.2-.5,2.2-1,3.9-1.1,5.3-.4a4.36,4.36,0,0,1,1.7,1.9h0c.2.7-.7,2.2-1.9,3.6a31,31,0,0,0-3.7,4.8,28.69,28.69,0,0,1-5,5.3,27.11,27.11,0,0,0-3.5,4,46.63,46.63,0,0,1-8.2,8.9,31.45,31.45,0,0,1-5.3,3.4c-.4.2-.9.5-1.3.7a5.94,5.94,0,0,0-.8.4c-.4.2-.8.3-1.2.5a11.08,11.08,0,0,0-1.9.9,3.71,3.71,0,0,0-1.3,1.7,62.22,62.22,0,0,0-1.9,9.6,64.6,64.6,0,0,0,.1,8.9,39.75,39.75,0,0,1,.2,4.7v.3Zm2-24.2h0c.1.1.2.1-.2,1.2-.6,1.5-.7,2.1-1.5,6.9a38.33,38.33,0,0,0-.5,6c0,2.4.2,6.6.3,7.2,0,.1.1,1.4.1,2.8,0,.7.5.6.5.6v-.6c-.1-2-.1-3.9-.2-4.4a87.9,87.9,0,0,1-.1-9,54,54,0,0,1,1.9-9.6,3.56,3.56,0,0,1,1.4-1.8,6.63,6.63,0,0,1,1.9-.9c.4-.2.8-.3,1.2-.5s.6-.3.9-.4a8.26,8.26,0,0,0,1.3-.7,30.79,30.79,0,0,0,5.2-3.4,49.82,49.82,0,0,0,8.2-8.9,27.11,27.11,0,0,1,3.5-4,32.25,32.25,0,0,0,5-5.3,38.84,38.84,0,0,1,3.7-4.8c1.2-1.3,2-2.8,1.9-3.4a3.42,3.42,0,0,0-1.6-1.8c-1.3-.7-3-.5-5.1.4-1.4.6-1.4.6-1.5.5s-.1-.1,1-2c2.1-3.5,3.3-6.6,3.3-8.3,0-.3,0-.6.3-.7a6.23,6.23,0,0,0,1.8-1.4c.3-.5.4-.9.2-1.2a1.91,1.91,0,0,0-1.4-.9l-.8-.2-.1-4.2a42,42,0,0,1,.4-8.8c.2-1.8-.1-2.7-1-3.2a2.8,2.8,0,0,0-2-.1,8.12,8.12,0,0,0-2.6,2.9c-.1.3-.2.4-.3.4a.35.35,0,0,1-.2-.1,1.07,1.07,0,0,1-.2-.6,23.75,23.75,0,0,0-1.1-4.2,2,2,0,0,0-2.7-.9c-1.1.4-2.1,2-2.4,3.9a10.54,10.54,0,0,0,.1,3c.4,3,.2,3,.1,3.1a.22.22,0,0,1-.2-.2c-.1-.2-.5-1.4-.9-2.7-1-3-1.2-3.3-2.4-3.4s-1.6.3-2.2,1.7c-.8,1.8-.8,4.1,0,7.5a14,14,0,0,1,.2,2.3,55.1,55.1,0,0,1-.7,7.3c-.2.5-.3.5-1.1.4-.4,0-.9-.1-.9-.2s-.1-.1.1-1.5.1-2.2-.5-4.8c-.2-.7-.6-2.5-.9-3.9-.7-2.9-.9-3.5-1.5-3.9a1.6,1.6,0,0,0-1.5-.1,2.92,2.92,0,0,0-1.6,2.3c-.4,1.8-.3,3.3.4,7.3.2,1,.2,1.1-.3,2.9-.1.6-.3.6-1.1.8a37.22,37.22,0,0,0-4.7,1.7c-2.1.8-4.3,1.6-5,1.8-2.4.7-2.8,1.1-6.3,5.4-2,2.5-4.7,5.8-5.6,6.8a39.12,39.12,0,0,0-3.7,5.4,61.2,61.2,0,0,1-4.2,6.1c-2.3,2.7-5,5.8-7.5,8.8l-.6,1.5.5-.5c.6-.7,1.8-2.1,2.7-3.2s2.4-2.8,3.2-3.7,1.7-2.1,2.1-2.5a47.8,47.8,0,0,0,4.1-5.9,39.73,39.73,0,0,1,4-5.8c1.7-2,4.2-5.1,5-6.1a33.31,33.31,0,0,1,4.2-4.8,15.83,15.83,0,0,1,2.4-1c.9-.3,2.6-.9,3.8-1.4,3.1-1.2,4.7-1.8,5.4-2,1.1-.3,1.9-.2,5.7.6a27,27,0,0,0,2.8.4,14.92,14.92,0,0,1,4,.6c.4.2.5.3.4.7-.2.7-.5,1-1.5,1.6a11.16,11.16,0,0,1-4.8,1.4l-1.5.1-.5-.7a2.24,2.24,0,0,0-1.6-1.1,1.67,1.67,0,0,0-1.1,1.2c0,.2-.1.4-.3.4s-.4-1-.4-1.6c0-.1,0-.4-.1-.4h-.1c-.1,0-.2.1-.2,1v1.1l-.9.5c-.4.3-1.3.8-1.8,1.1s-1.4.8-1.9,1.1-.9.5-.9.6a.1.1,0,0,1-.1.1,5.08,5.08,0,0,1-2.5-.9c-.3-.3-.4-.3-.5-.2l-.2.2c0,.2.8.8,1.7,1.1a8,8,0,0,0,6.4-.3c.6-.2,1.6-.6,1.6-.6s.1,0,.5,1a18.91,18.91,0,0,0,2.1,3.9l.7,1,.1,3c0,2.4,0,2.5-1.2,3.2l-.2.1c-.7.4-.7.5-1,1.6a5.71,5.71,0,0,0-.1,3.7c.1.1.1.1.2.1h.1V178a6.15,6.15,0,0,1-.1-1.3,6.65,6.65,0,0,1,.8-2.8,8,8,0,0,0,.8-.6l.7-.6.5.8c.3.5.5.7.6.7s.1-.1.1-.2a2.52,2.52,0,0,0-.4-.9c-.4-.7-.5-.9-.6-3.1-.1-2-.1-2.2.1-2.2h.2a.76.76,0,0,0,.4.2c.1,0,.1,0,.2-.1h0a15.86,15.86,0,0,0-1.2-1.8c-2.2-3-3.1-5.3-3-7.4,0-.9.1-1.2.4-1.5l.4-.4.5.4a5.32,5.32,0,0,1,1,1.3c.3.5,1.3,1.9,2.2,3.1,2,2.8,2.1,3.1,2.6,4.3.7,1.9,1.4,6.1,1.1,7.2-.1.4-.9,1.5-4.1,5.7a22.89,22.89,0,0,1-3.8,4.1c-.8.5-1.9.9-6.3,2.1a67,67,0,0,1-8.2,2c-.7.1-2.3.4-3.5.6l-.4.1c-2.5.4-2.5.4-2.5.7h0v.2c.1.1.4,0,.7,0s1-.1,1.3-.2l.8-.1-.7.8c-.6.6-2.8,3.7-3.5,4.6-.2.3-1.6,2.8-3,5.4s-3.2,5.8-3.9,7c-1,1.8-1.8,4.1,1-.7h0c1.1-2,2.8-5,4.7-8.5s4.6-7.3,5.9-8.3c.6-.4.9-.5,3.2-1a94.25,94.25,0,0,0,10.1-2.6,18.24,18.24,0,0,0,4.9-1.8c.8-.4,4.5-5.1,6.8-8.4a1.77,1.77,0,0,1,1.1-.9,7.32,7.32,0,0,0,2.1-.7l1.4-.7a9.82,9.82,0,0,0,4.5-3.4,14.13,14.13,0,0,1,4.9-4.7c2.4-1.3,4.2-1.6,5.4-.8.7.5,1.1,1,1.1,1.4a5.12,5.12,0,0,1-1.6,2.6c-.6.7-1.4,1.6-1.8,2.2a11.12,11.12,0,0,1-1.2,1.5,12.83,12.83,0,0,0-1,1.5,16.22,16.22,0,0,1-3.7,4,35.3,35.3,0,0,0-5.5,6.1,39,39,0,0,1-9.8,9.6,33.84,33.84,0,0,1-6.6,3.3,19.88,19.88,0,0,0-6.8,3.5c-1.3,1-1.9,1.9-1.7,2.2a4.33,4.33,0,0,0,1.2-1,9,9,0,0,1,2.9-2.1C262.3,198.2,262.7,198.1,262.8,198.1Zm14.4-24.7-.2-1.9c-.1-.9-.2-2.1-.3-2.5a8.92,8.92,0,0,1-.2-1.1c-.1-.3.1-.5.7-.9l.8-.5.1.8c.1.5.1.6.3.6s.2-.1.4-1.8a41.14,41.14,0,0,1,1.1-6,24.26,24.26,0,0,0,.3-3.4c.1-3.3.2-3.8.5-4.8s1.2-2,1.9-2a.75.75,0,0,1,.7.5,20.62,20.62,0,0,1,.3,2.7c.1,1.3.3,3.3.5,4.4a13.64,13.64,0,0,1,.2,2.4c0,.1-.1,1.2-.1,2.5q0,4.95-.6,6c-.4.8-1.7,1.9-4.2,3.7Zm.6-6.6-.6.4c-.6.4-.6.5-.6.7a6.53,6.53,0,0,0,.2,1.1,13.06,13.06,0,0,1,.3,2.5l.2,1.6,1.9-1.3c2.6-1.8,3.8-2.9,4.2-3.7s.5-2.6.6-5.9c0-1.1.1-2.3.1-2.5s-.1-1.1-.2-2.4-.4-3.1-.5-4.4a13.26,13.26,0,0,0-.3-2.6.66.66,0,0,0-.5-.4c-.6,0-1.4.8-1.8,1.9s-.4,1.5-.5,4.8c-.1,1.5-.2,3.2-.3,3.5a38.66,38.66,0,0,0-1.1,6c-.2,1.7-.2,2-.6,2s-.4-.2-.5-.7Zm.9,6.5h0c-.1-.1-.1-.2,1.5-1.3,3.5-2.5,4.2-3.4,4.4-5.5a4.65,4.65,0,0,1,.4-1.7,14.24,14.24,0,0,0,2.2-6,3.92,3.92,0,0,1,.7-1.9,27.53,27.53,0,0,1,4.6-2.7h.1c.1,0,.1.1.1.2s-.1.7-.1,1.1c-.3,1.9-3.6,8.3-6,11.4s-3.6,4.3-5.2,5.2A16,16,0,0,1,278.7,173.3Zm13.8-19A44.59,44.59,0,0,0,288,157a3.45,3.45,0,0,0-.7,1.8,13.9,13.9,0,0,1-2.3,6.1,3.55,3.55,0,0,0-.4,1.6c-.2,2.2-.9,3.1-4.5,5.7-.5.3-.9.6-1.2.8a21.4,21.4,0,0,0,2.2-1c1.6-.9,2.8-2.1,5.1-5.2l.1.1-.1-.1c2.3-3.1,5.7-9.4,5.9-11.3.4-.6.5-1,.4-1.2Zm-16.3,12.5h0l-.1-.1a8.08,8.08,0,0,0-.7-1.4l-.7-1.4.7-.5a32.66,32.66,0,0,1,3.2-1.9h0s.1.1-.2,1.4c-.1.7-.3,1.7-.4,2.1l-.1.9-1,.5C277,166.5,276.5,166.8,276.2,166.8Zm.1-.1Zm-1.3-2.8.6,1.3.7,1.4a2.52,2.52,0,0,0,.9-.4l.9-.5.1-.8c.1-.5.2-1.4.4-2.1s.2-1,.2-1.1a34.87,34.87,0,0,0-3.1,1.8Zm9.7.4.1-3a36.69,36.69,0,0,0-.1-3.8,44.57,44.57,0,0,1-.6-5.4c-.1-1.9-.3-2.2-.4-2.3-.3-.5-.3-.8.1-1.6.5-1,1.3-1.8,1.9-1.8a.68.68,0,0,1,.6.4,60,60,0,0,1,.9,8.8,19.7,19.7,0,0,1-1.8,7.5Zm.9-17.6c-.5,0-1.2.6-1.7,1.6-.3.7-.3,1-.1,1.4a9.73,9.73,0,0,1,.4,2.4c.2,2.1.3,3.5.6,5.4h0a36.69,36.69,0,0,1,.1,3.8l-.1,2.3.3-.5a19.19,19.19,0,0,0,1.8-7.4,58.4,58.4,0,0,0-.9-8.7c-.1-.2-.2-.3-.4-.3Zm-11.2,16.7-.7-.9a35.66,35.66,0,0,1-2.1-3c0-.1,0-.2,1.4-.2a6.76,6.76,0,0,0,2.7-.5,8.42,8.42,0,0,0,3.2-1.8l.5-.6.1,1.3a6.17,6.17,0,0,1-.2,2l-.3,1-1.1.5c-.6.3-1.6.9-2.3,1.3Zm-2.6-3.8c.2.3,1.2,1.7,2,2.8l.6.8,1.2-.7c.7-.4,1.7-1,2.3-1.3l1-.5.2-.9a6.48,6.48,0,0,0,.2-2v-.9l-.2.2a8.94,8.94,0,0,1-3.3,1.9,7.22,7.22,0,0,1-2.8.5C272.4,159.5,272,159.6,271.8,159.6Zm-8.4,2.9c-.2,0-.5,0-.6-.1s-.3-.1-.3-.2.1-.2.6-.5a18,18,0,0,0,2.2-1.4c1.3-.8,1.8-1.1,2.1-.9s.3.3.3.7c0,0,.1.7-.1.9h0a13.75,13.75,0,0,1-3.9,1.4C263.7,162.5,263.6,162.5,263.4,162.5Zm-.6-.3a.1.1,0,0,1,.1.1,1.67,1.67,0,0,0,1,0,23.5,23.5,0,0,0,3.8-1.4,1.36,1.36,0,0,0,0-.7c-.1-.3-.1-.5-.2-.6s-.8.2-1.9.9c-.8.5-1.8,1.2-2.2,1.4S262.8,162.1,262.8,162.2Zm25-6.3h0c-.1,0-.1-.1-.2-1.9l-.1-1.8.8-.4a25.71,25.71,0,0,1,3.8-1.4c.8-.1,2.1-.3,2.8.2.2.2.4.4.3.6,0,.5-.7,1-2.5,2.1A31.75,31.75,0,0,1,287.8,155.9Zm-.2-3.6.1,1.7a14.89,14.89,0,0,1,.1,1.7,32.44,32.44,0,0,0,4.8-2.5c1.4-.8,2.4-1.5,2.4-1.9a.54.54,0,0,0-.3-.4,4.15,4.15,0,0,0-2.7-.2c-.6.1-3,1-3.8,1.3Zm-8.2,2.6-.5-.3a9.23,9.23,0,0,0-2.5-.5c-.3,0-.4,0-.5-.1s-.1-.3,0-.6.2-1.3.2-2.3.2-2.1.3-2.6a10.19,10.19,0,0,0,0-4.3,21,21,0,0,1-.7-5.7c.2-2.2,1.1-3.6,2.3-3.5.5,0,.7.2,1,.8a29.72,29.72,0,0,1,2.1,6.2,9.22,9.22,0,0,1,.1,3.8c-.1,1.2-.1,2.5-.1,2.9s0,.8-.5,1.7a6.7,6.7,0,0,0-1.1,3.2Zm-1.6-19.6c-1,0-1.8,1.3-2,3.3a21.44,21.44,0,0,0,.7,5.7,10.19,10.19,0,0,1,0,4.3c-.1.5-.2,1.7-.3,2.6s-.2,2-.2,2.3-.1.4,0,.4h.4a10.89,10.89,0,0,1,2.6.5l.3.1.2-1a6.47,6.47,0,0,1,1.1-3.3c.5-.9.6-1.1.5-1.5a15.85,15.85,0,0,1,.1-2.9,14.91,14.91,0,0,0-.1-3.8,26.77,26.77,0,0,0-2.1-6.1c-.5-.5-.6-.6-1.2-.6Zm-5.2,18.4a12.47,12.47,0,0,1-1.8-.4,17.83,17.83,0,0,0-2.2-.4c-.5,0-.6-.1-.6-.6a1.93,1.93,0,0,1,.3-1c.3-.6.3-.7-.2-3.8-.7-4.1-.5-5.9.7-7,.4-.4.8-.6,1.1-.5s.6.3.9.8a56.72,56.72,0,0,1,2.2,8.7c.2.9.1,3.9-.2,4.1Zm-2.9-13.5a2.06,2.06,0,0,0-.9.5c-1.2,1.1-1.4,2.9-.7,6.9.5,3.1.5,3.2.2,3.9a9.44,9.44,0,0,1-.3.9c0,.4,0,.4.4.4a17.83,17.83,0,0,1,2.2.4c.9.2,1.6.3,1.8.4a12.65,12.65,0,0,0,.1-4,64.72,64.72,0,0,0-2.1-8.7c-.1-.5-.4-.7-.7-.7Zm17.9,11.1c-.1,0-.2,0-.2-.1-.2-.1-.2-.4-.2-.9v-.1c0-.3-.1-1.3-.2-2l-.1-.3a5.68,5.68,0,0,1-.1-2.2v-.2c.4-4,.8-6.2,1.5-7.9h0a8.26,8.26,0,0,1,3-3.7,1.85,1.85,0,0,1,1.4.2c.6.3.8,1.2.7,3.4,0,1-.2,2.3-.2,2.9a90.66,90.66,0,0,0,.1,9.2v.1c0,.1,0,.2-1,.3-.6.1-1.9.5-2.9.8h-.1A8.17,8.17,0,0,1,287.6,151.3Zm4.2-17.3a.6.6,0,0,0-.4.1c-.9.3-2.4,2.1-2.9,3.6-.7,1.7-1.1,3.8-1.5,7.8v.2a5.68,5.68,0,0,0,.1,2.2l.1.3c.1.8.2,1.7.2,2.1v.1c0,.4,0,.7.1.7s.7-.1,1.7-.4h.1a19,19,0,0,1,2.9-.8c.4-.1.7-.1.8-.2a71.41,71.41,0,0,1-.2-9.2,21.93,21.93,0,0,0,.2-2.9c.1-2-.1-3-.5-3.2A.87.87,0,0,0,291.8,134Zm-9.6,15.2c-.5,0-.6-.1-.7-.6a9.91,9.91,0,0,1,.1-2.3h0a39.12,39.12,0,0,0,.2-8.3,8.79,8.79,0,0,1,.4-4.9,2.74,2.74,0,0,1,2.3-1.8h0a1.58,1.58,0,0,1,1.5,1,28.24,28.24,0,0,1,1.1,5.4,5.17,5.17,0,0,1-.2,2.1,27.93,27.93,0,0,0-.7,4.8,2.51,2.51,0,0,1-.2,1,2.61,2.61,0,0,1-.8.3,3.69,3.69,0,0,0-2.3,2.3C282.8,149.1,282.8,149.2,282.2,149.2Zm-.3-2.9c-.1,1-.2,2-.2,2.3s.1.4.5.4.4,0,.8-.8a4,4,0,0,1,2.4-2.4c.4-.1.6-.1.7-.2a4.13,4.13,0,0,0,.1-.9,31.28,31.28,0,0,1,.7-4.9,5,5,0,0,0,.2-2.1,27,27,0,0,0-1.1-5.3,1.48,1.48,0,0,0-1.3-.9h0a2.8,2.8,0,0,0-2.2,1.7,8.53,8.53,0,0,0-.4,4.8,46.9,46.9,0,0,1-.2,8.3Z" transform="translate(-155.1 -111.9)"/><path class="cls-1" d="M257.7,130.3c2-1.1,3-4.9,3.6-5s.7,1.8,1.2,2.6a4.36,4.36,0,0,0,1.4,1.8c1.8,1.1,1.1,1.7-.5,2.9-1.1.8-1.5,4.4-2,4.4s-.6-.8-.8-1.3a6.9,6.9,0,0,0-2.7-3.8C257.1,131.3,257,130.9,257.7,130.3Z" transform="translate(-155.1 -111.9)"/><path class="cls-1" d="M242.6,145.4c.9,1.2,1.2,2.6,2.3,3.3.4.2.4.6,0,.9a5.07,5.07,0,0,0-1.8,2.5c-.2.6-.6.9-.9,0a4.89,4.89,0,0,0-1.7-2.5q-.6-.45,0-.9C241.6,147.9,242,146.7,242.6,145.4Z" transform="translate(-155.1 -111.9)"/><path class="cls-1" d="M292.6,187.4c-.8-1.4-1.1-2.6-2.2-3.3-.4-.3-.4-.7-.1-.9,1.1-.8,1.5-2,2.2-3.3.7,1.3,1.1,2.5,2.2,3.3.4.3.2.7-.1.9C293.7,184.8,293.3,185.9,292.6,187.4Z" transform="translate(-155.1 -111.9)"/><path class="cls-1" d="M276.5,201.9a.3.3,0,0,1,.4,0,4.49,4.49,0,0,0,.6,1.2c.5.6,1.1.7,1.1,1s-.6.2-1.1.7c-.2.2-.3.9-.5,1.3,0,.1-.2.1-.2,0-.3-.5-.5-1-.8-1.4s-1.1-.6-1.1-.8c0-.4.7-.5,1.2-1.1C276.1,202.7,276.3,202.4,276.5,201.9Z" transform="translate(-155.1 -111.9)"/><path class="cls-1" d="M283.4,122.7c-.9.4-1.1,1.4-1.6,2.3-.8-.8-.9-1.9-1.8-2.3.5-.9,1.1-1.8,1.8-2.9C282.1,121,283.1,121.6,283.4,122.7Z" transform="translate(-155.1 -111.9)"/><path class="cls-1" d="M305.4,160.6a.21.21,0,0,1-.4,0,3.11,3.11,0,0,0-.4-.6c-.3-.2-.7-.2-.7-.5s.3-.2.7-.6a2.15,2.15,0,0,0,.4-.7c.1-.1.3-.1.3,0a1.63,1.63,0,0,0,.3.6c.3.3.7.3.7.6s-.3.3-.7.7A1.69,1.69,0,0,1,305.4,160.6Z" transform="translate(-155.1 -111.9)"/><path class="cls-1" d="M238.3,277.7h3.9v.6H239v1.9h2.9v.5H239v2.4h-.6v-5.4Z" transform="translate(-155.1 -111.9)"/><path class="cls-1" d="M247.6,283.2a3.59,3.59,0,0,1-1.1-.2,4.7,4.7,0,0,1-.9-.6l-.6-.9a3.59,3.59,0,0,1-.2-1.1h0a4.25,4.25,0,0,1,.2-1.1,2.36,2.36,0,0,1,.6-.9,1.46,1.46,0,0,1,.9-.6,2,2,0,0,1,1.1-.2,3.59,3.59,0,0,1,1.1.2,4.7,4.7,0,0,1,.9.6l.6.9a3.59,3.59,0,0,1,.2,1.1h0a4.25,4.25,0,0,1-.2,1.1,2.36,2.36,0,0,1-.6.9,1.46,1.46,0,0,1-.9.6A1.82,1.82,0,0,1,247.6,283.2Zm.1-.5a2.92,2.92,0,0,0,.9-.2,1.79,1.79,0,0,0,.7-.5,1.61,1.61,0,0,0,.4-.7,2.92,2.92,0,0,0,.2-.9h0a2.92,2.92,0,0,0-.2-.9,4.35,4.35,0,0,0-.4-.7,1.79,1.79,0,0,0-.7-.5,2.39,2.39,0,0,0-.9-.2,2.92,2.92,0,0,0-.9.2,1.79,1.79,0,0,0-.7.5,1.61,1.61,0,0,0-.4.7,2.92,2.92,0,0,0-.2.9h0a2.92,2.92,0,0,0,.2.9,4.35,4.35,0,0,0,.4.7,1.79,1.79,0,0,0,.7.5A2.92,2.92,0,0,0,247.7,282.7Z" transform="translate(-155.1 -111.9)"/><path class="cls-1" d="M254.8,278.3H253v-.6h4.3v.6h-1.8v4.9h-.6v-4.9Z" transform="translate(-155.1 -111.9)"/><path class="cls-1" d="M262.6,283.2a3.59,3.59,0,0,1-1.1-.2,4.7,4.7,0,0,1-.9-.6l-.6-.9a3.59,3.59,0,0,1-.2-1.1h0a4.25,4.25,0,0,1,.2-1.1,2.36,2.36,0,0,1,.6-.9,1.46,1.46,0,0,1,.9-.6,2,2,0,0,1,1.1-.2,3.59,3.59,0,0,1,1.1.2,4.7,4.7,0,0,1,.9.6l.6.9a3.59,3.59,0,0,1,.2,1.1h0a4.25,4.25,0,0,1-.2,1.1,2.36,2.36,0,0,1-.6.9,1.46,1.46,0,0,1-.9.6A1.82,1.82,0,0,1,262.6,283.2Zm.1-.5a2.92,2.92,0,0,0,.9-.2,1.79,1.79,0,0,0,.7-.5,1.61,1.61,0,0,0,.4-.7,2.92,2.92,0,0,0,.2-.9h0a2.92,2.92,0,0,0-.2-.9,4.35,4.35,0,0,0-.4-.7,1.79,1.79,0,0,0-.7-.5,2.12,2.12,0,0,0-1.8,0,1.79,1.79,0,0,0-.7.5,1.61,1.61,0,0,0-.4.7,2.92,2.92,0,0,0-.2.9h0a2.92,2.92,0,0,0,.2.9,4.35,4.35,0,0,0,.4.7,1.79,1.79,0,0,0,.7.5A2.39,2.39,0,0,0,262.7,282.7Z" transform="translate(-155.1 -111.9)"/><path class="cls-1" d="M270.9,283.2a5,5,0,0,1-1.2-.2,1.8,1.8,0,0,1-.9-.6,2.62,2.62,0,0,1-.5-.9,3.59,3.59,0,0,1-.2-1.1h0a4.25,4.25,0,0,1,.2-1.1,2.36,2.36,0,0,1,.6-.9,1.46,1.46,0,0,1,.9-.6,2,2,0,0,1,1.1-.2h.6a4.33,4.33,0,0,1,.5.1c.2.1.3.1.5.2s.3.2.4.3l-.4.5-.3-.3c-.1-.1-.2-.1-.4-.2a.76.76,0,0,0-.4-.1h-.5a1.88,1.88,0,0,0-.8.2,3,3,0,0,0-.7.5,1.61,1.61,0,0,0-.4.7,2.92,2.92,0,0,0-.2.9h0a2.92,2.92,0,0,0,.2.9,1.61,1.61,0,0,0,.4.7,1.79,1.79,0,0,0,.7.5,2.13,2.13,0,0,0,1.8,0,1.61,1.61,0,0,0,.7-.4v-1.3H271v-.6h2.2v2.2l-.9.6A3.4,3.4,0,0,1,270.9,283.2Z" transform="translate(-155.1 -111.9)"/><path class="cls-1" d="M276.2,277.7h2.3a2.77,2.77,0,0,1,.9.1.92.92,0,0,1,.6.4,2.19,2.19,0,0,1,.3.5,1.27,1.27,0,0,1,.1.6h0a1.27,1.27,0,0,1-.1.6c-.1.2-.2.3-.3.5a2.19,2.19,0,0,1-.5.3c-.2.1-.4.1-.6.2l1.7,2.2h-.8l-1.6-2.1h-1.5v2.1h-.6v-5.4Zm2.3,2.8a1.27,1.27,0,0,0,.6-.1c.2-.1.3-.1.4-.2l.3-.3a.75.75,0,0,0,.1-.5h0a.91.91,0,0,0-.4-.8,1.49,1.49,0,0,0-1-.3h-1.7v2.2Z" transform="translate(-155.1 -111.9)"/><path class="cls-1" d="M285.5,277.7h.6l2.5,5.5h-.7l-.6-1.4h-3l-.6,1.4H283Zm1.5,3.5-1.2-2.8-1.2,2.8Z" transform="translate(-155.1 -111.9)"/><path class="cls-1" d="M291.3,277.7h3.9v.6h-3.3v1.9h2.9v.5h-2.9v2.4h-.6Z" transform="translate(-155.1 -111.9)"/><path class="cls-1" d="M298.1,277.7h.6v5.4h-.6Z" transform="translate(-155.1 -111.9)"/><path class="cls-1" d="M304,277.7h.6l2.5,5.5h-.7l-.6-1.4h-3l-.6,1.4h-.6Zm1.5,3.5-1.2-2.8-1.2,2.8Z" transform="translate(-155.1 -111.9)"/><g id="BQmKKr"><path class="cls-1" d="M222.2,249.8c.9-1,1.8-2,2.7-2.9,1.3-1.3,2.6-2.6,4-3.9a2.62,2.62,0,0,1,.9-.5c.7-.3,1.2,0,1.2.8s-.1,1.4-.1,2.1a24.77,24.77,0,0,0-.3,2.7c-.1,1.5.6,2.1,1.9,1.5a30.84,30.84,0,0,0,5.5-3.3c1.2-.9,2.2-2.1,3.4-3.2a8.58,8.58,0,0,1,2-1.3,1,1,0,0,1,.9.1,1.16,1.16,0,0,1,.2,1,4,4,0,0,1-2.4,2.8c-1.6.6-2.1,2-2.5,3.4a6.48,6.48,0,0,0-.2,2c0,1,.8,1.5,1.8,1.5a9.19,9.19,0,0,0,4.5-1.7c2.9-1.8,5.8-3.7,8.7-5.6a1.7,1.7,0,0,0,.6-.6,11.24,11.24,0,0,1,6.5-4.4,1.61,1.61,0,0,1,1.9.6,1.52,1.52,0,0,1-.2,2,12.06,12.06,0,0,1-2.4,2.1c-.4.3-.9.5-1.3-.1s.1-.8.6-1.1a4.51,4.51,0,0,0,2.1-2.2,5.67,5.67,0,0,0-1.5.3,11.8,11.8,0,0,0-4.1,2.9,3.44,3.44,0,0,0-.1,4.8c.6.7,1.2,1.4,1.9,2.1,1.6-.8,3.1-1.6,4.7-2.3s3.2-1.5,4.8-2.3,2.9-1.8,4.5-2.4c.1.1.2.2.2.3a6,6,0,0,1-.8.8c-3.9,2-7.8,4-11.8,6a9.29,9.29,0,0,1-1,.5c.6.7,1.1,1.4,1.6,2.1a5.44,5.44,0,0,1-.1,7,12.81,12.81,0,0,1-7.2,4.1,12.32,12.32,0,0,1-5.4.2c-2.4-.6-3.2-2.6-1.9-4.7a16.37,16.37,0,0,1,6-5.7c1.6-1,3.3-1.9,5.1-2.9-1.6-1.7-3.3-3.4-2.8-6.3-.4.3-.7.4-.9.6-2.3,1.6-4.6,3.2-7,4.7a20.81,20.81,0,0,1-4.5,2.2c-2.2.7-3.7-.4-3.7-2.7a31.22,31.22,0,0,1,.6-4.1,6.13,6.13,0,0,0-.6.4c-1.6,1-3.1,2-4.7,2.9a5.64,5.64,0,0,1-1.2.4c-1.4.4-2.3-.1-2.4-1.5a19.61,19.61,0,0,1,.1-3.4c0-.7.2-1.4.2-2.1l-.2-.2a13,13,0,0,0-1.8,1.5c-1.4,1.5-2.7,3.1-4,4.7-.7.8-1.4,1.6-2.1,2.3a1.72,1.72,0,0,1-1.2.2,1.43,1.43,0,0,1-.5-1.1c.1-.9.3-1.8.5-2.8-2.6,1.8-5.1,3.5-7.6,5.2-.3.2-.4.8-.5,1.2-1.4,4.9-2.6,9.8-4.1,14.6a57.72,57.72,0,0,1-5.7,13,20.43,20.43,0,0,1-7.1,7.5,9.62,9.62,0,0,1-8.4,1.2,7.79,7.79,0,0,1-5.1-10.5,25.27,25.27,0,0,1,6.5-9.3,7.53,7.53,0,0,0,2.5-4.6,93.27,93.27,0,0,1,5.6-20.7c1-2.6,1.9-5.3,2.9-7.9a6.89,6.89,0,0,0,.3-.8c-1.3.1-2.5.3-3.7.4-3.8.5-7.7,1.1-11.5,1.7a2.48,2.48,0,0,0-1.4.8,328.17,328.17,0,0,0-20,28.3c-1.5,2.2-3.1,4.4-4.6,6.6-.3.4-.4.8-.7,1.2a1,1,0,0,1-.4.5,11.27,11.27,0,0,1-1.8.3c-.3,0-.6-.5-.8-.8.3-.3.5-.8.8-.8,1,.1,1.5-.6,2-1.3,2.8-4.1,5.6-8.3,8.3-12.5,4.8-7.3,9.7-14.5,15.2-21.3a5.92,5.92,0,0,0,.4-.6,27.93,27.93,0,0,0-3.3.6c-6.1,1.2-12.3,2.5-18.4,3.7a12.5,12.5,0,0,0-1.9.3,14.24,14.24,0,0,0-1.6.5.85.85,0,0,1-.7,0c-.1-.1-.1-.4-.1-.6a1.83,1.83,0,0,1,1.8-1.4,8.16,8.16,0,0,0,2.7,0c5.3-.9,10.6-2,16-3,1.9-.3,3.8-.6,5.7-1a2.4,2.4,0,0,0,1.2-.7c3.4-3.9,6.7-7.9,10.1-11.7a121,121,0,0,1,12.4-12.4,22.76,22.76,0,0,1,3-2.1c.5-.3,1.4-.6,1.8,0a2.78,2.78,0,0,1,.3,1.8,35.7,35.7,0,0,1-1.6,4.6c-2.2,5.4-4.5,10.8-6.8,16.2-.1.4-.3.7-.5,1.3a22.28,22.28,0,0,0,2.7-.3c4.9-.7,9.8-1.5,14.6-2.3a11.54,11.54,0,0,1,2.6.1.78.78,0,0,1,.7,1.1,1.13,1.13,0,0,1-1.3.9c-.3-.1-.4-.4-.7-.7a.35.35,0,0,1,.1-.2c-1.4.2-2.8.5-4.1.6-4,.5-8,.9-12,1.4a21.66,21.66,0,0,0-2.5.4c-.2,0-.6.3-.6.5-3.5,8.8-6.7,17.7-8.3,27.1a25.12,25.12,0,0,0-.4,2.7c0,.1,0,.1.1.3.1-.1.2-.1.3-.2,5.7-4.9,11.9-9,18-13.4.3-.2.7-.6.7-.9.7-3.1,1.3-6.2,2-9.3a2.81,2.81,0,0,1,.1-.8c-.5.5-.9.8-1.3,1.2-2,1.9-4.1,3.8-6.1,5.7a4,4,0,0,1-1.6.8,1.09,1.09,0,0,1-1.4-1.4,13.47,13.47,0,0,1,4.5-6.5c1-.8,2.2-.1,2.3,1.3a4.59,4.59,0,0,1-.1,1l1.3-1.3a12.48,12.48,0,0,1,1.7-1.6c.3-.2.9-.4,1.2-.2a1.74,1.74,0,0,1,.6,1.2,15.44,15.44,0,0,1-.4,3l-1.2,5.7a1.09,1.09,0,0,1-.1.5,5.9,5.9,0,0,1,.8-.4c2.3-1.5,4.6-3,6.8-4.6a5.35,5.35,0,0,0,1.5-1.8c.5-.9.9-1.8,1.4-2.7.2-.3.8-.7,1.1-.6.6.2.4.8.2,1.2-.6,1.3-1.1,2.7-1.8,4-.4.8-1,1.6-1.5,2.4C221.9,249.6,222,249.7,222.2,249.8Zm-31.7,21a35.76,35.76,0,0,0-2.7,2.9,24.16,24.16,0,0,0-4.5,6.9c-1.8,5,1.4,9.6,6.8,9.6a10.31,10.31,0,0,0,6.5-2.5,27,27,0,0,0,6.9-9.5,102.38,102.38,0,0,0,6.8-19.5c.3-1.3.7-2.6,1-3.9-1.4.8-2.6,1.7-3.9,2.5a144.45,144.45,0,0,0-14.5,11.3c-.2.2-.5.5-.5.8-.1,1.4,0,2.8,0,4.3,1,0,1.1.7,1,1.4s-.4,1.2-1.1,1.3-1.1-.6-1.2-1.3C190.8,273.7,190.7,272.4,190.5,270.8Zm-5.9-32.5c.6,0,.8-.1,1.1-.1,4.6-.7,9.2-1.3,13.8-2a1.4,1.4,0,0,0,1.2-.9c2.6-6.3,5.3-12.6,7.9-18.9a29.92,29.92,0,0,0,1-3.2c.1-.2,0-.4,0-.8a8.7,8.7,0,0,0-1.4.8c-.9.7-1.8,1.3-2.6,2a178.76,178.76,0,0,0-15.3,16.1C188.4,233.6,186.6,235.8,184.6,238.3ZM250,265.2h0c.6-.1,1.1-.2,1.6-.3a14.07,14.07,0,0,0,7.6-3.5,4.34,4.34,0,0,0,.8-5.7,12.06,12.06,0,0,0-2.1-2.4.82.82,0,0,0-.7-.1c-3.2,1.7-6.4,3.4-9,6a7.89,7.89,0,0,0-2,3.1,1.64,1.64,0,0,0,1.2,2.3A19.8,19.8,0,0,0,250,265.2Zm-44.9-16.6c1.9-.7,3.9-3.5,3.5-4.9A8.85,8.85,0,0,0,205.1,248.6Zm36.3-3.8.2.2c.7-.6,1.6-1,1.5-2.2C242.6,243.4,242,244.1,241.4,244.8Z" transform="translate(-155.1 -111.9)"/><path class="cls-1" d="M190.2,291.4a9.29,9.29,0,0,1-2.9-.5,7.85,7.85,0,0,1-5-4.2,8.58,8.58,0,0,1-.2-6.5,23.87,23.87,0,0,1,6.6-9.3,6.73,6.73,0,0,0,2.4-4.5,86.89,86.89,0,0,1,5.7-20.7c.7-1.9,1.4-3.8,2.1-5.6.3-.8.6-1.6.9-2.3.1-.1.1-.3.2-.5h0c-.3,0-.6.1-.9.1l-2.5.3c-3.8.5-7.7,1.1-11.5,1.7a3.29,3.29,0,0,0-1.3.7,334.46,334.46,0,0,0-20,28.3c-.9,1.4-1.9,2.8-2.9,4.2-.6.8-1.1,1.6-1.7,2.4-.1.2-.3.5-.4.7a2.19,2.19,0,0,1-.3.5h0c-.1.2-.3.5-.5.5h-.1a5.54,5.54,0,0,1-1.8.2c-.3,0-.5-.3-.7-.5s-.2-.2-.2-.3l-.1-.1.1-.1c.1-.1.2-.2.2-.3.2-.3.4-.6.7-.6.9.1,1.3-.5,1.8-1.2,2.6-3.8,5.3-7.9,8.3-12.5,4.4-6.6,9.5-14.2,15.2-21.3l.2-.2c-.2,0-.5.1-.7.1a14.35,14.35,0,0,0-2.2.4c-3.2.6-6.3,1.3-9.5,1.9-3,.6-6,1.2-8.9,1.8a2.77,2.77,0,0,1-.9.1c-.3,0-.7.1-1,.1l-.9.3a1.45,1.45,0,0,1-.7.2,1.1,1.1,0,0,1-.8,0c-.3-.1-.2-.8-.2-.8a2.13,2.13,0,0,1,2-1.6h.4a8.09,8.09,0,0,0,2.2,0c3.4-.6,6.8-1.2,10.1-1.9,2-.4,3.9-.7,5.9-1.1a21.66,21.66,0,0,1,2.5-.4c1-.2,2.1-.3,3.1-.5a2,2,0,0,0,1.1-.6c1.3-1.5,2.7-3.1,4-4.7,2-2.3,4-4.7,6.1-7.1a131.73,131.73,0,0,1,12.4-12.4,30.15,30.15,0,0,1,3-2.1q1.35-.75,2.1,0a2.36,2.36,0,0,1,.3,2,42.67,42.67,0,0,1-1.6,4.6c-1.5,3.7-3.1,7.4-4.6,11-.7,1.8-1.5,3.5-2.2,5.3a6.89,6.89,0,0,0-.3.8c0,.1,0,.1-.1.2a1.27,1.27,0,0,0,.6-.1c.6-.1,1.2-.1,1.7-.2,1.8-.3,3.6-.6,5.4-.8,3-.5,6.1-1,9.2-1.4a11.11,11.11,0,0,1,2.6.1h0a1.23,1.23,0,0,1,.8.4,1.15,1.15,0,0,1,.1,1,1.25,1.25,0,0,1-1.5,1c-.3-.1-.4-.3-.6-.5s-.1-.2-.2-.2l-.1-.1h0c-.3.1-.6.1-1,.2a25.35,25.35,0,0,1-2.9.4l-7.7.9c-1.4.2-2.9.3-4.3.5h-.1l-2.4.3a.66.66,0,0,0-.5.4c-3.3,8.4-6.6,17.4-8.3,27.1l-.3,2.1-.1.6h0c4.1-3.5,8.6-6.7,13-9.8,1.7-1.2,3.4-2.4,5-3.6a1.78,1.78,0,0,0,.7-.8c.6-2.6,1.1-5.2,1.7-7.8l.3-1.6v-.3l-.1.1a5,5,0,0,1-.8.7c-.6.5-1.1,1-1.7,1.6-1.5,1.4-3,2.8-4.5,4.1a4.77,4.77,0,0,1-1.6.8,1.38,1.38,0,0,1-1.4-.3,1.44,1.44,0,0,1-.3-1.3,13.47,13.47,0,0,1,4.6-6.6,1.38,1.38,0,0,1,1.6-.2,2,2,0,0,1,1,1.6v.5l.9-.9.5-.5,1.2-1.2a1.49,1.49,0,0,1,1.4-.3,1.75,1.75,0,0,1,.7,1.4,13.61,13.61,0,0,1-.4,3c-.3,1.3-.5,2.6-.8,3.9-.1.6-.3,1.2-.4,1.8v.2c.2-.1.3-.2.4-.2.5-.4,1.1-.7,1.6-1.1,1.7-1.1,3.5-2.3,5.2-3.5a5.79,5.79,0,0,0,1.4-1.7,5.39,5.39,0,0,0,.7-1.3,6.38,6.38,0,0,1,.8-1.4,1.46,1.46,0,0,1,1.3-.7,1,1,0,0,1,.5.4c.2.3,0,.8-.1,1.1l-.3.7-1.5,3.3c-.3.6-.7,1.1-1,1.7a2.09,2.09,0,0,1-.4.6h.1c.2-.3.5-.5.7-.8a18,18,0,0,1,1.9-2c1.4-1.4,2.8-2.8,4-3.9a2.77,2.77,0,0,1,.9-.5,1.35,1.35,0,0,1,1.1,0,1,1,0,0,1,.4.9,12.1,12.1,0,0,1-.1,1.9v.2c0,.4-.1.7-.1,1.1a8.75,8.75,0,0,0-.2,1.6c0,.7.1,1.2.4,1.4a1.29,1.29,0,0,0,1.2-.1,40,40,0,0,0,5.5-3.3,11.9,11.9,0,0,0,2-1.9l1.3-1.3a12.78,12.78,0,0,1,2.1-1.4.91.91,0,0,1,1.1.2,1.64,1.64,0,0,1,.2,1.2,4.09,4.09,0,0,1-2.5,2.9c-1.5.6-2,1.8-2.4,3.3a5.26,5.26,0,0,0-.2,1.9,1.78,1.78,0,0,0,.4,1,1.43,1.43,0,0,0,1.1.3,9.49,9.49,0,0,0,4.4-1.6c3.1-1.9,6.1-3.9,8.7-5.6.2-.1.4-.4.6-.6,1.4-2.1,3.5-3.5,6.6-4.5a1.68,1.68,0,0,1,2.1.7,1.82,1.82,0,0,1-.2,2.3,25,25,0,0,1-2.4,2.2,1,1,0,0,1-1,.3.63.63,0,0,1-.6-.5.88.88,0,0,1-.1-.7,1.58,1.58,0,0,1,.7-.7h.1a3.92,3.92,0,0,0,1.8-1.8h-.2a1.88,1.88,0,0,0-.8.2,12.93,12.93,0,0,0-4.1,2.9,3.29,3.29,0,0,0-.1,4.6,16.61,16.61,0,0,0,1.3,1.4c.2.2.3.4.5.6l1.3-.6c1.1-.5,2.2-1.1,3.3-1.6,1.7-.8,3.3-1.6,4.8-2.3a11.78,11.78,0,0,0,1.9-1.1,12.64,12.64,0,0,1,2.6-1.3l.1-.1.4.6-.1.1c-.1.1-.2.2-.2.3a2.65,2.65,0,0,1-.6.5c-3,1.5-6.1,3.1-9.1,4.6l-2.7,1.4a4.88,4.88,0,0,1-.7.3l-.2.1.4.5a17.1,17.1,0,0,0,1.1,1.4,5.73,5.73,0,0,1-.1,7.3,13,13,0,0,1-7.3,4.1,11.59,11.59,0,0,1-5.5.2,3.58,3.58,0,0,1-2.5-1.9,3.78,3.78,0,0,1,.4-3.2,16.29,16.29,0,0,1,6.1-5.8c1.1-.7,2.3-1.3,3.5-2,.5-.3.9-.5,1.4-.8l-.1-.1c-1.4-1.5-2.9-3.1-2.6-5.7h0a2.19,2.19,0,0,0-.5.3l-2.1,1.5c-1.6,1.1-3.2,2.2-4.9,3.3a21.28,21.28,0,0,1-4.6,2.2,3.2,3.2,0,0,1-2.9-.2,3.12,3.12,0,0,1-1.1-2.7,13.51,13.51,0,0,1,.4-2.8c.1-.3.1-.6.2-.8l-.2.1c-.4.3-.8.5-1.2.8-1.1.7-2.3,1.4-3.4,2.1a4.18,4.18,0,0,1-1,.4l-.2.1a2.41,2.41,0,0,1-1.9-.1,2.23,2.23,0,0,1-.8-1.6,26.15,26.15,0,0,1,0-2.8v-.6a5.9,5.9,0,0,1,.2-1.4.75.75,0,0,1,.1-.5c-.1.1-.3.2-.4.3a10.59,10.59,0,0,0-1.2,1c-.8.9-1.6,1.9-2.4,2.8l-1.6,1.9a23.91,23.91,0,0,1-2.2,2.3,1.44,1.44,0,0,1-1.4.2,1.61,1.61,0,0,1-.6-1.3c.1-.7.2-1.3.3-2,0-.1.1-.3.1-.4-.5.3-.9.6-1.4.9-2,1.4-3.9,2.6-5.8,4-.2.1-.3.6-.4.9v.2c-.5,1.6-.9,3.3-1.3,4.9-.9,3.2-1.8,6.5-2.8,9.8a55.43,55.43,0,0,1-5.7,13,20.24,20.24,0,0,1-7.1,7.6A10.38,10.38,0,0,1,190.2,291.4Zm10.1-54.6-.1.3c0,.1-.1.2-.1.3s-.1.4-.2.5c-.3.8-.6,1.6-.9,2.3-.7,1.8-1.4,3.7-2.1,5.6a91.14,91.14,0,0,0-5.6,20.6,7.09,7.09,0,0,1-2.5,4.7,25.13,25.13,0,0,0-6.5,9.2,7.84,7.84,0,0,0,.1,6.2,7.74,7.74,0,0,0,4.8,4c2.7.9,5.4.5,8.3-1.2a20.93,20.93,0,0,0,7-7.4,56.51,56.51,0,0,0,5.7-12.9c1-3.2,1.9-6.6,2.8-9.8.4-1.6.9-3.3,1.3-4.9v-.2c.1-.4.2-.9.6-1.1,1.9-1.4,3.8-2.6,5.8-4l1.8-1.2.4-.3.1.5c-.1.3-.1.6-.2.9a14.81,14.81,0,0,0-.3,1.9,1.9,1.9,0,0,0,.3.9,1.23,1.23,0,0,0,1-.2c.8-.7,1.4-1.5,2.1-2.2s1.1-1.3,1.6-1.9c.8-.9,1.6-1.9,2.4-2.8a10.59,10.59,0,0,1,1.2-1c.2-.1.4-.3.6-.4l.1-.1.4.3v.1c0,.2-.1.4-.1.6-.1.5-.1.9-.2,1.4v.6a12.19,12.19,0,0,0,0,2.7,2.26,2.26,0,0,0,.6,1.3,1.89,1.89,0,0,0,1.5.1l.2-.1a2.47,2.47,0,0,0,.9-.4c1.1-.7,2.3-1.4,3.4-2.1.4-.3.8-.5,1.2-.8l1-.6-.1.4a5.85,5.85,0,0,0-.2,1.3,12.59,12.59,0,0,0-.4,2.7,2.72,2.72,0,0,0,1,2.4,3,3,0,0,0,2.5.2A23.13,23.13,0,0,0,246,251c1.7-1,3.3-2.2,4.9-3.3l2.1-1.5c.2-.1.3-.2.5-.3s.2-.1.4-.2l.4-.2-.1.4c-.5,2.6.9,4.1,2.4,5.7l.5.5-.2.1c-.6.3-1.1.6-1.6.9-1.2.7-2.3,1.3-3.4,2a15.44,15.44,0,0,0-5.9,5.7,3.23,3.23,0,0,0-.4,2.8,2.75,2.75,0,0,0,2.2,1.6,10.78,10.78,0,0,0,5.3-.2,12.71,12.71,0,0,0,7.1-4,5.29,5.29,0,0,0,.1-6.8l-1.1-1.4-.7-.9.6-.3c.2-.1.5-.2.7-.3l2.7-1.4c3-1.5,6.1-3.1,9.1-4.6.2-.1.3-.3.5-.5a.1.1,0,0,1,.1-.1l-.1-.1a14.14,14.14,0,0,0-2.4,1.3,12.81,12.81,0,0,1-2,1.1c-1.5.7-3.1,1.4-4.8,2.3-1.1.5-2.2,1.1-3.3,1.6l-1.6.8-.1-.1a4.35,4.35,0,0,1-.6-.7,16.61,16.61,0,0,1-1.3-1.4,3.72,3.72,0,0,1,.1-5.1,13.7,13.7,0,0,1,4.2-3,3,3,0,0,1,1-.2.9.9,0,0,0,.5-.1l.3-.1-.1.3a4.5,4.5,0,0,1-2.2,2.3h-.1c-.2.1-.5.3-.5.4a.76.76,0,0,0,.1.4c.1.2.2.3.4.3a1.42,1.42,0,0,0,.6-.2,22.53,22.53,0,0,0,2.4-2.1,1.51,1.51,0,0,0,.2-1.8c-.4-.7-1.1-.6-1.7-.5a10.94,10.94,0,0,0-6.4,4.3,2.34,2.34,0,0,1-.7.7c-2.6,1.7-5.6,3.6-8.7,5.6a10,10,0,0,1-4.6,1.7,2,2,0,0,1-1.4-.4,1.66,1.66,0,0,1-.5-1.2,6.82,6.82,0,0,1,.2-2.1c.4-1.5,1-2.9,2.7-3.5a3.56,3.56,0,0,0,2.3-2.6,1.06,1.06,0,0,0-.1-.8.82.82,0,0,0-.7-.1,11.33,11.33,0,0,0-2,1.3,15.93,15.93,0,0,0-1.3,1.3,9.52,9.52,0,0,1-2.1,1.9,40,40,0,0,1-5.5,3.3,1.53,1.53,0,0,1-1.6.1,2.16,2.16,0,0,1-.6-1.8,8.75,8.75,0,0,1,.2-1.6,4.1,4.1,0,0,0,.1-1.1v-.2a12.1,12.1,0,0,0,.1-1.9.71.71,0,0,0-.3-.6.85.85,0,0,0-.7,0,1.77,1.77,0,0,0-.8.5c-1.2,1.1-2.6,2.5-4,3.9-.6.6-1.3,1.3-1.9,2-.3.3-.5.6-.8.9l-.1.1-.7-.4.1-.2c.2-.2.3-.5.5-.7a14,14,0,0,0,1-1.6l1.5-3.3.3-.7a1.13,1.13,0,0,0,.1-.8c0-.1-.1-.1-.2-.2s-.7.2-.9.5a6.11,6.11,0,0,0-.7,1.4,8.26,8.26,0,0,1-.7,1.3,5.35,5.35,0,0,1-1.5,1.8c-1.7,1.2-3.5,2.4-5.2,3.5-.5.4-1.1.7-1.6,1.1-.2.1-.3.2-.5.3s-.2.1-.3.2l-.3.2v-1c.1-.6.3-1.2.4-1.8.3-1.3.6-2.6.8-3.9a13.61,13.61,0,0,0,.4-3,1.39,1.39,0,0,0-.5-1,1.3,1.3,0,0,0-1,.2,12,12,0,0,0-1.2,1.1l-.5.5-1.7,1.6v-1.5a1.34,1.34,0,0,0-.8-1.3,1.09,1.09,0,0,0-1.2.2,13.4,13.4,0,0,0-4.5,6.4c-.1.4-.1.7.2.9a1.09,1.09,0,0,0,1,.2,4.42,4.42,0,0,0,1.5-.8c1.5-1.4,3-2.8,4.5-4.1.6-.5,1.1-1,1.7-1.6.3-.2.5-.5.8-.7l.9-.8v1.3l-.3,1.6c-.5,2.6-1.1,5.2-1.7,7.8-.1.5-.7.9-.8,1.1-1.7,1.2-3.4,2.4-5,3.6-4.3,3.1-8.8,6.3-12.9,9.8-.1.1-.1.1-.2.1a.1.1,0,0,0-.1.1l-.2.1-.1-.2V267c0-.1-.1-.2,0-.2l.1-.6.3-2.1c1.6-9.7,4.9-18.8,8.3-27.2a1,1,0,0,1,.8-.6,19.67,19.67,0,0,1,2.4-.3h.1c1.4-.2,2.9-.3,4.3-.5l7.7-.9c.9-.1,1.9-.3,2.8-.4.4-.1.9-.1,1.3-.2h.3l-.1.4c0,.1.1.1.1.2s.2.3.3.3a.86.86,0,0,0,1-.7c.1-.3.1-.5-.1-.6a.76.76,0,0,0-.5-.2h0a10.48,10.48,0,0,0-2.5-.1c-3.1.5-6.2.9-9.2,1.4-1.8.3-3.6.6-5.4.8-.6.1-1.2.1-1.8.2a2.77,2.77,0,0,0-.9.1h-.3l.1-.3c.1-.2.1-.3.2-.5s.2-.5.3-.8c.7-1.8,1.5-3.5,2.2-5.3,1.5-3.6,3.1-7.3,4.6-11a42.67,42.67,0,0,0,1.6-4.6,2.73,2.73,0,0,0-.2-1.6c-.4-.5-1.2-.1-1.5.1a31.07,31.07,0,0,0-3,2,144.49,144.49,0,0,0-12.4,12.3c-2.1,2.3-4.1,4.7-6.1,7.1-1.3,1.5-2.7,3.1-4,4.7a2.19,2.19,0,0,1-1.4.8c-1,.2-2.1.4-3.1.5-.8.1-1.7.3-2.5.4-2,.4-3.9.7-5.9,1.1-3.3.6-6.7,1.3-10.1,1.9a9.64,9.64,0,0,1-2.4,0h-.4a1.42,1.42,0,0,0-1.5,1.2v.4a.75.75,0,0,0,.5-.1c.2-.1.4-.1.6-.2l.9-.3a3.4,3.4,0,0,1,1-.1c.3,0,.6-.1.9-.1,3-.6,6-1.2,8.9-1.8,3.2-.6,6.3-1.3,9.5-1.9.7-.1,1.4-.3,2.2-.4.4-.1.8-.1,1.1-.2l.5-.1-.3.4c-.1.1-.1.2-.2.3a.76.76,0,0,0-.2.4c-5.7,7.1-10.8,14.7-15.2,21.3-3,4.5-5.7,8.6-8.3,12.5a2.25,2.25,0,0,1-2.2,1.4c-.1,0-.3.3-.4.4s-.1.1-.1.2.1.1.1.2.3.4.4.4a8.75,8.75,0,0,0,1.6-.2h.1c.1,0,.2-.3.3-.3h0c.1-.2.2-.3.3-.5s.3-.5.4-.8c.6-.8,1.1-1.6,1.7-2.4,1-1.4,2-2.8,2.9-4.2a341.37,341.37,0,0,1,20-28.3,2.9,2.9,0,0,1,1.5-.9c3.8-.6,7.7-1.2,11.5-1.7l2.5-.3c.4,0,.8-.1,1.2-.1ZM156,244.5Zm34,45.9a7.5,7.5,0,0,1-6.2-3,7.26,7.26,0,0,1-.7-6.9,23.43,23.43,0,0,1,4.5-7c.6-.7,1.2-1.3,1.8-2l.9-.9.3-.3.2,1.8c.1,1,.3,2,.4,3,.1.8.4,1.1.9,1.1s.8-.4.9-1.1c0-.5,0-.8-.2-.9s-.4-.2-.7-.2h-.2v-4.4a1.33,1.33,0,0,1,.6-.9,144.91,144.91,0,0,1,14.6-11.3l.4-.3a20.71,20.71,0,0,1,3.5-2.2l.4-.2-.4,1.7c-.2.9-.5,1.8-.7,2.7a103.58,103.58,0,0,1-6.8,19.6,27.45,27.45,0,0,1-7,9.6,11.44,11.44,0,0,1-6.5,2.1Zm.3-19.2-.6.6c-.6.7-1.2,1.3-1.8,1.9a21.54,21.54,0,0,0-4.4,6.9,6.77,6.77,0,0,0,.7,6.5,7,7,0,0,0,5.9,2.8,9.6,9.6,0,0,0,6.4-2.5c2.7-2.2,4.8-5.1,6.9-9.4a100,100,0,0,0,6.8-19.5c.2-.9.5-1.8.7-2.7l.2-.8a31.27,31.27,0,0,0-3,2l-.4.3a156.64,156.64,0,0,0-14.5,11.3c-.3.3-.5.5-.5.7v4a1.23,1.23,0,0,1,.8.4,1.68,1.68,0,0,1,.3,1.2,1.52,1.52,0,0,1-1.3,1.5c-1.2.1-1.3-1-1.4-1.4-.1-1-.3-1.9-.4-3Zm59.8-5.7h-.2c-.3-.1-.5-.1-.8-.2a11.63,11.63,0,0,1-1.8-.4,1.94,1.94,0,0,1-1.3-2.6,7.08,7.08,0,0,1,2-3.2c2.6-2.6,5.8-4.3,9.1-6a1.15,1.15,0,0,1,1,.1l.4.4a12,12,0,0,1,1.7,2.1,4.75,4.75,0,0,1-.8,6,14.56,14.56,0,0,1-7.8,3.6,4.1,4.1,0,0,1-1.1.1h-.4Zm7.4-12.1h-.2a38.87,38.87,0,0,0-9,5.9,7.18,7.18,0,0,0-1.9,3,1.5,1.5,0,0,0,1,2.1,8.47,8.47,0,0,0,1.7.4c.2,0,.4.1.6.1h.6c.4,0,.7-.1,1.1-.1a13.51,13.51,0,0,0,7.5-3.5,4.3,4.3,0,0,0,.8-5.5,15.58,15.58,0,0,0-1.6-2l-.4-.4Zm-52.7-4.5.1-.3a9.64,9.64,0,0,1,3.6-5.1l.2-.1.1.3c.4,1.6-1.7,4.5-3.7,5.2Zm3.6-4.9a9.35,9.35,0,0,0-3.1,4.3C206.9,247.5,208.5,245.4,208.4,244Zm33.3,1.2-.5-.4,2.2-2.5v.5a2.06,2.06,0,0,1-1.2,2c-.1.1-.3.2-.4.3Zm1.2-1.8-.9,1A2.84,2.84,0,0,0,242.9,243.4Zm-58.7-4.9.3-.4c.6-.8,1.2-1.5,1.9-2.3,1.3-1.6,2.5-3.1,3.8-4.6a163.91,163.91,0,0,1,15.3-16.1c.8-.7,1.7-1.4,2.6-2.1a7.26,7.26,0,0,1,.9-.5c.2-.1.3-.2.5-.3l.3-.2v1.1a2.92,2.92,0,0,0-.2.9,21.72,21.72,0,0,1-.7,2.4c-1.4,3.4-2.9,6.9-4.3,10.3-1.2,2.9-2.4,5.7-3.6,8.6a1.52,1.52,0,0,1-1.3,1c-3.3.5-6.7.9-9.9,1.4l-3.9.6a1.27,1.27,0,0,0-.6.1h-.5Zm25.2-25.7a.35.35,0,0,0-.2.1,5.58,5.58,0,0,0-.8.5,25.6,25.6,0,0,0-2.6,2,175.94,175.94,0,0,0-15.3,16.1c-1.3,1.5-2.5,3-3.8,4.6-.5.6-1,1.3-1.6,1.9h0a1.27,1.27,0,0,0,.6-.1l3.9-.6c3.2-.5,6.6-1,9.9-1.4a1.08,1.08,0,0,0,1-.8c1.2-2.9,2.4-5.7,3.6-8.6,1.4-3.4,2.9-6.9,4.3-10.3a20.16,20.16,0,0,0,.7-2.3,2.92,2.92,0,0,0,.2-.9c.1.1.1,0,.1-.2Z" transform="translate(-155.1 -111.9)"/><path class="cls-1" d="M380.2,247c1.3-1.1,2.7-2.1,4-3.2,1-.8,2-1.5,3.1-2.3a1.4,1.4,0,0,1,.9-.3c.6-.1.9.3.6.8a6.55,6.55,0,0,1-1.5,1.8c-.2.2-.6,0-1,0,0-.1-.1-.1-.1-.2l-7.1,5.9a7.26,7.26,0,0,0-.5.9,10.57,10.57,0,0,0,8,.3,39.71,39.71,0,0,0,9-5c.5-.3,1-.7,1.5-1,.1-.1.4,0,.5,0a1.27,1.27,0,0,1-.1.6c0,.1-.2.2-.3.3-3.4,2-6.7,4-10.2,5.9a9.4,9.4,0,0,1-6.8.6c-2.1-.5-2.1-.5-2.8,1.5a114.79,114.79,0,0,0-4.4,15.2c-.1.6-.4,1.1.2,1.7.1.1-.3.7-.5.9-.4.3-.8,0-.9-.4a4.3,4.3,0,0,1,0-1.6,77.69,77.69,0,0,1,3.5-13.4c.4-1.3.8-2.6,1.2-3.8-.4-.3-1-.5-1-.7a1.85,1.85,0,0,1,.7-1.2,6.21,6.21,0,0,0,2.4-3.9c-1.4.8-2.7,1.6-4.2,2.3a12.41,12.41,0,0,1-3.3.9,1.53,1.53,0,0,1-1.8-1.6,28,28,0,0,1,0-2.9c-.8.8-1.6,1.5-2.4,2.3-.7.6-1.3,1.3-2,1.8a2.59,2.59,0,0,1-1.7.3c-.7-.2-.5-1-.4-1.6a7.89,7.89,0,0,1,.3-1.3c-.1,0-.3,0-.3.1-3.5,1.9-7,3.8-10.5,5.6-.5.3-.7.5-.4,1.2a14.08,14.08,0,0,1-.2,11.2,26.66,26.66,0,0,1-16.6,14.9,15.18,15.18,0,0,1-4.7.6c-3.7-.1-5.5-2.6-4.6-6.2a13.31,13.31,0,0,1,1.5-3.2,31.35,31.35,0,0,1,8.6-8.8c4.3-3.1,8.7-5.9,13-8.8a6.35,6.35,0,0,1,1.2-.7,7.26,7.26,0,0,0-.5-.9,28.48,28.48,0,0,0-2.3-2.6,2.11,2.11,0,0,1,0-3.4c.9-.9,1.7-1.7,2.5-2.6a4.13,4.13,0,0,0,.7-1.1,14.59,14.59,0,0,0-5.3,2.6l-1.5,1.2a.83.83,0,0,1-.8.2c-.6-.4-1.1,0-1.6.2a13.21,13.21,0,0,1-6.8.8c-.5-.1-.8,0-.9.6a7.87,7.87,0,0,1-2,3.4,2.59,2.59,0,0,1-1.1.7c-1.1.3-1.9-.3-1.7-1.5a6.11,6.11,0,0,1,.3-1.3,11.41,11.41,0,0,1,.6-1.5c-.4.3-.6.5-.9.7a53.22,53.22,0,0,1-23.1,11.3,21.17,21.17,0,0,1-10-.2c-.5,1.5-1.1,3-1.6,4.5-2,5.8-2.3,5.8-1.8,6.7.1.2-.2.9-.5,1.2a.64.64,0,0,1-1.1-.5c0-.7,0-2.1,2.4-8.6.4-1.2.8-2.3,1.3-3.5a1.2,1.2,0,0,0-1.5.1,31.36,31.36,0,0,1-3.1,1.8,7.65,7.65,0,0,1-3,.6,1.54,1.54,0,0,1-1.6-2.1,2.85,2.85,0,0,1,2.5-2.3,33.14,33.14,0,0,1,4.4.2,2.23,2.23,0,0,0,1.4-.3,7.5,7.5,0,0,0,3.2-4c4.2-11.4,8.5-22.7,12.8-34,.7-1.8,1.5-3.6,2.3-5.5a11.76,11.76,0,0,0,.7-2c0-.1.1-.3.1-.4.3-.8,1-1.4,1.4-1.2.9.4.4,1.2.2,1.7-1.1,2.5-2.3,5-3.5,7.5-3.4,7.4-6.2,15.1-9,22.8l-3.6,9.9c-.1.3-.2.7-.3,1,.1,0,.1.1.2.1.5-.4,1-.9,1.5-1.3l12-12.9c5.2-5.6,10.3-11.3,16.1-16.3,1.5-1.3,3-2.6,4.5-3.8a2.69,2.69,0,0,1,1.5-.5c.2,0,.5.3.6.5s-.1.5-.3.6c-1.2.9-2.5,1.7-3.6,2.6-5.2,4.2-9.7,9.1-14.3,13.9-5.2,5.5-10.3,11-15.5,16.6a19.47,19.47,0,0,1-2.6,2.4,5.58,5.58,0,0,0-2,3.4c1.2.2,2.4.4,3.6.5a30.81,30.81,0,0,0,14-2.8c4.9-2.1,9.7-4.3,13.8-7.8,1.6-1.4,3-3.1,4.6-4.6a12,12,0,0,1,1.2-1.1c.2-.1.7-.2.9,0a1,1,0,0,1,.2.9c-.1.7-.8,1.2-.3,2,.2.3.4.7.7.8a9.82,9.82,0,0,0,5.1-.2,9.12,9.12,0,0,0,3.7-1.8,43.26,43.26,0,0,1,5.1-3.1,6.64,6.64,0,0,1,2-.6c1.2-.1,1.9.7,1.4,1.8a6.19,6.19,0,0,1-1.1,1.7,35.69,35.69,0,0,1-2.8,2.7,1,1,0,0,0-.1,1.6c1.1,1.2,2.1,2.4,3.3,3.7,1.3-.7,2.6-1.5,4-2.2,2.6-1.4,5.3-2.7,7.9-4a15.76,15.76,0,0,0,1.5-1.2c.6-.6,1-1.3,1.6-1.8a4.53,4.53,0,0,1,1.9-1.1c1-.3,1.7.3,1.5,1.4a3.71,3.71,0,0,1-.2.9c.9-.1,1,.5,1,1.2s-.1,1.6-.1,2.4c0,1.3.4,1.8,1.7,1.5a11.42,11.42,0,0,0,3.5-1.3c.9-.4,1.9-.7,2.3-1.8,0-.1.2-.1.3-.1a2.34,2.34,0,0,0,1.7-1.5,97.54,97.54,0,0,1,8-16.2,51.2,51.2,0,0,1,4-5.2,10.28,10.28,0,0,1,2.9-2.1c1-.6,2,.1,1.9,1.3a6,6,0,0,1-.6,2.2,62.31,62.31,0,0,1-7.1,11.2c-2.5,3.1-5.1,6.1-7.6,9.2a10.54,10.54,0,0,0-1.3,2.6C380.1,246.9,380.2,246.9,380.2,247Zm-29.4,6.2c-.4.2-.5.2-.6.3-4.3,2.8-8.6,5.6-12.8,8.6-3.7,2.6-7.2,5.6-9.5,9.6a9.93,9.93,0,0,0-1.2,3q-.9,3.75,3,4.5a10.34,10.34,0,0,0,5.5-.6,26.75,26.75,0,0,0,14.6-12.5,14.81,14.81,0,0,0,1.9-9.2A15.4,15.4,0,0,0,350.8,253.2Zm31.4-11.5c.3-.3.5-.4.6-.6a97.44,97.44,0,0,0,9.6-12.6,56.07,56.07,0,0,0,2.9-5.4,6.75,6.75,0,0,0,.2-1.4,6.71,6.71,0,0,0-1.5.6,44.87,44.87,0,0,0-4.1,4.6c-3.2,4.4-5.4,9.3-7.6,14.3A1.34,1.34,0,0,1,382.2,241.7Zm-90.6,16.4c0-.1,0-.1-.1-.2l-2.2-.3a3.48,3.48,0,0,0-2.8.8,2.93,2.93,0,0,0-.4,1.6c0,.2.8.4,1.2.4C289.1,260.1,290.3,259,291.6,258.1Zm38.5-8.1a4,4,0,0,0,2.6-3.6,5.28,5.28,0,0,1-1.2-.1C331,247.4,330.1,248.5,330.1,250Zm34.4-2.3.2.2a15.37,15.37,0,0,0,1.9-1.7,25.32,25.32,0,0,0,1.2-2.3l.3-.9A8.73,8.73,0,0,0,364.5,247.7Z" transform="translate(-155.1 -111.9)"/><path class="cls-1" d="M330.8,280.2h-.4a4.65,4.65,0,0,1-4.8-6.4,13.16,13.16,0,0,1,1.5-3.3,31.34,31.34,0,0,1,8.7-8.8c3-2.2,6.1-4.2,9.2-6.2,1.3-.9,2.6-1.7,3.9-2.6.2-.2.5-.3.7-.5s.2-.1.3-.2-.1-.1-.1-.2l-.3-.6-.3-.3c-.6-.8-1.3-1.5-2-2.3a2.25,2.25,0,0,1,0-3.6c.8-.8,1.6-1.7,2.5-2.6a4.23,4.23,0,0,0,.5-.7,15.42,15.42,0,0,0-4.8,2.4,4.35,4.35,0,0,0-.7.6,5.55,5.55,0,0,1-.8.6s-.6.5-1,.3a1.1,1.1,0,0,0-1.1.1c-.1,0-.2.1-.3.1a13.21,13.21,0,0,1-6.9.8c-.4-.1-.6,0-.7.4a8.43,8.43,0,0,1-2.1,3.5,2.52,2.52,0,0,1-1.2.7,1.46,1.46,0,0,1-2-1.7,4.41,4.41,0,0,1,.3-1.4c.1-.3.2-.5.3-.8l-.3.2A53.47,53.47,0,0,1,305.7,259a22,22,0,0,1-9.9-.1c-.2.4-.3.9-.5,1.3-.4,1.1-.7,2.1-1.1,3.1-.6,1.7-1,2.8-1.3,3.7-.8,2.2-.8,2.3-.5,2.8s-.3,1.1-.5,1.4a1,1,0,0,1-.9.2.87.87,0,0,1-.6-.8c0-.5-.1-1.8,2.4-8.7l1.2-3.3c-.4-.2-.7-.1-1.2.2a2.09,2.09,0,0,0-.6.4,12.29,12.29,0,0,1-2.5,1.4,9,9,0,0,1-3.1.6,2,2,0,0,1-1.5-.6,2.23,2.23,0,0,1-.4-1.8,2.87,2.87,0,0,1,2.7-2.4,13.13,13.13,0,0,1,2.8.1c.5,0,1.1.1,1.6.1a3.92,3.92,0,0,0,1.3-.2,7.47,7.47,0,0,0,3.1-3.9c3.8-10.4,7.8-20.9,11.7-31l1.1-3c.4-1.1.9-2.3,1.4-3.4l.9-2.1c.2-.5.3-.9.5-1.4.1-.2.1-.4.2-.6v-.2c0-.1,0-.2.1-.2a2.1,2.1,0,0,1,1.1-1.3.64.64,0,0,1,.6,0c1,.5.6,1.3.3,1.8,0,.1-.1.1-.1.2-1,2.2-2,4.5-3.1,6.7l-.4.8c-3.5,7.4-6.3,15.2-9,22.8-.7,1.9-1.4,3.9-2.1,5.8-.5,1.4-1,2.7-1.5,4.1a1.45,1.45,0,0,0-.2.7h0c.1-.1.2-.1.2-.2.3-.3.7-.6,1-.9l.6-.7c3.7-4,7.6-8.1,11.4-12.2l1.4-1.5A186.44,186.44,0,0,1,327,221.9c1.7-1.4,3.1-2.7,4.5-3.8a3.82,3.82,0,0,1,1.6-.6c.3-.1.7.4.8.7a1,1,0,0,1-.3.9c-.5.4-1,.7-1.5,1.1-.7.5-1.4,1-2.1,1.6-5,4-9.4,8.8-13.8,13.3l-.5.6c-2.3,2.5-4.7,5-7,7.5-2.8,3-5.7,6-8.5,9.1a28.77,28.77,0,0,1-2.6,2.5,5.1,5.1,0,0,0-1.8,3c.3,0,.6.1.9.1a19,19,0,0,0,2.5.3,30.57,30.57,0,0,0,13.9-2.8c4.4-1.9,9.5-4.2,13.8-7.7a30.24,30.24,0,0,0,3.1-3.1l1.5-1.5.2-.2a4.81,4.81,0,0,1,1.1-.9,1.08,1.08,0,0,1,1.1,0c.3.2.3.8.3,1.1a1.85,1.85,0,0,1-.2.7,1.29,1.29,0,0,0-.1,1.2,1.44,1.44,0,0,0,.6.7,9.32,9.32,0,0,0,5-.2,10.22,10.22,0,0,0,3.7-1.7,30.7,30.7,0,0,1,4.3-2.6c.3-.2.6-.3.9-.5a6.12,6.12,0,0,1,2.1-.6,1.57,1.57,0,0,1,1.5.5,1.51,1.51,0,0,1,.1,1.6,4.52,4.52,0,0,1-1.1,1.7l-2.1,2.1a4.62,4.62,0,0,0-.7.7.85.85,0,0,0-.1,1.3c.7.9,1.5,1.7,2.3,2.6l.9,1c.3-.2.7-.4,1-.6.9-.5,1.9-1.1,2.9-1.6l3.6-1.8c1.4-.7,2.9-1.5,4.4-2.2a5.26,5.26,0,0,0,1.4-1.2c.2-.3.5-.5.7-.8a5.24,5.24,0,0,1,1-1.1,6.22,6.22,0,0,1,1.9-1.1,1.19,1.19,0,0,1,1.3.2,1.35,1.35,0,0,1,.4,1.4c0,.2-.1.4-.1.6v.1a.85.85,0,0,1,.6.2,1.55,1.55,0,0,1,.3,1.1,4.87,4.87,0,0,1-.1,1.2c0,.4-.1.8-.1,1.2q0,1.05.3,1.2c.2.2.6.2,1.1.1a12.23,12.23,0,0,0,3.4-1.3c.2-.1.3-.2.5-.2a2.65,2.65,0,0,0,1.7-1.4c.1-.2.2-.2.4-.2h.1a2.08,2.08,0,0,0,1.6-1.4,106.7,106.7,0,0,1,8-16.3,32.89,32.89,0,0,1,4.1-5.2,11.93,11.93,0,0,1,2.9-2.1,1.36,1.36,0,0,1,1.5,0,1.43,1.43,0,0,1,.6,1.5,8.65,8.65,0,0,1-.6,2.3,55.65,55.65,0,0,1-7.1,11.2l-4.2,5.1c-1.1,1.3-2.3,2.7-3.4,4.1a9.15,9.15,0,0,0-.9,1.7l-.3.6c.3-.3.7-.5,1-.8l2.8-2.2c1-.7,2-1.5,3.1-2.3a1.93,1.93,0,0,1,1-.3c.4,0,.7.1.8.3a1.1,1.1,0,0,1,0,.8,9,9,0,0,1-1.5,1.9c-.2.2-.5.1-.8.1h-.4v-.1l-1.3,1.1c-1.8,1.5-3.7,3.1-5.6,4.6a2.19,2.19,0,0,0-.3.5.1.1,0,0,1-.1.1,10.3,10.3,0,0,0,7.7.2,47.77,47.77,0,0,0,9-4.9l.3-.2c.4-.3.8-.5,1.2-.8a.75.75,0,0,1,.5-.1h.4v.4a.9.9,0,0,1-.1.5.78.78,0,0,1-.4.4c-1,.6-2,1.2-2.9,1.7-2.4,1.4-4.8,2.9-7.3,4.2a9.88,9.88,0,0,1-6.9.6,4.11,4.11,0,0,0-1.7-.2c-.3.2-.5.7-.8,1.6a128.6,128.6,0,0,0-4.4,15.1.37.37,0,0,1-.1.3c-.1.5-.2.8.2,1.2a.35.35,0,0,1,.1.2,1.79,1.79,0,0,1-.6,1,.62.62,0,0,1-.7.1,1,1,0,0,1-.5-.6,4.29,4.29,0,0,1,0-1.6,81.74,81.74,0,0,1,3.5-13.4c.3-.9.6-1.8.9-2.6l.3-1c-.1-.1-.2-.1-.3-.2-.4-.2-.7-.4-.7-.6a2,2,0,0,1,.8-1.4,5.3,5.3,0,0,0,2.2-3.3c-.3.2-.5.3-.8.5a28.5,28.5,0,0,1-3,1.6,16.89,16.89,0,0,1-3.4.9,1.65,1.65,0,0,1-1.4-.3,2.13,2.13,0,0,1-.7-1.5,13.33,13.33,0,0,1,0-2V246l-.4.4c-.6.5-1.1,1.1-1.7,1.6l-.5.5a17.38,17.38,0,0,1-1.5,1.3,2.52,2.52,0,0,1-1.9.3c-.8-.2-.7-1-.6-1.5v-.3a2.92,2.92,0,0,1,.2-.9v-.1c-1.2.6-2.4,1.3-3.6,1.9-2.3,1.2-4.6,2.5-6.9,3.7-.4.2-.5.4-.3.9a14.27,14.27,0,0,1-.2,11.3,26.64,26.64,0,0,1-16.8,15C333.9,280,332.5,280.2,330.8,280.2Zm20-38.8-.1.4a3.46,3.46,0,0,1-.7,1.2c-.9,1-1.7,1.8-2.5,2.6a1.81,1.81,0,0,0,0,3c.7.7,1.4,1.5,2.1,2.3l.3.3a1.61,1.61,0,0,1,.4.7c.1.1.1.2.2.3l.1.2-.2.1c-.1.1-.3.2-.4.3a4.23,4.23,0,0,0-.7.5c-1.3.9-2.6,1.7-3.9,2.6-3,2-6.2,4.1-9.1,6.2a29.42,29.42,0,0,0-8.6,8.7,10.76,10.76,0,0,0-1.4,3.2,4.56,4.56,0,0,0,.5,4.2,4.8,4.8,0,0,0,3.9,1.7,16.76,16.76,0,0,0,4.7-.6,26.07,26.07,0,0,0,16.5-14.8,13.56,13.56,0,0,0,.1-11,.93.93,0,0,1,.5-1.4c2.3-1.2,4.6-2.5,6.9-3.7,1.2-.6,2.4-1.3,3.6-1.9.1,0,.2-.1.3-.1h.1l.3-.1-.1.3c0,.2-.1.3-.1.4-.1.3-.1.6-.2.8v.3c-.1.6-.1.9.3,1.1a2.06,2.06,0,0,0,1.5-.3,8.7,8.7,0,0,0,1.5-1.3l.5-.5c.6-.5,1.1-1.1,1.7-1.6l1.1-1v3.4a1.5,1.5,0,0,0,.5,1.2,1.8,1.8,0,0,0,1.1.3,9,9,0,0,0,3.3-.9,16.41,16.41,0,0,0,2.9-1.6c.4-.2.8-.5,1.2-.7l.4-.2-.1.5a6.41,6.41,0,0,1-2.5,4,2,2,0,0,0-.6,1.1,2.19,2.19,0,0,0,.5.3c.1.1.3.2.4.3l.1.1-.4,1.3c-.3.9-.6,1.7-.9,2.6a73.84,73.84,0,0,0-3.5,13.3,3.75,3.75,0,0,0,0,1.5c0,.2.1.3.2.3a.76.76,0,0,0,.4-.1,1,1,0,0,0,.4-.7c-.5-.5-.3-1-.2-1.5a.37.37,0,0,1,.1-.3,108.9,108.9,0,0,1,4.4-15.2c.7-2.1.8-2.1,3-1.6a9,9,0,0,0,6.6-.6c2.4-1.3,4.9-2.8,7.2-4.2,1-.6,1.9-1.2,2.9-1.7a.22.22,0,0,0,.2-.2.37.37,0,0,1,.1-.3h-.2c-.4.2-.8.5-1.2.7l-.3.2a48.91,48.91,0,0,1-9.1,5,10.67,10.67,0,0,1-8.2-.3l-.2-.1.1-.2a.37.37,0,0,0,.1-.3c.1-.2.2-.5.4-.6,1.8-1.5,3.7-3.1,5.6-4.6l1.7-1.4.1.4h.2c.1,0,.4.1.4,0a11,11,0,0,0,1.4-1.8.76.76,0,0,0,.1-.4.4.4,0,0,0-.5-.1,1.6,1.6,0,0,0-.8.3c-1.1.8-2.1,1.5-3.1,2.2l-2.8,2.2a10.59,10.59,0,0,0-1.2,1l-.1.1-.5-.3.1-.2c.1-.3.3-.5.4-.8a16.18,16.18,0,0,1,1-1.8c1.1-1.4,2.3-2.8,3.4-4.1,1.4-1.6,2.9-3.3,4.2-5.1a55.18,55.18,0,0,0,7.1-11.1,5,5,0,0,0,.5-2.1c0-.5-.1-.9-.5-1.1a1.08,1.08,0,0,0-1.1,0,11.76,11.76,0,0,0-2.8,2,38.42,38.42,0,0,0-4,5.2,101.42,101.42,0,0,0-8,16.2,2.92,2.92,0,0,1-1.9,1.7h-.2a3.27,3.27,0,0,1-1.9,1.6c-.2.1-.3.1-.5.2a11.66,11.66,0,0,1-3.5,1.3c-.7.1-1.1.1-1.4-.2a2.17,2.17,0,0,1-.5-1.6,4.87,4.87,0,0,1,.1-1.2c0-.4.1-.8.1-1.2s0-.7-.2-.8a.56.56,0,0,0-.6-.1H369l.1-.3c0-.1.1-.2.1-.3a1.09,1.09,0,0,0,.1-.5,1.07,1.07,0,0,0-.3-1.1,1.1,1.1,0,0,0-1-.1,6.37,6.37,0,0,0-1.8,1,9,9,0,0,0-.9,1,5,5,0,0,1-.7.8,6.1,6.1,0,0,1-1.5,1.3c-1.4.8-2.9,1.5-4.4,2.2l-3.6,1.8a25.43,25.43,0,0,0-2.8,1.6c-.4.2-.8.5-1.2.7l-.1.1-1.1-1.3-2.3-2.6a1.19,1.19,0,0,1,.1-1.8,4.62,4.62,0,0,0,.7-.7c.7-.7,1.4-1.3,2.1-2.1a5.11,5.11,0,0,0,1.1-1.6,1.26,1.26,0,0,0-.1-1.2,1.25,1.25,0,0,0-1.1-.4,8.35,8.35,0,0,0-2,.5c-.3.2-.6.3-.9.5a36.56,36.56,0,0,0-4.2,2.6,10.06,10.06,0,0,1-3.8,1.8,9.06,9.06,0,0,1-5.2.2,1.6,1.6,0,0,1-.7-2.3,1.42,1.42,0,0,0,.2-.6c0-.2,0-.6-.1-.7a.85.85,0,0,0-.7,0,4.3,4.3,0,0,0-1,.9l-.2.2a19.2,19.2,0,0,0-1.4,1.5,30.24,30.24,0,0,1-3.1,3.1c-4.3,3.6-9.4,5.9-13.9,7.8a29.84,29.84,0,0,1-14.1,2.8,21.3,21.3,0,0,1-2.5-.3c-.4-.1-.8-.1-1.1-.2h-.2v-.2a5.84,5.84,0,0,1,2-3.5,26.19,26.19,0,0,0,2.6-2.4c2.8-3,5.7-6,8.5-9.1,2.3-2.5,4.7-5,7-7.5l.5-.6a145.88,145.88,0,0,1,13.8-13.4c.7-.6,1.4-1.1,2.1-1.6a14.31,14.31,0,0,0,1.5-1.1.76.76,0,0,0,.2-.4c-.1-.2-.3-.4-.4-.4a2.92,2.92,0,0,0-1.4.5c-1.5,1.2-2.9,2.4-4.5,3.8-5.2,4.6-10,9.8-14.7,14.8l-1.4,1.5c-3.8,4.1-7.6,8.2-11.4,12.2l-.6.7c-.3.3-.7.6-1,.9-.2.1-.3.3-.5.4l-.1.1-.4-.3.2-.5a1.85,1.85,0,0,0,.2-.7c.5-1.4,1-2.7,1.5-4.1.7-1.9,1.4-3.9,2.1-5.8,2.7-7.5,5.5-15.4,9-22.8l.4-.8c1-2.2,2.1-4.4,3.1-6.7,0-.1.1-.1.1-.2.3-.6.4-1-.2-1.3h-.3a2.07,2.07,0,0,0-.9,1.1c0,.1,0,.1-.1.2s0,.1-.1.2-.1.4-.2.6c-.2.5-.3,1-.5,1.4l-.9,2.1c-.5,1.1-1,2.2-1.4,3.3l-1.1,3c-3.9,10.2-7.9,20.7-11.7,31a8.21,8.21,0,0,1-3.3,4.1,2.7,2.7,0,0,1-1.5.3c-.5,0-1.1-.1-1.6-.1a12.21,12.21,0,0,0-2.7-.1,2.65,2.65,0,0,0-2.4,2.1,1.65,1.65,0,0,0,.3,1.4,1.19,1.19,0,0,0,1.1.4,11.33,11.33,0,0,0,3-.6,9.46,9.46,0,0,0,2.4-1.4c.2-.1.4-.3.6-.4a1.34,1.34,0,0,1,1.7-.1l.1.1-1.3,3.6c-2.2,6-2.4,7.7-2.4,8.5a.62.62,0,0,0,.3.5c.2.1.3,0,.4-.1a2.06,2.06,0,0,0,.5-.9c-.4-.7-.3-.9.5-3.1.3-.9.7-2,1.3-3.7.3-1,.7-2.1,1.1-3.1.2-.5.3-1,.5-1.4l.1-.2h.2a21.9,21.9,0,0,0,9.9.2,53.68,53.68,0,0,0,23-11.2l1.4-1.2-.3.7a1.42,1.42,0,0,0-.2.6l-.3.9c-.1.5-.2.9-.3,1.3a1,1,0,0,0,.4,1.1,1.07,1.07,0,0,0,1.1.1,1.69,1.69,0,0,0,1-.7,6.85,6.85,0,0,0,1.9-3.3c.2-.6.5-.8,1.1-.7a12.39,12.39,0,0,0,6.7-.8c.1,0,.2-.1.3-.1a1.35,1.35,0,0,1,1.5,0,1.69,1.69,0,0,0,.5-.2,4.35,4.35,0,0,0,.7-.6,5.55,5.55,0,0,1,.8-.6,14.16,14.16,0,0,1,5.4-2.6Zm-19.5,38a8.75,8.75,0,0,1-1.6-.2,4.29,4.29,0,0,1-2.8-1.6,4.21,4.21,0,0,1-.3-3.2,9.43,9.43,0,0,1,1.2-3c2.4-4.2,6-7.1,9.6-9.7,2.9-2.1,6-4.1,9-6,1.3-.8,2.6-1.7,3.9-2.5.1,0,.1-.1.3-.1s.2-.1.3-.1l.2-.1.1.2.3,1.2a21,21,0,0,1,.6,2.4,15.11,15.11,0,0,1-1.9,9.3,27.07,27.07,0,0,1-14.7,12.6A12.25,12.25,0,0,1,331.3,279.4Zm19.4-26h-.1a.35.35,0,0,0-.2.1c-1.3.8-2.6,1.7-3.9,2.5-3,1.9-6,3.9-8.9,6-3.5,2.5-7.1,5.4-9.4,9.5a9.94,9.94,0,0,0-1.2,2.9,3.52,3.52,0,0,0,.3,2.9,4.12,4.12,0,0,0,2.5,1.5,10.59,10.59,0,0,0,5.4-.6,26.65,26.65,0,0,0,14.5-12.4,15.2,15.2,0,0,0,1.9-9.1,10.55,10.55,0,0,0-.6-2.4A4.65,4.65,0,0,1,350.7,253.4Zm-63.4,7.1a2.14,2.14,0,0,1-1.2-.4c-.1-.1-.1-.1-.1-.2a3,3,0,0,1,.4-1.7,3.57,3.57,0,0,1,3-.8,7.72,7.72,0,0,1,1.5.2c.2,0,.4.1.7.1h.1l.1.5-.1.1c-.2.2-.5.3-.7.5a8.18,8.18,0,0,1-3.6,1.8Zm-1-.6a1.64,1.64,0,0,0,1,.2,6.48,6.48,0,0,0,3.4-1.7,2.18,2.18,0,0,0,.5-.4.9.9,0,0,1-.5-.1c-.5-.1-1-.1-1.5-.2a3.58,3.58,0,0,0-2.7.7A6.8,6.8,0,0,0,286.3,259.9Zm43.6-9.6V250a6.43,6.43,0,0,1,1.1-3.2l.3-.6.1-.1,1.5.1v.2a4.29,4.29,0,0,1-2.7,3.8Zm1.8-3.8c-.1.2-.2.3-.3.5a6.34,6.34,0,0,0-1.1,2.8,4.17,4.17,0,0,0,2.2-3.2Zm33,1.7-.4-.4v-.1a9.38,9.38,0,0,1,3.7-4.8l.6-.5-.3.7c0,.1-.1.2-.1.3s-.1.4-.2.6a4.88,4.88,0,0,0-.3.7,5.56,5.56,0,0,1-.9,1.7,15.93,15.93,0,0,1-1.3,1.3c-.2.2-.4.3-.6.5Zm2.9-4.6a8.33,8.33,0,0,0-2.9,4c.2-.1.3-.3.5-.4a7.41,7.41,0,0,0,1.3-1.2,6,6,0,0,0,.8-1.6c.1-.2.2-.5.3-.7Zm14.3-1.3.2-.6a2247732400884.17,2247732400884.17,0,0,1,.2-.6,77.3,77.3,0,0,1,7.6-14.4,32.46,32.46,0,0,1,3.5-3.9l.7-.7a2.22,2.22,0,0,1,1.1-.5c.2,0,.3-.1.5-.2l.3-.1v.8a2.15,2.15,0,0,1-.2,1.1l-.3.7a44.49,44.49,0,0,1-2.6,4.8,111.49,111.49,0,0,1-9.6,12.7l-.3.3c-.1.1-.2.1-.3.2Zm13.4-20.4c-.1,0-.1,0-.2.1a1.88,1.88,0,0,0-.9.4,4.62,4.62,0,0,1-.7.7,31.68,31.68,0,0,0-3.4,3.9,74.54,74.54,0,0,0-7.5,14.1l.1-.1a93.84,93.84,0,0,0,9.6-12.6,44.49,44.49,0,0,0,2.6-4.8l.3-.7a2.48,2.48,0,0,0,.1-.9Z" transform="translate(-155.1 -111.9)"/></g></svg>