<svg id="Warstwa_1" data-name="Warstwa 1" xmlns="http://www.w3.org/2000/svg" viewBox="0 0 611 300">
  <title>logo_dlonie</title>
  <g>
    <path d="M557.54056,180.88429c-22.47734,7.63237-45.66087,15.35244-60.17864,20.04011-5.74152,1.8545-15.68946,5.16935-22.10644,7.36761-6.417,2.19781-13.32524,4.47973-15.35169,5.06981-5.15264,1.502-7.51064,2.76271-16.2728,8.70249a147.03027,147.03027,0,0,1-12.95562,7.8565c-10.47716,5.2644-29.19524,9.82314-48.90066,11.90911-4.84133.51212-31.50722,3.93507-36.08754,4.63189-31.584,4.8052-30.89682,4.783-43.59881,1.37566-4.3906-1.17851-9.50268-2.47531-11.36025-2.88309s-5.588-1.36756-8.28992-2.13275c-2.70191-.76564-6.985-1.8551-9.51805-2.42059-6.35682-1.41973-6.576-1.59664-5.31106-4.26279,2.18668-4.60746,4.24934-13.06993,4.958-20.3404.097-.99726.53978-1.9338.98313-2.08177,1.09426-.36475,12.92859,1.14958,14.21628,1.81957,1.00337.52127,1.51122,2.29961,3.13544,10.97886.52562,2.80633,1.02057,3.99144,1.66841,3.99144,1.22566,0,1.14156-1.90172-.5023-11.36025a112.51489,112.51489,0,0,1-2.13694-20.38762c-.06267-4.18184.08474-5.05871.821-4.88616a7.68085,7.68085,0,0,0,6.9924-1.53022c2.64356-2.19721,2.74363-3.96505.73258-12.99377-.80383-3.61-1.68134-7.946-1.9497-9.63469s-.52438-3.20856-.5692-3.37737-.42678-2.37951-.84929-4.91254a43.274,43.274,0,0,0-1.27847-5.83364c-.28065-.67553-.813-2.34938-1.18147-3.72009a56.34694,56.34694,0,0,0-3.05868-7.36881c-2.72275-5.56334-2.8247-5.37609,3.28712-6.03124a95.52271,95.52271,0,0,0,10.43915-1.63172c1.68869-.33462,3.623-.71781,4.29847-.85109.67546-.13253,3.59719-.87373,6.49314-1.64566l5.265-1.40369,6.40225,5.60517c9.27368,8.11916,14.52332,12.02409,15.60656,11.60837.51029-.19594.92785-.60552.92785-.91016,0-.30508-2.69453-2.64712-5.98716-5.20533a129.4159,129.4159,0,0,1-10.77014-9.53034c-2.63066-2.68355-5.394-5.025-6.14068-5.20309a73.765,73.765,0,0,1-8.72652-3.139c-3.28525-1.45781-10.67681-2.9501-13.044-2.63258-4.12408.55335-7.14037,1.06472-11.51868,1.95329-11.865,2.40965-29.53728,1.69243-41.14254-1.67025-7.63533-2.2119-12.38881-8.1259-10.9949-13.6795.94629-3.76986,14.34832-8.65287,30.338-11.05382,1.5198-.22848,3.316-.50118,3.99144-.60612s4.12959-.63805,7.67585-1.18451,10.17818-1.67714,14.73763-2.51159,10.77688-1.95824,13.81652-2.49675c9.27919-1.64506,14.44165-2.60064,21.431-3.96625,8.79038-1.71822,15.78582-1.71882,22.47487-.00315,6.729,1.72617,13.4843,3.66237,15.04466,4.312.67546.28125,3.43876,1.27236,6.14068,2.20216,5.02183,1.72856,16.2126,5.9993,18.422,7.03045.67546.31558,5.37309,2.34818,10.43915,4.51766,20.04446,8.58286,21.28174,9.16859,20.45763,9.69121a4.969,4.969,0,0,1-2.18912.522c-1.72309.01154-1.7937,1.29875-.12893,2.33828,1.06233.66384,2.80693.39788,11.51377-1.75315,12.92361-3.19312,35.864-12.14868,53.65477-20.94592,6.86771-3.39566,14.97345-7.26867,18.01305-8.60609,8.16031-3.58981,10.65286-4.89725,10.98508-5.76183a.79465.79465,0,0,0-.43109-1.04448c-1.01443-.3727-14.38577,5.52721-29.97268,13.2245-11.327,5.59422-33.50417,14.92862-42.29512,17.80257-5.91962,1.93545-14.25684,3.69175-14.64917,3.08623-.21738-.33582-5.36942-2.75536-11.44871-5.37684-6.07929-2.62073-12.15853-5.25571-13.50949-5.85508-10.68479-4.73819-26.85317-10.96972-35.03811-13.50334-2.34451-.72576-4.81491-1.55421-5.49037-1.8404-3.65555-1.55106-11.19137-3.28023-16.74931-3.84332-5.66907-.57479-6.88491-.50673-11.97432.673-3.11516.72216-8.842,1.8545-12.72594,2.517-3.884.662-10.79225,1.90727-15.35169,2.76765-13.22026,2.495-29.44208,5.12678-33.77373,5.48a144.90228,144.90228,0,0,0-20.57127,4.07674c-3.11947.85664-4.888,1.03714-6.44771.65769-4.56252-1.1115-11.838-3.254-13.72687-4.043a99.18649,99.18649,0,0,0-13.90618-3.69c-7.25952-.72276-31.72213-5.95583-42.98474-9.19632-2.87076-.8253-7.01572-1.94415-9.211-2.48506-5.31354-1.30924-13.91169-3.83433-16.57983-4.86772-1.18207-.45815-6.57053-2.40665-11.97432-4.33041-5.40379-1.92331-10.69581-3.88275-11.76-4.35439a10.003,10.003,0,0,0-2.794-.85664,2.52393,2.52393,0,0,1-1.44244-.51392,47.27633,47.27633,0,0,0-6.11-2.53558c-3.03964-1.11135-6.98562-2.67605-8.76887-3.47737a34.72274,34.72274,0,0,0-3.5346-1.456c-.37641,0-11.2534-4.19218-12.87331-4.96172A27.19911,27.19911,0,0,0,81.638,52.7702c-1.01319-.30763-3.362-1.15333-5.21958-1.87908s-4.20635-1.57145-5.21958-1.87908a27.73408,27.73408,0,0,1-3.07034-1.13788c-.67546-.31858-3.16243-1.31464-5.52661-2.2143-8.58589-3.26553-19.16567-7.35952-21.49237-8.3163-11.34369-4.66383-11.604-4.74238-12.25557-3.68815-.34815.56384,1.90791,2.4981,2.91375,2.4981a24.90585,24.90585,0,0,1,3.87293,1.53517,32.0651,32.0651,0,0,0,3.70592,1.53517,13.15843,13.15843,0,0,1,2.28431.87807c1.72.78048,6.88188,2.85116,14.21628,5.70231,1.351.52562,3.28529,1.30175,4.29847,1.72617,1.01323.42367,7.64515,2.90513,14.73763,5.51372,7.09248,2.609,13.72444,5.0887,14.73763,5.51057,1.01323.42127,2.94752,1.1962,4.29847,1.72182,7.24539,2.81683,12.41831,4.86352,13.50949,5.34491,1.82009.80252,11.49844,4.47343,17.808,6.75415,3.03964,1.09846,6.39738,2.37891,7.46154,2.845a10.29086,10.29086,0,0,0,2.67058.84734,10.14765,10.14765,0,0,1,2.67058.86458c4.46245,1.99452,14.10085,4.84253,32.02425,9.46288,20.09232,5.18015,30.69417,7.52833,38.0722,8.43354A144.32761,144.32761,0,0,1,227.47913,99.696c1.18207.48319,3.91037,1.35152,6.06268,1.93006l3.91408,1.05123-2.821,2.50724c-3.29694,2.93151-3.83976,4.63069-2.89658,9.07534a17.18151,17.18151,0,0,0,7.01021,10.37888c2.28986,1.43382,2.76087,2.17877,4.66015,7.36881,1.16243,3.176,4.71053,11.01574,7.88525,17.423,3.17476,6.40663,6.59756,13.8675,7.60647,16.57983l1.83482,4.931-.37888,10.74619c-.20753,5.9104-.50965,12.68044-.66995,15.04466s-.568,8.30521-.90514,13.20246c-1.5499,22.51662-5.52414,43.54484-9.74278,51.551a8.79059,8.79059,0,0,1-2.07124,2.08657c-2.85236,2.129-6.16526-.24317-8.07317-5.78132-.88362-2.56436-.86458-2.6774.86646-5.12873,1.82564-2.5846,1.91713-3.03046,3.65986-17.85774.35677-3.03961.79213-7.04649.96713-8.904s.58521-6.00245.91252-9.211c.62389-6.12838,1.362-28.92325,1.34174-41.44957-.01042-6.38445-.22106-7.922-1.57632-11.512-1.64753-4.36474-4.6018-9.69915-10.0572-18.16042-7.54321-11.70042-12.15422-22.62156-12.818-30.36127-.4532-5.284-.62021-5.70651-1.85573-4.68167-.80626.66924-.91863,1.5788-.60792,4.92229.75409,8.10881,5.52537,19.90323,12.21134,30.18452,5.86621,9.02062,7.09862,11.11709,9.2835,15.792a36.23029,36.23029,0,0,1,2.49615,6.75475c.4188,2.62268.4845,16.46559.08107,17.11834-.159.258-.33713,6.39059-.39485,13.62808-.05772,7.23793-.3242,14.81738-.592,16.84384s-.64784,5.58988-.84494,7.919-.64724,6.7504-.9997,9.82508c-1.89625,16.53006-2.25673,17.76374-5.27977,18.05848-1.60271.15667-2.28739-.24437-4.1996-2.45627-2.70251-3.12686-3.01326-3.857-5.02307-11.80236-1.42955-5.65254-1.55114-7.27976-1.6936-22.72051-.08414-9.14715-.31749-17.32223-.51767-18.16657-.20082-.84434-.541-3.46942-.75717-5.83364-.21551-2.36422-.77617-6.90092-1.2453-10.08175-.92234-6.25671-1.68258-7.71213-7.725-14.788-1.58614-1.8575-4.36358-5.32827-6.172-7.71333s-5.895-7.77344-9.08081-11.97432c-8.89353-11.728-18.24333-20.57982-20.357-19.27372-1.03163.63746-.57906,2.14069.81916,2.72088,1.7108.70987,5.90917,4.26969,5.06179,4.29233a14.8121,14.8121,0,0,1-2.67673-.57344c-3.03721-.87133-18.718-3.00647-24.03095-3.27243-5.19132-.25966-12.32494.891-14.546,2.34638-3.37737,2.2131-5.08263,7.47436-3.87537,11.95828.8075,2.99853,5.39888,8.27462,7.70347,8.85316.829.20809,1.50691.79817,1.50691,1.31224,0,1.60638,2.3574,5.64265,4.42313,7.5733a24.30082,24.30082,0,0,0,9.39339,4.99665c1.351.39669,3.49281,1.16052,4.759,1.69783,2.10689.89412,2.30275,1.18271,2.30275,3.40136,0,3.29507,2.13451,7.31964,5.88031,11.08635a40.05975,40.05975,0,0,1,5.48733,7.43823c2.4882,4.5226,6.77071,11.13672,8.04858,12.43187,3.596,3.64438,8.21683,16.20578,8.21683,22.33791,0,5.10354-.72336,7.13239-2.82961,7.93311-1.91405.72771-3.88279-.54525-8.28377-5.35645-3.96258-4.33236-11.55616-11.74959-15.39225-15.03552-3.45166-2.9561-3.782-3.39027-10.4465-13.714-4.14619-6.42253-9.51869-13.04894-18.87584-23.283-7.12564-7.79308-7.776-9.12436-9.61509-19.70174-1.95888-11.26446-10.702-35.3089-12.8389-35.3089-1.29387,0-1.57018.79277-.73322,2.10006,1.2441,1.94415,4.83762,10.87512,4.50787,11.20494-.15966.15966-1.4836-.31873-2.94261-1.06293-7.53953-3.84647-24.55413-8.64432-36.76671-10.36674-9.09925-1.28406-21.72692-2.88549-27.0466-3.43014-1.8723-.1922-5.87907-.72216-8.904-1.17776-3.44675-.51947-5.72619-.61287-6.10815-.25051-.80135.76084.73074,1.73216,2.7584,1.7488a18.82572,18.82572,0,0,1,3.68441.57359,51.06089,51.06089,0,0,0,6.14068.94809c2.1953.21363,7.58376.90881,11.97432,1.54431,4.3906.63626,9.64087,1.32393,11.66729,1.52842,3.48606.35186,5.79065.69952,13.89021,2.09527,9.76246,1.68254,26.10219,7.26687,31.03808,10.60856,2.13263,1.44312,2.7639,2.37037,3.79921,5.57578a117.74324,117.74324,0,0,1,4.105,16.73949c1.47745,8.38256,2.72586,10.48338,13.13739,22.10644,9.66175,10.78666,11.97492,13.79374,18.11069,23.54956,3.89628,6.194,5.78331,8.27267,12.14812,13.378a76.81821,76.81821,0,0,1,8.59695,8.62453,56.84,56.84,0,0,0,6.87326,7.057c4.191,3.03781,8.81617,1.91956,10.03261-2.42629a41.5235,41.5235,0,0,0,.45257-7.19806c-.02208-7.95215-1.77526-12.88808-7.78023-21.90435-5.06359-7.60284-8.04858-12.80952-7.60029-13.25838.14921-.14857,2.56864.622,5.37677,1.71327,2.80873,1.09111,5.78327,2.24309,6.60981,2.56061.86278.331,1.22874.75529.85971.99546-2.13818,1.3896-2.73445,7.1231-1.13912,10.94258a27.51234,27.51234,0,0,0,4.97742,6.1367,77.35281,77.35281,0,0,0,11.74983,9.43743c3.74646,2.37208,9.48118,3.52189,9.7919,8.97015.63187,11.07975,6.68781,23.77308,11.93564,25.01786,1.32513.31438,1.66534.81781,1.94044,2.86945a11.29938,11.29938,0,0,0,6.28438,8.10207c2.29968,1.11765,2.89595,1.18631,4.50173.52127,2.57726-1.06787,4.70254-4.40777,7.09615-11.15382,1.12683-3.17543,2.32858-6.46435,2.67058-7.3087a18.2619,18.2619,0,0,0,.84929-2.70244,1.9871,1.9871,0,0,1,1.642-1.383c1.63528-.24872,4.80078-1.79678,5.28835-2.5852.18425-.29774,1.50571-.20074,2.95614.21678,1.44244.41573,6.35315,1.66725,10.9126,2.78175s12.573,3.25579,17.808,4.75783c5.23494,1.50264,10.62337,2.96585,11.97432,3.25264,3.30369.70072,11.437.69637,15.96576-.00855,2.02642-.315,4.65157-.72711,5.83364-.915,4.84253-.77133,29.74544-4.17944,47.48523-6.49868,20.43619-2.67185,29.6601-4.35439,40.098-7.31289,7.601-2.15538,18.91639-7.47571,24.766-11.64585,8.67-6.18056,13.00172-8.53983,19.23939-10.47843,3.44858-1.07162,11.10539-3.62429,17.01579-5.67218s15.02929-5.0863,20.26424-6.7516c22.59278-7.18651,36.93739-11.94,43.266-14.33734,7.27669-2.756,20.11379-7.13914,28.57994-9.75687,8.49868-2.62823,10.43915-3.45788,10.43915-4.46129C581.18217,173.04338,578.51466,173.763,557.54056,180.88429ZM148.79,150.98417a13.77011,13.77011,0,0,1-3.26928-2.5035,9.3183,9.3183,0,0,1-3.448-5.77413c-.67179-3.00153-.62512-3.4198.565-5.09125,3.03593-4.26414,6.60981-5.13112,19.122-4.63984,4.21373.16506,7.82138.39908,8.01669.52007a15.02643,15.02643,0,0,0,2.7774.54226c1.33255.17735,3.52782.47149,4.87877.65455,1.351.18245,4.3249.80746,6.60861,1.3878,4.07555,1.03654,4.22172,1.14523,7.85391,5.83125,2.03564,2.62568,3.47868,4.77432,3.20665,4.77432-.27143,0-4.08169-.80132-8.46738-1.78014-10.28564-2.29661-13.42228-2.69464-20.76467-2.63437-9.12384.07556-13.78216,2.08837-15.73365,6.799C149.70008,150.12258,149.0946,150.98417,148.79,150.98417Zm22.26239,15.97925-3.95643-1.29875c-5.88645-1.93245-10.89416-4.93038-13.15148-7.87479-2.31074-3.01322-2.4716-4.69336-.77066-8.02831,2.36786-4.64059,8.48215-5.97367,21.18841-4.6196a83.10551,83.10551,0,0,1,11.58255,2.17982c1.30489.3784,3.65371.92485,5.21958,1.21524,6.44831,1.1938,7.27856,1.7581,12.581,8.55092,2.75289,3.52594,5.94174,7.47076,7.08637,8.76651,2.14125,2.42314,2.2616,3.49641.27386,2.436-1.81394-.96668-14.27584-4.9845-18.62529-6.0044-5.25335-1.23248-12.69217-1.18091-15.91786.10989a12.00732,12.00732,0,0,0-4.01108,2.78609Zm19.58263,21.63c-11.20917-4.38078-15.32958-7.6655-17.45-13.91052-2.20081-6.482,1.68134-10.76583,9.77411-10.78487a56.51413,56.51413,0,0,1,7.58189.62321c3.69179.59938,12.31021,3.27978,19.74413,6.14128,1.85757.71481,3.97607,1.48495,4.70745,1.71027,3.56219,1.09981,4.86281,5.69362,6.06883,21.4426.31809,4.1517.24377,5.68013-.27757,5.68013a23.13625,23.13625,0,0,1-4.55206-2.11,40.35445,40.35445,0,0,0-7.80972-3.12491A121.86709,121.86709,0,0,1,190.63506,188.59342Zm31.02515,34.23668c-1.08077,0-7.32766-3.62174-11.06795-6.41638-6.43973-4.8124-11.08883-9.27308-12.27952-11.78153-1.21153-2.55327-.98189-7.40314.39178-8.27327,1.28158-.81241,5.41117-.63446,8.8174.37944,3.63958,1.08256,4.23094,1.33008,9.82508,4.10748l4.29847,2.13395.18852,9.92508C221.93779,218.364,221.85919,222.83009,221.66021,222.83009Zm64.95734-10.11068a58.202,58.202,0,0,0-11.04895-1.55286c-2.54038-.00375-2.56864-.02774-2.32978-1.99947.13264-1.09741.68224-5.72615,1.22079-10.28564s1.12-9.46408,1.2926-10.8997c.31318-2.60679.31625-2.60979,2.88549-2.60124a19.72429,19.72429,0,0,1,3.83609.34766,5.38674,5.38674,0,0,1,2.39979,2.44818c.62449,1.15947,1.32944,2.10816,1.5665,2.10816s.47772,2.28.53607,5.06606c.05772,2.78609.22353,5.89511.36906,6.90826s.42922,3.87975.63,6.36975l.36535,4.527Zm-10.14074-31.4218c.09827-.63.34144-2.3194.54038-3.755.19834-1.43562.54406-2.60979.76758-2.60979s1.15445,1.526,2.06941,3.39087a26.75351,26.75351,0,0,1,1.6635,3.83792c0,.24572-1.17409.40958-2.60979.36415C276.72921,182.45634,276.327,182.253,276.47682,181.29762Zm10.3968-53.27952c3.63958-.56984,7.585-1.27791,8.767-1.57385a25.44564,25.44564,0,0,1,9.63289.34991,99.731,99.731,0,0,1,9.56471,3.92143c.87013.72216-8.39,3.08758-18.89057,4.82544l-10.43915,1.72737-1.68745-2.81368c-.92785-1.54746-2.10932-3.39581-2.62639-4.10748C280.26561,129.06692,280.3252,129.04234,286.87362,128.01809Zm-17.06006,1.51613,7.88772-.02279,2.13387,2.60424c2.71421,3.31291,9.16986,16.10519,10.76092,21.32476a52.03538,52.03538,0,0,1,1.63468,7.67585c.42922,3.78875,2.72954,15.09069,4.34206,21.32971,1.22015,4.72155,1.15078,5.96812-.42495,7.64571-3.75071,3.99144-8.10506-.6424-14.3876-15.31062a52.95937,52.95937,0,0,1-3.92758-17.91966c0-5.24356-1.4707-8.76276-6.17692-14.78125-2.37644-3.03961-5.53827-7.10106-7.02554-9.02557l-2.70375-3.49836Zm-4.26223,104.87231c0,1.30489-3.76057,6.04113-5.402,6.80377-1.99265.926-2.105.85919-1.7292-1.03279.18481-.92845.50965-3.76117.72276-6.29419a38.36654,38.36654,0,0,1,.60545-4.96037c.20449-.333.49863-2.5792,1.19991-9.16319.649-6.0915.89408-9.94172,1.23365-19.36277.19467-5.41432.47468-10.79281.62145-11.95228.14673-1.15872.40774-5.599.58026-9.86676.38934-9.6188.09153-10.71245-6.7492-24.80408-5.89013-12.13279-11.34736-24.61983-11.34736-25.964,0-.69877.46853-.8247,1.99572-.53551,1.098.20764,4.0688.68048,6.60247,1.05078l4.60734.67239,3.21771,4.39232c1.76975,2.41519,4.73691,6.32613,6.59384,8.69035,6.21376,7.91047,6.69028,9.01028,6.96478,16.07505.25482,6.53436-.26959,13.14174-2.71912,34.2785-.50845,4.39052-1.327,11.98961-1.81885,16.88686s-1.0353,9.84712-1.20726,11.00045c-.53671,3.59041-2.80566,11.99816-3.40316,12.61043A2.42281,2.42281,0,0,0,265.55133,234.40653Z" fill="#da9c3a"/>
    <path fill="#da9c3a" d="M407.35,178.84254c-.14062.12353-4.12468.41632-8.853.65095a170.19482,170.19482,0,0,0-27.019,3.13975c-10.53619,1.96064-24.769,6.63136-32.89929,10.79536-2.55822,1.31029-5.3909,2.38251-6.29419,2.38251-1.26621,0-1.642.29909-1.642,1.30924,0,1.15872.26344,1.273,2.30275.99351a34.28585,34.28585,0,0,0,7.27425-2.75161c15.18836-7.445,34.55361-11.95408,57.35638-13.356,8.71115-.53551,13.74224-1.004,14.26786-1.32888a1.52455,1.52455,0,0,0,.46977-1.17536c0-.61647-.71354-.88482-2.35373-.88482A9.22371,9.22371,0,0,0,407.35,178.84254Z"/>
  </g>
</svg>
