<?xml version="1.0" encoding="utf-8"?>
<!-- Generator: Adobe Illustrator 21.1.0, SVG Export Plug-In . SVG Version: 6.00 Build 0)  -->
<svg version="1.1" id="Warstwa_1" xmlns="http://www.w3.org/2000/svg" xmlns:xlink="http://www.w3.org/1999/xlink" x="0px" y="0px"
	 viewBox="0 0 800 897.5" style="enable-background:new 0 0 800 897.5;" xml:space="preserve">
<path fill="#fff" d="M714.5,192.2c-17.1,31-46.8,95.8-68.1,149c-13.3,33.1-12.1,30.8-14.9,29.1c-3.2-2-4.6,0.5-4.8,8.4
	c-0.1,3.4-0.5,9.5-1.1,13.5c-0.5,4.1-0.5,13.7,0,21.5c0.5,7.8,0.5,27.7-0.1,44.2c-1.2,34.7-4.3,53.3-11.9,71.2
	c-6.3,15-22.7,50.2-29.8,63.9c-13.2,25.8-16.1,33.9-36.4,101.4c-3.6,11.9-7.2,17.6-12.9,20.5c-6.2,3.1-10.7,2.6-19-1.9
	c-5.9-3.3-8-5.2-10.5-10.1c-7.1-13.8-10.1-31-10.1-58.3c0-24.9,1.7-34.9,10.1-57.1c9.5-25.1,10.1-54.8,1.4-59.5
	c-5-2.7-6.8,1.5-2.4,5.3c2.5,2.1,2.6,3.1,2,17.2c-0.6,14.8-2.8,26.6-5.1,26.6c-0.6,0-0.8-0.3-0.4-0.8c0.4-0.4-0.9-2.1-2.9-3.8
	c-2-1.7-7.6-8.9-12.5-16.1c-22.6-33.3-37.4-48.1-71.7-71.8c-5.5-3.8-10.6-6.9-11.2-6.9c-0.6,0-1.9-0.9-2.8-1.9
	c-1.2-1.5-1.3-2.5-0.2-4.2c0.8-1.2,4.2-7.9,7.7-14.7c12.8-25.4,16.3-30.9,77.6-124.7c8.9-13.7,14.9-25.9,17.4-35.9
	c1.1-4.2,9.9-31.6,19.7-60.9c20.4-61.4,46.1-145.2,46.1-150.6c0-2.5-0.6-3.7-1.9-3.7c-1,0-2.1,0.7-2.3,1.5
	c-7.1,25.7-29.9,98.5-51.4,163.6l-22.3,67.5l-9.4,14.1c-44.5,67-62,95.1-76.1,122.2c-5.6,10.8-10.6,20.1-11.2,20.7
	c-1.6,1.8-58.1-29.7-77.5-43.2c-5.8-4-10.9-9.7-17.6-19.8c-2-2.9-8.1-9.6-13.6-14.7c-13.2-12.4-16.7-17.8-48-75.1
	c-13.2-24.1-41.3-82.3-44.4-92.1c-4.7-14.4-8.5-22.7-10.7-23.2c-1.7-0.4-2,0.2-1.3,3.3c3.5,17.7,40.4,95,69.5,145.6
	c18.6,32.4,21,35.9,29.8,43.4c6.5,5.5,14,14.3,21.5,25.2c6.3,9.1,22.2,19.6,68.5,44.9c33.2,18.1,42,23.5,54.7,33.3
	c24.8,19.1,29.7,23.9,45.3,44.4c12.2,16,28.4,40.6,28.6,43.4c0.2,3.2-8.3,28.5-9,26.7c-0.2-0.7-6.5-7.5-14-15.1
	c-15.2-15.5-23.1-24.8-28.1-32.7c-2.5-3.9-3.7-5-4.7-4c-1,1-0.8,2.4,0.6,5.4c2.7,5.7,16.8,22.9,30.7,37.3c14.4,15,15,16.6,13.7,36.7
	l-1,14.2l-11.7-8.1c-16.6-11.6-45.1-33.6-51.3-39.6c-2.9-2.8-5.8-5.1-6.4-5.1c-1.6,0-1.6,3.2,0.1,6.3c1.8,3.4,34.7,29.4,54.4,43
	c12.9,8.9,16.7,12.1,16.7,14.2c0.1,5.4,6.4,30.5,8.8,35c1.4,2.5,2.2,4.6,1.8,4.6c-1.3,0-32-14.4-60.3-28.2
	c-16.2-7.9-36.9-18.9-45.9-24.4c-13.6-8.2-16.8-9.7-18.8-8.7c-1.3,0.7-2.2,1.9-1.9,2.7c1.3,4.1,60.5,34.7,115.1,59.7
	c10.5,4.8,19.9,9.2,20.9,9.9c4.5,2.9,14.4,7.8,17.2,8.5c10.6,2.6,21.4,10.2,31,15.1c8.7,4.4,19.4,7.7,26.1,15.3
	c12.2,13.7-2.8,17.2-15.3,14.1c-36.8-9.2-90.3-25.8-114.2-35.4c-11.7-4.7-111.5-49.6-117.6-52.9c-7.9-4.3-21.6-16.9-28.7-26.6
	c-4-5.4-8.1-11-9.2-12.4c-1-1.4-7.5-11-14.5-21.5c-6.9-10.5-21.5-32.3-32.4-48.5c-23.9-35.6-38.5-59.5-56.6-92.3
	c-14.9-27-19.8-35.1-38.1-62.7c-12.7-19.2-44.7-72.4-61-101.4c-5.2-9.3-10-16.9-10.6-16.9c-1.8,0-2.7,3.5-1.4,5.2
	c0.7,0.8,6.8,11.5,13.5,23.6c16.4,29.6,43.4,74.5,58,96.4c15,22.6,23.9,37,31.3,51C201,504,223,540,252.2,583.7
	c14,20.9,31.8,47.7,39.6,59.6c7.8,11.8,16.9,24,20.1,27.1c13.7,13,16.3,14.5,52.3,30.7l12,5.4l6.1,11.9
	c5.3,10.4,11.6,25.4,18.9,45.5c4.2,11.4,20.1,32.1,54.9,71.3c13.8,15.5,17.6,19.1,22.1,20.8c3,1.1,7,1.8,8.8,1.6
	c5-0.5,13.1-7.5,15.7-13.6c1.3-2.9,2.6-5.3,3-5.3c0.4,0,4,1.7,8,3.7c12.5,6.3,22.2,4.3,29.1-6c5.3-7.9,3.4-17.7-6.5-33.4l-2.8-4.5
	l2.4-4.7c2.8-5.6,3-11,0.5-20.1c-1-3.7-1.8-6.8-1.8-6.9c0-0.1,2.9,0.7,6.4,1.7c3.5,1,10,2.5,14.4,3.4c4.4,0.9,11.1,2.2,15,3
	c11.3,2.2,20-1.4,22.4-9.4c2.7-8.8-14-22.4-43.7-35.5c-4.3-1.9-9.1-4.3-10.7-5.2l-2.8-1.8l3.5-1.5c7.2-3.1,10.6-9.7,16.3-31.9
	c6-23,16.5-55.7,21.9-68.4c2.7-6.3,11-24.1,18.5-39.5c32.9-67.8,35.8-79.6,35.7-144.9l-0.1-37.1l4.2-13.5
	c12.7-40.7,60.3-148.7,87-197.4c4.7-8.6,8.2-16.2,7.8-16.9C728.5,168.4,725.6,172.1,714.5,192.2z M503.6,757
	c5.3,1.7,12.7,4,16.6,5.1c7.7,2.3,9.2,4.5,12,17.1c1.3,5.7-0.2,13.9-2.5,13.9c-0.6,0-6.2-5.9-12.6-13.2
	c-6.4-7.3-14.2-16.1-17.3-19.6L494,754L503.6,757z M479.9,849.6c-3.2-1.1-7.8-5.4-17.4-16.4c-7.2-8.2-16.4-18.5-20.6-22.9
	c-17.6-18.5-31.7-39.3-40.6-63.2c-2.5-6.7-7.1-17.2-10.2-23.3c-3.1-6.1-5.9-11.5-6.1-12c-0.5-1.1,20.7,7.5,44,17.7
	c15.8,7,17.8,8.2,18.2,11c0.3,2.7,0,3.1-2.1,2.5c-1.4-0.4-2.5-0.1-2.5,0.5c0,1.8,6.5,10.2,11,14.5c11.5,10.7,36.2,45.6,41.2,58.3
	C502.6,836.5,494.6,854.5,479.9,849.6z M535.6,815.2c3.4,5.5,4,7.7,3.6,11.5c-0.8,6.2-3.7,10.3-8.9,12.8c-4.2,2-4.3,2-13.9-2.7
	l-9.7-4.7l-2.1-7.5c-4.2-15.2-16.4-34.8-40.1-64.1c-7.2-8.9-11.7-19.9-7.5-18.3c1.1,0.4,5.4,1.8,9.4,3.1c4.1,1.3,10,3,13.3,3.8
	c4.6,1.1,6.3,2.2,7.9,5.2c2.3,4.5,13.3,18.5,21.3,27.2C518.2,791.6,531.1,807.9,535.6,815.2z"/>
</svg>
