<svg xmlns="http://www.w3.org/2000/svg" viewBox="0 0 1507.75 290.34"><defs><style>.cls-1{isolation:isolate;}.cls-2{opacity:0.35;mix-blend-mode:multiply;}.cls-3{fill:#c08c6f;}</style></defs><g class="cls-1"><g id="Warstwa_1" data-name="Warstwa 1"><g class="cls-2"><path class="cls-3" d="M1505.86,9.51A981,981,0,0,0,938.61,94.62c-45.89,21.91-90.43,46.62-137.09,66.92-48.09,20.91-98.39,36-149.17,48.84C602.26,223,551.73,234.09,501.24,245c-50.81,11-101.83,21.18-153.28,28.78-102.67,15.15-208.37,20-310.44-2.05q-18.62-4-36.95-9.23A1.25,1.25,0,0,0-.1,265c98.15,27.64,201,28.84,301.77,17.43,102.21-11.57,202.86-34.84,303-58,49.8-11.5,99.48-24,147.74-40.94,47.81-16.82,93-39.32,138.14-62.19,45.49-23,91.34-44.88,139.37-62.18A981.36,981.36,0,0,1,1466.71,6.93q19.3,2.1,38.49,5c1.57.23,2.25-2.18.66-2.41Z" transform="translate(0.98 1.18)"/></g></g></g></svg>